<svg width="24" height="24" viewBox="0 0 24 24" fill="none" xmlns="http://www.w3.org/2000/svg">
<g clip-path="url(#clip0_1149_9097)">
<path fill-rule="evenodd" clip-rule="evenodd" d="M2 2.46667C2 2.20893 2.20893 2 2.46667 2H21.5333C21.7911 2 22 2.20893 22 2.46667V17H21.0968L16.5802 8.62531C16.5566 8.58161 16.5298 8.53972 16.5 8.5C16.2671 8.18951 15.9652 7.9375 15.618 7.76393C15.2709 7.59036 14.8881 7.5 14.5 7.5C14.1119 7.5 13.7291 7.59036 13.382 7.76393C13.0348 7.9375 12.7329 8.18951 12.5 8.5C12.4676 8.54318 12.4388 8.58891 12.4138 8.63675L10.7445 11.8302L10.6801 11.7659C10.4268 11.5126 10.122 11.3166 9.78637 11.1914C9.45072 11.0661 9.09208 11.0145 8.73472 11.0399C8.37737 11.0654 8.02966 11.1673 7.71515 11.3389C7.40064 11.5104 7.12667 11.7476 6.91181 12.0343C6.89777 12.053 6.8844 12.0722 6.87171 12.0919L3.70511 17H2V2.46667ZM6.08524 17H18.8245L14.8648 9.65809C14.8245 9.61502 14.7767 9.57932 14.7236 9.55279C14.6542 9.51807 14.5776 9.5 14.5 9.5C14.4224 9.5 14.3458 9.51807 14.2764 9.55279C14.2248 9.5786 14.1781 9.61308 14.1385 9.6546L11.8862 13.9633C11.7388 14.2453 11.4659 14.4403 11.1513 14.4885C10.8367 14.5366 10.5179 14.4322 10.2929 14.2071L9.26589 13.1801C9.21523 13.1294 9.15424 13.0902 9.08711 13.0652C9.01998 13.0401 8.94825 13.0298 8.87678 13.0349C8.80531 13.04 8.73577 13.0604 8.67286 13.0947C8.6175 13.1249 8.56841 13.1652 8.52814 13.2136L6.08524 17ZM4.25 19H2V21.5333C2 21.7911 2.20893 22 2.46667 22H21.5333C21.7911 22 22 21.7911 22 21.5333V19H20.5H4.25ZM0 21.5333V18V2.46667C0 1.10436 1.10436 0 2.46667 0H21.5333C22.8956 0 24 1.10436 24 2.46667V18V21.5333C24 22.8956 22.8956 24 21.5333 24H2.46667C1.10436 24 0 22.8956 0 21.5333ZM5.5 6.375C5.5 5.89175 5.89175 5.5 6.375 5.5C6.85825 5.5 7.25 5.89175 7.25 6.375C7.25 6.85825 6.85825 7.25 6.375 7.25C5.89175 7.25 5.5 6.85825 5.5 6.375ZM6.375 3.5C4.78718 3.5 3.5 4.78718 3.5 6.375C3.5 7.96282 4.78718 9.25 6.375 9.25C7.96282 9.25 9.25 7.96282 9.25 6.375C9.25 4.78718 7.96282 3.5 6.375 3.5Z" fill="black"/>
</g>
<defs>
<clipPath id="clip0_1149_9097">
<rect width="24" height="24" fill="white"/>
</clipPath>
</defs>
</svg>
