<svg width="24" height="24" xmlns="http://www.w3.org/2000/svg">
    <path d="M11.9996215.001954886c1.0045897 0 1.900619.631802764 2.238 1.578045114l.45 1.265c.1302026.36649791.4095301.66070952.7687813.80974638.3592513.14903685.7648159.13895554 1.1162187-.02774638l1.213-.577c.9076556-.43051868 1.9879856-.24367922 2.6983324.46666756.7103468.71034677.8971863 1.7906768.4666676 2.69833244l-.576 1.213-.0554451.13406001c-.112203.3178532-.1041391.66781896.0259727.98242273.1486993.35954718.4428647.63919279.8094724.76951726l1.266.449c.9464861.3368765 1.5786215 1.2328499 1.5786215 2.2375 0 1.0046501-.6321354 1.9006235-1.5786215 2.2375l-1.266.451c-.3663403.1303593-.6602919.4098372-.8089666.7691345-.1486748.3592973-.1381493.7647658.0289666 1.1158655l.576 1.213c.4305187.9076556.2436792 1.9879857-.4666676 2.6983324-.7103468.7103468-1.7906768.8971863-2.6983324.4666676l-1.213-.576c-.3510997-.1671158-.7565682-.1776413-1.1158655-.0289666-.3592973.1486747-.6387753.4426264-.7691345.8089666l-.45 1.266c-.337381.9462424-1.2334103 1.5780451-2.238 1.5780451-1.0045898 0-1.900619-.6318027-2.23800002-1.5780451l-.45-1.265c-.12988889-.3667223-.40925755-.6611248-.76867474-.8100398-.35941719-.1489151-.76513664-.1383608-1.11632526.0290398l-1.213.576c-.90765564.4305187-1.98798567.2436792-2.69833245-.4666676-.71034677-.7103467-.89718623-1.7906768-.46666755-2.6983324l.576-1.213c.16711583-.3510997.17764133-.7565682.0289666-1.1158655-.14867474-.3592973-.44262636-.6387752-.8089666-.7691345l-1.266-.45C.632135378 13.9021235 0 13.0061501 0 12.0015c0-1.0046501.632135378-1.9006235 1.57862148-2.2375l1.266-.45c.36640542-.13058542.66035719-.41025358.80901708-.76970556.14865988-.35945197.13811669-.76505124-.02901708-1.11629444l-.576-1.213c-.43051868-.90765564-.24367922-1.98798567.46666755-2.69833244C4.22563581 2.80632078 5.30596584 2.61948132 6.21362148 3.05l1.213.577c.35127204.16674532.75672119.17696528 1.11594794.02812916.35922675-.14883613.63864077-.44281106.76905206-.80912916l.45-1.266C10.0990025.63375765 10.9950317.001954886 11.9996215.001954886zM16.4396215 10.16c-1.0416772-2.42705408-3.828683-3.58072624-6.281-2.6-2.44981114 1.01908654-3.61279199 3.8285799-2.60000002 6.281.77688181 1.7656618 2.51218592 2.9160187 4.44100002 2.944.6304539.012971 1.256816-.1041315 1.84-.344 2.4498111-1.0190865 3.612792-3.8285799 2.6-6.281z" fill="#000" fill-rule="evenodd"/>
</svg>
