<svg xmlns:xlink="http://www.w3.org/1999/xlink" width="24" height="24" xmlns="http://www.w3.org/2000/svg">
    <defs>
        <path d="M17.005417 3.25c1.39 0 2.029 1.35 2.647 2.654.0757751.20186548.2655166.33835312.481.346h1.316c2.113 0 2.556 1.209 2.556 2.223v10.388c.0469928.6770913-.2136225 1.3393113-.7094753 1.8027667-.4958527.4634555-1.1741466.6787997-1.8465247.5862333H2.56141697c-.67237816.0925664-1.350672-.1227778-1.846524752-.5862333-.49585275-.4634554-.7564680986-1.1256754-.7094752513-1.8027667V8.473c0-1.014.4340000003-2.223 2.4970000033-2.223h6c.334 0 .46-.282.844-.809C10.369417 4.028 10.934417 3.25 12.005417 3.25zm-2.25 4.25c-3.1756373 0-5.75000003 2.5743627-5.75000003 5.75S11.5797797 19 14.755417 19s5.75-2.5743627 5.75-5.75c-.0033071-3.1742665-2.5757336-5.7466929-5.75-5.75zm0 2c2.0710678 0 3.75 1.6789322 3.75 3.75s-1.6789322 3.75-3.75 3.75-3.75-1.6789322-3.75-3.75 1.6789322-3.75 3.75-3.75zM3.75541697 8.75c-.69035594 0-1.25.55964406-1.25 1.25 0 .6903559.55964406 1.25 1.25 1.25.69035593 0 1.25-.5596441 1.25-1.25 0-.69035594-.55964407-1.25-1.25-1.25zm.75-5.75c.82842712 0 1.5.67157288 1.5 1.5v.25c0 .27614237-.22385763.5-.5.5l-3-.016c-.27614238 0-.5-.22385763-.5-.5V4.5c0-.82842712.67157287-1.5 1.5-1.5z" id="a"/>
    </defs>
    <use fill="#000" xlink:href="#a" fill-rule="evenodd"/>
</svg>
