<?xml version="1.0" encoding="UTF-8" standalone="no"?>
<!DOCTYPE svg PUBLIC "-//W3C//DTD SVG 1.1//EN" "http://www.w3.org/Graphics/SVG/1.1/DTD/svg11.dtd">
<!-- Created with Vectornator (http://vectornator.io/) -->
<svg height="100%" stroke-miterlimit="10" style="fill-rule:nonzero;clip-rule:evenodd;stroke-linecap:round;stroke-linejoin:round;" version="1.1" viewBox="0 0 24 24" width="100%" xml:space="preserve" xmlns="http://www.w3.org/2000/svg" xmlns:xlink="http://www.w3.org/1999/xlink">
<defs/>
<g id="Untitled">
<g opacity="1">
<clipPath clip-rule="nonzero" id="ClipPath">
<path d="M0 0L24 0L24 0L24 24L24 24L0 24L0 24L0 0L0 0Z"/>
</clipPath>
<g clip-path="url(#ClipPath)">
<path d="M3 5.24805C4.24264 5.24805 5.25 4.24069 5.25 2.99805C5.25 1.75541 4.24264 0.748047 3 0.748047C1.75736 0.748047 0.75 1.75541 0.75 2.99805C0.75 4.24069 1.75736 5.24805 3 5.24805Z" fill="none" opacity="1" stroke="#000000" stroke-linecap="round" stroke-linejoin="round" stroke-width="2"/>
<path d="M3 14.2481C4.24264 14.2481 5.25 13.2407 5.25 11.9981C5.25 10.7554 4.24264 9.74805 3 9.74805C1.75736 9.74805 0.75 10.7554 0.75 11.9981C0.75 13.2407 1.75736 14.2481 3 14.2481Z" fill="none" opacity="1" stroke="#000000" stroke-linecap="round" stroke-linejoin="round" stroke-width="2"/>
<path d="M3 23.2481C4.24264 23.2481 5.25 22.2407 5.25 20.9981C5.25 19.7554 4.24264 18.7481 3 18.7481C1.75736 18.7481 0.75 19.7554 0.75 20.9981C0.75 22.2407 1.75736 23.2481 3 23.2481Z" fill="none" opacity="1" stroke="#000000" stroke-linecap="round" stroke-linejoin="round" stroke-width="2"/>
<path d="M8.25 2.99805L23.25 2.99805" fill="none" opacity="1" stroke="#000000" stroke-linecap="round" stroke-linejoin="round" stroke-width="2"/>
<path d="M8.25 12L23.25 12" fill="none" opacity="1" stroke="#000000" stroke-linecap="round" stroke-linejoin="round" stroke-width="2"/>
<path d="M8.25 20.9981L23.25 20.9981" fill="none" opacity="1" stroke="#000000" stroke-linecap="round" stroke-linejoin="round" stroke-width="2"/>
</g>
</g>
</g>
</svg>
