<svg width="24" height="24" xmlns="http://www.w3.org/2000/svg">
    <path d="M12 0c6.6242188.0077147623 11.9922852 5.37578119 12 12 0 6.627417-5.372583 12-12 12S0 18.627417 0 12 5.372583 0 12 0zm0 2C6.4771525 2 2 6.4771525 2 12s4.4771525 10 10 10c5.5203344-.0060624 9.9939376-4.4796656 10-10 0-5.5228475-4.4771525-10-10-10zm-.5000006 3.5c.5522853 0 1 .44771525 1 1v5.061L17.134 15.81c.4067074.3729445.4344537 1.0048431.062 1.412-.3757929.4017428-1.0039828.4288621-1.413.061l-4.959-4.545c-.2067443-.1896575-.324308-.4574414-.3240006-.738V6.5c0-.55228475.4477159-1 1-1z" fill="#000" fill-rule="evenodd"/>
</svg>
