<?xml version="1.0" encoding="UTF-8"?>
<svg width="70px" height="70px" viewBox="0 0 70 70" version="1.1" xmlns="http://www.w3.org/2000/svg" xmlns:xlink="http://www.w3.org/1999/xlink">
    <title>stop</title>
    <g id="mobile" stroke="none" stroke-width="1" fill="none" fill-rule="evenodd">
        <g id="Drive---App-mobile---Pas-les-droits" transform="translate(-172.000000, -318.000000)" fill="#FB472E">
            <g id="Group" transform="translate(172.000000, 318.000000)">
                <g id="Group" transform="translate(-0.000000, -0.000000)">
                    <g id="icon" transform="translate(-0.000000, -0.000000)">
                        <g id="stop-sign" transform="translate(-0.000000, 0.000000)">
                            <path d="M0.0233400748,47.1354775 C0.0220821229,48.6894284 0.644233962,50.1789103 1.75036501,51.2701151 L18.8134881,68.2667728 C19.9032835,69.3574726 21.382243,69.9695474 22.9239241,69.9678975 L22.9239241,69.9678975 L46.8659742,69.9999971 C48.3953466,70.0015273 49.8633539,69.3984698 50.9501548,68.3222125 L68.2495769,51.2817866 C69.3632621,50.1853774 69.9933333,48.6896961 69.9999599,47.1267238 L69.9999599,23.2000984 C70.0039811,21.6567653 69.3917285,20.1757078 68.2991705,19.085886 L51.0201693,1.72157525 C49.9273284,0.616910937 48.4372038,-0.00322807263 46.8834778,1.26351865e-05 L22.9618487,1.26351865e-05 C21.4025918,-0.000894932143 19.9069828,0.618469024 18.8047363,1.72157525 L1.6891023,19.1121469 C0.606482791,20.200502 -0.000876284775,21.6735766 9.48948177e-07,23.208852 L0.0233400748,47.1354775 Z M23.3615149,20.0283616 L23.3615149,20.0283616 C23.0923107,18.581557 24.0238912,17.1834338 25.4625707,16.8750809 C26.9012501,16.5667281 28.3238032,17.4602887 28.6709497,18.8903879 L31.4306888,31.7086398 C31.4453861,31.7819282 31.5140433,31.8315243 31.5882215,31.8224372 C31.6630351,31.8149175 31.7198756,31.7517483 31.7194988,31.6765431 L31.7194988,15.8295306 C31.7194988,14.3308344 32.9341784,13.1159011 34.4325616,13.1159011 C35.9309448,13.1159011 37.1456244,14.3308344 37.1456244,15.8295306 L37.1456244,31.7203114 C37.1465709,31.7950058 37.2027348,31.8574231 37.2769016,31.8662054 C37.3510798,31.8752925 37.4197371,31.8256964 37.4344343,31.7524081 L40.1941735,19.5381576 L40.1941735,19.5381576 C40.3994949,18.5884778 41.0957621,17.8204982 42.0206978,17.523509 C42.9456336,17.2265199 43.9587182,17.445641 44.6783325,18.0983316 C45.3979468,18.7510222 45.7147642,19.738123 45.5094428,20.6878027 L45.5094428,20.6878027 L42.7176136,35.9162245 C42.7055798,35.9851875 42.7432301,36.0532151 42.8080491,36.0796258 C42.8737251,36.1034877 42.9472015,36.079392 42.9860026,36.0212682 L47.507774,28.8987203 L47.507774,28.8987203 C48.3135678,27.6743824 49.945172,27.3102388 51.194894,28.0758238 C52.444616,28.8414089 52.861726,30.4606036 52.1374845,31.7349008 L52.1374845,31.7349008 L48.2633474,39.0120964 C47.507069,40.4299006 47.1122638,42.0124578 47.1139423,43.6194307 C47.1139423,49.7265559 45.404421,54.7482294 38.9747539,54.7511473 L32.6209358,54.7511473 C30.3971607,54.749614 28.2701338,53.8413029 26.7309639,52.2359337 L26.7309639,52.2359337 L17.2119058,39.5694117 L17.2119058,39.5519044 C16.1074524,38.5366586 16.0349634,36.8181158 17.0499972,35.7134317 C18.065031,34.6087476 19.7832149,34.5362435 20.8876684,35.5514893 L20.8876684,35.5514893 L25.9958114,40.0129296 C26.0419142,40.0523543 26.1075988,40.0591275 26.1607738,40.02994 C26.2139487,40.0007526 26.2435151,39.9416966 26.2350277,39.8816249 L23.3615149,20.0283616 Z" id="Shape"></path>
                        </g>
                    </g>
                </g>
            </g>
        </g>
    </g>
</svg>