<svg width="24" height="24" viewBox="0 0 24 24" fill="none" xmlns="http://www.w3.org/2000/svg">
<path d="M11.99 12.2192C11.945 12.2192 11.9006 12.209 11.86 12.1895L7.35005 9.47953C7.31246 9.45666 7.28156 9.42428 7.26049 9.38565C7.23942 9.34702 7.22892 9.30352 7.23005 9.25953C7.22735 9.21663 7.23727 9.17388 7.2586 9.13656C7.27993 9.09924 7.31172 9.06898 7.35005 9.04953L11.86 6.33953C11.8988 6.31455 11.9439 6.30127 11.99 6.30127C12.0362 6.30127 12.0813 6.31455 12.12 6.33953L16.63 9.04953C16.6684 9.06898 16.7002 9.09924 16.7215 9.13656C16.7428 9.17388 16.7527 9.21663 16.75 9.25953C16.7512 9.30352 16.7407 9.34702 16.7196 9.38565C16.6985 9.42428 16.6676 9.45666 16.63 9.47953L12.12 12.1895C12.0795 12.209 12.0351 12.2192 11.99 12.2192Z" fill="black"/>
<path d="M17.36 10.4896C17.3228 10.4655 17.2793 10.4526 17.235 10.4526C17.1906 10.4526 17.1472 10.4655 17.11 10.4896L12.61 13.1896C12.575 13.2128 12.546 13.2439 12.5252 13.2804C12.5043 13.3168 12.4923 13.3576 12.49 13.3996V17.8196C12.4909 17.8643 12.5033 17.9081 12.5261 17.9466C12.5489 17.9852 12.5812 18.0172 12.62 18.0396C12.6588 18.0589 12.7016 18.069 12.745 18.069C12.7884 18.069 12.8312 18.0589 12.87 18.0396L17.37 15.3396C17.4063 15.3153 17.4362 15.2827 17.4571 15.2443C17.478 15.206 17.4893 15.1632 17.49 15.1196V10.6996C17.4905 10.6558 17.4786 10.6128 17.4556 10.5756C17.4325 10.5384 17.3994 10.5086 17.36 10.4896Z" fill="black"/>
<path d="M11.12 18.0396L6.99002 15.5496C6.84219 15.4619 6.71944 15.3377 6.63361 15.1888C6.54778 15.0399 6.50177 14.8714 6.50002 14.6996V10.6996C6.49947 10.6558 6.51141 10.6128 6.53444 10.5756C6.55747 10.5384 6.59062 10.5086 6.63002 10.4896C6.66725 10.4655 6.71066 10.4526 6.75502 10.4526C6.79937 10.4526 6.84278 10.4655 6.88002 10.4896L11.38 13.1896C11.415 13.2128 11.444 13.2439 11.4648 13.2804C11.4857 13.3168 11.4977 13.3576 11.5 13.3996V17.8196C11.4991 17.8643 11.4867 17.9081 11.4639 17.9466C11.4411 17.9852 11.4088 18.0172 11.37 18.0396C11.3312 18.0589 11.2884 18.069 11.245 18.069C11.2016 18.069 11.1588 18.0589 11.12 18.0396Z" fill="black"/>
<path fill-rule="evenodd" clip-rule="evenodd" d="M21.707 5.705L16.293 0.291003C16.1052 0.104187 15.8509 -0.000470965 15.586 1.59336e-06H4C2.89543 1.59336e-06 2 0.895434 2 2V22C2 23.1046 2.89543 24 4 24H20C21.1046 24 22 23.1046 22 22V6.412C21.9999 6.14681 21.8945 5.8925 21.707 5.705ZM19.4999 22.0001H4.49988C4.22374 22.0001 3.99988 21.7762 3.99988 21.5001V2.50006C3.99988 2.22392 4.22374 2.00006 4.49988 2.00006H14.9649C15.0974 2.00035 15.2243 2.05323 15.3179 2.14706L19.8539 6.68006C19.9473 6.77377 19.9998 6.90071 19.9999 7.03306V21.5001C19.9999 21.7762 19.776 22.0001 19.4999 22.0001Z" fill="black"/>
</svg>
