<svg width="24" height="24" xmlns="http://www.w3.org/2000/svg">
    <path d="M12 0c1.6562583 0 3.2109302.312496875 4.6640625.9375 1.4531323.6406282 2.7226508 1.50390082 3.8085937 2.58984375 1.085943 1.08594293 1.9492156 2.35546148 2.5898438 3.80859375C23.6875031 8.78906977 24 10.3437417 24 12c0 1.6562583-.3124969 3.2109302-.9375 4.6640625-.6250031 1.4687573-1.4804633 2.7460883-2.5664063 3.8320312-1.0859429 1.085943-2.3632739 1.9414032-3.8320312 2.5664063C15.2109302 23.6875031 13.6562583 24 12 24c-1.6562583 0-3.21093023-.3124969-4.6640625-.9375-1.46875734-.6250031-2.74608832-1.4804633-3.83203125-2.5664063C2.41796332 19.4101508 1.56250312 18.1328198.9375 16.6640625.312496875 15.2109302 0 13.6562583 0 12c0-1.6562583.312496875-3.21093023.9375-4.6640625.62500312-1.46875734 1.48046332-2.74608832 2.56640625-3.83203125C4.58984918 2.41796332 5.86718016 1.56250312 7.3359375.9375 8.78906977.312496875 10.3437417 0 12 0zm0 2.1c-1.3742468 0-2.64647177.2557236-3.84179666.76982473-1.22366409.52070813-2.27554779 1.2251807-3.16937285 2.11900576-.89382506.89382506-1.59829763 1.94570876-2.12220048 3.17684035C2.3557236 9.35352823 2.1 10.6257532 2.1 12c0 1.3742468.2557236 2.6464718.76982473 3.8417967.52070813 1.223664 1.2251807 2.2755477 2.11900576 3.1693728.89382506.8938251 1.94570876 1.5982976 3.17684035 2.1222005C9.35352823 21.6442764 10.6257532 21.9 12 21.9c1.3742468 0 2.6464718-.2557236 3.8417967-.7698247 1.223664-.5207082 2.2755477-1.2251807 3.1693728-2.1190058.8938251-.8938251 1.5982976-1.9457088 2.1222005-3.1768403C21.6442764 14.6464718 21.9 13.3742468 21.9 12c0-1.3742468-.2557236-2.64647177-.7590517-3.81692679-.536686-1.21736079-1.2526285-2.27021741-2.1532163-3.17080522-.9005878-.90058781-1.9534444-1.61653031-3.1534028-2.14563798C14.6464718 2.3557236 13.3742468 2.1 12 2.1zm-.4921875 7.3921875c.5468777 0 1.015623.19531055 1.40625.5859375.390627.390627.5859375.8671847.5859375 1.4296875v4.734375c0 .0781254.0234373.1406248.0703125.1875.0468752.0468752.1093746.0703125.1875.0703125h.75c.2656263 0 .4960928.0976553.6914063.2929688.1953134.1953134.2929687.4335923.2929687.7148437 0 .2656263-.0976553.4960928-.2929687.6914063-.1953135.1953134-.42578.2929687-.6914063.2929687H10.5c-.2812514 0-.51953027-.0976553-.71484375-.2929687-.19531348-.1953135-.29296875-.42578-.29296875-.6914063 0-.2812514.09765527-.5195303.29296875-.7148437C9.98046973 16.5976553 10.2187486 16.5 10.5 16.5h.75c.0625003 0 .1210935-.0234373.1757812-.0703125.0546878-.0468752.0820313-.1093746.0820313-.1875v-4.5c0-.0625003-.0273435-.1171873-.0820313-.1640625-.0546877-.0468752-.1132809-.0703125-.1757812-.0703125h-.75c-.2812514 0-.51953027-.0976553-.71484375-.2929687-.19531348-.1953135-.29296875-.4335924-.29296875-.7148438 0-.2812514.09765527-.51953027.29296875-.71484375.19531348-.19531348.43359235-.29296875.71484375-.29296875zm.75-4.5c.406252 0 .757811.14843602 1.0546875.4453125s.4453125.64843547.4453125 1.0546875c0 .42187711-.148436.7773423-.4453125 1.06640625-.2968765.28906395-.6484355.43359375-1.0546875.43359375-.4218771 0-.7773423-.1445298-1.0664063-.43359375-.2890639-.28906395-.4335937-.64452914-.4335937-1.06640625 0-.40625203.1445298-.75781102.4335937-1.0546875.289064-.29687648.6445292-.4453125 1.0664063-.4453125z" fill="#000" fill-rule="nonzero"/>
</svg>
