<?xml version="1.0" encoding="UTF-8"?>
<svg width="24px" height="24px" viewBox="0 0 24 24" version="1.1" xmlns="http://www.w3.org/2000/svg" xmlns:xlink="http://www.w3.org/1999/xlink">
    <title>icons/actions/grid</title>
    <g id="icons/actions/grid" stroke="none" stroke-width="1" fill="none" fill-rule="evenodd">
        <path d="M9.4375,13 C10.3004449,13 11,13.6995551 11,14.5625 L11,22.4375 C11,23.3004449 10.3004449,24 9.4375,24 L1.5625,24 C0.699555078,24 2.09049654e-13,23.3004449 2.08721929e-13,22.4375 L2.08721929e-13,14.5625 C2.08838293e-13,13.6995551 0.699555078,13 1.5625,13 L9.4375,13 Z M22.4375,13 C23.3004449,13 24,13.6995551 24,14.5625 L24,22.4375 C24,23.3004449 23.3004449,24 22.4375,24 L14.5625,24 C13.6995551,24 13,23.3004449 13,22.4375 L13,14.5625 C13,13.6995551 13.6995551,13 14.5625,13 L22.4375,13 Z M9.4375,-2.65565347e-13 C10.3004449,-2.65501823e-13 11,0.699555078 11,1.5625 L11,9.4375 C11,10.3004449 10.3004449,11 9.4375,11 L1.5625,11 C0.699555078,11 2.09049654e-13,10.3004449 2.08721929e-13,9.4375 L2.08721929e-13,1.5625 C2.08838293e-13,0.699555078 0.699555078,-2.65184782e-13 1.5625,-2.65565347e-13 L9.4375,-2.65565347e-13 Z M22.4375,-2.65565347e-13 C23.3004449,-2.65501823e-13 24,0.699555078 24,1.5625 L24,9.4375 C24,10.3004449 23.3004449,11 22.4375,11 L14.5625,11 C13.6995551,11 13,10.3004449 13,9.4375 L13,1.5625 C13,0.699555078 13.6995551,-2.65184782e-13 14.5625,-2.65565347e-13 L22.4375,-2.65565347e-13 Z" id="Combined-Shape" fill="#000000"></path>
    </g>
</svg>