<?xml version="1.0" encoding="UTF-8"?>
<svg width="24px" height="24px" viewBox="0 0 24 24" version="1.1" xmlns="http://www.w3.org/2000/svg" xmlns:xlink="http://www.w3.org/1999/xlink">
    <title>icon-view-activity</title>
    <g id="icon-view-activity" stroke="none" stroke-width="1" fill="none" fill-rule="evenodd">
        <path d="M22.4375,13 C23.3004449,13 24,13.6995551 24,14.5625 L24,22.4375 C24,23.3004449 23.3004449,24 22.4375,24 L1.5625,24 C0.699555078,24 7.71814088e-16,23.3004449 0,22.4375 L0,14.5625 C-3.27724879e-16,13.6995551 0.699555078,13 1.5625,13 L22.4375,13 Z M22.4375,0 C23.3004449,6.35241945e-17 24,0.699555078 24,1.5625 L24,9.4375 C24,10.3004449 23.3004449,11 22.4375,11 L1.5625,11 C0.699555078,11 7.71814088e-16,10.3004449 0,9.4375 L0,1.5625 C-3.27724879e-16,0.699555078 0.699555078,3.80565015e-16 1.5625,0 L22.4375,0 Z" id="Combined-Shape" fill="#000000"></path>
    </g>
</svg>