<?xml version="1.0" encoding="UTF-8"?>
<svg width="24px" height="24px" viewBox="0 0 24 24" version="1.1" xmlns="http://www.w3.org/2000/svg" xmlns:xlink="http://www.w3.org/1999/xlink">
    <title>icons/actions/upload</title>
    <defs>
        <path d="M22.7234043,21.4544006 C23.4284486,21.4544006 24,22.0242524 24,22.7272003 C24,23.4301482 23.4284486,24 22.7234043,24 L22.7234043,24 L1.27659574,24 C0.571551383,24 0,23.4301482 0,22.7272003 C0,22.0242524 0.571551383,21.4544006 1.27659574,21.4544006 L1.27659574,21.4544006 Z M12.4667234,1 C13.1717678,1 13.7433191,1.56985184 13.7433191,2.27279972 L13.7433191,2.27279972 L13.7433191,12.6211705 C13.7430463,12.6887671 13.7698583,12.7536735 13.8177992,12.8014719 C13.8657401,12.8492702 13.9308402,12.8760025 13.9986383,12.8757305 L13.9986383,12.8757305 L16.1994894,12.8757305 C16.6124894,12.8758184 16.9847837,13.1239035 17.1428201,13.5043362 C17.3008564,13.8847688 17.213523,14.322655 16.9215319,14.6138658 L16.9215319,14.6138658 L13.1918298,18.3324774 C12.7930214,18.7299798 12.146553,18.7299798 11.7477447,18.3324774 L11.7477447,18.3324774 L8.01702128,14.6138658 C7.72593104,14.3235747 7.63813398,13.8874033 7.79434269,13.5076099 C7.9505514,13.1278165 8.32021464,12.8786809 8.73191489,12.8757305 L8.73191489,12.8757305 L10.9348085,12.8757305 C11.0758174,12.8757305 11.1901277,12.7617601 11.1901277,12.6211705 L11.1901277,12.6211705 L11.1901277,2.27279972 C11.1901277,1.56985184 11.761679,1 12.4667234,1 Z" id="path-1"></path>
    </defs>
    <g id="icons/actions/upload" stroke="none" stroke-width="1" fill="none" fill-rule="evenodd">
        <mask id="mask-2" fill="white">
            <use xlink:href="#path-1"></use>
        </mask>
        <use id="icon" fill="#000000" transform="translate(12.000000, 12.500000) scale(1, -1) translate(-12.000000, -12.500000) " xlink:href="#path-1"></use>
    </g>
</svg>