<svg width="24" height="24" xmlns="http://www.w3.org/2000/svg">
    <path d="M11.9936045 15.659187c.4989346 0 .9211021-.4304934.9211021-.9417129V4.22420785l-.0767411-1.61435713.5372921.61883598 1.4072509 1.60091196c.1663203.18834258.3965958.28251387.6140856.28251387.4861226 0 .8443348-.34979482.8443348-.83409645 0-.26904115-.1023388-.45738374-.2814449-.63228115L12.6588594.322849384C12.4285839.0806985702 12.2366658 0 11.9936045 0c-.2302755 0-.4221674.0806985702-.652443.322849384L8.027725 3.64573493c-.16632029.17489741-.26865914.36324-.26865914.63228115 0 .48430163.34540018.83409645.83154903.83409645.21748972 0 .46055104-.09417129.62687133-.28251387L10.6247372 3.2286867l.5373182-.61883598-.0767672 1.61435713V14.7174741c0 .5112195.4221674.9417129.9083163.9417129zM6.26226187 24H17.7377329C19.9253634 24 21 22.8699555 21 20.6098638V10.2645606c0-2.26008347-1.0746366-3.39013897-3.2622671-3.39013897h-2.7505205v1.95067923h2.7249489c.9083163 0 1.4456083.52466469 1.4456083 1.53363104v10.1569634c0 1.0224197-.537292 1.533631-1.4456083 1.533631H6.28785968c-.92112828 0-1.44563455-.5112113-1.44563455-1.533631V10.3587319c0-1.00896635.52450627-1.53363104 1.44563455-1.53363104h2.72492263V6.87442163H6.26226187C4.08741713 6.87442163 3 8.00447713 3 10.2645606v10.3453032C3 22.8699555 4.08741713 24 6.26226187 24z" fill="#000" fill-rule="evenodd"/>
</svg>
