<svg width="24" height="24" xmlns="http://www.w3.org/2000/svg">
    <path d="M19.5000239 8.98781258c.2761397 0 .4999952.22403951.4999952.50040625V21.998375c0 1.105467-.8954219 2.001625-1.9999808 2.001625H6.00015303c-1.10455894 0-1.99998088-.896158-1.99998088-2.001625V9.48821883c0-.27636674.22385549-.50040625.5-.50040625zM9.50011955 11.1145391c-.4142096 0-.74999283.3360593-.74999283.7506094v8.6320078c0 .4145501.33578323.7506093.74999283.7506093.4142096 0 .74999285-.3360592.74999285-.7506093v-8.6320078c0-.4145501-.33578325-.7506094-.74999285-.7506094zm4.99995215 0c-.4142096 0-.7499928.3360593-.7499928.7506094v8.6320078c0 .4145501.3357832.7506093.7499928.7506093s.7499929-.3360592.7499929-.7506093v-8.6320078c0-.4145501-.3357833-.7506094-.7499929-.7506094zM11.9965957 0c2.2786281 0 4.2622584 1.55833417 4.803454 3.77357949 1.4275716.10412493 2.8243029.46732944 4.1219606 1.07187018.6441588.30225451 1.0617516.94350352 1.0779897 1.65534386-.0081971.54686201-.4535161.98580032-.9999904.98580032H3.00018172c-.2676575 0-.52415385-.10733739-.71209612-.29806751-.18794226-.19073012-.29164152-.44890508-.28799245-.71675637.04482537-.73656067.50226235-1.38432152 1.18108684-1.67235768 1.26891625-.56889898 2.62589134-.91586879 4.01196163-1.0258328C7.73433724 1.55833417 9.71796754 0 11.9965957 0zm-.0194998 2.00214137c-1.0891349-.01571217-2.09088574.59470271-2.57697539 1.57027481 1.73184659-.10104203 3.46810359-.10104203 5.19995029 0-.5025238-.98219706-1.5206142-1.59168883-2.6229749-1.57027481z" fill="#000" fill-rule="evenodd"/>
</svg>
