<svg width="24" height="24" xmlns="http://www.w3.org/2000/svg">
    <path d="M12.7070109.292789059c-.3905059-.390385412-1.0235159-.390385412-1.4140218 0L.292820171 11.2928869c-.2859123078.2859968-.3714276117.716043-.2166813069 1.0896643.1547463049.3736213.5192900569.6172646.9236921669.6173509H2.24985023c.13807331 0 .25000384.1119298.25000384.2500022V23c0 .5522808.44772213 1 1.00001536 1h5.50008449c.55229323 0 1.00001536-.4477192 1.00001536-1v-5.0000534c0-1.1045793.89544422-2.0000178 2.00003072-2.0000178s2.0000307.8954385 2.0000307 2.0000178V23c0 .5522808.4477221 1 1.0000154 1h5.5000845c.5522932 0 1.0000153-.4477192 1.0000153-1v-9.7500957c0-.1380724.1119306-.2500022.2500039-.2500022h1.2500192c.4044021-.0000863.7689458-.2437296.9236921-.6173509.1547463-.3736213.069231-.8036675-.2166813-1.0896643L12.7070109.292789059zM20.2451267 10.6588813c.0605241.0605054.0858929.1477654.0672419.2312889s-.0787298.151703-.1592434.1807148c-.394733.1371133-.65766.5111678-.65301.9290082V21.74998c0 .1380724-.1119305.2500022-.2500038.2500022h-3.0000461c-.1380733 0-.2500039-.1119298-.2500039-.2500022v-3.7500334c0-2.2091586-1.7908885-4.0000356-4.0000614-4.0000356-2.20917293 0-4.00006144 1.790877-4.00006144 4.0000356V21.74998c0 .1380724-.11193054.2500022-.25000384.2500022H4.74988863c-.1380733 0-.25000384-.1119298-.25000384-.2500022v-9.7500868c.00527285-.4180333-.25788454-.7924156-.65301003-.9290082-.08051354-.0290118-.14059236-.0971913-.15924336-.1807148-.018651-.0835235.00671783-.1707835.06724195-.2312889l8.06812395-8.06807179c.0469028-.04702127.110588-.07344755.1770027-.07344755.0664147 0 .1300999.02642628.1770027.07344755l8.068124 8.06807179z" fill="#000" fill-rule="evenodd"/>
</svg>
