<svg width="24" height="24" xmlns="http://www.w3.org/2000/svg">
    <path d="M15.586-.0000016042C15.8509081-.0004741623 16.1051803.10418385 16.293.291l5.414 5.414c.1875494.18749273.293.44180519.293.707v15.5879984c0 1.1045711-.8954305 2-2 2H4c-1.1045695 0-2-.8954289-2-2v-20C2 .8954305 2.8954305-.0000016042 4-.0000016042zM14.965 2H4.5c-.27614237 0-.5.22385763-.5.5v19c0 .2761424.22385763.5.5.5h15c.2761424 0 .5-.2238576.5-.5V7.033c0-.13235245-.052531-.25929446-.146-.353l-4.536-4.533c-.093542-.09383569-.2205041-.14670662-.353-.147zM8.78742025 5.58828104L8.94 5.593c.55294107.06411955 1.01661142.44711752 1.184.978.3986205 1.11436154.6709898 2.26991871.812 3.445.0149591.122749.0730902.2361757.164.32.5995844.5378444 1.2545905 1.0104947 1.954 1.41.1147919.0643829.2506583.0798796.377.043 1.1828686-.3338661 2.4108152-.4799779 3.639-.433.6274815.0046853 1.2013565.3546503 1.4928097.9103571.2914532.5557069.2530837 1.2267776-.0998097 1.7456429-.3260361.4600634-.8853041.6947077-1.442.605-1.2924088-.1605736-2.5522613-.5198086-3.735-1.065-.1239217-.0570991-.2651591-.0639101-.394-.019-.6612901.247938-1.2999858.5523975-1.909.91-.1169925.0698059-.1998835.1849123-.229.318-.2596704 1.1722126-.753184 2.2799822-1.451 3.257-.32138247.4551565-.84282366.7270509-1.4.7300026-.07053722 0-.14101155-.0042202-.211-.0130026-.59122906-.0641695-1.10115188-.4439319-1.332-.992-.20973449-.5543575-.09414092-1.1793334.3-1.622.75053092-.8921345 1.6180263-1.6789014 2.579-2.339.11798676-.080839.19669488-.2074249.217-.349.09604577-.7842097.11714112-1.5757878.063-2.364-.00716587-.1155023-.05581874-.2245274-.137-.307-.74264802-.78008188-1.39755838-1.6392116-1.953-2.562-.3575005-.55569325-.36062039-1.26819729-.008-1.827.31841491-.52598326.90599863-.82770499 1.519-.78z" fill="#F44336" fill-rule="nonzero"/>
</svg>
