<svg width="24" height="24" xmlns="http://www.w3.org/2000/svg">
    <path d="M1 19c.55228475 0 1 .4477153 1 1v1.5c0 .2761424.22385763.5.5.5H4c.55228475 0 1 .4477153 1 1s-.44771525 1-1 1H2c-1.1045695 0-2-.8954305-2-2v-2c0-.5522847.44771525-1 1-1zm22 0c.5522847 0 1 .4477153 1 1v2c0 1.1045695-.8954305 2-2 2h-2c-.5522847 0-1-.4477153-1-1s.4477153-1 1-1h1.5c.2761424 0 .5-.2238576.5-.5V20c0-.5522847.4477153-1 1-1zM18.4390244 4C19.3011274 4 20 4.69887259 20 5.56097561V18.4390244C20 19.3011274 19.3011274 20 18.4390244 20H5.56097561C4.69887259 20 4 19.3011274 4 18.4390244V5.56097561C4 4.69887259 4.69887259 4 5.56097561 4zm-4.6829268 6.6341463c-.2962165-.0137613-.5735473.1454527-.7110244.4081952l-1.9020488 3.5332683c-.0323653.060345-.093995.0993077-.1623893.1026635-.0683942.0033558-.1335422-.0293865-.1716595-.0862733l-.6478049-.9724878c-.1543508-.2316639-.42040559-.363582-.69823736-.3462075-.27783176.0173745-.52537863.1814113-.64966505.4305002l-1.64995122 3.3014634c-.06061822.1209704-.05424712.2647083.01683624.3798411.07108335.1151327.19673328.1852324.33204181.1852324h9.36819508c.1337023.0001704.2581848-.0681191.3298843-.1809707.0716996-.1128516.080634-.2545539.0236767-.3755174l-2.7925853-5.9317074c-.1254813-.2667691-.3905677-.4400716-.6852683-.448zM8.87804878 7.31473171c-.86210302 0-1.56097561.69887258-1.56097561 1.56097561 0 .86210302.69887259 1.56097558 1.56097561 1.56097558s1.56097562-.69887256 1.56097562-1.56097558c0-.86210303-.6988726-1.56097561-1.56097562-1.56097561zM4 0c.55228475 0 1 .44771525 1 1s-.44771525 1-1 1H2.5c-.27614237 0-.5.22385763-.5.5V4c0 .55228475-.44771525 1-1 1s-1-.44771525-1-1V2C0 .8954305.8954305 0 2 0zm18 0c1.1045695 0 2 .8954305 2 2v2c0 .55228475-.4477153 1-1 1s-1-.44771525-1-1V2.5c0-.27614237-.2238576-.5-.5-.5H20c-.5522847 0-1-.44771525-1-1s.4477153-1 1-1z" fill="#000" fill-rule="evenodd"/>
</svg>
