<svg width="24" height="24" xmlns="http://www.w3.org/2000/svg">
    <path d="M15.586-.0000016042C15.8509081-.0004741623 16.1051803.10418385 16.293.291l5.414 5.414c.1875494.18749273.293.44180519.293.707v15.5879984c0 1.1045711-.8954305 2-2 2H4c-1.1045695 0-2-.8954289-2-2v-20C2 .8954305 2.8954305-.0000016042 4-.0000016042zM14.965 2H4.5c-.27614237 0-.5.22385763-.5.5v19c0 .2761424.22385763.5.5.5h15c.2761424 0 .5-.2238576.5-.5V7.033c0-.13235245-.052531-.25929446-.146-.353l-4.536-4.533c-.093542-.09383569-.2205041-.14670662-.353-.147zm-1.992 8.4999189c1.824948-.0108361 3.4757781 1.0815318 4.1792079 2.7654976.7034299 1.6839658.3201483 3.6260273-.9703079 4.9164835s-3.2325177 1.6737378-4.9164835.9703079C9.58145068 18.4487781 8.48908277 16.797948 8.49991892 14.973c.01141601-.2669351.23292819-.4764856.50008108-.473h3.25c.1380712 0 .25-.1119288.25-.25V11c-.0034856-.2671529.2060649-.4886651.473-.5000811zM10.5 8c.27614237 0 .5.22385763.5.5v4c0 .2761424-.22385763.5-.5.5h-4c-.27614237 0-.5-.2238576-.5-.5.00275556-2.4841391 2.01586091-4.49724444 4.5-4.5z" fill="#FF9802" fill-rule="nonzero"/>
</svg>
