<svg width="24" height="24" xmlns="http://www.w3.org/2000/svg">
    <path d="M23.9009835 8.65721114c-.2342648-.62733305-.8370003-1.04437855-1.5117787-1.04603174h-6.5378381L13.50998 1.03830423c-.2368828-.628001499-.8440357-1.0426226676-1.5203465-1.0382702912-.6763109.0044213285-1.2779389.4268831862-1.5065119 1.0579038412L8.1494369 7.6111794H1.6115988C.933773578 7.61179869.328652618 8.03245504.097109237 8.66399312c-.231543381.63153807-.0401048244 1.33920678.479130152 1.77114478l5.535486951 4.5473476-2.32268196 6.9088269c-.22375513.6602327.00963699 1.388087.57687983 1.7990516s1.33765466.4103613 1.90424183-.0014913l5.73023576-4.1623119 5.7291355 4.1644934c.5659065.4110321 1.3349987.412012 1.9019692.0024234.5669704-.4095886.8016051-1.1356771.5802527-1.7956207L17.887977 14.984667l5.5475899-4.5582551c.5123433-.43567741.697881-1.14096681.4654166-1.76920076zm-7.9957033 5.12653726c-.3496534.2870556-.4855615.7575339-.3421858 1.1845573l1.7043271 5.0687273c.0381292.1126975-.0017739.2368959-.0986259.3069735-.096852.0700775-.2283358.0698866-.3249803-.000472l-4.1942509-3.0519258c-.3873497-.2816978-.9142764-.2816978-1.3016261 0l-4.18874951 3.046472c-.09648146.0699198-.22746587.0700787-.32411974.0003934-.09665387-.0696853-.13685866-.1932679-.0994864-.3058041l1.70322675-5.0687273c.14362829-.4268001.00817003-.8972338-.34108546-1.1845574L3.83085485 10.275888c-.08965032-.0731743-.12328792-.1942794-.08405818-.30263383.03922973-.10835444.14287467-.18061304.25900202-.18056957h4.92373367c.46673627-.00012928.88260354-.29217057 1.03755997-.72862274l1.77364437-4.98255787c.0385813-.10942857.1427329-.18271594.2596651-.18271594.1169321 0 .2210838.07328737.259665.18271594l1.7725442 4.98255787c.1549564.43645217.5708237.72849346 1.0375599.72862274h4.9237337c.1161274-.00004347.2197723.07221513.259002.18056957.0392298.10835443.0055922.22945953-.0840582.30263383l-4.2635682 3.5078604z" fill="#000" fill-rule="evenodd"/>
</svg>
