<?xml version="1.0" encoding="UTF-8"?>
<svg width="24px" height="24px" viewBox="0 0 24 24" version="1.1" xmlns="http://www.w3.org/2000/svg" xmlns:xlink="http://www.w3.org/1999/xlink">
    <title>icons/actions/retry</title>
    <defs>
        <path d="M12.2809642,1.00797694 C7.88088469,1.18343617 4.02589478,4.00755536 2.53196416,8.14997694 C2.49183678,8.26180081 2.37855281,8.3299384 2.26096416,8.31297694 L0.571964156,8.05897694 C0.383342951,8.03479225 0.196781434,8.11672545 0.0869641558,8.27197694 C-0.0208877045,8.43006655 -0.0290413716,8.63584958 0.0659641558,8.80197694 L2.74496416,13.5019769 C2.82210152,13.6368978 2.95759197,13.7282778 3.11158654,13.7492415 C3.26558111,13.7702051 3.420568,13.7183684 3.53096416,13.6089769 L7.30096416,9.86297694 C7.43560566,9.72968092 7.48334066,9.53173373 7.42425383,9.35172009 C7.365167,9.17170645 7.20940946,9.0405527 7.02196416,9.01297694 L5.30696416,8.75697694 C5.22932433,8.74568691 5.16148773,8.69860436 5.12375359,8.62981816 C5.08601944,8.56103196 5.08276502,8.47852149 5.11496416,8.40697694 C6.76377878,4.67394188 10.8919226,2.70480293 14.830717,3.77252906 C18.7695114,4.84025518 21.3379752,8.62470668 20.8757001,12.6793882 C20.413425,16.7340697 17.0590163,19.8432532 12.9809642,19.9969769 C12.5343822,20.0050154 12.1260119,20.2506919 11.9096824,20.6414625 C11.6933529,21.0322331 11.7019299,21.5087304 11.9321824,21.8914625 C12.1624349,22.2741946 12.5793822,22.5050154 13.0259642,22.4971802 L13.0729642,22.4971802 C16.9279021,22.3786781 20.4241274,20.2045468 22.2351673,16.7994513 C24.0462073,13.3943558 23.8945563,9.28005872 21.8377511,6.01753004 C19.7809459,2.75500136 16.1341505,0.844158152 12.2809642,1.00997694 L12.2809642,1.00797694 Z" id="path-1"></path>
    </defs>
    <g id="icons/actions/retry" stroke="none" stroke-width="1" fill="none" fill-rule="evenodd">
        <g id="Icons/interface-essential/close-Copy">
            <mask id="mask-2" fill="white">
                <use xlink:href="#path-1"></use>
            </mask>
            <use id="icon" fill="#000000" transform="translate(11.747103, 11.748590) scale(-1, 1) translate(-11.747103, -11.748590) " xlink:href="#path-1"></use>
        </g>
    </g>
</svg>