<?xml version="1.0" encoding="UTF-8"?>
<svg width="24px" height="24px" viewBox="0 0 24 24" version="1.1" xmlns="http://www.w3.org/2000/svg" xmlns:xlink="http://www.w3.org/1999/xlink">
    <title>icons/actions/folder-select-2</title>
    <defs>
        <path d="M8.5,-1.48884272e-05 C9.06753168,-0.00252672478 9.58748755,0.316730829 9.842,0.824 L9.842,0.824 L10.789,2.724 C10.8737713,2.89317046 11.0467784,2.99998511 11.236,3 L11.236,3 L22.5,3 C23.3284271,3 24,3.67157288 24,4.5 L24,4.5 L24,18.5 C24,19.3284271 23.3284271,20 22.5,20 L22.5,20 L1.5,20 C0.671572875,20 0,19.3284271 0,18.5 L0,18.5 L0,1.5 C0,0.671572875 0.671572875,-1.48884272e-05 1.5,-1.48884272e-05 L1.5,-1.48884272e-05 Z M9.08022053,8.14816101 C8.89341156,8.07078905 8.67839038,8.11354604 8.53539325,8.2565 L8.53539325,8.2565 L6.14639325,10.6455 C5.95120228,10.8407499 5.95120228,11.1572501 6.14639325,11.3525 L6.14639325,11.3525 L8.53539325,13.7415 C8.67839038,13.884454 8.89341156,13.927211 9.08022053,13.849839 C9.2670295,13.772467 9.38885008,13.5901979 9.38889325,13.388 L9.38889325,13.388 L9.38889325,11.874 C9.38889325,11.8049644 9.44485766,11.749 9.51389325,11.749 L9.51389325,11.749 L17.2498932,11.749 C17.6641068,11.749 17.9998932,11.4132136 17.9998932,10.999 C17.9998932,10.5847864 17.6641068,10.249 17.2498932,10.249 L17.2498932,10.249 L9.51389325,10.249 C9.44485766,10.249 9.38889325,10.1930356 9.38889325,10.124 L9.38889325,10.124 L9.38889325,8.61 C9.38885008,8.40780205 9.2670295,8.22553297 9.08022053,8.14816101 Z" id="path-1"></path>
    </defs>
    <g id="icons/actions/folder-select-2" stroke="none" stroke-width="1" fill="none" fill-rule="evenodd">
        <g id="icon" transform="translate(0.000000, 2.000000)">
            <mask id="mask-2" fill="white">
                <use xlink:href="#path-1"></use>
            </mask>
            <use id="Combined-Shape" fill="#000000" xlink:href="#path-1"></use>
        </g>
    </g>
</svg>