<?xml version="1.0" encoding="UTF-8"?>
<svg width="209px" height="56px" viewBox="0 0 209 56" version="1.1" xmlns="http://www.w3.org/2000/svg" xmlns:xlink="http://www.w3.org/1999/xlink">
    <title>logo-white</title>
    <g id="logo-white" stroke="none" stroke-width="1" fill="none" fill-rule="evenodd">
        <g id="Drive" transform="translate(-1.000000, 0.000000)">
            <g id="Logos/Workspace/Drive" transform="translate(0.000000, 1.000000)">
                <g id="logo" transform="translate(0.720000, 0.720000)">
                    <path d="M24.3915039,1.50778987 L28.862294,3.376793 C29.5491107,3.66391511 30.0801201,4.23137374 30.3210811,4.93571329 L32.1005091,10.1370608 C32.3877358,10.9766375 33.0828963,11.6120432 33.9448395,11.822856 L52.5755408,16.3795258 C53.7405169,16.6644539 54.56,17.7085192 54.56,18.907833 L54.56,40.6434948 C54.56,42.0809975 53.3946738,43.2463237 51.9571711,43.2463237 C51.6977087,43.2463237 51.4397046,43.2075282 51.191716,43.131224 L22.6221357,34.3405844 C21.5300105,34.0045458 20.7847619,32.9955096 20.7847619,31.8528551 L20.7847619,3.90922215 C20.7847619,2.47171943 21.9500881,1.30639323 23.3875908,1.30639323 C23.7322624,1.30639323 24.0735016,1.37484979 24.3915039,1.50778987 Z" id="Rectangle-Copy-32" fill="#A2BFFF" opacity="0.504231771"></path>
                    <path d="M17.8962658,6.70398034 L22.3670559,8.57298347 C23.0538726,8.86010558 23.584882,9.42756422 23.825843,10.1319038 L25.605271,15.3332513 C25.8924978,16.172828 26.5876582,16.8082337 27.4496014,17.0190465 L46.0803027,21.5757162 C47.2452789,21.8606444 48.0647619,22.9047096 48.0647619,24.1040234 L48.0647619,45.8396852 C48.0647619,47.277188 46.8994357,48.4425142 45.461933,48.4425142 C45.2024706,48.4425142 44.9444665,48.4037187 44.6964779,48.3274145 L16.1268976,39.5367748 C15.0347724,39.2007363 14.2895238,38.1917001 14.2895238,37.0490456 L14.2895238,9.10541262 C14.2895238,7.6679099 15.45485,6.5025837 16.8923527,6.5025837 C17.2370243,6.5025837 17.5782635,6.57104027 17.8962658,6.70398034 Z" id="Rectangle-Copy-12" fill="#A0BDFF" opacity="0.8"></path>
                    <path d="M11.4010277,11.1207424 L15.8718178,12.9897455 C16.5586345,13.2768677 17.0896439,13.8443263 17.3306049,14.5486658 L19.1100329,19.7500134 C19.3972597,20.58959 20.0924201,21.2249958 20.9543633,21.4358086 L39.5850646,25.9924783 C40.7500408,26.2774065 41.5695238,27.3214717 41.5695238,28.5207855 L41.5695238,50.2564473 C41.5695238,51.69395 40.4041976,52.8592762 38.9666949,52.8592762 C38.7072325,52.8592762 38.4492284,52.8204808 38.2012398,52.7441766 L9.63165951,43.9535369 C8.53953428,43.6174984 7.79428571,42.6084622 7.79428571,41.4658076 L7.79428571,13.5221747 C7.79428571,12.084672 8.95961191,10.9193458 10.3971146,10.9193458 C10.7417862,10.9193458 11.0830254,10.9878023 11.4010277,11.1207424 Z" id="Rectangle" fill="#1A47FF"></path>
                    <path d="M4.81389969,22.6415755 L33.6689334,30.6568625 C34.5419693,30.8993724 35.226062,31.5784536 35.4749846,32.4496827 L40.9103828,51.473578 C41.107839,52.1646746 40.7076643,52.884989 40.0165677,53.0824452 C39.7742955,53.1516658 39.5171387,53.1490685 39.2763141,53.0749686 L9.04704049,43.7736541 C8.25900937,43.531183 7.63246026,42.9296857 7.35805309,42.1521987 L1.662826,26.0157215 C1.18439618,24.6601704 1.89544353,23.173435 3.2509947,22.6950052 C3.75417038,22.5174138 4.29977058,22.4987618 4.81389969,22.6415755 Z" id="Rectangle-Copy-37" fill="#5287FF"></path>
                </g>
            </g>
            <path d="M83.1519784,55.6529563 L83.1519784,49.527635 L84.9973022,47.6015424 L90.4820144,55.6529563 L95.2832734,55.6529563 L87.6798561,44.7037275 L94.5485612,36.877892 L89.5593525,36.877892 L84.4505396,42.7255784 L83.1519784,44.374036 L83.1519784,29 L79,29 L79,55.6529563 L83.1519784,55.6529563 Z M104.817446,55.6529563 C107.061451,55.6529563 109.052008,55.1613111 110.789119,54.1780206 C112.526229,53.1947301 113.864658,51.7949871 114.804406,49.9787918 C115.744155,48.1625964 116.214029,46.0571979 116.214029,43.6625964 L116.214029,43.6625964 L116.214029,42.3958869 C116.214029,40.0359897 115.747002,37.9421594 114.81295,36.1143959 C113.878897,34.2866324 112.560402,32.8753213 110.857464,31.8804627 C109.154526,30.8856041 107.203837,30.3881748 105.005396,30.3881748 L105.005396,30.3881748 L97.6582734,30.3881748 L97.6582734,55.6529563 L104.817446,55.6529563 Z M104.80036,52.1478149 L101.981115,52.1478149 L101.981115,33.9280206 L105.005396,33.9280206 C107.23801,33.9280206 108.940947,34.6510283 110.114209,36.0970437 C111.28747,37.5430591 111.874101,39.6368895 111.874101,42.3785347 L111.874101,42.3785347 L111.874101,43.7840617 C111.851319,46.4794344 111.233363,48.5472365 110.020234,49.9874679 C108.807104,51.4276992 107.067146,52.1478149 104.80036,52.1478149 L104.80036,52.1478149 Z M124.261691,55.6529563 L124.261691,42.8123393 C124.922362,41.3316195 126.203837,40.5912596 128.106115,40.5912596 C128.68705,40.5912596 129.250899,40.6375321 129.797662,40.7300771 L129.797662,40.7300771 L129.814748,36.7737789 C129.427458,36.6118252 128.93765,36.5308483 128.345324,36.5308483 C126.568345,36.5308483 125.178657,37.346401 124.176259,38.9775064 L124.176259,38.9775064 L124.073741,36.877892 L120.109712,36.877892 L120.109712,55.6529563 L124.261691,55.6529563 Z M134.769784,34.2230077 C135.521583,34.2230077 136.102518,34.0118895 136.51259,33.589653 C136.922662,33.1674165 137.127698,32.6381748 137.127698,32.001928 C137.127698,31.3541131 136.922662,30.8161954 136.51259,30.3881748 C136.102518,29.9601542 135.521583,29.746144 134.769784,29.746144 C134.017986,29.746144 133.439898,29.9601542 133.035522,30.3881748 C132.631145,30.8161954 132.428957,31.3541131 132.428957,32.001928 C132.428957,32.6381748 132.631145,33.1674165 133.035522,33.589653 C133.439898,34.0118895 134.017986,34.2230077 134.769784,34.2230077 Z M136.83723,55.6529563 L136.83723,36.877892 L132.685252,36.877892 L132.685252,55.6529563 L136.83723,55.6529563 Z M149.669065,55.6529563 L156.076439,36.877892 L151.78777,36.877892 L147.875,50.3084833 L143.910971,36.877892 L139.605216,36.877892 L146.063849,55.6529563 L149.669065,55.6529563 Z M166.584532,56 C168.122302,56 169.509143,55.6905527 170.745054,55.0716581 C171.980965,54.4527635 172.969125,53.5822622 173.709532,52.4601542 L173.709532,52.4601542 L171.471223,50.2911311 C170.27518,51.8528278 168.726019,52.6336761 166.823741,52.6336761 C165.468225,52.6336761 164.343375,52.1825193 163.449191,51.2802057 C162.555006,50.377892 162.045264,49.151671 161.919964,47.6015424 L161.919964,47.6015424 L174,47.6015424 L174,45.9010283 C174,42.9164524 173.313699,40.6086118 171.941097,38.9775064 C170.568495,37.346401 168.623501,36.5308483 166.106115,36.5308483 C164.522782,36.5308483 163.08753,36.9415167 161.80036,37.7628535 C160.513189,38.5841902 159.513639,39.7323265 158.801709,41.2072622 C158.089778,42.6821979 157.733813,44.3566838 157.733813,46.2307198 L157.733813,46.2307198 L157.733813,46.7512853 C157.733813,49.5507712 158.551109,51.7920951 160.185701,53.4752571 C161.820294,55.158419 163.953237,56 166.584532,56 Z M169.899281,44.5128535 L161.988309,44.5128535 C162.181954,43.066838 162.629047,41.938946 163.329586,41.1291774 C164.030126,40.3194087 164.94994,39.9145244 166.089029,39.9145244 C167.239508,39.9145244 168.139388,40.2760283 168.788669,40.999036 C169.43795,41.7220437 169.808153,42.7892031 169.899281,44.2005141 L169.899281,44.2005141 L169.899281,44.5128535 Z" id="kDrive" fill="#333333" fill-rule="nonzero"></path>
            <path d="M83.3402736,3.220547 L83.3402736,0.266601573 L79,0.266601573 L79,3.220547 L83.3402736,3.220547 Z M83.3402736,15.9001178 L83.3402736,4.57488299 L79,4.57488299 L79,15.9001178 L83.3402736,15.9001178 Z M90.4532036,15.9001178 L90.4532036,10.4614457 C90.4532036,9.4305863 90.6167192,8.71609408 90.9437505,8.31796907 C91.2707817,7.91984405 91.6973442,7.72078154 92.223438,7.72078154 C92.6997661,7.72078154 93.0694537,7.86830108 93.3325005,8.16334015 C93.5955474,8.45837923 93.7270709,8.96136753 93.7270709,9.67230505 L93.7270709,9.67230505 L93.7270709,15.9001178 L98.0886726,15.9001178 L98.0886726,8.70187533 C98.0886726,7.20890652 97.7491999,6.10517601 97.0702546,5.3906838 C96.3913093,4.67619158 95.4510944,4.31894548 94.24961,4.31894548 C93.360938,4.31894548 92.6073443,4.48068376 91.9888286,4.80416034 C91.370313,5.12763691 90.7589067,5.66617209 90.1546098,6.41976587 L90.1546098,6.41976587 L90.1546098,4.57488299 L86.11293,4.57488299 L86.11293,15.9001178 L90.4532036,15.9001178 Z M105.51086,15.9001178 L105.51086,7.75277373 L107.579689,7.75277373 L107.579689,4.57488299 L105.51086,4.57488299 C105.51086,4.07011734 105.528634,3.73953139 105.564181,3.58312514 C105.635274,3.29875013 105.756134,3.0908009 105.926759,2.95927746 C106.097384,2.82775401 106.378204,2.76199229 106.76922,2.76199229 C107.089142,2.76199229 107.508595,2.80464854 108.027579,2.88996105 L108.027579,2.88996105 L108.507462,0.266601573 C107.05715,0.0888671909 105.951642,0 105.190938,0 C104.238282,0 103.514903,0.108417973 103.020802,0.325253919 C102.5267,0.542089864 102.142794,0.826464875 101.869083,1.17837895 C101.595372,1.53029303 101.408751,1.9835157 101.30922,2.53804697 C101.209688,3.09257824 101.159923,3.60089857 101.159923,4.06300797 L101.159923,4.06300797 L101.159923,4.57488299 L99.5389852,4.57488299 L99.5389852,7.75277373 L101.159923,7.75277373 L101.159923,15.9001178 L105.51086,15.9001178 Z M114.756603,16.1560553 C116.796994,16.1560553 118.394826,15.5997467 119.550099,14.4871295 C120.705373,13.3745122 121.283009,11.9473051 121.283009,10.2055082 C121.283009,8.65566439 120.817345,7.35109403 119.886017,6.29179711 C118.727189,4.97656269 117.01383,4.31894548 114.745939,4.31894548 C112.762423,4.31894548 111.187697,4.87880878 110.021759,5.99853538 C108.855821,7.11826199 108.272853,8.54191439 108.272853,10.2694926 C108.272853,12.1250395 108.962462,13.6251177 110.341681,14.7697271 C111.464962,15.6939459 112.936603,16.1560553 114.756603,16.1560553 Z M114.777931,13.223438 C114.159415,13.223438 113.645763,12.9817192 113.236974,12.4982817 C112.828185,12.0148442 112.62379,11.2683598 112.62379,10.2588285 C112.62379,9.26351598 112.829962,8.52236361 113.242306,8.0353714 C113.65465,7.54837919 114.177189,7.30488309 114.809923,7.30488309 C115.407111,7.30488309 115.908322,7.54482451 116.313556,8.02470734 C116.71879,8.50459017 116.921408,9.23507848 116.921408,10.2161723 C116.921408,11.2683598 116.720568,12.0326176 116.318888,12.5089458 C115.917208,12.9852739 115.403556,13.223438 114.777931,13.223438 Z M127.756096,15.9001178 L127.756096,10.1201957 C127.756096,9.25996129 127.916057,8.64144564 128.235978,8.26464875 C128.5559,7.88785186 128.964689,7.69945342 129.462346,7.69945342 C129.768049,7.69945342 130.03465,7.78654326 130.26215,7.96072296 C130.48965,8.13490265 130.649611,8.36418001 130.742033,8.64855502 C130.798908,8.8262894 130.827346,9.16398472 130.827346,9.66164099 L130.827346,9.66164099 L130.827346,15.9001178 L135.178283,15.9001178 L135.178283,10.0562113 C135.178283,9.23863316 135.33469,8.64500033 135.647502,8.27531281 C135.960315,7.9056253 136.372658,7.72078154 136.884533,7.72078154 C137.318205,7.72078154 137.680783,7.91628936 137.972268,8.307305 C138.17133,8.55613314 138.270862,8.93648471 138.270862,9.44835973 L138.270862,9.44835973 L138.270862,15.9001178 L142.621799,15.9001178 L142.621799,8.78718783 C142.621799,7.25156278 142.280549,6.12294945 141.598049,5.40134786 C140.915549,4.67974627 139.966448,4.31894548 138.750744,4.31894548 C137.926057,4.31894548 137.232893,4.45224626 136.671252,4.71884784 C136.109612,4.98544941 135.487541,5.48843771 134.805041,6.22781274 C134.470901,5.59507834 134.040783,5.11875019 133.51469,4.79882831 C132.988596,4.47890642 132.274104,4.31894548 131.371213,4.31894548 C130.532307,4.31894548 129.816037,4.46468767 129.222404,4.75617206 C128.628771,5.04765644 128.040471,5.53820334 127.457502,6.22781274 L127.457502,6.22781274 L127.457502,4.57488299 L123.405158,4.57488299 L123.405158,15.9001178 L127.756096,15.9001178 Z M148.806956,16.1560553 C149.823596,16.1560553 150.715823,15.999649 151.483636,15.6868365 C152.045276,15.4522271 152.610472,15.0612115 153.179222,14.5137896 C153.228987,14.8408209 153.278753,15.0807623 153.328518,15.2336139 C153.378284,15.3864654 153.484925,15.6086334 153.64844,15.9001178 L153.64844,15.9001178 L157.722112,15.9001178 C157.494612,15.430899 157.347093,15.0452154 157.279554,14.743067 C157.212015,14.4409185 157.178245,14.0232427 157.178245,13.4900396 L157.178245,13.4900396 L157.178245,8.48859407 C157.178245,7.95539093 157.071605,7.39552762 156.858323,6.80900416 C156.645042,6.22248071 156.353558,5.76925803 155.98387,5.44933614 C155.457776,4.98722675 154.800159,4.68330096 154.011018,4.53755877 C153.221878,4.39181657 152.1768,4.31894548 150.875784,4.31894548 C150.065315,4.31894548 149.311721,4.37937517 148.615003,4.50023455 C147.918284,4.62109393 147.370862,4.79171893 146.972737,5.01210957 C146.418206,5.3178127 145.993421,5.6786135 145.698381,6.09451195 C145.403342,6.5104104 145.17762,7.08093777 145.021213,7.80609405 L145.021213,7.80609405 L149.169534,8.24332063 C149.340159,7.75277373 149.564104,7.41863309 149.84137,7.24089871 C150.196839,7.0133987 150.730042,6.8996487 151.440979,6.8996487 C151.995511,6.8996487 152.382972,7.00628933 152.603362,7.21957059 C152.823753,7.43285184 152.933948,7.80609405 152.933948,8.33929719 C152.393636,8.55257845 151.881761,8.7249808 151.398323,8.85650424 C150.914886,8.98802769 149.859143,9.21730504 148.231096,9.5443363 C146.873206,9.81449256 145.941878,10.2268363 145.437112,10.7813676 C144.932346,11.3358989 144.679963,12.0432817 144.679963,12.9035161 C144.679963,13.8206255 145.0301,14.5919927 145.730374,15.2176178 C146.430647,15.8432428 147.456174,16.1560553 148.806956,16.1560553 Z M150.438557,13.7459771 C149.976448,13.7459771 149.626311,13.6375591 149.388147,13.4207232 C149.149983,13.2038872 149.030901,12.9248442 149.030901,12.5835942 C149.030901,12.2850005 149.15176,12.0183989 149.393479,11.7837895 C149.628089,11.5562895 150.186175,11.3252348 151.067737,11.0906254 C151.71469,10.9271098 152.336761,10.7387113 152.933948,10.5254301 L152.933948,10.5254301 L152.933948,11.2185942 C152.933948,11.7589067 152.846858,12.1979106 152.672679,12.5356059 C152.498499,12.8733013 152.20346,13.1594536 151.787561,13.394063 C151.371663,13.6286724 150.921995,13.7459771 150.438557,13.7459771 Z M164.12055,15.9001178 L164.12055,10.4614457 C164.12055,9.4305863 164.284066,8.71609408 164.611097,8.31796907 C164.938128,7.91984405 165.364691,7.72078154 165.890785,7.72078154 C166.367113,7.72078154 166.7368,7.86830108 166.999847,8.16334015 C167.262894,8.45837923 167.394417,8.96136753 167.394417,9.67230505 L167.394417,9.67230505 L167.394417,15.9001178 L171.756019,15.9001178 L171.756019,8.70187533 C171.756019,7.20890652 171.416546,6.10517601 170.737601,5.3906838 C170.058656,4.67619158 169.118441,4.31894548 167.916957,4.31894548 C167.028285,4.31894548 166.274691,4.48068376 165.656175,4.80416034 C165.03766,5.12763691 164.426253,5.66617209 163.821956,6.41976587 L163.821956,6.41976587 L163.821956,4.57488299 L159.780277,4.57488299 L159.780277,15.9001178 L164.12055,15.9001178 Z M178.847621,3.220547 L178.847621,0.266601573 L174.507347,0.266601573 L174.507347,3.220547 L178.847621,3.220547 Z M178.847621,15.9001178 L178.847621,4.57488299 L174.507347,4.57488299 L174.507347,15.9001178 L178.847621,15.9001178 Z M185.214067,16.1560553 C186.230707,16.1560553 187.122934,15.999649 187.890746,15.6868365 C188.452387,15.4522271 189.017582,15.0612115 189.586332,14.5137896 C189.636098,14.8408209 189.685864,15.0807623 189.735629,15.2336139 C189.785395,15.3864654 189.892035,15.6086334 190.055551,15.9001178 L190.055551,15.9001178 L194.129223,15.9001178 C193.901723,15.430899 193.754204,15.0452154 193.686665,14.743067 C193.619125,14.4409185 193.585356,14.0232427 193.585356,13.4900396 L193.585356,13.4900396 L193.585356,8.48859407 C193.585356,7.95539093 193.478715,7.39552762 193.265434,6.80900416 C193.052153,6.22248071 192.760668,5.76925803 192.390981,5.44933614 C191.864887,4.98722675 191.20727,4.68330096 190.418129,4.53755877 C189.628989,4.39181657 188.58391,4.31894548 187.282895,4.31894548 C186.472426,4.31894548 185.718832,4.37937517 185.022113,4.50023455 C184.325395,4.62109393 183.777973,4.79171893 183.379848,5.01210957 C182.825316,5.3178127 182.400531,5.6786135 182.105492,6.09451195 C181.810453,6.5104104 181.58473,7.08093777 181.428324,7.80609405 L181.428324,7.80609405 L185.576645,8.24332063 C185.74727,7.75277373 185.971215,7.41863309 186.248481,7.24089871 C186.603949,7.0133987 187.137153,6.8996487 187.84809,6.8996487 C188.402621,6.8996487 188.790082,7.00628933 189.010473,7.21957059 C189.230864,7.43285184 189.341059,7.80609405 189.341059,8.33929719 C188.800746,8.55257845 188.288871,8.7249808 187.805434,8.85650424 C187.321996,8.98802769 186.266254,9.21730504 184.638207,9.5443363 C183.280316,9.81449256 182.348988,10.2268363 181.844223,10.7813676 C181.339457,11.3358989 181.087074,12.0432817 181.087074,12.9035161 C181.087074,13.8206255 181.437211,14.5919927 182.137484,15.2176178 C182.837758,15.8432428 183.863285,16.1560553 185.214067,16.1560553 Z M186.845668,13.7459771 C186.383559,13.7459771 186.033422,13.6375591 185.795258,13.4207232 C185.557094,13.2038872 185.438012,12.9248442 185.438012,12.5835942 C185.438012,12.2850005 185.558871,12.0183989 185.80059,11.7837895 C186.035199,11.5562895 186.593285,11.3252348 187.474848,11.0906254 C188.121801,10.9271098 188.743871,10.7387113 189.341059,10.5254301 L189.341059,10.5254301 L189.341059,11.2185942 C189.341059,11.7589067 189.253969,12.1979106 189.079789,12.5356059 C188.90561,12.8733013 188.610571,13.1594536 188.194672,13.394063 C187.778774,13.6286724 187.329106,13.7459771 186.845668,13.7459771 Z M200.623637,15.9001178 L200.623637,12.9568364 L202.255239,11.357227 L204.548013,15.9001178 L209.442817,15.9001178 L205.1452,8.54191439 L209.208208,4.57488299 L203.865513,4.57488299 L200.623637,8.32863313 L200.623637,0.266601573 L196.187387,0.266601573 L196.187387,15.9001178 L200.623637,15.9001178 Z" id="infomaniak" fill="#0098FF" fill-rule="nonzero"></path>
        </g>
    </g>
</svg>