<svg width="24" height="24" xmlns="http://www.w3.org/2000/svg">
    <path d="M8.569 4c.07717865.00100033.14937338.0383119.19482997.10069172.0454566.06237983.05885949.1425334.03617003.21630828-.17973401.63247796-.2804999 1.28476912-.3 1.942-.00212538.1318228-.10818717.23832652-.24.241H4c-.55228475 0-1 .44771525-1 1v11c0 .5522847.44771525 1 1 1h7c.5522847 0 1-.4477153 1-1v-4.941c-.0005286-.0897392.0482456-.1725259.1269967-.215557.0787511-.0430311.1747672-.0393606.2500033.009557.46201.2791821.9511883.5107042 1.46.691.0974833.0333454.163.1249714.163.228V21.5c0 .6630412-.2633921 1.298926-.732233 1.767767C12.798926 23.7366079 12.1630412 24 11.5 24h-8c-.66304122 0-1.29892601-.2633921-1.76776695-.732233C1.2633921 22.798926 1 22.1630412 1 21.5v-15C1 5.11928813 2.11928813 4 3.5 4zM16.5 0c3.5880235.0044078962 6.4955921 2.91197652 6.5 6.5 0 3.5898509-2.9101491 6.5-6.5 6.5S10 10.0898509 10 6.5C10 2.91014913 12.9101491 0 16.5 0zm0 2.75c-.4142136 0-.75.33578644-.75.75v3H14.5c-.1921742-.00011065-.3674061.10992919-.4507807.28307543-.0833746.17314624-.0601361.37875495.0597807.52892457l2 2.5c.094869.119028.2387903.1883608.391.1883608s.296131-.0693328.391-.1883608l2-2.5c.1199168-.15016962.1431553-.35577833.0597807-.52892457C18.8674061 6.60992919 18.6921742 6.49988935 18.5 6.5h-1.25v-3c0-.41421356-.3357864-.75-.75-.75z" fill="#000" fill-rule="evenodd"/>
</svg>
