<svg xmlns:xlink="http://www.w3.org/1999/xlink" width="24" height="24" xmlns="http://www.w3.org/2000/svg">
    <defs>
        <path d="M8.50548741 2.00127626c.56789807-.00251346 1.08818961.3169502 1.34286637.82454685l.94761132 1.9012266c.084826.16927967.2579449.27617183.4472886.27617818h11.2712718c.8289619 0 1.5009684.67200643 1.5009684 1.50096837V20.5132343c0 .828962-.6720065 1.5009684-1.5009684 1.5009684H1.50096837C.672006428 22.0142027 0 21.3421963 0 20.5132343V3.50225952c0-.82896194.672006428-1.50098326 1.50096837-1.50098326zm-.74091795 7.26527271c-1.47180073 1.47264593-2.07743936 3.60233643-1.600958 5.62966893.50565123 2.2211344 2.23887734 3.9557148 4.45863214 4.4621161.4512511.1022665.9124714.15399 1.3751526.1542357 1.8372114.0046328 3.5752553-.833317 4.7164695-2.2739346 1.1412142-1.4406177 1.5597528-3.325041 1.1357737-5.1136943l.0009229.0009235c-.5069227-2.22058056-2.2401442-3.95443853-4.4595551-4.46119274-2.0261689-.476755-4.15463701.12923145-5.62643774 1.60187741zm7.74638764 2.17503793c.0724836.0100082.1357038.0543565.1698175.1191253.1667435.304818.290955.6310606.3691685.9696237.3811788 1.5907103-.2036042 3.2573934-1.4949054 4.2606126-1.2913013 1.0032192-3.0499765 1.1571819-4.495776.3935814v.0027704c-.06492515-.0347236-.10948993-.0982575-.12005408-.1711555-.01056414-.072898.01413021-.1464803.06652468-.198225l5.3086426-5.3107678c.0516393-.0514691.124407-.075739.1965822-.0655651zm-1.5541993-1.60495813c.0649252.03472358.10949.0982575.1200542.17115553.0105641.072898-.0141302.1464803-.0665247.198225l-5.30956553 5.3089209c-.05163932.0514691-.12440702.0757389-.19658221.065565-.07236957-.0102978-.13547054-.0545625-.1698175-.1191252-.85215834-1.6147297-.55315036-3.5966251.73740774-4.8877124 1.2905581-1.29108728 3.2713651-1.58994162 4.885028-.73702883z" id="a"/>
    </defs>
    <use fill="#9F9F9F" xlink:href="#a" transform="translate(-.007747 .492253)" fill-rule="evenodd"/>
</svg>
