<?xml version="1.0" encoding="UTF-8"?>
<svg width="24px" height="24px" viewBox="0 0 24 24" version="1.1" xmlns="http://www.w3.org/2000/svg" xmlns:xlink="http://www.w3.org/1999/xlink">
    <title>icons/actions/list</title>
    <g id="icons/actions/list" stroke="none" stroke-width="1" fill="none" fill-rule="evenodd">
        <path d="M4,17.747 C4.82842712,17.747 5.5,18.4185729 5.5,19.247 L5.5,21.747 C5.5,22.5754271 4.82842712,23.247 4,23.247 L1.5,23.247 C0.671572875,23.247 1.01453063e-16,22.5754271 0,21.747 L0,19.247 C-1.01453063e-16,18.4185729 0.671572875,17.747 1.5,17.747 L4,17.747 Z M22.5,17.747 C23.3284271,17.747 24,18.4185729 24,19.247 L24,21.747 C24,22.5754271 23.3284271,23.247 22.5,23.247 L10,23.247 C9.17157288,23.247 8.5,22.5754271 8.5,21.747 L8.5,19.247 C8.5,18.4185729 9.17157288,17.747 10,17.747 L22.5,17.747 Z M4,9.247 C4.82842712,9.247 5.5,9.91857288 5.5,10.747 L5.5,13.247 C5.5,14.0754271 4.82842712,14.747 4,14.747 L1.5,14.747 C0.671572875,14.747 1.01453063e-16,14.0754271 0,13.247 L0,10.747 C-1.01453063e-16,9.91857288 0.671572875,9.247 1.5,9.247 L4,9.247 Z M22.5,9.247 C23.3284271,9.247 24,9.91857288 24,10.747 L24,13.247 C24,14.0754271 23.3284271,14.747 22.5,14.747 L10,14.747 C9.17157288,14.747 8.5,14.0754271 8.5,13.247 L8.5,10.747 C8.5,9.91857288 9.17157288,9.247 10,9.247 L22.5,9.247 Z M4,0.747 C4.82842712,0.747 5.5,1.41857288 5.5,2.247 L5.5,4.747 C5.5,5.57542712 4.82842712,6.247 4,6.247 L1.5,6.247 C0.671572875,6.247 1.01453063e-16,5.57542712 0,4.747 L0,2.247 C-1.01453063e-16,1.41857288 0.671572875,0.747 1.5,0.747 L4,0.747 Z M22.5,0.747 C23.3284271,0.747 24,1.41857288 24,2.247 L24,4.747 C24,5.57542712 23.3284271,6.247 22.5,6.247 L10,6.247 C9.17157288,6.247 8.5,5.57542712 8.5,4.747 L8.5,2.247 C8.5,1.41857288 9.17157288,0.747 10,0.747 L22.5,0.747 Z" id="Combined-Shape" fill="#000000"></path>
    </g>
</svg>