<?xml version="1.0" encoding="UTF-8"?>
<svg width="24px" height="24px" viewBox="0 0 24 24" version="1.1" xmlns="http://www.w3.org/2000/svg" xmlns:xlink="http://www.w3.org/1999/xlink">
    <title>icons/actions/maintenance</title>
    <g id="icons/actions/maintenance" stroke="none" stroke-width="1" fill="none" fill-rule="evenodd">
        <path d="M23.7010884,4.91250161 C23.6473341,4.74451469 23.5097764,4.61674873 23.338237,4.57547909 C23.1666977,4.53420945 22.9860489,4.58541999 22.8617196,4.71056282 L19.2688976,8.30002472 C19.1625659,8.40616022 19.0144772,8.45945228 18.8648692,8.44542064 L16.2447454,8.20713288 C16.0020568,8.18526843 15.8095922,7.9933004 15.7871834,7.75075123 L15.5508268,5.12857611 C15.5370524,4.9788664 15.5907432,4.83080919 15.697287,4.72469854 L19.2911191,1.13220756 C19.4158036,1.00789406 19.4667066,0.827634113 19.4254534,0.656496996 C19.3842001,0.48535988 19.2567483,0.348060935 19.089105,0.294161607 C16.5264322,-0.458342791 13.7573937,0.257707876 11.8812394,2.15805659 C9.88504993,4.13741085 9.25488554,7.11251743 10.2772469,9.73076101 C10.3545509,9.91384232 10.314771,10.1253923 10.1762398,10.2679182 L0.802782319,19.6308099 C0.0285105265,20.3731893 -0.211963433,21.5138124 0.19673981,22.5054085 C0.538059998,23.2617301 1.22761124,23.8035605 2.0434219,23.9564805 C2.85923255,24.1094005 3.69831297,23.8541052 4.29055696,23.2727759 L13.7195683,13.8462734 C13.8625312,13.7085355 14.0736882,13.6688592 14.256926,13.745304 C16.8715123,14.7764682 19.8491044,14.154979 21.8324574,12.1641234 C23.7443887,10.2757291 24.4624236,7.48924134 23.7010884,4.91250161 Z" id="Path" fill="#000000"></path>
    </g>
</svg>