<?xml version="1.0" encoding="UTF-8"?>
<svg width="268px" height="258px" viewBox="0 0 268 258" version="1.1" xmlns="http://www.w3.org/2000/svg" xmlns:xlink="http://www.w3.org/1999/xlink">
    <title>kDRIVE_2020_DEPOT</title>
    <defs>
        <rect id="path-1" x="-7.69999987" y="8.39999986" width="40.5159635" height="23.7950897"></rect>
        <rect id="path-3" x="0" y="0" width="46.3039563" height="27.194387"></rect>
    </defs>
    <g id="mobile" stroke="none" stroke-width="1" fill="none" fill-rule="evenodd">
        <g id="Drive---App-mobile---Onboarding-3" transform="translate(-73.000000, -208.000000)">
            <g id="kDRIVE_2020_DEPOT" transform="translate(73.000000, 208.000000)">
                <g id="ILLUSTRATION" transform="translate(69.000000, 60.000000)" fill-rule="nonzero">
                    <g id="SAFE_2_" transform="translate(0.000000, 26.549999)">
                        <g id="SAFE_1_">
                            <polygon id="Path" fill="#4B77DA" points="0.471825851 10.179448 107.866599 21.9848238 106.601493 170.390057 11.0164769 146.361976"></polygon>
                            <polygon id="Path" fill="#436FD7" points="163.246575 10.179448 107.866599 21.9848238 106.601493 170.390057 155.801431 146.361976"></polygon>
                            <polygon id="Path" fill="#729BF7" points="163.246575 10.179448 56.6994224 0.0623612101 0.471825851 10.179448 107.866599 21.9848238"></polygon>
                            <path d="M100.269642,29.4967607 L99.0171883,161.999198 L17.3040493,142.062214 L6.85428113,17.8557877 L100.269642,29.4967607 Z M16.7094499,142.568069 L99.6434154,162.802242 L100.90852,28.940321 L6.16479884,17.1349453 L16.7094499,142.568069 Z" id="Shape" fill="#436FD7"></path>
                            <g id="Group" transform="translate(0.000000, 29.947822)">
                                <g transform="translate(1.447658, 0.000000)" id="Path">
                                    <path d="M5.199582,0.771427872 L1.56873034,0.297189426 C0.727435438,0.189695378 0.0885573577,0.758781513 0.145487088,1.56182528 L2.51755917,34.4866198 C2.5744889,35.2959867 3.31457539,36.0421219 4.15587028,36.1559391 L7.78672195,36.6301775 C7.88160483,36.6428239 7.97016219,36.6428239 8.05871955,36.6365007 L5.47790512,0.828336485 C5.38934777,0.803043768 5.29446488,0.78407423 5.199582,0.771427872 Z" fill="#A1A0A0"></path>
                                    <path d="M9.2099652,35.3655417 L6.83789312,2.4407472 C6.78728891,1.72622794 6.19901504,1.05597094 5.47790512,0.834659664 L8.05871955,36.6428239 C8.76085288,36.6048848 9.2605694,36.0800609 9.2099652,35.3655417 Z" fill="#666666"></path>
                                </g>
                                <g transform="translate(0.000000, 5.058543)" id="Path">
                                    <path d="M16.4201766,27.3730431 L4.31944627,25.7922483 L7.88704268,0.132786765 L16.1545046,1.21405042 C16.6478956,1.27728221 17.0780313,1.71358158 17.1096589,2.18782003 L18.8302019,26.2917794 C18.8491785,26.5383834 18.7163424,26.7280788 18.5139256,26.841896 C18.3241598,26.9367437 16.6542211,27.3983358 16.4201766,27.3730431 Z" fill="#666666"></path>
                                    <path d="M16.3442703,27.3603967 L2.72541384,25.5772602 C2.21304627,25.5077052 1.77025948,25.0587595 1.73230633,24.5655515 L0.024414428,0.897891457 C-0.0135387253,0.411006653 0.378643859,0.0632317927 0.884685902,0.132786765 L14.5035424,1.91592332 C15.01591,1.98547829 15.4586968,2.43442402 15.4966499,2.927632 L17.2045418,26.595292 C17.242495,27.0821768 16.8566379,27.4299517 16.3442703,27.3603967 Z" fill="#BBBBBA"></path>
                                </g>
                            </g>
                            <g id="Group" transform="translate(4.692175, 100.221737)">
                                <g transform="translate(1.346113, 0.000000)" id="Path">
                                    <path d="M4.35196158,1.13817227 L1.23347748,0.448945729 C0.512367569,0.290866247 -0.0442786788,0.727165617 0.00632552555,1.42271534 L2.01151712,29.7884976 C2.06212133,30.4840473 2.69467388,31.1859202 3.4157838,31.3439997 L6.53426789,32.0332262 C6.61649972,32.0521957 6.69240603,32.0585189 6.76831234,32.0648421 L4.59233155,1.2203736 C4.51642524,1.1887577 4.43419341,1.15714181 4.35196158,1.13817227 Z" fill="#A1A0A0"></path>
                                    <path d="M7.76141985,31.0594566 L5.75622825,2.69367437 C5.71194957,2.0740028 5.21223305,1.46065441 4.59233155,1.21405042 L6.76831234,32.0585189 C7.37556279,32.0901348 7.80569853,31.6791282 7.76141985,31.0594566 Z" fill="#666666"></path>
                                </g>
                                <g transform="translate(0.000000, 4.426225)" id="Path">
                                    <path d="M14.0604196,24.5718747 L3.66125555,22.2702374 L6.75443755,0.594378852 L13.8580027,2.16885049 C14.2818129,2.26369818 14.6486934,2.66838165 14.6803211,3.07306513 L16.1288664,23.3957633 C16.1415175,23.6107514 16.027658,23.7625077 15.8568688,23.8383859 C15.7430093,23.8889713 14.9333421,24.3442402 14.4336256,24.5276124 C14.2501853,24.5971674 14.1110238,24.584521 14.0604196,24.5718747 Z" fill="#666666"></path>
                                    <path d="M13.9971643,24.5592283 L2.30126756,21.9667248 C1.8648063,21.8718771 1.47894924,21.4482241 1.45364714,21.0245711 L0.0114273118,0.638641107 C-0.0202003159,0.214988095 0.315052538,-0.0442622549 0.751513801,0.0505854342 L12.4474105,2.64308894 C12.8838718,2.73793663 13.2697289,3.16158964 13.295031,3.58524265 L14.7372508,23.9711726 C14.7688784,24.3948256 14.4336256,24.6603992 13.9971643,24.5592283 Z" fill="#BBBBBA"></path>
                                </g>
                            </g>
                            <polygon id="Path" fill="#2F5BB2" points="58.8627522 6.227461 43.3209359 8.45954329 100.90852 14.0302642 115.008117 11.6527488"></polygon>
                            <polygon id="Path" fill="#497DC9" points="58.8627522 6.227461 58.8627522 7.49209686 110.232345 12.4557926 115.008117 11.6527488"></polygon>
                            <polygon id="Path" fill="#5D8DE2" points="58.8627522 6.227461 58.8627522 7.49209686 48.5900987 8.96539763 43.3209359 8.45954329"></polygon>
                        </g>
                        <g id="LOCK" transform="translate(24.236495, 50.299083)">
                            <ellipse id="Oval" fill="#5D5850" transform="translate(30.565819, 34.998862) rotate(-13.149645) translate(-30.565819, -34.998862) " cx="30.5658187" cy="34.9988624" rx="23.7144458" ry="29.9541148"></ellipse>
                            <ellipse id="Oval" fill="#CDCDCD" transform="translate(29.933266, 34.998862) rotate(-13.149645) translate(-29.933266, -34.998862) " cx="29.9332661" cy="34.9988624" rx="23.7144458" ry="29.9541148"></ellipse>
                            <ellipse id="Oval" fill="#5D5850" transform="translate(28.035482, 35.631054) rotate(-13.149645) translate(-28.035482, -35.631054) " cx="28.0354819" cy="35.6310539" rx="17.7810902" ry="22.4608435"></ellipse>
                            <ellipse id="Oval" fill="#A8A8A8" transform="translate(27.858074, 35.580972) rotate(-13.149645) translate(-27.858074, -35.580972) " cx="27.8580737" cy="35.5809718" rx="11.0633678" ry="14.2467006"></ellipse>
                            <g id="Group" transform="translate(11.450756, 15.030047)" fill="#FFFFFF">
                                <path d="M25.8575247,12.0205139 L28.7609409,9.25728458 C28.6597325,9.09288192 28.5585241,8.93480244 28.4573157,8.77672296 L25.560225,11.5399523 C25.6551079,11.6980318 25.7626418,11.8561113 25.8575247,12.0205139 Z" id="Path"></path>
                                <path d="M15.9454262,4.9195836 C16.0339835,4.93222996 16.1162154,4.94487632 16.1984472,4.95752267 L16.0656112,0.0633819159 C15.9833793,0.0507355574 15.894822,0.0380891988 15.8125901,0.0254428403 C15.7240328,0.0127964817 15.6418009,0.0127964817 15.5595691,0.000150123173 L15.6924051,4.89429088 C15.774637,4.90061406 15.8568688,4.90693724 15.9454262,4.9195836 Z" id="Path"></path>
                                <path d="M6.64057809,9.2825773 L3.56637267,5.8048287 C3.47148979,5.93761546 3.3766069,6.07672541 3.28804955,6.21583535 L6.36225496,9.69358395 C6.45081232,9.55447401 6.53936968,9.41536406 6.64057809,9.2825773 Z" id="Path"></path>
                                <path d="M3.90795105,19.184676 C3.90795105,19.0961515 3.90795105,19.007627 3.90795105,18.9191025 L0.0304038885,18.4575104 C0.0304038885,18.5460349 0.0304038885,18.6345594 0.0304038885,18.723084 C0.0304038885,18.8116085 0.036729414,18.900133 0.0430549396,18.9886575 L3.9206021,19.4502496 C3.9206021,19.3617251 3.91427657,19.2732006 3.90795105,19.184676 Z" id="Path"></path>
                                <path d="M26.1231968,32.0649922 L29.1974022,35.5427408 C29.2922851,35.4099541 29.387168,35.2708441 29.4757253,35.1317342 L26.4015199,31.6539856 C26.3129625,31.7930955 26.2180797,31.9322055 26.1231968,32.0649922 Z" id="Path"></path>
                                <path d="M32.7143944,22.358912 L28.8368472,21.89732 C28.8431728,21.9858445 28.8494983,22.074369 28.8494983,22.1628935 C28.8494983,22.251418 28.8494983,22.3399425 28.8494983,22.428467 L32.7270454,22.8900591 C32.7270454,22.8015346 32.7270454,22.7130101 32.7270454,22.6244856 C32.7207199,22.5359611 32.7143944,22.4474365 32.7143944,22.358912 Z" id="Path"></path>
                                <path d="M16.8183487,36.4279859 C16.7297913,36.4153396 16.6475595,36.4026932 16.5653277,36.3900468 L16.6981637,41.2841876 C16.7803955,41.296834 16.8689529,41.3094803 16.9511847,41.3221267 C17.0397421,41.334773 17.1219739,41.334773 17.2042057,41.3474194 L17.0713697,36.4532786 C16.9828124,36.4406323 16.9005805,36.4406323 16.8183487,36.4279859 Z" id="Path"></path>
                                <path d="M6.89992463,29.3270556 L3.99650841,32.0902849 C4.09771682,32.2546876 4.19892522,32.4127671 4.30013363,32.5708466 L7.19722433,29.8076172 C7.10234145,29.6495377 7.00113304,29.4851351 6.89992463,29.3270556 Z" id="Path"></path>
                            </g>
                            <polygon id="Path" fill="#A8A8A8" points="15.7445639 30.1742115 19.1729987 25.4255039 37.0046552 34.4802966 24.8469951 48.6252486 18.9452798 45.0716219"></polygon>
                            <g id="Group" transform="translate(14.061974, 26.557353)">
                                <path d="M8.94429312,19.2540809 C5.49055617,19.2540809 2.23923604,16.0798449 1.21450091,11.7042048 C0.645203606,9.26978082 0.841294898,6.81638726 1.77114715,4.79296989 C2.67569731,2.82646114 4.16219581,1.51123985 5.96497059,1.08758684 C6.36980423,0.992739146 6.78728891,0.948476891 7.19844807,0.948476891 C10.652185,0.948476891 13.9035052,4.12271289 14.9282403,8.49835295 C16.092137,13.4683719 13.9604349,18.2297258 10.1777706,19.1086478 C9.7792625,19.2034955 9.36177781,19.2540809 8.94429312,19.2540809 Z" id="Path" fill="#7D7D7D"></path>
                                <path d="M7.2047736,1.58079482 L7.2047736,1.58079482 C10.3675364,1.58079482 13.35951,4.55268908 14.3209898,8.64378607 C15.4026547,13.2723533 13.4796949,17.6922556 10.038609,18.4952994 C9.68437961,18.5775007 9.31749913,18.621763 8.94429312,18.621763 C5.77520482,18.621763 2.78323124,15.6498687 1.82807688,11.5587717 C0.746412015,6.93020449 2.66937178,2.51030217 6.11045768,1.7072584 C6.47101263,1.61873389 6.83789312,1.58079482 7.2047736,1.58079482 M7.2047736,0.316149929 C6.74301023,0.316149929 6.28124687,0.366744398 5.82580903,0.474238446 C1.69524085,1.44168487 -0.63887808,6.53184419 0.600924927,11.849638 C1.7078919,16.5730529 5.26916278,19.8863988 8.95061865,19.8863988 C9.41238201,19.8863988 9.87414538,19.8358134 10.3295832,19.7283193 C14.4601514,18.7608729 16.7942703,13.6707136 15.5544673,8.35291982 C14.4475003,3.62318172 10.8799039,0.309835784 7.2047736,0.316149929 L7.2047736,0.316149929 Z" id="Shape" fill="#A8A8A8"></path>
                            </g>
                        </g>
                    </g>
                    <g id="PHOTO" transform="translate(55.049998, 0.000000)">
                        <polygon id="Path" fill="#E9E9E9" points="1.58868101 6.00936329 2.01098078 9.38170641 18.7706092 3.85410642"></polygon>
                        <polygon id="Path" fill="#E9E9E9" points="9.68801255 24.0754871 20.0438116 8.30407797 21.3107109 6.26926192 3.89557233 12.0187266 12.2029023 37.3429949 21.3044079 38.2304536 23.35918 31.3589876"></polygon>
                        <polygon id="Path" fill="#E9E9E9" points="5.44610584 36.6837399 8.85601896 37.0133674 3.39133379 20.3544995"></polygon>
                        <polygon id="Path" fill="#E9E9E9" points="33.2485583 2.03481605 31.0614236 2.30739266 34.6667292 13.2992027"></polygon>
                        <path d="M21.3107109,6.26926192 L21.3107109,6.26926192 L20.0438116,8.30407797 L9.68801255,24.0754871 L13.5391344,18.2119206 L15.3291812,21.7680945 L15.6380273,27.2449825 L9.68801255,24.0754871 L23.3654829,31.3526486 L21.3107109,38.2304536 L30.1348853,39.0925564 C29.220953,33.8882449 28.3826564,28.4620688 27.6262986,22.8520619 C25.1744387,17.5906995 22.99991,12.0377436 21.3107109,6.26926192 Z" id="Path" fill="#F9C7A1"></path>
                        <polygon id="Path" fill="#FFFFFF" points="15.3228782 21.7744335 13.5391344 18.2119206 9.68801255 24.0754871 15.6380273 27.2449825"></polygon>
                        <path d="M21.3107109,6.26926192 C22.99991,12.0377436 25.1807417,17.5906995 27.6199956,22.8520619 C26.8384259,17.0201903 26.1514009,11.0044881 25.5967385,4.84932797 L21.3107109,6.26926192 Z" id="Path" fill="#F39D73"></path>
                        <path d="M36.6836834,29.3178325 L28.3637475,3.94919128 L27.5821777,4.2090899 L25.6723743,4.84298898 L25.6030415,4.86834495 C26.1640068,11.017166 26.8447289,17.0392073 27.6262986,22.8710789 C28.3763534,28.4810857 29.220953,33.9072619 30.1348853,39.1115733 L31.3765727,39.2320142 L36.7530162,39.7581504 L38.0199155,39.8849302 L39.3246327,40.01171 L40.2196561,40.1004559 L36.6836834,29.3178325 Z" id="Path" fill="#EE784E"></path>
                        <polygon id="Path" fill="#FFFFFF" points="34.6667292 13.2992027 31.0614236 2.30739266 30.3176718 0.0380339449 18.7706092 3.85410642 2.01098078 9.38170641 0.00663258899 10.0473004 3.39133379 20.3544995 8.85601896 37.0133674 12.2029023 37.3429949 3.89557233 12.0187266 21.3107109 6.26926192 25.5967385 4.85566697 25.6660713 4.83664999 27.5758747 4.20275091 28.3574445 3.94285229 36.6836834 29.3178325 40.2133531 40.0814389 41.990794 40.2589307 43.5602364 40.4110665"></polygon>
                    </g>
                </g>
                <g id="HAND_2" transform="translate(191.000000, 3.000000)">
                    <g id="HAND_3_" transform="translate(12.843967, 0.000000)" fill-rule="nonzero">
                        <g id="BRACLET_BACK_1_" transform="translate(49.921559, 2.032200)" fill="#3F2728">
                            <path d="M1.24955673,5.61212002 C0.58027102,3.92978311 0.151408333,2.07206746 0.00195618425,0.493658705 C2.54264271,0.36374852 3.41986184,2.3773564 3.41986184,2.3773564 L1.24955673,5.61212002 Z" id="BRACLET_BACK_6_"></path>
                            <path d="M4.47902272,17.1221625 C4.47902272,17.1221625 8.98857885,15.5762313 9.32647066,17.0637029 C9.66436248,18.5511745 8.67018079,20.9025489 7.83194918,20.4218812 C6.98721964,19.934718 4.47902272,17.1221625 4.47902272,17.1221625 Z" id="BRACLET_BACK_2_"></path>
                        </g>
                        <path d="M61.5547914,18.6931814 L44.2573297,21.0185737 C44.2573297,21.0185737 38.3767126,27.3387043 29.7279817,27.7803989 C21.0792508,28.2220935 19.0843896,28.891131 19.0843896,28.891131 C19.0843896,28.891131 11.9886615,38.2056913 10.3251941,39.5307752 C8.66172669,40.8623546 6.88779467,40.7519309 6.77733004,39.9724698 C6.6668654,39.1995042 8.21986816,36.6467691 8.21986816,36.6467691 L3.74929955,30.6059454 C3.74929955,30.6059454 2.59266988,33.3210683 0.233925102,32.2103362 C-0.194937585,29.0015546 0.233925102,14.9192905 0.233925102,14.9192905 C0.233925102,14.9192905 10.2147294,6.49461497 11.4363383,5.49430654 C12.6579472,4.49399811 13.4311996,4.16272714 16.2058112,4.49399811 C18.9804229,4.82526909 41.1578221,9.04085461 41.1578221,9.04085461 L54.6864905,3.16241871 C54.6734947,3.17540973 59.891324,7.60534706 61.5547914,18.6931814 Z" id="HAND_4_" fill="#EECEB5"></path>
                        <path d="M10.1497503,33.496447 L14.8932315,31.3334425 L7.67404293,40.5505701 C8.36932031,40.5895432 9.35700408,40.3037408 10.3186962,39.5372707 C11.9821636,38.2056913 19.0778916,28.8976265 19.0778916,28.8976265 C19.0778916,28.8976265 21.0727529,28.2350845 29.7214838,27.7868944 C38.3702146,27.3451998 44.2508318,21.0250692 44.2508318,21.0250692 L61.5482935,18.6996769 C59.8848261,7.61184257 54.6734947,3.18190524 54.6734947,3.18190524 L53.59484,3.64958191 C56.4344308,7.55987849 57.8899648,15.6662741 57.8899648,15.6662741 L44.5822257,17.9526933 L22.8726766,13.3798548 C22.8726766,13.3798548 15.8029402,12.132717 14.8867336,12.0482754 C13.9705269,11.9638338 12.9763452,11.8793922 11.9756656,12.5484296 C10.974986,13.2109716 6.32247567,15.8741304 5.23732311,16.7899972 C5.06837721,18.1215766 4.49006237,24.7729781 3.65832868,27.5985246 C3.17748263,29.2418885 2.0338488,31.1580637 1.15662967,32.4831476 C2.87857834,32.6065623 3.72980579,30.6254319 3.72980579,30.6254319 L6.04956305,33.7562674 L7.33615111,31.6127494 C9.36999992,34.6851252 8.20037441,36.6662556 8.20037441,36.6662556 C10.6760817,37.2378604 10.1497503,33.496447 10.1497503,33.496447 Z" id="HAND_SHADOW_1_" fill="#E0A881"></path>
                        <path d="M57.7535085,22.4475858 C59.5469343,17.8357742 57.4351104,6.40367784 49.9235155,2.5258588 C50.1769344,1.0578737 53.2439524,-0.494553015 54.7774614,0.148502404 C62.1201104,5.50080205 64.004507,14.1008563 62.6009564,20.1156979 C62.1331062,21.4472773 58.8191673,22.986713 57.7535085,22.4475858 Z" id="BRACLET_2_" fill="#5F4041"></path>
                    </g>
                    <g id="Rectangle-Copy-8" transform="translate(21.500000, 46.500000) rotate(-32.000000) translate(-21.500000, -46.500000) translate(9.000000, 26.000000)">
                        <mask id="mask-2" fill="white">
                            <use xlink:href="#path-1"></use>
                        </mask>
                        <rect stroke="#FFFFFF" stroke-width="1.86899997" x="-8.63449985" y="7.46549987" width="42.3849634" height="25.6640896"></rect>
                        <path d="M-3.71212412,12.7971329 L11.6878756,12.7971329 L11.6389396,12.7298964 L11.6389396,12.7298964 L11.5417859,12.6148294 C11.5282922,12.6000903 11.5139247,12.5848606 11.4987089,12.5693007 L11.3974409,12.4732652 C11.0828404,12.1972223 10.5379542,11.9186106 9.8890068,12.426461 C9.40611269,11.4183727 8.46487812,11.4097123 8.12375384,11.6178542 L8.05258231,11.4580032 L8.05258231,11.4580032 L7.97170532,11.2937906 C7.5547339,10.4941015 6.74087592,9.64044009 4.70666331,10.1663454 C4.70666331,8.98677835 3.24716513,9.09561259 2.96625655,9.96657548 C2.18520709,8.98677835 -0.0977250842,9.74890699 0.00809061299,11.2731643 C-0.731450748,10.7558405 -1.57651549,11.599667 -1.35611468,12.1983997 L-3.71212412,12.7971329 Z" id="Fill-220" fill="#FFFFFF" fill-rule="nonzero" mask="url(#mask-2)"></path>
                        <polygon id="Fill-51-Copy" fill="#5C89F7" fill-rule="nonzero" mask="url(#mask-2)" points="2.43473646 30.0647214 0.518129184 27.9473629 2.04594983 28.5285411 -1.80815268 13.2999998 -4.11376125 22.4100409 -2.40732045 21.7780592 -4.45462018 23.7567216 -8.39999986 46.3459762 4.78376604 46.3459762"></polygon>
                        <polygon id="Fill-51-Copy-2" fill="#5C89F7" fill-rule="nonzero" mask="url(#mask-2)" points="26.934736 23.7647215 25.0181288 21.647363 26.5459494 22.2285412 22.6918469 6.99999988 20.3862383 16.110041 22.0926791 15.4780593 20.0453794 17.4567217 16.0999997 47.0459762 29.2837656 47.0459762"></polygon>
                        <g id="Group-10" mask="url(#mask-2)" fill-rule="nonzero">
                            <g transform="translate(1.400000, 18.200000)">
                                <path d="M6.12479454,2.6127209 C3.77336353,6.14338478 0,17.5834942 0,17.5834942 L0.683649898,23.438292 L11.8125256,23.438292 L10.855465,0.0466898247 L7.62892275,0.86697239 L6.12479454,2.6127209 Z" id="Fill-53" fill="#2B5969"></path>
                                <path d="M6.10058821,2.56794036 C6.10058821,2.56794036 5.60677333,2.04930922 5.41458325,1.83223621 C5.22239316,1.61540738 4.92472086,1.33973198 5.20188959,1.07089352 C5.5474859,0.735883204 6.07341481,0.231658491 6.23818446,0.0958962922 C6.40270707,-0.0398659065 6.60700167,-0.0349823742 6.77868819,0.133011138 L7.61044142,0.837460676 L6.10058821,2.56794036 Z" id="Fill-55" fill="#1E3C46"></path>
                                <path d="M14.0536372,0.837460676 L14.8851434,0.133011138 C15.0570771,-0.0349823742 15.2613717,-0.0398659065 15.4261413,0.0958962922 C15.5909109,0.231658491 16.1168398,0.735883204 16.4621891,1.07089352 C16.7393578,1.33973198 16.4416855,1.61540738 16.2494954,1.83223621 C16.0573054,2.04930922 15.5632435,2.56794036 15.5632435,2.56794036 L14.0536372,0.837460676 Z" id="Fill-57" fill="#1E3C46"></path>
                                <path d="M15.6257947,2.6127209 L14.1202863,0.86697239 L10.8900091,0.0466898247 L10.8900091,2.08951364 L7.79720072,2.08951364 L10.2645001,2.96669869 L10.4248807,2.69154685 L10.8900091,2.69154685 L10.8900091,23.438292 L21.0730692,23.438292 L21.7574583,17.5834942 C21.7574583,17.5834942 17.9800145,6.14338478 15.6257947,2.6127209" id="Fill-59" fill="#275161"></path>
                                <polygon id="Fill-61" fill="#1F414D" points="8.54423791 5.83622808 10.1512264 9.29127511 11.5128524 9.29127511 13.1198407 5.83622808"></polygon>
                                <polygon id="Fill-63" fill="#A9CFDD" points="11.2951884 2.66132001 10.3691356 2.66132001 8.54423791 5.80071597 9.68819985 7.65713124 11.9758788 7.65713124 13.1198407 5.80071597"></polygon>
                                <polygon id="Fill-65" fill="#1E3C46" points="9.99162248 4.65641877 10.9020741 3.9686351 11.8125256 4.65641877 11.2605939 5.50939931 10.5984247 5.50939931"></polygon>
                                <path d="M7.57054272,23.3916022 C7.57054272,23.3916022 5.78085193,15.7937271 7.89582826,13.3383642 L10.8787291,11.9059053 L10.8787291,23.3916022 L7.57054272,23.3916022 Z" id="Fill-67" fill="#224450"></path>
                                <path d="M14.1402693,23.3916022 C14.1402693,23.3916022 15.9298498,15.7937271 13.8150039,13.3383642 L10.8320393,11.9059053 L10.8320393,23.3916022 L14.1402693,23.3916022 Z" id="Fill-69" fill="#1F414D"></path>
                            </g>
                        </g>
                    </g>
                    <path d="M58.5373364,16.3093295 C57.4261922,17.9461978 53.8783282,24.2923104 45.4505266,24.5131577 C37.022725,24.734005 35.0278637,24.5131577 35.0278637,24.5131577 C35.0278637,24.5131577 25.9372743,29.3912852 22.9417334,30.0538271 C19.9461926,30.7163691 17.4704852,31.0996041 17.2885435,27.9492821 C17.1066017,24.7989601 26.1582036,22.5190364 28.711886,19.9663012 C31.2655683,17.4135661 33.1434671,13.6461707 38.3612964,11.5416257 C43.5661299,9.43708068 58.5373364,16.3093295 58.5373364,16.3093295 Z" id="THUMB_1_" fill="#EECEB5" fill-rule="nonzero"></path>
                </g>
                <g id="HAND_1">
                    <g id="HAND_2_" fill-rule="nonzero">
                        <g id="BRACLET_BACK_5_" transform="translate(3.638835, 2.598204)" fill="#3F2728">
                            <path d="M9.01391406,5.74203029 C9.72088771,3.95966252 10.1783413,1.99022407 10.3342913,0.316980858 C7.63635511,0.176677855 6.70585302,2.31759775 6.70585302,2.31759775 L9.01391406,5.74203029 Z" id="BRACLET_BACK_4_"></path>
                            <path d="M5.59340919,17.9431951 C5.59340919,17.9431951 0.80574203,16.3011303 0.452255204,17.8756418 C0.0987683778,19.4501533 1.14363385,21.9444289 2.03774758,21.4351809 C2.93186132,20.9311294 5.59340919,17.9431951 5.59340919,17.9431951 Z" id="BRACLET_BACK_3_"></path>
                        </g>
                        <path d="M1.64267407,20.0529365 L19.9876007,22.5212301 C19.9876007,22.5212301 26.2204051,29.2245958 35.3954676,29.6922725 C44.5705301,30.1599491 46.6862527,30.8666606 46.6862527,30.8666606 C46.6862527,30.8666606 54.2134428,40.7398348 55.9756786,42.1532577 C57.7379143,43.5666805 59.6197119,43.4471631 59.7392736,42.6209343 C59.8588353,41.7947055 58.2109629,39.0925736 58.2109629,39.0925736 L62.951845,32.6854032 C62.951845,32.6854032 64.1786522,35.5642129 66.6790517,34.3898248 C67.1313069,30.9809815 66.6790517,16.0517028 66.6790517,16.0517028 C66.6790517,16.0517028 56.0952403,7.11907828 54.8008547,6.05901115 C53.5064691,4.99894402 52.6851321,4.65078471 49.7428741,4.99894402 C46.8006161,5.35229973 23.2781472,9.82121018 23.2781472,9.82121018 L8.93074069,3.59071758 C8.93593903,3.59591399 3.4101082,8.29866278 1.64267407,20.0529365 Z" id="HAND_1_" fill="#EECEB5"></path>
                        <path d="M56.1576203,35.7512836 L51.1308297,33.4596679 L58.7827798,43.2341104 C58.0498145,43.2756817 56.9945523,42.97429 55.9808769,42.1636505 C54.2186411,40.755424 46.691451,30.8770534 46.691451,30.8770534 C46.691451,30.8770534 44.5757284,30.170342 35.4006659,29.7026653 C26.2256035,29.2297922 19.992799,22.5316229 19.992799,22.5316229 L1.64787241,20.0633294 C3.4101082,8.3090556 8.94113736,3.60630681 8.94113736,3.60630681 L10.0847712,4.10516193 C7.07493485,8.25189511 5.53102916,16.8467531 5.53102916,16.8467531 L19.6445105,19.2734754 L42.6679392,14.4252272 C42.6679392,14.4252272 50.1639393,13.1001433 51.136028,13.0118044 C52.1081168,12.9234655 53.163379,12.8351265 54.2238394,13.5418379 C55.2842999,14.2485494 60.2227188,17.0701986 61.3663526,18.0367304 C61.5430961,19.4449569 62.161698,26.5016783 63.0402167,29.5000054 C63.554852,31.2408019 64.7660642,33.2725972 65.6913679,34.6756273 C63.8615538,34.8107339 62.9570434,32.7009924 62.9570434,32.7009924 L60.4982306,36.0214968 L59.1310683,33.7506667 C56.9789573,37.0088142 58.2109629,39.1133593 58.2109629,39.1133593 C55.6013984,39.7161425 56.1576203,35.7512836 56.1576203,35.7512836 Z" id="HAND_SHADOW" fill="#E0A881"></path>
                        <path d="M5.67658256,24.0333847 C3.7739917,19.1435652 6.01447438,7.02034653 13.9783246,2.9099882 C13.7132095,1.35106595 10.453853,-0.29099882 8.83197231,0.384534155 C1.03966714,6.05901115 -0.951295429,15.1839027 0.535428575,21.5598947 C1.02927046,22.9733176 4.54334538,24.6101859 5.67658256,24.0333847 Z" id="BRACLET_1_" fill="#5F4041"></path>
                    </g>
                    <g id="Rectangle-Copy-9" transform="translate(74.500000, 44.000000) rotate(19.000000) translate(-74.500000, -44.000000) translate(51.000000, 30.000000)">
                        <mask id="mask-4" fill="white">
                            <use xlink:href="#path-3"></use>
                        </mask>
                        <rect stroke="#FFFFFF" stroke-width="2.67363984" x="-1.33681992" y="-1.33681992" width="48.9775961" height="29.8680269"></rect>
                        <path d="M35.1201573,50.9334266 L1.12565636,16.8320295 L14.0232293,3.89448685 C17.6413835,15.1528431 32.3310661,34.9256899 44.4896789,41.5344423 L35.1201573,50.9334266 Z" id="Fill-228" fill="#0BA174" fill-rule="nonzero" mask="url(#mask-4)" transform="translate(22.807668, 27.413957) rotate(-51.000000) translate(-22.807668, -27.413957) "></path>
                        <g id="woman" mask="url(#mask-4)" fill-rule="nonzero">
                            <g transform="translate(15.320233, -1.178550)">
                                <path d="M19.5753139,13.5971935 C21.5007929,13.8239649 23.376974,15.1357563 24.3152688,17.3819762 C25.2532913,19.6280601 24.5572645,22.1268982 24.5572645,22.1268982 C24.5572645,22.1268982 22.7111796,31.2816866 22.5296488,32.0149185 C22.3479819,32.7480144 21.8891843,33.7514131 20.6661326,34.4287343 C19.4428087,35.1059197 18.5135018,34.9847119 16.4664122,34.591841 C14.4193224,34.1989702 19.5753139,13.5971935 19.5753139,13.5971935" id="Fill-91" fill="#FD6222"></path>
                                <path d="M20.5744762,31.1478263 C21.0509389,29.9202792 21.8657571,27.9052979 21.8657571,27.9052979 L18.5958081,22.049503 L16.3533814,34.589372 C18.4108896,34.9852135 19.3450631,35.1074748 20.5744762,34.425032 C21.0828308,34.1429538 21.4581427,33.8042681 21.7384632,33.4521501 C21.7180688,33.4388549 19.6795861,33.4526984 20.5744762,31.1478263" id="Fill-93" fill="#D14311"></path>
                                <path d="M8.26856362,19.1095693 C8.26856362,19.1095693 9.89798138,14.0712593 9.61915848,8.39939681 C9.59780413,7.9647408 9.24910657,7.11217229 9.07151409,6.15981789 C9.00312612,5.79240597 9.68768161,2.93993373 14.2941388,2.93993373 C19.4299946,2.93993373 19.9819639,5.41540703 20.3084962,6.94581747 C20.7859956,9.18269582 21.1307737,13.6484858 21.1307737,15.8688908 C21.1307737,16.7884333 20.8491126,17.48923 20.6116468,18.1214324 L8.26856362,19.1095693 Z" id="Fill-95" fill="#134159"></path>
                                <path d="M6.79859676,28.6643539 L10.1655327,22.4828198 L11.5759891,15.8021438 L9.57394074,16.8473287 L3.49117131,28.480608 L1.36679308,29.9634657 C1.65494497,30.4681976 0.76004964,31.5388781 0.183745858,31.2814676 L6.79859676,28.6643539 Z" id="Fill-99" fill="#F28502"></path>
                                <path d="M6.06361332,43.3640226 L7.69249558,33.1074739 L7.87343724,27.4093458 L6.74231422,23.1699719 L11.6289609,15.5574251 L12.805421,14.9191942 L12.6243436,16.6057811 L17.0133668,13.5971935 C17.0133668,13.5971935 19.547093,14.3266392 21.1307737,15.9220112 C20.974401,20.6614939 19.3677803,26.8498852 17.6920676,33.1074739 L20.587813,43.3640226 L6.06361332,43.3640226 Z" id="Fill-101" fill="#FF9F1D"></path>
                                <path d="M13.2787082,38.7710127 L10.6303178,39.3175395 C10.5284566,39.3384077 10.4182462,39.2770308 10.3854057,39.1810101 L8.6454165,34.2052564 C8.61257601,34.1090993 8.66893362,34.0133514 8.77079479,33.9923469 L11.4191852,33.44582 C11.5210464,33.4249519 11.6312568,33.4863288 11.6640973,33.5824858 L13.4040865,38.5581032 C13.436927,38.6542603 13.3805694,38.7500082 13.2787082,38.7710127" id="Fill-103" fill="#525252"></path>
                                <path d="M10.4646781,34.8601847 C10.5087065,35.0611321 10.3838945,35.2470618 10.1859615,35.2755028 C9.98776887,35.3040766 9.79152425,35.1641311 9.74736598,34.9631836 C9.7033376,34.762369 9.82814963,34.5763066 10.0262125,34.5478656 C10.2241455,34.5195575 10.4205198,34.6592373 10.4646781,34.8601847" id="Fill-105" fill="#828282"></path>
                                <path d="M9.37103877,34.3603614 C9.37103877,34.4618722 9.28891772,34.5442214 9.18740697,34.5442214 C9.08589622,34.5442214 9.00354706,34.4618722 9.00354706,34.3603614 C9.00354706,34.2590788 9.08589622,34.1767296 9.18740697,34.1767296 C9.28891772,34.1767296 9.37103877,34.2590788 9.37103877,34.3603614" id="Fill-107" fill="#828282"></path>
                                <path d="M9.27963953,36.6378463 L10.8245647,36.506246 L12.0532268,35.7082201 L11.7953202,34.9117131 L13.5158441,35.3741788 L14.5180936,35.06237 L15.197993,34.9117131 L15.618398,35.5886336 L15.4152749,36.2753585 C15.4152749,36.2753585 12.6747697,38.1924712 12.3103393,38.3971216 C11.945909,38.6020481 11.4692649,38.6020481 10.9927531,38.5727729 C10.516109,38.5434977 9.71923192,38.5142224 9.57102497,38.1046455 C9.42281803,37.6950685 9.12666879,37.1978041 9.02239462,36.9636023 C8.91825278,36.7296767 9.27963953,36.6378463 9.27963953,36.6378463" id="Fill-109" fill="#F0D0B9"></path>
                                <path d="M20.3957903,20.2120444 L15.3432315,25.2556443 L7.53358019,25.2556443 C9.13163417,25.5079591 9.98541901,26.4693448 9.98541901,26.4693448 L14.3442433,26.9637255 L16.9777908,29.9755907 L16.9777908,34.3538129 L19.3247454,39.6891054 L17.3862944,32.9424141 C18.5987287,28.4935275 19.774794,24.0802428 20.3957903,20.2120444" id="Fill-111" fill="#F28502"></path>
                                <path d="M17.9288538,20.7979518 L21.0027565,28.1488071 L14.5159228,35.1865703 C14.5159228,35.1865703 14.6977776,36.2308003 15.5114458,36.7491717 L24.4381992,29.7370003 L21.0027565,16.1696355 C21.0027565,16.1696355 16.3112816,16.9296323 17.9288538,20.7979518" id="Fill-113" fill="#FF9F1D"></path>
                                <path d="M21.1307737,15.8021438 C19.5304655,14.2888994 16.9701369,13.5971935 16.9701369,13.5971935 L15.2509062,14.7033003 L21.1307737,15.8021438 Z" id="Fill-115" fill="#F28502"></path>
                                <path d="M18.3077225,13.9897096 C17.6705547,14.84483 14.2139226,19.3888048 18.3660794,30.1150729 C18.3660794,30.1150729 18.4559239,30.213572 18.5180593,29.9649268 C18.5801947,29.7164186 19.1035876,27.690542 19.1346554,27.6067013 C19.1657231,27.5229976 19.163344,27.3475075 19.1166025,27.2618859 C19.0700009,27.1762642 16.7441213,19.3845579 20.0202249,14.9100395 C20.0592694,14.8568856 19.9600487,14.7771547 19.6492317,14.5937189 C19.3999903,14.4464496 18.658004,14.0609468 18.4868516,13.9897096 C18.351945,13.9334048 18.3077225,13.9897096 18.3077225,13.9897096" id="Fill-117" fill="#623F3D"></path>
                                <path d="M8.26856362,20.5795361 C8.5730017,19.1094487 9.02777093,17.7167342 9.52505242,16.513232 L11.5759891,15.4346521 L8.26856362,20.5795361 Z" id="Fill-119" fill="#623F3D"></path>
                                <polygon id="Fill-121" fill="#F0D0B9" points="12.4927805 15.2167254 13.9767046 11.475933 16.2099559 10.2897681 16.7208731 13.8937005 12.3109725 16.904619"></polygon>
                                <polygon id="Fill-123" fill="#E2AA85" points="16.7208731 13.8984733 16.2297654 10.2897681 14.083103 11.4773669 13.0459559 14.2010602 15.077773 15.0671604"></polygon>
                                <path d="M10.1060222,5.97000959 L10.1060222,8.87032255 C10.1060222,10.1588902 10.0920885,10.1280916 10.641087,11.0795324 C11.1900855,12.0309731 11.8560207,13.0826819 12.0389744,13.2783839 C12.2220654,13.4739479 12.8053763,13.8345535 13.7775155,13.3703653 C14.7496546,12.9061771 16.1450716,12.0008647 16.5111163,11.678516 C16.7975563,11.4263269 17.4032389,11.1491399 17.4032389,9.54941011 C17.8149877,9.57233639 18.5583317,8.77820309 18.5583317,7.75397828 C18.5583317,6.72961537 17.8720836,6.86772551 17.8720836,6.86772551 C17.8720836,6.86772551 17.9522374,5.30252329 17.9522374,3.86382995 C17.9522374,2.42513661 16.1907757,1.46996687 14.3322785,1.46996687 C12.473644,1.46996687 10.1060222,2.39060908 10.1060222,5.97000959" id="Fill-125" fill="#F0D0B9"></path>
                                <path d="M20.1648854,4.61780921 C20.1049649,3.97528583 20.0675315,3.52473672 19.7104325,2.8800162 C19.4435509,2.3982953 19.0882024,1.80548199 18.5495916,1.07315089 C18.0109807,0.340682466 17.2146446,-0.00536560941 16.5217218,0 C15.8457652,0.00534540202 13.3973751,0.149120138 11.4229624,0.761432986 C9.22798861,1.4419942 8.63605534,3.75172778 8.63605534,5.15555694 C8.63605534,5.54129068 8.68210656,5.92633784 8.7488943,6.29573042 C8.7488943,6.29573042 8.85405806,5.6416721 9.9545747,6.00790631 C10.6800835,6.24917872 13.0366405,6.22143994 14.8469114,4.4210287 C14.9667523,5.2184498 15.4893394,6.74023742 16.7770233,7.36587037 C17.1211956,7.01487874 17.3087668,6.93605668 17.5737633,6.90049063 C18.2385437,6.83938293 18.3994538,7.73196726 18.1005247,8.54078597 C19.5177445,10.7797994 20.3270072,13.1715135 20.763282,16.1696355 C20.763282,11.5617033 20.213495,5.14100095 20.1648854,4.61780921" id="Fill-127" fill="#174E62"></path>
                                <polygon id="Fill-129" fill="#E2AA85" points="10.4735139 9.55478463 11.051999 10.2897681 11.5759891 9.55478463"></polygon>
                            </g>
                        </g>
                    </g>
                    <path d="M18.4644883,17.5274825 C19.6393122,19.2630826 23.4029072,25.9924303 32.3440446,26.2262687 C41.2799836,26.460107 43.4009046,26.2262687 43.4009046,26.2262687 C43.4009046,26.2262687 53.0438172,31.3966941 56.2200003,32.1034055 C59.3961834,32.810117 62.0213429,33.2154368 62.2188797,29.8689503 C62.4164165,26.5276603 52.8098921,24.1061344 50.1067576,21.4040025 C47.403623,18.7018706 45.4074621,14.7006368 39.876433,12.471378 C34.3454038,10.2421192 18.4644883,17.5274825 18.4644883,17.5274825 Z" id="THUMB" fill="#EECEB5" fill-rule="nonzero"></path>
                </g>
            </g>
        </g>
    </g>
</svg>