<svg width="1024" height="1024" viewBox="0 0 1024 1024" fill="none" xmlns="http://www.w3.org/2000/svg">
<path d="M305.629 472.469C292.669 447.017 316.519 418.365 344.005 426.367L446.97 456.343C458.044 459.567 466.679 468.226 469.85 479.288C477.219 504.997 452.942 528.628 427.35 520.658L324.968 488.771C316.579 486.158 309.607 480.282 305.629 472.469Z" fill="white"/>
<path d="M504.536 590.206C527.357 597.615 532.33 627.553 513.141 641.996C505.367 647.848 495.222 649.546 485.977 646.545L383.831 613.379C361.011 605.97 356.037 576.032 375.227 561.588C383 555.737 393.146 554.038 402.39 557.04L504.536 590.206Z" fill="white"/>
</svg>
