<svg width="24" height="24" viewBox="0 0 24 24" fill="none" xmlns="http://www.w3.org/2000/svg">
<path fill-rule="evenodd" clip-rule="evenodd" d="M5.33317 4.80078C4.59688 4.80078 4 5.39766 4 6.13395V17.8676C4 18.6039 4.59688 19.2008 5.33317 19.2008H18.6668C19.4031 19.2008 20 18.6039 20 17.8676V6.13395C20 5.39766 19.4031 4.80078 18.6668 4.80078H5.33317ZM11.1683 9.12132C11.1683 10.0681 10.3897 10.8356 9.42919 10.8356C8.4687 10.8356 7.69006 10.0681 7.69006 9.12132C7.69006 8.17454 8.4687 7.40703 9.42919 7.40703C10.3897 7.40703 11.1683 8.17454 11.1683 9.12132ZM13.8043 11.0267C13.7286 10.9073 13.5959 10.8348 13.4532 10.8348C13.3104 10.8348 13.1777 10.9073 13.102 11.0267L11.093 14.1969C11.0549 14.2562 10.9887 14.2922 10.9175 14.2922C10.8463 14.2922 10.78 14.2562 10.7419 14.1969L9.43084 13.0196C9.35518 12.9002 9.22249 12.8277 9.07972 12.8277C8.93696 12.8277 8.80427 12.9002 8.7286 13.0196L5.29052 17.5848C5.25041 17.6478 5.24817 17.7273 5.28469 17.7923C5.3212 17.8574 5.39068 17.8977 5.46608 17.8976H18.324C18.3994 17.8977 18.4689 17.8574 18.5054 17.7923C18.5419 17.7273 18.5397 17.6478 18.4996 17.5848L13.8043 11.0267Z" fill="black"/>
</svg>
