<?xml version="1.0" encoding="UTF-8"?>
<svg width="30px" height="30px" viewBox="0 0 30 30" version="1.1" xmlns="http://www.w3.org/2000/svg" xmlns:xlink="http://www.w3.org/1999/xlink">
    <title>icon-circle</title>
    <g id="v222" stroke="none" stroke-width="1" fill="none" fill-rule="evenodd">
        <g id="Drive---App-mobile---Modifier-offre" transform="translate(-60.000000, -194.000000)">
            <g id="Group-4" transform="translate(-303.000000, 174.000000)">
                <g id="Fichier-Copy-3" transform="translate(343.000000, 0.000000)">
                    <g id="icon-circle" transform="translate(20.000000, 20.000000)">
                        <circle id="Oval" fill="#4BAF50" cx="15" cy="15" r="15"></circle>
                        <path d="M11.625,15.75 C14.7316017,15.75 17.25,18.2683983 17.25,21.375 C17.25,21.5821068 17.0821068,21.75 16.875,21.75 L16.875,21.75 L6.375,21.75 C6.16789322,21.75 6,21.5821068 6,21.375 C6,18.2683983 8.51839828,15.75 11.625,15.75 Z M18.375,15.75 C21.4802309,15.753307 23.996693,18.2697691 24,21.375 C24,21.5821068 23.8321068,21.75 23.625,21.75 L23.625,21.75 L18.75,21.75 C18.5428932,21.75 18.375,21.5821068 18.375,21.375 C18.3744549,19.611188 17.6802401,17.9183492 16.44225,16.662 C16.3522553,16.5695304 16.3161223,16.4372873 16.3465924,16.3119029 C16.3770625,16.1865185 16.4698553,16.0856062 16.59225,16.04475 C17.1664087,15.8497731 17.7686386,15.7502038 18.375,15.75 Z M18.375,8.25 C20.3425144,8.25 21.9374999,9.8449856 21.9374999,11.8125 C21.9374999,13.7800144 20.3425144,15.375 18.375,15.375 C17.4422353,15.37186 16.5487406,14.9991436 15.89025,14.3385 C15.7738649,14.2252567 15.7435909,14.0499707 15.81525,13.90425 C16.1422909,13.2554774 16.3126019,12.5390409 16.3125,11.8125 C16.3114391,11.0856576 16.1398398,10.3692051 15.8115,9.72075 C15.7398409,9.57502927 15.7701149,9.39974332 15.8865,9.2865 C16.5459096,8.62494007 17.4409347,8.25214783 18.375,8.25 Z M11.625,8.25 C13.5925144,8.25 15.1875,9.84498558 15.1875,11.8125 C15.1875,13.7800144 13.5925144,15.375 11.625,15.375 C9.65748558,15.375 8.0625,13.7800144 8.0625,11.8125 C8.0625,9.84498558 9.65748558,8.25 11.625,8.25 Z" id="icon" fill="#FFFFFF"></path>
                    </g>
                </g>
            </g>
        </g>
    </g>
</svg>