<svg width="24" height="24" xmlns="http://www.w3.org/2000/svg">
    <path d="M15.9579691 17.7267409c.2020451 0 .3842032.1217361.4616487.308411.0774455.186675.0349525.4016308-.1076914.544769l-1.7217925 1.7213633c-.0943255.0944452-.0978469.2463555-.0079991.3450728.9707595 1.0814115 2.44212 1.5665459 3.8654321 1.2745034 1.4233121-.2920424 2.584942-1.3174272 3.0517344-2.6938029.113006-.3415994.400725-.5961547.7534601-.6666129.3527351-.0704583.7161193.0540402.9516071.3260285.2354879.2719883.3067837.649545.1867049.9887211-.687208 2.0201555-2.388444 3.5371653-4.4802602 3.9880931-2.0918162.4509278-4.2666555-.2305258-5.7275098-1.7946302-.0469409-.0488418-.111748-.0764451-.1794784-.0764451-.0677303 0-.1325374.0276033-.1794783.0764451l-.9688833.9692046c-.1428685.1432776-.3579748.1863031-.544935.1089976-.1869602-.0773054-.3089621-.2597026-.3089621-.4620721v-4.4579408c0-.2762007.2238306-.5001055.4999398-.5001055zm.0780033-6.5811663c2.0860077-.455596 4.2583044.213146 5.7272971 1.7631495.0469082.048526.1114982.0759265.1789785.0759265.0674802 0 .1320702-.0274005.1789784-.0759265l1.0248765-1.0252163c.1428685-.1432777.3579748-.1863031.544935-.1089977.1869602.0773054.3089621.2597026.3089621.4620722v4.4619416c0 .2762006-.2238307.5001055-.4999398.5001055h-4.456463c-.2020451 0-.3842032-.1217361-.4616487-.3084111-.0774456-.186675-.0349525-.4016307.1076914-.5447689l1.6598-1.6593502c.0947986-.095179.0978834-.2481472.0069991-.3470732-.9757618-1.0706738-2.4446696-1.5455305-3.8622593-1.24856-1.4175897.2969705-2.5725976 1.3215106-3.0369093 2.693865-.1789187.5228478-.7476724.8016094-1.2703469.6226313-.5226746-.178978-.8013437-.7479203-.622425-1.2707681.6894886-2.0214283 2.3854663-3.5350235 4.4714739-3.9906196zm-11.45954492-.1735161c2.20251621-.8220863 4.66333877-.5596698 6.64311252.7084064.1211581.0769783.2033978.2023341.2257832.3441552s-.0172432.2864257-.1087973.3970012c-.8741712 1.0564655-1.46071586 2.3209005-1.70279478 3.6707747-.04303647.2379957-.25016284.4110951-.49194073.4110951H.502831376c-.158417297.0009069-.307893363-.0733402-.4029137814-.2001418-.0950204184-.1268017-.1243388901-.2911501-.0790281454-.4430023C.686393457 13.6049242 2.37391127 11.7941449 4.57642748 10.9720585zM7.00204823 0c2.62303649 0 4.74942767 2.12709632 4.74942767 4.7510026 0 2.62390628-2.12639118 4.7510026-4.74942767 4.7510026s-4.7494277-2.12709632-4.7494277-4.7510026C2.25262053 2.12709632 4.37901174 0 7.00204823 0z" fill="#000" fill-rule="nonzero"/>
</svg>
