<?xml version="1.0" encoding="UTF-8"?>
<svg width="24px" height="24px" viewBox="0 0 24 24" version="1.1" xmlns="http://www.w3.org/2000/svg" xmlns:xlink="http://www.w3.org/1999/xlink">
    <title>icon-unlock</title>
    <g id="icon-unlock" stroke="none" stroke-width="1" fill="none" fill-rule="evenodd">
        <g id="lock-unlock" fill="#000000" transform="translate(2.500000, 0.000266)">
            <path d="M17,9.49973396 L16.25,9.49973396 L16.25,6.74973396 C16.2490895,3.40045215 13.792728,0.558218653 10.4789168,0.0720659686 C7.16510553,-0.414086716 3.99588027,1.60284508 3.033,4.81073396 C2.90492028,5.2385595 3.01481195,5.70221633 3.32127988,6.02704939 C3.62774782,6.35188245 4.08423224,6.48854188 4.51877989,6.38554939 C4.95332754,6.28255691 5.29992029,5.95555951 5.428,5.52773396 C6.03505832,3.50852176 8.03047189,2.2394206 10.1165933,2.54574604 C12.2027147,2.85207149 13.7490525,4.64124236 13.75,6.74973396 L13.75,8.99973396 C13.75,9.27587633 13.5261424,9.49973396 13.25,9.49973396 L2,9.49973396 C0.8954305,9.49973396 0,10.3951645 0,11.499734 L0,21.999734 C0,23.1043035 0.8954305,23.999734 2,23.999734 L17,23.999734 C18.1045695,23.999734 19,23.1043035 19,21.999734 L19,11.499734 C19,10.3951645 18.1045695,9.49973396 17,9.49973396 Z M7.49997929,15.499734 C7.4956083,14.528022 8.19029678,13.6937602 9.14674258,13.5221362 C10.1031884,13.3505121 11.0445959,13.8911938 11.3783268,14.8038094 C11.7120576,15.7164249 11.3415301,16.7368631 10.5,17.222734 L10.5,19.499734 C10.5,20.0520187 10.0522847,20.499734 9.5,20.499734 C8.94771525,20.499734 8.5,20.0520187 8.5,19.499734 L8.5,17.222734 C7.88309049,16.8679916 7.50199419,16.2113627 7.49997929,15.499734 Z" id="Shape"></path>
        </g>
    </g>
</svg>