<?xml version="1.0" encoding="UTF-8"?>
<svg width="512px" height="434px" viewBox="0 0 512 434" version="1.1" xmlns="http://www.w3.org/2000/svg" xmlns:xlink="http://www.w3.org/1999/xlink">
    <title>face_id_edit_dark</title>
    <g id="face_id_edit_dark" stroke="none" stroke-width="1" fill="none" fill-rule="evenodd">
        <g id="Group-4" transform="translate(3.000000, 2.000000)">
            <g id="Group" stroke="#FFFFFF" stroke-width="3.17897372">
                <rect id="Rectangle" x="0" y="0" width="187.559449" height="324.255319" rx="28.6107635"></rect>
                <rect id="Rectangle" x="0" y="28.6107635" width="187.559449" height="267.033792"></rect>
            </g>
            <g id="Group-Copy" transform="translate(318.851064, 106.283688)" stroke="#FFFFFF" stroke-width="3.17897372">
                <rect id="Rectangle" x="0" y="0" width="187.559449" height="324.255319" rx="28.6107635"></rect>
                <polygon id="Rectangle" points="0 28.6107635 187.559449 28.6107635 187.559449 256.528388 187.559449 295.644556 125.688487 295.644556 0 295.644556"></polygon>
            </g>
            <g id="Group-2" transform="translate(35.127660, 90.070922)" stroke="#FFFFFF" stroke-width="3.60283688">
                <circle id="Oval" cx="59.4468085" cy="36.929078" r="35.1276596"></circle>
                <path d="M59.4468085,79.2624113 C43.7791543,79.2624113 29.5955514,85.675382 19.3283399,96.0413166 C9.05491918,106.41352 2.70212766,120.742985 2.70212766,136.570035 C2.70212766,137.162742 2.93879017,137.700097 3.32376818,138.088776 C3.70253687,138.471187 4.22538325,138.70922 4.80378251,138.70922 L114.089835,138.70922 C114.668234,138.70922 115.19108,138.471187 115.569849,138.088776 C115.954827,137.700097 116.191489,137.162742 116.191489,136.570035 C116.191489,120.742985 109.838698,106.41352 99.5652771,96.0413166 C89.2980656,85.675382 75.1144627,79.2624113 59.4468085,79.2624113 Z" id="Path"></path>
            </g>
            <g id="Group-3" transform="translate(32.425532, 77.460993)" stroke="#0098FF" stroke-linecap="round" stroke-width="3.06448194">
                <path d="M32.4255319,0 L3.06448194,0 C1.3720153,3.10901079e-16 -1.53953502e-15,1.3720153 0,3.06448194 L0,30.6241135 L0,30.6241135" id="Path-8"></path>
                <path d="M126.099291,0 L96.7382408,0 C95.0457742,3.10901079e-16 93.6737589,1.3720153 93.6737589,3.06448194 L93.6737589,30.6241135 L93.6737589,30.6241135" id="Path-8-Copy-2" transform="translate(109.886525, 15.312057) scale(-1, 1) translate(-109.886525, -15.312057) "></path>
                <path d="M32.4255319,59.4468085 L3.06448194,59.4468085 C1.3720153,59.4468085 -1.53953502e-15,60.8188238 0,62.5112905 L0,90.070922 L0,90.070922" id="Path-8-Copy" transform="translate(16.212766, 74.758865) scale(1, -1) translate(-16.212766, -74.758865) "></path>
                <path d="M126.099291,59.4468085 L96.7382408,59.4468085 C95.0457742,59.4468085 93.6737589,60.8188238 93.6737589,62.5112905 L93.6737589,90.070922 L93.6737589,90.070922" id="Path-8-Copy-3" transform="translate(109.886525, 74.758865) scale(-1, -1) translate(-109.886525, -74.758865) "></path>
            </g>
            <g id="Icons/interface-essential/lock-unlock" transform="translate(367.489362, 208.964539)" stroke="#FFFFFF" stroke-width="3.60283688">
                <g id="lock-unlock" transform="translate(0.600473, 0.000000)">
                    <path d="M13.4449753,22.5931104 C13.0446792,23.9302203 13.0162836,25.3220258 13.3271015,26.633434 C13.6379194,27.9448422 14.2879508,29.1758531 15.2448823,30.1901288 C16.2018137,31.2044044 17.3929548,31.9248985 18.6840766,32.3114264 C19.9751983,32.6979543 21.3663008,32.750516 22.723155,32.4289269 C24.0800092,32.1073378 25.2995459,31.4360264 26.2798498,30.5111461 C27.2601536,29.5862658 28.0012246,28.4078165 28.4011474,27.0719518 C29.730009,22.6518642 32.5797281,19.0511454 36.2392377,16.723664 C39.8987474,14.3961826 44.3680476,13.3419386 48.9366733,14.0127943 C53.505299,14.6836499 57.4828592,16.9782284 60.3187816,20.2594971 C63.1547041,23.5407658 64.8489889,27.8087248 64.851064,32.4263414 L64.250591,43.8345154 L10.2080378,43.8345154 C7.05753404,43.8345154 4.20528818,45.1115093 2.14066826,47.1761293 C0.0760483436,49.2407492 -1.20094563,52.092995 -1.20094563,55.2434988 L-1.20094563,105.683215 C-1.20094563,108.833719 0.0760483436,111.685965 2.14066826,113.750585 C4.20528818,115.815205 7.05753404,117.092199 10.2080378,117.092199 L82.2647754,117.092199 C85.4152792,117.092199 88.2675251,115.815205 90.332145,113.750585 C92.3967649,111.685965 93.6737589,108.833719 93.6737589,105.683215 L93.6737589,55.2434988 C93.6737589,52.092995 92.3967649,49.2407492 90.332145,47.1761293 C88.2675251,45.1115093 85.4152792,43.8345154 82.2647754,43.8345154 L80.463357,43.8345154 L80.463357,32.4255319 C80.4610484,23.9335749 77.3460755,16.0848699 72.131295,10.0508948 C66.9165146,4.0169197 59.6019267,-0.202325502 51.2003882,-1.43487321 C42.7988498,-2.66742092 34.5805965,-0.726921211 27.8524278,3.55496352 C21.1242592,7.83684826 15.8861751,14.460118 13.4449753,22.5931104 Z" id="Path"></path>
                    <path d="M36.6287421,74.4586288 C36.6077448,69.790736 39.9448772,65.7831238 44.5394348,64.9586792 C49.1339924,64.1342346 53.6563094,66.7315519 55.2594799,71.1155584 C56.8626504,75.4995649 55.0827167,80.4015282 51.0401891,82.7355461 L51.0401891,93.6737589 C51.0401891,96.3268147 48.8894624,98.4775414 46.2364066,98.4775414 C43.5833508,98.4775414 41.4326241,96.3268147 41.4326241,93.6737589 L41.4326241,82.7355461 C38.469125,81.0314412 36.6384213,77.8771386 36.6287421,74.4586288 Z" id="Path"></path>
                </g>
            </g>
            <circle id="Oval" fill="#131415" cx="457.560284" cy="324.255319" r="39.6312057"></circle>
            <circle id="Oval" stroke="#0098FF" stroke-width="3.60283688" fill="#131415" cx="457.560284" cy="324.255319" r="30.6241135"></circle>
            <g id="Icons/interface-essential/check" transform="translate(439.546099, 306.241135)" fill="#0098FF">
                <g id="check-2" transform="translate(0.000000, 3.002364)">
                    <path d="M35.4466891,4.31914088 L17.5247894,28.956133 C17.09737,29.5305885 16.4600223,29.9069874 15.7559591,30.0007526 C15.0518957,30.0945178 14.3401662,29.8977852 13.7806964,29.4547608 L0.982705785,19.0896662 C-0.146634125,18.1741589 -0.329501856,16.5045839 0.574259274,15.3605661 C1.47802041,14.2165481 3.12617444,14.0313038 4.25551435,14.9468109 L14.9274885,23.595883 L31.2313117,1.18149833 C31.7659367,0.368814481 32.6981874,-0.0805006052 33.6579332,0.011944121 C34.6176789,0.104388847 35.4496277,0.723635323 35.8234716,1.6238248 C36.1973154,2.5240143 36.0525645,3.55949104 35.4466891,4.31914088 Z" id="Path"></path>
                </g>
            </g>
            <path d="M271.113475,208.964539 C271.253306,208.964539 271.391216,208.997095 271.516285,209.059629 L290.21855,218.410762 C290.663481,218.633227 290.843825,219.174259 290.621359,219.61919 C290.534203,219.793502 290.392862,219.934844 290.21855,220.022 L271.516285,229.373132 C271.071354,229.595598 270.530322,229.415254 270.307856,228.970323 C270.245322,228.845254 270.212766,228.707344 270.212766,228.567513 L270.212631,221.017539 L220.119476,221.017799 C218.933254,221.017799 217.971631,220.211277 217.971631,219.216381 C217.971631,218.292549 218.800786,217.531141 219.868992,217.427082 L220.119476,217.414962 L270.212631,217.414539 L270.212766,209.865248 C270.212766,209.3678 270.616027,208.964539 271.113475,208.964539 Z" id="Combined-Shape" fill="#FFFFFF" fill-rule="nonzero"></path>
        </g>
    </g>
</svg>