<?xml version="1.0" encoding="UTF-8"?>
<svg width="24px" height="24px" viewBox="0 0 24 24" version="1.1" xmlns="http://www.w3.org/2000/svg" xmlns:xlink="http://www.w3.org/1999/xlink">
    <title>icon-calendar</title>
    <defs>
        <path d="M17.5,0 C18.0522847,0 18.5,0.44771525 18.5,1 L18.5,1 L18.5,2.75 C18.5,2.88807119 18.6119288,3 18.75,3 L18.75,3 L21.5,3 C22.6045695,3 23.5,3.8954305 23.5,5 L23.5,5 L23.5,22 C23.5,23.1045695 22.6045695,24 21.5,24 L21.5,24 L2.5,24 C1.3954305,24 0.5,23.1045695 0.5,22 L0.5,22 L0.5,5 C0.5,3.8954305 1.3954305,3 2.5,3 L2.5,3 L4,3 C4.27614237,3 4.5,3.22385763 4.5,3.5 L4.5,3.5 L4.5,5.75 C4.5,6.16421356 4.83578644,6.5 5.25,6.5 C5.66421356,6.5 6,6.16421356 6,5.75 L6,5.75 L6,1 C6,0.44771525 6.44771525,0 7,0 C7.55228475,0 8,0.44771525 8,1 L8,1 L8,2.751 C8.00055073,2.8886805 8.1123184,3 8.25,3 L8.25,3 L14.5,3 C14.7761424,3 15,3.22385763 15,3.5 L15,3.5 L15,5.75 C15,6.16421356 15.3357864,6.5 15.75,6.5 C16.1642136,6.5 16.5,6.16421356 16.5,5.75 L16.5,5.75 L16.5,1 C16.5,0.44771525 16.9477153,0 17.5,0 Z M21,9 L3,9 C2.72385763,9 2.5,9.22385763 2.5,9.5 L2.5,9.5 L2.5,21.5 C2.5,21.7761424 2.72385763,22 3,22 L3,22 L21,22 C21.2761424,22 21.5,21.7761424 21.5,21.5 L21.5,21.5 L21.5,9.5 C21.5,9.22385763 21.2761424,9 21,9 L21,9 Z M7.5,18.5 C8.05228475,18.5 8.5,18.9477153 8.5,19.5 C8.5,20.0522847 8.05228475,20.5 7.5,20.5 L7.5,20.5 L6.5,20.5 C5.94771525,20.5 5.5,20.0522847 5.5,19.5 C5.5,18.9477153 5.94771525,18.5 6.5,18.5 L6.5,18.5 Z M12.5,18.5 C13.0522847,18.5 13.5,18.9477153 13.5,19.5 C13.5,20.0522847 13.0522847,20.5 12.5,20.5 L12.5,20.5 L11.5,20.5 C10.9477153,20.5 10.5,20.0522847 10.5,19.5 C10.5,18.9477153 10.9477153,18.5 11.5,18.5 L11.5,18.5 Z M17.5,18.5 C18.0522847,18.5 18.5,18.9477153 18.5,19.5 C18.5,20.0522847 18.0522847,20.5 17.5,20.5 L17.5,20.5 L16.5,20.5 C15.9477153,20.5 15.5,20.0522847 15.5,19.5 C15.5,18.9477153 15.9477153,18.5 16.5,18.5 L16.5,18.5 Z M7.5,14.5 C8.05228475,14.5 8.5,14.9477153 8.5,15.5 C8.5,16.0522847 8.05228475,16.5 7.5,16.5 L7.5,16.5 L6.5,16.5 C5.94771525,16.5 5.5,16.0522847 5.5,15.5 C5.5,14.9477153 5.94771525,14.5 6.5,14.5 L6.5,14.5 Z M12.5,14.5 C13.0522847,14.5 13.5,14.9477153 13.5,15.5 C13.5,16.0522847 13.0522847,16.5 12.5,16.5 L12.5,16.5 L11.5,16.5 C10.9477153,16.5 10.5,16.0522847 10.5,15.5 C10.5,14.9477153 10.9477153,14.5 11.5,14.5 L11.5,14.5 Z M17.5,14.5 C18.0522847,14.5 18.5,14.9477153 18.5,15.5 C18.5,16.0522847 18.0522847,16.5 17.5,16.5 L17.5,16.5 L16.5,16.5 C15.9477153,16.5 15.5,16.0522847 15.5,15.5 C15.5,14.9477153 15.9477153,14.5 16.5,14.5 L16.5,14.5 Z M7.5,10.5 C8.05228475,10.5 8.5,10.9477153 8.5,11.5 C8.5,12.0522847 8.05228475,12.5 7.5,12.5 L7.5,12.5 L6.5,12.5 C5.94771525,12.5 5.5,12.0522847 5.5,11.5 C5.5,10.9477153 5.94771525,10.5 6.5,10.5 L6.5,10.5 Z M12.5,10.5 C13.0522847,10.5 13.5,10.9477153 13.5,11.5 C13.5,12.0522847 13.0522847,12.5 12.5,12.5 L12.5,12.5 L11.5,12.5 C10.9477153,12.5 10.5,12.0522847 10.5,11.5 C10.5,10.9477153 10.9477153,10.5 11.5,10.5 L11.5,10.5 Z M17.5,10.5 C18.0522847,10.5 18.5,10.9477153 18.5,11.5 C18.5,12.0522847 18.0522847,12.5 17.5,12.5 L17.5,12.5 L16.5,12.5 C15.9477153,12.5 15.5,12.0522847 15.5,11.5 C15.5,10.9477153 15.9477153,10.5 16.5,10.5 L16.5,10.5 Z" id="path-1"></path>
    </defs>
    <g id="icon-calendar" stroke="none" stroke-width="1" fill="none" fill-rule="evenodd">
        <mask id="mask-2" fill="white">
            <use xlink:href="#path-1"></use>
        </mask>
        <use id="icon" fill="#000000" xlink:href="#path-1"></use>
    </g>
</svg>