<?xml version="1.0" encoding="UTF-8"?>
<svg width="30px" height="30px" viewBox="0 0 30 30" version="1.1" xmlns="http://www.w3.org/2000/svg" xmlns:xlink="http://www.w3.org/1999/xlink">
    <title>Group</title>
    <g id="v222" stroke="none" stroke-width="1" fill="none" fill-rule="evenodd">
        <g id="Drive---App-mobile---Modifier-offre-3" transform="translate(-61.000000, -194.000000)">
            <g id="Group-4" transform="translate(-645.000000, 174.000000)">
                <g id="Fichier-Copy-4" transform="translate(686.000000, 0.000000)">
                    <g id="Group" transform="translate(20.000000, 20.000000)">
                        <circle id="Oval" fill="#607D8B" fill-rule="nonzero" cx="15" cy="15" r="15"></circle>
                        <g transform="translate(3.000000, 3.000000)" fill="#FFFFFF" id="Icons/icon-24px">
                            <g id="Group" transform="translate(3.000000, 3.000000)">
                                <g id="accessories-tie" transform="translate(5.645594, -0.000000)">
                                    <path d="M4.6444058,3.95997824 C4.8241531,3.95802237 4.97781247,4.08894016 5.0044058,4.26672036 L5.0044058,4.26672036 L6.3997658,13.6670404 C6.44212478,13.9791252 6.34614404,14.2941524 6.1369658,14.5296004 L6.1369658,14.5296004 L4.0122458,16.9200004 C3.80729922,17.1505122 3.51357158,17.2823951 3.2051258,17.2823951 C2.89668002,17.2823951 2.60295239,17.1505122 2.3980058,16.9200004 L2.3980058,16.9200004 L0.272565801,14.5267204 C0.0661027579,14.294294 -0.0301879332,13.9841697 0.0083258009,13.6756804 L0.0083258009,13.6756804 L1.4080058,4.26672036 C1.43440655,4.09030076 1.58602183,3.95981973 1.7644058,3.95997824 L1.7644058,3.95997824 Z M4.3657658,1.78257778e-07 C4.71298835,-0.000199017885 5.03913111,0.16655753 5.24227038,0.44815649 C5.44540965,0.729755449 5.5007682,1.09184974 5.3910458,1.42128036 L5.3910458,1.42128036 L4.9864058,2.63376036 C4.93737812,2.78096159 4.79955695,2.88019283 4.6444058,2.88000064 L4.6444058,2.88000064 L1.7644058,2.88000064 C1.60951965,2.87988275 1.47206979,2.78071007 1.4231258,2.63376036 L1.4231258,2.63376036 L1.0192058,1.42200036 C0.909236402,1.09260027 0.96437249,0.730414394 1.16737897,0.448659084 C1.37038546,0.166903773 1.69649403,-4.47136483e-05 2.0437658,1.78257778e-07 L2.0437658,1.78257778e-07 Z" id="Combined-Shape"></path>
                                </g>
                            </g>
                        </g>
                    </g>
                </g>
            </g>
        </g>
    </g>
</svg>