<svg width="24" height="24" xmlns="http://www.w3.org/2000/svg">
    <path d="M15.586 0c.2651948 0 .5195073.105450625.707.293l5.414 5.414c.1875494.18749273.293.44180519.293.707V22c0 1.1045695-.8954305 2-2 2H4c-1.1045695 0-2-.8954305-2-2V2c0-1.1045695.8954305-2 2-2zm-.621 2H4.5c-.27614237 0-.5.22385763-.5.5v19c0 .2761424.22385763.5.5.5h15c.2761424 0 .5-.2238576.5-.5V7.035c0-.13235245-.052531-.25929446-.146-.353l-4.536-4.536c-.0937055-.09346895-.2206475-.146-.353-.146zM8.534 8.124c.33292841-.16980839.72801254-.16532305 1.057.012l7.4 4.045c.3099508.153688.5075053.4712454.5075053.819 0 .3477546-.1975545.665312-.5095053.819l-7.4 4.045c-.32911998.1768095-.72395077.1812919-1.057.012-.31966616-.1547227-.52529533-.4759217-.532-.831v-8.09c.00708065-.35552728.21355588-.67683986.534-.831z" fill="#00BCD4" fill-rule="evenodd"/>
</svg>
