<?xml version="1.0" encoding="UTF-8"?>
<svg width="24px" height="24px" viewBox="0 0 24 24" version="1.1" xmlns="http://www.w3.org/2000/svg" xmlns:xlink="http://www.w3.org/1999/xlink">
    <title>icons/actions/reply</title>
    <g id="icons/actions/reply" stroke="none" stroke-width="1" fill="none" fill-rule="evenodd">
        <g id="icon" transform="translate(0.000000, 3.000000)" fill="#000000">
            <path d="M20.3105455,7.28618182 C17.0258182,4.37345455 12.5378182,4.17381818 10.6461818,4.23927273 C10.5720787,4.24225202 10.4999821,4.21480311 10.4466194,4.16329724 C10.3932593,4.11179136 10.3632787,4.04070761 10.3636364,3.96654545 L10.3636364,1.16072727 C10.362493,0.737502099 10.116663,0.353129775 9.73293936,0.174588439 C9.3492157,-0.00395289781 8.89685223,0.05555963 8.57236364,0.327272727 L0.397090909,7.272 C0.145556274,7.47930631 -1.79147903e-05,7.7882285 -1.79147903e-05,8.11418182 C-0.00184213732,8.43370049 0.138464994,8.73749941 0.382909091,8.94327273 L8.57890909,16.1836364 C8.9049314,16.4523335 9.35678615,16.5086303 9.73877236,16.3281441 C10.1207586,16.147658 10.3641905,15.7628425 10.3636364,15.3403636 L10.3636364,12.0294545 C10.3637045,11.9000943 10.4549874,11.7887291 10.5818182,11.7632727 C12.6632727,11.3269091 19.4563636,10.5 22.9745455,17.0978182 C23.0929436,17.3171921 23.3450023,17.4283832 23.5868443,17.3679226 C23.8286863,17.3074621 23.9987658,17.0907366 24,16.8414545 C24,12.6730909 22.7585455,9.45927273 20.3105455,7.28618182 Z" id="Path"></path>
        </g>
    </g>
</svg>