<svg width="24" height="24" viewBox="0 0 24 24" fill="none" xmlns="http://www.w3.org/2000/svg">
<path d="M8.5 7H15.5C16.3284 7 17 7.67157 17 8.5V10C17 10.5523 16.5523 11 16 11C15.4477 11 15 10.5523 15 10V9.25C15 9.11193 14.8881 9 14.75 9H13.25C13.1119 9 13 9.11193 13 9.25V15.25C13 15.3881 13.1119 15.5 13.25 15.5H14C14.5523 15.5 15 15.9477 15 16.5C15 17.0523 14.5523 17.5 14 17.5H10C9.44772 17.5 9 17.0523 9 16.5C9 15.9477 9.44772 15.5 10 15.5H10.75C10.8881 15.5 11 15.3881 11 15.25V9.25C11 9.11193 10.8881 9 10.75 9H9.25C9.11193 9 9 9.11193 9 9.25V10C9 10.5523 8.55228 11 8 11C7.44772 11 7 10.5523 7 10V8.5C7 7.67157 7.67157 7 8.5 7Z" fill="#9C26B0"/>
<path fill-rule="evenodd" clip-rule="evenodd" d="M21.707 5.707L16.293 0.293C16.1055 0.105451 15.8512 5.66374e-05 15.586 0H4C2.89543 0 2 0.89543 2 2V22C2 23.1046 2.89543 24 4 24H20C21.1046 24 22 23.1046 22 22V6.414C21.9999 6.14881 21.8946 5.89449 21.707 5.707ZM20 21.5C20 21.7761 19.7761 22 19.5 22H4.5C4.22386 22 4 21.7761 4 21.5V2.5C4 2.22386 4.22386 2 4.5 2H14.965C15.0974 2.00003 15.2243 2.05253 15.318 2.146L19.854 6.682C19.9475 6.77571 20 6.90265 20 7.035V21.5Z" fill="#9C26B0"/>
</svg>