<?xml version="1.0" encoding="UTF-8"?>
<svg width="89px" height="86px" viewBox="0 0 89 86" version="1.1" xmlns="http://www.w3.org/2000/svg" xmlns:xlink="http://www.w3.org/1999/xlink">
    <title>no-drive</title>
    <g id="mobile" stroke="none" stroke-width="1" fill="none" fill-rule="evenodd">
        <g id="Drive---App-mobile---Pas-de-drive" transform="translate(-165.000000, -349.000000)" fill-rule="nonzero">
            <g id="Group-11" transform="translate(105.000000, 292.000000)">
                <g id="illu" transform="translate(60.000000, 57.000000)">
                    <path d="M62.0869565,61.9423423 C65.2751252,61.9502401 67.8714361,64.4606296 67.9953873,67.603174 L68,67.8234234 L68,79.5855856 C67.9904803,82.7558679 65.4673129,85.3372331 62.3083568,85.4619732 L62.0869565,85.4666667 L5.91304347,85.4666667 C2.72618719,85.4556308 0.131707009,82.9469611 0.00482497464,79.8057432 L0,79.5855856 L0,67.8234234 C0.00951976132,64.6531411 2.53268709,62.0717758 5.69164324,61.9470357 L5.91304347,61.9423423 L62.0869565,61.9423423 Z M59.1304347,74.4366991 L8.86956522,74.4366991 C7.64493382,74.4366991 6.65217392,75.4240928 6.65217392,76.6421045 C6.65217392,77.8071593 7.56048354,78.7612137 8.71120819,78.8419726 L8.86956522,78.8475099 L59.1304347,78.8475099 C60.3550662,78.8475099 61.3478261,77.8601163 61.3478261,76.6421045 C61.3478261,75.4240928 60.3550662,74.4366991 59.1304347,74.4366991 Z M57.6521739,64.8828828 C56.0193321,64.8828828 54.6956522,66.1994077 54.6956522,67.8234234 C54.6956522,69.4474392 56.0193321,70.7639639 57.6521739,70.7639639 C59.2850157,70.7639639 60.6086957,69.4474392 60.6086957,67.8234234 C60.6086957,66.1994077 59.2850157,64.8828828 57.6521739,64.8828828 Z M64.0333333,45.9333333 L64.111,45.9323081 L67.0539131,57.4874234 C67.1245569,57.7583106 67.0337752,58.0455548 66.8200086,58.227525 C66.6062419,58.4094951 66.3068841,58.4543595 66.0486957,58.3431208 C64.9222128,57.8618698 63.7177955,57.5900883 62.4951123,57.54 L62.0869565,57.5315316 L5.91304347,57.5315316 C4.55081497,57.5322785 3.20295193,57.8083974 1.95130435,58.3431208 C1.6931159,58.4543595 1.39375809,58.4094951 1.17999145,58.227525 C0.992945644,58.0683011 0.900060137,57.8284767 0.927087243,57.5895353 L0.946086957,57.4874234 L5.94556522,37.8651964 C7.07222983,34.0229509 10.5058267,31.3137855 14.5028541,31.0790145 L14.7826087,31.0666667 L43.9677374,31.0663081 C46.5799926,39.6708595 54.5753233,45.9333333 64.0333333,45.9333333 Z" id="Combined-Shape" fill="#5287FF"></path>
                    <path d="M68.0333333,3.55271368e-15 C56.453763,3.55271368e-15 47.0666667,9.38709641 47.0666667,20.9666667 C47.0666667,32.546237 56.453763,41.9333333 68.0333333,41.9333333 C79.6129036,41.9333333 89,32.546237 89,20.9666667 C88.9874814,9.39228574 79.6077142,0.0125185809 68.0333333,3.55271368e-15 Z M68.0333333,33.7289855 C66.5229546,33.7289855 65.2985507,32.5045816 65.2985507,30.9942029 C65.2985507,29.4838242 66.5229546,28.2594203 68.0333333,28.2594203 C69.543712,28.2594203 70.768116,29.4838242 70.768116,30.9942029 C70.768116,32.5045816 69.543712,33.7289855 68.0333333,33.7289855 Z M71.2231757,22.2420017 C70.6000554,22.5144745 70.1973817,23.1310735 70.1977112,23.8122559 C70.1977112,24.7579782 69.4325178,25.5246376 68.4886038,25.5246376 C67.5446898,25.5246376 66.7794963,24.7579782 66.7794963,23.8122559 C66.7791873,21.7693303 67.9870979,19.9203758 69.8558897,19.1032057 C71.4207797,18.4189229 72.241682,16.6826195 71.7788281,15.0359682 C71.3159741,13.389317 69.7113413,12.3374173 68.0200252,12.5719255 C66.328709,12.8064337 65.0695094,14.2554161 65.0703888,15.9661221 C65.0703888,16.9118445 64.3051954,17.678504 63.3612814,17.678504 C62.4173674,17.678504 61.6521739,16.9118445 61.6521739,15.9661221 C61.6521739,12.5451433 64.1713455,9.64866799 67.5537049,9.18084057 C70.9360642,8.71301315 74.1443196,10.8172984 75.0693621,14.1103381 C75.9944047,17.4033777 74.3525591,20.8753225 71.2231757,22.243714 L71.2231757,22.2420017 Z" id="Shape" fill="#9F9F9F"></path>
                </g>
            </g>
        </g>
    </g>
</svg>