<?xml version="1.0" encoding="UTF-8"?>
<svg width="24px" height="24px" viewBox="0 0 24 24" version="1.1" xmlns="http://www.w3.org/2000/svg" xmlns:xlink="http://www.w3.org/1999/xlink">
    <title>icon-information</title>
    <g id="icon-information" stroke="none" stroke-width="1" fill="none" fill-rule="evenodd">
        <path d="M12,0 C5.372583,0 0,5.372583 0,12 C0,18.627417 5.372583,24 12,24 C18.627417,24 24,18.627417 24,12 C23.9928352,5.37555305 18.624447,0.00716484761 12,0 Z M12.25,5 C13.0784271,5 13.75,5.67157288 13.75,6.5 C13.75,7.32842712 13.0784271,8 12.25,8 C11.4215729,8 10.75,7.32842712 10.75,6.5 C10.75,5.67157288 11.4215729,5 12.25,5 Z M14.5,18.5 L10.5,18.5 C9.94771525,18.5 9.5,18.0522847 9.5,17.5 C9.5,16.9477153 9.94771525,16.5 10.5,16.5 L11.25,16.5 C11.3880712,16.5 11.5,16.3880712 11.5,16.25 L11.5,11.75 C11.5,11.6119288 11.3880712,11.5 11.25,11.5 L10.5,11.5 C9.94771525,11.5 9.5,11.0522847 9.5,10.5 C9.5,9.94771525 9.94771525,9.5 10.5,9.5 L11.5,9.5 C12.6045695,9.5 13.5,10.3954305 13.5,11.5 L13.5,16.25 C13.5,16.3880712 13.6119288,16.5 13.75,16.5 L14.5,16.5 C15.0522847,16.5 15.5,16.9477153 15.5,17.5 C15.5,18.0522847 15.0522847,18.5 14.5,18.5 Z" id="Shape" fill="#000000"></path>
    </g>
</svg>