<?xml version="1.0" encoding="UTF-8"?>
<svg width="24px" height="24px" viewBox="0 0 24 24" version="1.1" xmlns="http://www.w3.org/2000/svg" xmlns:xlink="http://www.w3.org/1999/xlink">
    <title>icons/actions/crown</title>
    <g id="icons/actions/crown" stroke="none" stroke-width="1" fill="none" fill-rule="evenodd">
        <path d="M19.2421875,20.03125 C19.4921875,20.03125 19.7109375,19.9492188 19.8984375,19.7851562 C20.0859375,19.6210938 20.1953125,19.421875 20.2265625,19.1875 L21.8671875,9.3671875 C22.4921875,9.1796875 23.0039062,8.828125 23.4023438,8.3125 C23.8007812,7.796875 24,7.203125 24,6.53125 L24,6.5078125 L24,6.5078125 C24,5.6796875 23.7070312,4.97265625 23.1210938,4.38671875 C22.5351562,3.80078125 21.828125,3.5078125 21,3.5078125 C20.171875,3.5078125 19.4648438,3.80078125 18.8789062,4.38671875 C18.2929688,4.97265625 18,5.6796875 18,6.5078125 C18,7.1171875 18.1601562,7.6640625 18.4804688,8.1484375 C18.8007812,8.6328125 19.21875,8.9921875 19.734375,9.2265625 C19.5,9.9140625 19.1171875,10.71875 18.5859375,11.640625 C18.0546875,12.5625 17.359375,13.0234375 16.5,13.0234375 C15.921875,13.0234375 15.4375,12.84375 15.046875,12.484375 C14.671875,12.125 14.3515625,11.65625 14.0859375,11.078125 C13.8203125,10.5 13.6015625,9.8359375 13.4296875,9.0859375 C13.2578125,8.3515625 13.1015625,7.609375 12.9609375,6.859375 C13.5546875,6.640625 14.0429688,6.2734375 14.4257812,5.7578125 C14.8085938,5.2421875 15,4.65625 15,4 C15,3.171875 14.7070312,2.46484375 14.1210938,1.87890625 C13.5351562,1.29296875 12.828125,1 12,1 C11.171875,1 10.4648438,1.29296875 9.87890625,1.87890625 C9.29296875,2.46484375 9,3.171875 9,4 C9,4.65625 9.1875,5.2421875 9.5625,5.7578125 C9.9375,6.2734375 10.421875,6.6328125 11.015625,6.8359375 L11.0390625,6.859375 C10.8984375,7.625 10.7421875,8.3828125 10.5703125,9.1328125 C10.3984375,9.8671875 10.1796875,10.5234375 9.9140625,11.1015625 C9.6484375,11.6796875 9.3203125,12.140625 8.9296875,12.484375 C8.5546875,12.84375 8.078125,13.0234375 7.5,13.0234375 C6.640625,13.0234375 5.9453125,12.5625 5.4140625,11.640625 C4.8828125,10.71875 4.5,9.9140625 4.265625,9.2265625 C4.78125,8.9921875 5.203125,8.62890625 5.53125,8.13671875 C5.859375,7.64453125 6.0234375,7.1015625 6.0234375,6.5078125 C6.0234375,5.6796875 5.7265625,4.96875 5.1328125,4.375 C4.5390625,3.78125 3.828125,3.484375 3,3.484375 C2.171875,3.484375 1.46484375,3.78125 0.87890625,4.375 C0.29296875,4.96875 0,5.6796875 0,6.5078125 C0,7.1796875 0.19921875,7.77734375 0.59765625,8.30078125 C0.99609375,8.82421875 1.5,9.1796875 2.109375,9.3671875 L2.1328125,9.3671875 L3.7734375,19.1875 C3.8046875,19.421875 3.9140625,19.6210938 4.1015625,19.7851562 C4.2890625,19.9492188 4.5078125,20.03125 4.7578125,20.03125 L19.2421875,20.03125 Z M19.2421875,23.5234375 C19.5234375,23.5234375 19.7617188,23.4257812 19.9570312,23.2304688 C20.1523438,23.0351562 20.25,22.796875 20.25,22.515625 C20.25,22.25 20.1523438,22.0195312 19.9570312,21.8242188 C19.7617188,21.6289062 19.5234375,21.53125 19.2421875,21.53125 L4.7578125,21.53125 C4.4765625,21.53125 4.23828125,21.6289062 4.04296875,21.8242188 C3.84765625,22.0195312 3.75,22.25 3.75,22.515625 C3.75,22.796875 3.84765625,23.0351562 4.04296875,23.2304688 C4.23828125,23.4257812 4.4765625,23.5234375 4.7578125,23.5234375 L19.2421875,23.5234375 Z" id="v" fill="#000000"></path>
    </g>
</svg>