<svg width="24" height="24" xmlns="http://www.w3.org/2000/svg">
    <path d="M23.7071798 11.2928869L12.7070109.292789059c-.3905059-.390385412-1.0235159-.390385412-1.4140218 0L.292820171 11.2928869c-.2859123078.2859968-.3714276117.716043-.2166813069 1.0896643.1547463049.3736213.5192900569.6172646.9236921669.6173509H2.24985023c.13807331 0 .25000384.1119298.25000384.2500022V23c0 .5522808.44772213 1 1.00001536 1h5.75008833c.13807331 0 .25000384-.1119298.25000384-.2500022v-4.7500423c0-1.3807241 1.1193053-2.5000222 2.5000384-2.5000222 1.3807331 0 2.5000384 1.1192981 2.5000384 2.5000222v4.7500423c0 .1380724.1119305.2500022.2500038.2500022h5.7500884c.5522932 0 1.0000153-.4477192 1.0000153-1v-9.7500957c0-.1380724.1119306-.2500022.2500039-.2500022h1.2500192c.4044021-.0000863.7689458-.2437296.9236921-.6173509.1547463-.3736213.069231-.8036675-.2166813-1.0896643z" fill="#000" fill-rule="evenodd"/>
</svg>
