<?xml version="1.0" encoding="UTF-8"?>
<svg width="24px" height="24px" viewBox="0 0 24 24" version="1.1" xmlns="http://www.w3.org/2000/svg" xmlns:xlink="http://www.w3.org/1999/xlink">
    <title>picto_team</title>
    <g id="picto_team" stroke="none" stroke-width="1" fill="none" fill-rule="evenodd">
        <path d="M13.4973982,12.7444864 C14.9960208,12.7444864 16.1958984,13.3415377 17.2464034,14.5356403 C17.8463422,15.2813452 18.147536,16.3267942 18.147536,17.3722432 C18.147536,18.4176922 18.147536,19.6117948 17.9981635,20.8058974 C17.9981635,20.9569879 17.9981635,21.1056415 17.8487909,21.1056415 C16.9476584,21.4029487 16.0489746,21.7026928 15.1478421,21.8513464 C14.097337,22 12.8974594,22 11.8469544,22 C10.047138,22 8.39669421,21.5516023 6.59687787,21.1032046 C6.44750536,21.1032046 6.1463116,20.954551 5.99693909,20.954551 C6.1463116,19.4631412 5.99693909,17.9692945 6.1463116,16.6265383 C6.29568411,15.4324357 6.8956229,14.3869867 7.94612795,13.6412818 C8.84726048,13.0442305 9.74594429,12.7444864 10.7964493,12.7444864 L10.7964493,12.7444864 Z M7.79920416,9.16217863 C7.79920416,10.3562812 8.2473217,11.2506397 9.14845424,12.1474351 C8.84970921,12.2985256 8.69788797,12.2985256 8.39914294,12.4471792 C6.90052036,13.1928841 5.8500153,14.3869867 5.39944904,16.1781406 C5.25007652,16.6241014 5.25007652,17.0724991 5.25007652,17.5208968 L5.25007652,18.4176922 C4.79951025,18.4176922 4.19957147,18.2690386 3.7490052,18.2690386 C2.54912764,18.120385 1.34925008,17.8230779 0.149372513,17.5233337 C0,17.3722432 0,17.3722432 0,17.2235896 L0,13.4926282 C0,11.7014744 1.34925008,10.058974 2.99969391,9.46192275 C3.45026018,9.31083222 4.05019896,9.16217863 4.65013774,9.16217863 L4.65013774,9.16217863 Z M19.3474135,9.16461557 C21.2966024,9.16461557 22.6458525,10.058974 23.546985,11.8501279 C23.8481788,12.4471792 23.9975513,13.1928841 23.9975513,13.7899354 L23.9975513,13.7899354 L23.9978574,15.3946631 C23.9979186,15.4990861 23.997992,15.6019983 23.9980802,15.7028 L23.998805,16.2774899 C23.9991185,16.4574144 23.9995103,16.6241014 24,16.772755 L23.9995645,16.8369326 C23.9969516,16.9632842 23.9786611,17.0724991 23.8506275,17.0724991 C22.9494949,17.5208968 21.9014386,17.8206409 21.0003061,17.9692945 C20.2485461,18.120385 19.6486073,18.120385 18.899296,18.2690386 L18.899296,18.2690386 L18.899296,17.2235896 C18.899296,15.8808334 18.4511785,14.6867308 17.5500459,13.6412818 C16.9501071,13.0442305 16.1983471,12.5982698 15.4490358,12.2985256 C15.4490358,12.2985256 15.2972146,12.1498721 15.1478421,12.1498721 C16.0465259,11.4041672 16.4970921,10.3587182 16.4970921,9.16461557 L16.4970921,9.16461557 Z M12.1481481,5.57987084 C13.9479645,5.57987084 15.5984083,7.07371756 15.5984083,9.01352504 C15.7477808,10.9533325 14.097337,12.5958328 12.1481481,12.5958328 C10.1989593,12.5958328 8.7003367,10.9533325 8.54851546,9.01352504 C8.54851546,7.07371756 10.1989593,5.57987084 12.1481481,5.57987084 Z M18.0006122,2 C19.8004285,2 21.4508724,3.49384672 21.4508724,5.4336542 C21.6002449,7.37346168 19.949801,9.01596198 18.0006122,9.01596198 C17.4006734,9.01596198 16.9501071,8.86487145 16.4995409,8.71621786 C16.3477196,7.22237115 15.5984083,6.02826855 14.4009795,5.4336542 C14.4009795,3.49384672 16.0514233,2 18.0006122,2 Z M5.99938782,2.14621664 C7.79920416,2.14621664 9.449648,3.64006336 9.449648,5.57987084 L9.449648,5.57987084 L9.449648,5.72852443 C8.54851546,6.32557573 7.94857668,7.37102473 7.79920416,8.56512733 C7.34863789,8.86487145 6.5993266,9.01352504 5.99938782,9.01352504 C4.05019896,9.01352504 2.39975513,7.37102473 2.39975513,5.57987084 C2.39975513,3.64006336 4.05019896,2.14621664 5.99938782,2.14621664 Z" id="Combined-Shape" fill="#000000"></path>
    </g>
</svg>