<svg width="24" height="24" xmlns="http://www.w3.org/2000/svg">
<g clip-path="url(#clip0_46_945)">
<path d="M12.9316 5.99414C12.9449 5.99458 12.9612 5.99479 12.9795 5.99609C13.0158 5.99869 13.0628 6.00364 13.1172 6.0127C13.2225 6.03025 13.3743 6.06705 13.5352 6.14746C13.699 6.22941 13.8862 6.36409 14.0303 6.58008C14.1775 6.80095 14.25 7.06251 14.25 7.34375V9.15723L14.249 9.1748C14.2486 9.18804 14.2484 9.20436 14.2471 9.22266C14.2445 9.25898 14.2395 9.30595 14.2305 9.36035C14.2129 9.46572 14.1762 9.61826 14.0957 9.7793C14.0137 9.94311 13.8789 10.1295 13.6631 10.2734C13.4423 10.4206 13.1815 10.4931 12.9004 10.4932H12.75V11.6436H15.2002C15.6112 11.6436 16.0053 11.807 16.2959 12.0977C16.5865 12.3883 16.75 12.7823 16.75 13.1934V13.498C16.7828 13.5009 16.8226 13.5053 16.8672 13.5127C16.9725 13.5303 17.1243 13.5671 17.2852 13.6475C17.449 13.7294 17.6362 13.8641 17.7803 14.0801C17.9275 14.301 18 14.5625 18 14.8438V16.6572L17.999 16.6748C17.9986 16.688 17.9984 16.7044 17.9971 16.7227C17.9945 16.759 17.9895 16.8059 17.9805 16.8604C17.9629 16.9657 17.9262 17.1183 17.8457 17.2793C17.7637 17.4431 17.6289 17.6295 17.4131 17.7734C17.1923 17.9206 16.9315 17.9931 16.6504 17.9932H14.8184C14.8051 17.9927 14.7888 17.9915 14.7705 17.9902C14.7342 17.9876 14.6871 17.9827 14.6328 17.9736C14.5275 17.9561 14.3758 17.9193 14.2148 17.8389C14.0509 17.7569 13.8638 17.6224 13.7197 17.4062C13.5725 17.1854 13.5 16.9247 13.5 16.6436V14.8301L13.501 14.8115C13.5014 14.7984 13.5016 14.7827 13.5029 14.7646C13.5055 14.7283 13.5105 14.6804 13.5195 14.626C13.5371 14.5206 13.5739 14.3689 13.6543 14.208C13.7363 14.0441 13.8708 13.857 14.0869 13.7129C14.3077 13.5657 14.5685 13.4932 14.8496 13.4932H15.25V13.1934C15.25 13.1801 15.2447 13.1676 15.2354 13.1582C15.226 13.1489 15.2134 13.1436 15.2002 13.1436H8.7998C8.78663 13.1436 8.77397 13.1489 8.76465 13.1582C8.75534 13.1676 8.75 13.1802 8.75 13.1934V13.4932H9.16406L9.18164 13.4941C9.19488 13.4946 9.21119 13.4948 9.22949 13.4961C9.26581 13.4987 9.31283 13.5036 9.36719 13.5127C9.47249 13.5303 9.62425 13.5671 9.78516 13.6475C9.94905 13.7294 10.1362 13.8641 10.2803 14.0801C10.4275 14.301 10.5 14.5625 10.5 14.8438V16.6572L10.499 16.6748C10.4986 16.688 10.4984 16.7044 10.4971 16.7227C10.4945 16.759 10.4895 16.8059 10.4805 16.8604C10.4629 16.9657 10.4262 17.1183 10.3457 17.2793C10.2637 17.4431 10.1289 17.6295 9.91309 17.7734C9.69231 17.9206 9.43149 17.9931 9.15039 17.9932H7.31836C7.30512 17.9927 7.28881 17.9915 7.27051 17.9902C7.23421 17.9876 7.18712 17.9827 7.13281 17.9736C7.02746 17.9561 6.87577 17.9193 6.71484 17.8389C6.55087 17.7569 6.36384 17.6224 6.21973 17.4062C6.07253 17.1854 6.00003 16.9247 6 16.6436V14.8301L6.00098 14.8115C6.00141 14.7984 6.00165 14.7827 6.00293 14.7646C6.00553 14.7283 6.01045 14.6804 6.01953 14.626C6.03712 14.5206 6.07387 14.3689 6.1543 14.208C6.23628 14.0441 6.37077 13.857 6.58691 13.7129C6.78137 13.5833 7.00695 13.5114 7.25 13.4961V13.1934C7.25 12.7823 7.41349 12.3883 7.7041 12.0977C7.99473 11.807 8.3888 11.6436 8.7998 11.6436H11.25V10.4932H11.0684C11.0551 10.4927 11.0388 10.4915 11.0205 10.4902C10.9842 10.4876 10.9371 10.4827 10.8828 10.4736C10.7775 10.4561 10.6258 10.4193 10.4648 10.3389C10.3009 10.2569 10.1138 10.1224 9.96973 9.90625C9.82253 9.68543 9.75003 9.42472 9.75 9.14355V7.33008L9.75098 7.31152C9.75141 7.29843 9.75165 7.28267 9.75293 7.26465C9.75553 7.2283 9.76045 7.18044 9.76953 7.12598C9.78712 7.02062 9.82387 6.86886 9.9043 6.70801C9.98628 6.54405 10.1208 6.357 10.3369 6.21289C10.5577 6.06572 10.8185 5.99324 11.0996 5.99316H12.9141L12.9316 5.99414Z" fill="#db6400"/>
<path fill-rule="evenodd" clip-rule="evenodd" d="M18 0C18.5857 5.87048e-05 19.1485 0.228466 19.5684 0.636719L19.5703 0.638672L22.5703 3.52148C22.7853 3.73108 22.9565 3.98211 23.0732 4.25879C23.1899 4.53541 23.25 4.8326 23.25 5.13281V21.75C23.25 22.3467 23.0128 22.9189 22.5908 23.3408C22.1689 23.7628 21.5967 24 21 24H3C2.40326 24 1.83114 23.7628 1.40918 23.3408C0.987223 22.9189 0.75 22.3467 0.75 21.75V2.25C0.75 1.65326 0.987223 1.08114 1.40918 0.65918C1.83114 0.237223 2.40326 0 3 0H18ZM3 1.5C2.80109 1.5 2.61038 1.57907 2.46973 1.71973C2.32907 1.86038 2.25 2.05109 2.25 2.25V21.75C2.25 21.9489 2.32907 22.1396 2.46973 22.2803C2.61038 22.4209 2.80109 22.5 3 22.5H21C21.1989 22.5 21.3896 22.4209 21.5303 22.2803C21.6709 22.1396 21.75 21.9489 21.75 21.75V5.13281C21.7499 5.03292 21.7302 4.93385 21.6914 4.8418C21.6528 4.75032 21.5962 4.66717 21.5254 4.59766L21.5234 4.5957L18.5234 1.71289C18.3834 1.57639 18.1955 1.50004 18 1.5H3Z" fill="#db6400"/>
</g>
</svg>
