<svg width="24" height="24" viewBox="0 0 24 24" fill="none" xmlns="http://www.w3.org/2000/svg">
<path fill-rule="evenodd" clip-rule="evenodd" d="M12.883 14.8859C12.3944 15.3883 11.6036 15.3883 11.115 14.8859L1.43 4.89719C1.29627 4.75927 1.24944 4.55534 1.309 4.37022C1.417 4.03094 1.725 4 2 4H22C22.274 4 22.58 4.03094 22.69 4.37022C22.7496 4.55534 22.7027 4.75927 22.569 4.89719L12.883 14.8859ZM23.688 5.92947C23.7405 5.87523 23.8196 5.85931 23.888 5.88925C23.956 5.91817 24.0003 5.98665 24 6.0625V18.4375C24 19.5766 23.1046 20.5 22 20.5H2C0.895432 20.5 1.98205e-06 19.5766 1.98205e-06 18.4375V6.0625C-0.000337523 5.98723 0.042964 5.91903 0.110002 5.88925C0.178318 5.85871 0.257819 5.87469 0.310002 5.92947L10.053 15.979C11.1268 17.0858 12.8672 17.0858 13.941 15.979L23.688 5.92947Z" fill="#9F9F9F"/>
</svg>
