<svg xmlns:xlink="http://www.w3.org/1999/xlink" width="24" height="24" xmlns="http://www.w3.org/2000/svg">
    <defs>
        <path d="M8.5-.0000148884C9.06753168-.0025267248 9.58748755.316730829 9.842.824l.947 1.9c.0847713.16917046.2577784.27598511.447.276H22.5c.8284271 0 1.5.67157288 1.5 1.5v14c0 .8284271-.6715729 1.5-1.5 1.5h-21C.671572875 20 0 19.3284271 0 18.5v-17C0 .671572875.671572875-.0000148884 1.5-.0000148884zM14.9196727 8.14816101c-.1868089.07737196-.3086295.25964104-.3086727.46183899v1.514c0 .0690356-.0559644.125-.125.125H6.75c-.41421355 0-.74999998.3357864-.74999998.75s.33578643.75.74999998.75h7.736c.0690356 0 .125.0559644.125.125v1.514c.0000432.2021979.1218638.384467.3086727.461839.186809.077372.4018302.034615.5448273-.108339l2.389-2.389c.195191-.1952499.195191-.5117501 0-.707l-2.389-2.389c-.1429971-.14295396-.3580183-.18571095-.5448273-.10833899z" id="a"/>
    </defs>
    <use fill="#000" xlink:href="#a" transform="translate(0 2)" fill-rule="evenodd"/>
</svg>
