<?xml version="1.0" encoding="UTF-8"?>
<svg width="35px" height="35px" viewBox="0 0 35 35" version="1.1" xmlns="http://www.w3.org/2000/svg" xmlns:xlink="http://www.w3.org/1999/xlink">
    <title>circle-send</title>
    <defs>
        <circle id="path-1" cx="17.5" cy="17.5" r="17.5"></circle>
    </defs>
    <g id="export" stroke="none" stroke-width="1" fill="none" fill-rule="evenodd">
        <g id="circle-send">
            <mask id="mask-2" fill="white">
                <use xlink:href="#path-1"></use>
            </mask>
            <use id="Mask" fill="#9F9F9F" xlink:href="#path-1"></use>
            <path d="M13.4234034,22.9894776 C13.4888054,22.952816 13.5685864,22.9553908 13.6315861,22.9961962 L13.6315861,22.9961962 L16.3296979,24.7477189 C16.3819357,24.7818406 16.4162616,24.8382165 16.423094,24.9011104 C16.4299265,24.9640043 16.4085337,25.0266798 16.3648871,25.071642 L16.3648871,25.071642 L14.7142679,26.7555416 C14.4801182,26.9943404 14.1279929,27.0656791 13.822167,26.9362764 C13.5163411,26.8068737 13.3170778,26.5022286 13.3173381,26.1644653 L13.3173381,26.1644653 L13.3173381,23.1723503 C13.3173381,23.0962208 13.3580015,23.0261392 13.4234034,22.9894776 Z M25.4003292,7.04798973 C25.5424569,6.97172618 25.7151744,6.98732838 25.8419546,7.08788334 C25.9687348,7.1884383 26.0261361,7.35535357 25.9887255,7.51467284 L25.9887255,7.51467284 L21.9337834,24.8520756 C21.8455661,25.233642 21.5820272,25.5481912 21.226299,25.6964998 C20.8705708,25.8448085 20.4665149,25.80859 20.141589,25.5992695 L20.141589,25.5992695 L14.8779386,22.2047551 C14.8288709,22.1728709 14.7952866,22.1213271 14.7854647,22.06283 C14.7750455,22.0036345 14.7902676,21.9427366 14.8272007,21.8958593 L14.8272007,21.8958593 L22.7783243,11.7223345 C22.8462696,11.6376775 22.8385976,11.5138616 22.7607438,11.4386066 C22.68289,11.3633517 22.561284,11.3622054 22.4820803,11.4359797 L22.4820803,11.4359797 L12.5333556,20.5091676 C12.4654913,20.571794 12.3649385,20.5803424 12.2878495,20.530039 L12.2878495,20.530039 L8.55615707,18.1239912 L8.44160895,18.0399344 C8.15144053,17.799306 7.98594376,17.4313844 8.00093831,17.0446795 C8.01780717,16.6096366 8.26055588,16.2166998 8.63799243,16.0134815 L8.63799243,16.0134815 Z" id="Combined-Shape" fill="#FFFFFF" fill-rule="nonzero" mask="url(#mask-2)"></path>
        </g>
    </g>
</svg>