<?xml version="1.0" encoding="UTF-8"?>
<svg width="24px" height="24px" viewBox="0 0 24 24" version="1.1" xmlns="http://www.w3.org/2000/svg" xmlns:xlink="http://www.w3.org/1999/xlink">
    <title>icon-categories</title>
    <defs>
        <path d="M16.9949239,6 C17.4010173,6.02031827 17.7969524,6.10666963 18.1827411,6.25905666 C18.5685298,6.41144369 18.9187802,6.63494131 19.2335025,6.92955624 L23.4670051,11.1354172 C23.8223368,11.490987 24,11.9227438 24,12.4307005 C24,12.9386573 23.8172607,13.3754936 23.4517766,13.7412224 L19.2335025,17.9623221 C18.9187802,18.256937 18.5736059,18.4804346 18.1979695,18.6328216 C17.8223331,18.7852087 17.4365502,18.8664805 17.0406091,18.8766397 L17.0177665,18.884259 C17.002538,18.8893385 16.9898478,18.8867988 16.9796954,18.8766397 L1.84263959,18.9985487 C1.60913589,19.0087078 1.37817373,18.9655321 1.14974619,18.8690204 C0.921318655,18.7725086 0.720813046,18.637902 0.54822335,18.4651967 C0.36548132,18.2823323 0.228426853,18.0791526 0.137055838,17.8556517 C0.0456848223,17.6321507 0,17.3984941 0,17.1546748 L0,7.98102149 C0,7.73720224 0.0456848223,7.50354563 0.137055838,7.28004465 C0.228426853,7.05654368 0.360405228,6.85844351 0.532994924,6.68573821 C0.715736954,6.50287377 0.916242563,6.36826725 1.13451777,6.2819146 C1.35279297,6.19556195 1.57867904,6.14730678 1.81218274,6.13714764 L16.9949239,6 Z M17.9390863,11.4554284 C17.6751256,11.1912909 17.3502557,11.0592241 16.964467,11.0592241 C16.5786783,11.0592241 16.2538084,11.1912909 15.9898477,11.4554284 C15.7157347,11.7297251 15.5812182,12.0573523 15.5862944,12.4383198 C15.5913706,12.8192874 15.725887,13.1418351 15.9898477,13.4059726 C16.2639608,13.6802693 16.5888306,13.8174156 16.964467,13.8174156 C17.3401034,13.8174156 17.6649732,13.6802693 17.9390863,13.4059726 C18.203047,13.1418351 18.3375634,12.8192874 18.3426396,12.4383198 C18.3477158,12.0573523 18.2131993,11.7297251 17.9390863,11.4554284 Z" id="path-1"></path>
    </defs>
    <g id="icon-categories" stroke="none" stroke-width="1" fill="none" fill-rule="evenodd">
        <mask id="mask-2" fill="white">
            <use xlink:href="#path-1"></use>
        </mask>
        <use id="icon" fill="#000000" xlink:href="#path-1"></use>
    </g>
</svg>