<svg width="327" height="200" viewBox="0 0 327 200" fill="none" xmlns="http://www.w3.org/2000/svg">
<path d="M99.8153 111.668C99.6603 108.008 102.585 104.957 106.248 104.957H145.372C147.522 104.957 149.53 106.03 150.725 107.817L158.158 118.937C159.456 120.878 161.637 122.043 163.972 122.043H221.171C224.857 122.043 227.791 125.132 227.601 128.814L224.263 193.494C224.086 196.916 221.26 199.601 217.833 199.601H109.711C106.261 199.601 103.424 196.881 103.278 193.434L99.8153 111.668Z" fill="#3E3E3E" stroke="#9F9F9F" stroke-width="0.553813"/>
<path d="M110.168 89.4874C110.168 88.3313 111.105 87.3941 112.261 87.3941H188.066C189.222 87.3941 190.159 88.3313 190.159 89.4874V195.572H110.168V89.4874Z" fill="#1A1A1A" stroke="#9F9F9F" stroke-width="0.553813"/>
<path d="M141.332 109.386C141.332 108.23 142.269 107.293 143.425 107.293H200.278C201.434 107.293 202.371 108.23 202.371 109.386V199.599H141.332V109.386Z" fill="#1A1A1A" stroke="#9F9F9F" stroke-width="0.553813"/>
<path d="M103.449 119.341C103.449 115.785 106.331 112.902 109.887 112.902H145.398C147.456 112.902 149.39 113.886 150.602 115.549L157.989 125.688C159.306 127.494 161.406 128.563 163.641 128.563H217.275C220.831 128.563 223.713 131.446 223.713 135.002V193.163C223.713 196.719 220.831 199.602 217.275 199.602H109.887C106.331 199.602 103.449 196.719 103.449 193.163V119.341Z" fill="#282828" stroke="#9F9F9F" stroke-width="0.553813"/>
<rect x="113.039" y="94.6992" width="48.2888" height="0.68984" fill="#4C4C4C"/>
<rect x="113.039" y="98.4883" width="48.2888" height="0.68984" fill="#4C4C4C"/>
<rect x="113.039" y="102.273" width="48.2888" height="0.68984" fill="#4C4C4C"/>
<rect x="113.039" y="106.062" width="23.4545" height="0.68984" fill="#4C4C4C"/>
<path opacity="0.504232" fill-rule="evenodd" clip-rule="evenodd" d="M159.438 152.02C159.438 151.159 160.294 150.575 161.071 150.907L163.103 151.777C163.414 151.91 163.655 152.173 163.764 152.499L164.572 154.917C164.702 155.306 165.017 155.601 165.407 155.698L173.863 157.815C174.391 157.947 174.762 158.431 174.762 158.987V169.086C174.762 169.898 173.995 170.478 173.237 170.239L160.27 166.155C159.775 165.999 159.438 165.532 159.438 165.002V152.02Z" fill="#A2BFFF"/>
<path opacity="0.8" fill-rule="evenodd" clip-rule="evenodd" d="M156.5 154.434C156.5 153.573 157.357 152.989 158.134 153.321L160.166 154.191C160.477 154.324 160.717 154.587 160.827 154.913L161.635 157.331C161.765 157.72 162.08 158.015 162.47 158.112L170.926 160.229C171.454 160.361 171.825 160.845 171.825 161.401V171.5C171.825 172.312 171.057 172.892 170.299 172.653L157.332 168.569C156.838 168.414 156.5 167.946 156.5 167.416V154.434Z" fill="#A0BDFF"/>
<path fill-rule="evenodd" clip-rule="evenodd" d="M153.547 156.485C153.547 155.624 154.404 155.04 155.18 155.372L157.213 156.242C157.524 156.375 157.764 156.638 157.873 156.964L158.682 159.382C158.812 159.771 159.126 160.065 159.517 160.163L167.973 162.28C168.5 162.412 168.872 162.896 168.872 163.452V173.551C168.872 174.362 168.104 174.943 167.346 174.704L154.379 170.62C153.884 170.464 153.547 169.997 153.547 169.467V156.485Z" fill="#1A47FF"/>
<path fill-rule="evenodd" clip-rule="evenodd" d="M150.764 162.285C150.447 161.365 151.273 160.46 152.192 160.721L165.289 164.445C165.684 164.558 165.994 164.872 166.107 165.276L168.574 174.114C168.703 174.574 168.281 174.997 167.834 174.856L154.115 170.536C153.758 170.423 153.475 170.145 153.35 169.784L150.764 162.285Z" fill="#5287FF"/>
<path d="M280.447 67.8187L279.284 61.2518L275.918 61.8482L277.081 68.415L270.425 67.1469L269.869 70.4327L276.495 71.5353L273.591 77.6277L276.848 78.9858L279.613 72.7474L284.684 77.5975L286.88 75.2163L282.124 70.5381L288.079 67.2065L286.262 64.341L280.447 67.8187Z" fill="#FFAA4C"/>
<path d="M49.9561 71.1447L46.9347 65.1993L43.887 66.7481L46.9085 72.6935L40.1711 73.4143L40.5937 76.7199L47.255 75.8493L46.2459 82.5228L49.7571 82.8758L50.5901 76.1032L56.8517 79.2704L58.2612 76.3538L52.351 73.2595L57.081 68.3411L54.51 66.1273L49.9561 71.1447Z" fill="#FFAA4C"/>
<path d="M117.159 41.9133L118.109 37.4262L115.827 36.9434L114.877 41.4304L110.993 38.9146L109.798 40.8679L113.706 43.2706L110.306 46.4117L112.017 48.1133L115.367 44.8432L117.329 49.2373L119.329 48.2816L117.522 44.0779L122.143 43.4799L121.729 41.1863L117.159 41.9133Z" fill="#FFDF9E"/>
<path d="M190.646 6.78631V0.117188H187.227V6.78631L180.894 4.37646L179.773 7.51487L186.106 9.7566L182.183 15.2488L185.154 17.1543L188.964 11.4939L193.112 17.1543L195.69 15.1928L191.823 9.7566L198.268 7.51487L196.979 4.37646L190.646 6.78631Z" fill="#FFDF9E"/>
<path d="M280.333 119.653V115.48H278.195V119.653L274.233 118.145L273.531 120.109L277.493 121.511L275.039 124.947L276.897 126.14L279.282 122.598L281.876 126.14L283.489 124.912L281.07 121.511L285.102 120.109L284.295 118.145L280.333 119.653Z" fill="#FFDF9E"/>
<path d="M230.951 57.3374L227.898 56.2855C226.963 55.9329 225.941 55.8565 224.952 56.0651C223.963 56.2738 223.047 56.7589 222.312 57.4635L216.89 62.8719C216.717 63.0535 216.597 63.279 216.545 63.5225C216.493 63.7661 216.511 64.0179 216.595 64.2489C216.68 64.4966 216.824 64.718 217.017 64.8934C217.209 65.0687 217.444 65.1924 217.699 65.2533L225.062 66.9806" fill="#3E3E3E"/>
<path d="M230.951 57.3374L227.898 56.2855C226.963 55.9329 225.941 55.8565 224.952 56.0651C223.963 56.2738 223.047 56.7589 222.312 57.4635L216.89 62.8719C216.717 63.0535 216.597 63.279 216.545 63.5225C216.493 63.7661 216.511 64.0179 216.595 64.2489C216.68 64.4966 216.824 64.718 217.017 64.8934C217.209 65.0687 217.444 65.1924 217.699 65.2533L225.062 66.9806L230.951 57.3374Z" stroke="#9F9F9F" stroke-width="0.5" stroke-linecap="round" stroke-linejoin="round"/>
<path d="M242.995 69.2954L244.047 72.3483C244.399 73.283 244.476 74.3049 244.267 75.2942C244.058 76.2836 243.573 77.1993 242.869 77.9341L237.46 83.3563C237.279 83.5293 237.053 83.6487 236.809 83.7008C236.566 83.7528 236.314 83.7354 236.083 83.6506C235.835 83.5665 235.614 83.4217 235.439 83.2292C235.263 83.0366 235.14 82.8024 235.079 82.5475L233.351 75.1837" fill="#3E3E3E"/>
<path d="M242.995 69.2954L244.047 72.3483C244.399 73.283 244.476 74.3049 244.267 75.2942C244.058 76.2836 243.573 77.1993 242.869 77.9341L237.46 83.3563C237.279 83.5293 237.053 83.6487 236.809 83.7008C236.566 83.7528 236.314 83.7354 236.083 83.6506C235.835 83.5665 235.614 83.4217 235.439 83.2292C235.263 83.0366 235.14 82.8024 235.079 82.5475L233.351 75.1837L242.995 69.2954Z" stroke="#9F9F9F" stroke-width="0.5" stroke-linecap="round" stroke-linejoin="round"/>
<path d="M263.015 51.0115C263.015 51.0065 263.015 51.0015 263.015 50.9965L262.502 37.7714C262.497 37.6409 262.392 37.5363 262.262 37.5312L249.037 37.0191C249.032 37.0189 249.027 37.0188 249.022 37.0189C247.026 37.0602 245.072 37.5916 243.331 38.5664C241.59 39.5412 240.116 40.9296 239.039 42.609L239.039 42.609L239.035 42.6148L224.674 66.3992C224.615 66.4975 224.63 66.6237 224.711 66.7051L233.305 75.3108C233.386 75.3922 233.513 75.4076 233.611 75.3482L257.396 60.9982L257.396 60.9983L257.401 60.995C259.086 59.9216 260.479 58.449 261.459 56.7076C262.438 54.9663 262.972 53.0098 263.015 51.0115Z" fill="#1A1A1A" stroke="#9F9F9F" stroke-width="0.5" stroke-linecap="round" stroke-linejoin="round"/>
<path d="M262.251 37.7823L262.764 51.0075C262.764 51.0075 259.692 45.7733 256.976 43.0579C254.261 40.3425 249.027 37.2701 249.027 37.2701L262.251 37.7823Z" fill="#3E3E3E"/>
<path d="M247.297 57.5036C249.935 57.5036 252.073 55.3652 252.073 52.7273C252.073 50.0895 249.935 47.951 247.297 47.951C244.659 47.951 242.521 50.0895 242.521 52.7273C242.521 55.3652 244.659 57.5036 247.297 57.5036Z" fill="#3E3E3E" stroke="#9F9F9F" stroke-width="0.5" stroke-linecap="round" stroke-linejoin="round"/>
<path d="M226.247 82.0232C225.7 82.5702 224.782 82.987 223.676 83.2965C222.576 83.6039 221.323 83.7965 220.135 83.916C218.949 84.0354 217.835 84.0813 217.018 84.0972C216.609 84.1052 216.275 84.1057 216.043 84.1042C216 84.1039 215.96 84.1035 215.923 84.1032C215.923 84.0669 215.923 84.0269 215.922 83.9832C215.921 83.7515 215.921 83.4174 215.929 83.0088C215.945 82.1913 215.991 81.0777 216.11 79.8914C216.23 78.7039 216.423 77.4505 216.73 76.351C217.039 75.2441 217.456 74.3269 218.003 73.7799C220.28 71.5036 223.97 71.5036 226.247 73.7799C228.523 76.0562 228.523 79.7468 226.247 82.0232Z" fill="#1A1A1A" stroke="#9F9F9F" stroke-width="0.5"/>
<path d="M224.58 79.6189C223.427 80.7719 219.36 80.6628 219.36 80.6628C219.36 80.6628 219.251 76.5963 220.404 75.4433C221.557 74.2902 223.427 74.2902 224.58 75.4433C225.733 76.5963 225.733 78.4658 224.58 79.6189Z" fill="#3E3E3E"/>
</svg>
