<svg width="24" height="24" viewBox="0 0 24 24" fill="none" xmlns="http://www.w3.org/2000/svg">
<path fill-rule="evenodd" clip-rule="evenodd" d="M1.99976 1.20001C0.895323 1.20001 0 2.09534 0 3.19977V20.8003C0 21.9047 0.895323 22.8 1.99976 22.8H22.0002C23.1047 22.8 24 21.9047 24 20.8003V3.19977C24 2.09533 23.1047 1.20001 22.0002 1.20001H1.99976ZM10.7525 7.68001C10.7525 9.10017 9.58452 10.2514 8.14378 10.2514C6.70304 10.2514 5.53508 9.10017 5.53508 7.68001C5.53508 6.25985 6.70304 5.10858 8.14378 5.10858C9.58452 5.10858 10.7525 6.25985 10.7525 7.68001ZM14.7064 10.5393C14.5929 10.3602 14.3939 10.2514 14.1798 10.2514C13.9656 10.2514 13.7666 10.3602 13.6531 10.5393L10.6396 15.2947C10.5824 15.3836 10.483 15.4375 10.3762 15.4375C10.2694 15.4375 10.1701 15.3836 10.1129 15.2947L8.14629 13.5286C8.03279 13.3496 7.83375 13.2408 7.61961 13.2408C7.40546 13.2408 7.20642 13.3496 7.09293 13.5286L1.9358 20.3765C1.87564 20.471 1.87229 20.5902 1.92705 20.6878C1.98182 20.7854 2.08605 20.8459 2.19914 20.8457H21.486C21.5991 20.8459 21.7033 20.7854 21.7581 20.6878C21.8129 20.5902 21.8095 20.471 21.7494 20.3765L14.7064 10.5393Z" fill="black"/>
</svg>
