<svg xmlns:xlink="http://www.w3.org/1999/xlink" width="24" height="24" xmlns="http://www.w3.org/2000/svg">
    <defs>
        <path d="M8.5 1.99998511c.56753168-.00251183 1.08748755.31674572 1.342.82401489l.947 1.9c.0847713.16917046.2577784.27598511.447.276H22.5c.8284271 0 1.5.67157288 1.5 1.5v14c0 .8284271-.6715729 1.5-1.5 1.5h-21C.671572875 22 0 21.3284271 0 20.5v-17c0-.82842712.671572875-1.50001489 1.5-1.50001489zM14.25 14.5c-.4042409.0001358-.8057275.0665154-1.1885.1965-.0815964.0272374-.1434583.0945123-.1637717.1781019-.0203134.0835897.0037752.1717517.0637717.2333981.8253267.8375662 1.2881366 1.9661254 1.2885 3.142 0 .1380712.1119288.25.25.25h3.25l.0573227-.0066027C17.9177666 18.4674868 18 18.3683467 18 18.25c-.0022046-2.0701539-1.6798461-3.7477954-3.75-3.75zm-4.5 0C7.67893219 14.5 6 16.1789322 6 18.25c0 .1380712.11192881.25.25.25h7l.0573227-.0066027C13.4177666 18.4674868 13.5 18.3683467 13.5 18.25c0-2.0710678-1.6789322-3.75-3.75-3.75zm4.5-5c-.6227102.00143189-1.2193936.24996004-1.659.691-.0775901.0754955-.0977727.1923528-.05.2895.2188932.4323034.3332927.9099384.334 1.3945.0000679.4843606-.1134727.9619849-.3315 1.3945-.0477727.0971472-.0275901.2140045.05.2895.4389938.4404291 1.0346569.6889067 1.6565.691 1.3116763 0 2.375-1.0633237 2.375-2.375S15.5616763 9.5 14.25 9.5zm-4.5 0c-1.31167628 0-2.375 1.0633237-2.375 2.375S8.43832372 14.25 9.75 14.25c1.3116763 0 2.375-1.0633237 2.375-2.375S11.0616763 9.5 9.75 9.5z" id="a"/>
    </defs>
    <use fill="#5287FF" fill-rule="nonzero" xlink:href="#a"/>
</svg>
