<?xml version="1.0" encoding="utf-8"?>
<!-- Generator: Adobe Illustrator 25.0.0, SVG Export Plug-In . SVG Version: 6.00 Build 0)  -->
<svg version="1.1" xmlns="http://www.w3.org/2000/svg" xmlns:xlink="http://www.w3.org/1999/xlink" x="0px" y="0px"
	 viewBox="0 0 206 130" style="enable-background:new 0 0 206 130;" xml:space="preserve">
<style type="text/css">
	.st0{opacity:0.5042;fill-rule:evenodd;clip-rule:evenodd;fill:#A2BFFF;enable-background:new    ;}
	.st1{opacity:0.8;fill-rule:evenodd;clip-rule:evenodd;fill:#A0BDFF;enable-background:new    ;}
	.st2{fill-rule:evenodd;clip-rule:evenodd;fill:#1A47FF;}
	.st3{fill-rule:evenodd;clip-rule:evenodd;fill:#5287FF;}
	.st4{fill-rule:evenodd;clip-rule:evenodd;fill:#E6E9F4;}
	.st5{fill-rule:evenodd;clip-rule:evenodd;fill:#F9C7A1;}
	.st6{fill-rule:evenodd;clip-rule:evenodd;fill:#FFFFFF;}
	.st7{fill-rule:evenodd;clip-rule:evenodd;fill:#F39D73;}
	.st8{fill-rule:evenodd;clip-rule:evenodd;fill:#EE784E;}
	.st9{fill-rule:evenodd;clip-rule:evenodd;fill:#F4F6FD;}
	.st10{fill:none;stroke:#E6E9F4;stroke-width:1.4;stroke-linecap:round;stroke-linejoin:round;stroke-dasharray:0.7,3.5;}
	.st11{filter:url(#Adobe_OpacityMaskFilter);}
	.st12{mask:url(#mask-4_1_);fill-rule:evenodd;clip-rule:evenodd;fill:#2798D5;}
	.st13{filter:url(#Adobe_OpacityMaskFilter_1_);}
	.st14{mask:url(#mask-6_1_);fill-rule:evenodd;clip-rule:evenodd;fill:#167DBC;}
	.st15{filter:url(#Adobe_OpacityMaskFilter_2_);}
	.st16{mask:url(#mask-8_1_);fill-rule:evenodd;clip-rule:evenodd;fill:#E76118;}
	.st17{filter:url(#Adobe_OpacityMaskFilter_3_);}
	.st18{mask:url(#mask-10_1_);fill-rule:evenodd;clip-rule:evenodd;fill:#CC5200;}
	.st19{filter:url(#Adobe_OpacityMaskFilter_4_);}
	.st20{mask:url(#mask-12_1_);fill-rule:evenodd;clip-rule:evenodd;fill:#4AAF4F;}
	.st21{filter:url(#Adobe_OpacityMaskFilter_5_);}
	.st22{mask:url(#mask-14_1_);fill-rule:evenodd;clip-rule:evenodd;fill:#369136;}
</style>
<g id="Calque_1">
	<g id="Logos_x2F_Workspace_x2F_Drive" transform="translate(69.299999, 58.399999)">
		<g id="logo" transform="translate(0.588000, 0.588000)">
			<path id="Rectangle-Copy-32" class="st0" d="M31.4,1.9l5.8,2.4c0.9,0.4,1.6,1.1,1.9,2l2.3,6.7c0.4,1.1,1.3,1.9,2.4,2.2l24,5.9
				c1.5,0.4,2.5,1.7,2.5,3.2v28c0,1.8-1.5,3.3-3.3,3.3c-0.3,0-0.7,0-1-0.1L29.1,44.2c-1.4-0.4-2.4-1.7-2.4-3.2V5
				c0-1.8,1.5-3.3,3.3-3.3C30.5,1.7,31,1.8,31.4,1.9z"/>
			<path id="Rectangle-Copy-12" class="st1" d="M23,8.6l5.8,2.4c0.9,0.4,1.6,1.1,1.9,2l2.3,6.7c0.4,1.1,1.3,1.9,2.4,2.2l24,5.9
				c1.5,0.4,2.5,1.7,2.5,3.2v28c0,1.8-1.5,3.3-3.3,3.3c-0.3,0-0.7,0-1-0.1L20.8,50.9c-1.4-0.4-2.4-1.7-2.4-3.2v-36
				c0-1.8,1.5-3.3,3.3-3.3C22.2,8.4,22.6,8.5,23,8.6z"/>
			<path id="Rectangle" class="st2" d="M14.7,14.3l5.8,2.4c0.9,0.4,1.6,1.1,1.9,2l2.3,6.7c0.4,1.1,1.3,1.9,2.4,2.2l24,5.9
				c1.5,0.4,2.5,1.7,2.5,3.2v28c0,1.8-1.5,3.3-3.3,3.3c-0.3,0-0.7,0-1-0.1L12.4,56.6C11,56.1,10,54.8,10,53.4v-36
				c0-1.8,1.5-3.3,3.3-3.3C13.8,14.1,14.3,14.1,14.7,14.3z"/>
			<path id="Rectangle-Copy-37" class="st3" d="M6.2,29.1l37.2,10.3c1.1,0.3,2,1.2,2.3,2.3l7,24.5c0.3,0.9-0.3,1.8-1.1,2.1
				c-0.3,0.1-0.6,0.1-1,0l-38.9-12c-1-0.3-1.8-1.1-2.2-2.1L2.1,33.5c-0.6-1.7,0.3-3.7,2-4.3C4.8,29,5.5,29,6.2,29.1z"/>
		</g>
	</g>
</g>
<g id="Calque_2">
	
		<g id="Group-15" transform="translate(27.379655, 65.671545) rotate(-18.000000) translate(-27.379655, -65.671545) translate(4.879655, 47.171545)">
		<polygon id="Fill-1" class="st4" points="42.6,26.7 4.6,31.3 1.6,6.4 39.6,1.8 		"/>
		<polygon id="Fill-2" class="st5" points="40.5,18.1 37.7,16.3 25.4,8.1 19.7,18.8 10.2,15.9 4.7,22.8 7.9,32.9 42,21.9 		"/>
		<polygon id="Fill-3" class="st6" points="11.4,18.6 8.1,18.6 10.2,15.9 13.5,16.9 		"/>
		<polygon id="Fill-4" class="st6" points="27.2,12.5 22.9,12.8 25.4,8.1 30,11.1 		"/>
		<g id="Group-14" transform="translate(0.000000, 0.335664)">
			<path id="Fill-5" class="st7" d="M42.6,23.4l-34.1,11l-0.7-2.1c8.6-5.6,19.4-11.8,31.5-15.3L42.6,23.4z"/>
			<path id="Fill-7" class="st8" d="M42.6,23.4l-34.1,11l-2.8-9.2c10.7-2.1,22.9-3.9,35.9-4.9L42.6,23.4z"/>
			<path id="Fill-9" class="st8" d="M42.6,23.4l-34.1,11L6,26.6c8.6-2.7,21.8-4.6,35.6-6.4L42.6,23.4z"/>
			<g id="Group-13" transform="translate(0.000000, 0.000000)">
				<path id="Fill-11" class="st9" d="M9.3,32.8l31.8-10.3L34.9,3.3L3,13.5L9.3,32.8z M44.1,24.1L7.7,35.8L0,12L36.4,0.2L44.1,24.1z
					"/>
			</g>
		</g>
	</g>
	<path id="Path-35-Copy-2" class="st10" d="M47,54.6c18.9-5.9,33.7-2.7,44.5,9.7"/>
</g>
<g id="Calque_3">
	
		<g id="Group-13_1_" transform="translate(188.266753, 72.476550) rotate(33.000000) translate(-188.266753, -72.476550) translate(176.766753, 58.476550)">
		<g id="Group-3" transform="translate(0.000000, 0.247870)">
			<g id="Clip-2">
			</g>
			<defs>
				<filter id="Adobe_OpacityMaskFilter" filterUnits="userSpaceOnUse" x="6.8" y="-7.5" width="6.3" height="43.6">
					<feColorMatrix  type="matrix" values="1 0 0 0 0  0 1 0 0 0  0 0 1 0 0  0 0 0 1 0"/>
				</filter>
			</defs>
			<mask maskUnits="userSpaceOnUse" x="6.8" y="-7.5" width="6.3" height="43.6" id="mask-4_1_">
				<g class="st11">
					<polygon id="path-3_1_" class="st6" points="0,0.1 22.2,0.1 22.2,26.9 0,26.9 					"/>
				</g>
			</mask>
			<path id="Fill-1_1_" class="st12" d="M22.2,25.1l0-15.4l0-3.1l-6.4-6.4l-3.1,0l-10.8,0C0.9,0.1,0,1,0,2l0,23.1
				c0,1,0.9,1.9,1.9,1.9l18.5,0C21.4,26.9,22.2,26.1,22.2,25.1"/>
		</g>
		<g id="Group-6" transform="translate(15.400000, 0.247870)">
			<g id="Clip-5">
			</g>
			<defs>
				<filter id="Adobe_OpacityMaskFilter_1_" filterUnits="userSpaceOnUse">
					<feColorMatrix  type="matrix" values="1 0 0 0 0  0 1 0 0 0  0 0 1 0 0  0 0 0 1 0"/>
				</filter>
			</defs>
			<mask maskUnits="userSpaceOnUse" id="mask-6_1_">
				<g class="st13">
					<polygon id="path-5_1_" class="st6" points="0.3,0.1 6.8,0.1 6.8,6.6 0.3,6.6 					"/>
				</g>
			</mask>
			<path id="Fill-4_1_" class="st14" d="M0.3,5.1l0.1-5l6.4,6.4L1.9,6.6C1,6.7,0.3,5.9,0.3,5.1"/>
		</g>
		<path id="Fill-7_1_" class="st6" d="M16.2,12.6l-10.1,0c-0.6,0-1.1-0.5-1.1-1.1c0-0.6,0.5-1.1,1.1-1.1l10.1,0
			c0.6,0,1.1,0.5,1.1,1.1C17.2,12.1,16.8,12.6,16.2,12.6"/>
		<path id="Fill-9_1_" class="st6" d="M16.2,17.1l-10.1,0C5.5,17.1,5,16.6,5,16S5.5,15,6.1,15l10.1,0c0.6,0,1.1,0.5,1.1,1.1
			C17.2,16.6,16.8,17.1,16.2,17.1"/>
		<path id="Fill-11_1_" class="st6" d="M11.1,21.6l-5.1,0c-0.6,0-1.1-0.5-1.1-1.1c0-0.6,0.5-1.1,1.1-1.1l5.1,0
			c0.6,0,1.1,0.5,1.1,1.1C12.2,21.1,11.7,21.6,11.1,21.6"/>
	</g>
	<path id="Path-35-Copy-5" class="st10" d="M173.6,63.9c-16.6-9.6-31.1-8.6-43.6,2.9"/>
</g>
<g id="Calque_4">
	
		<g id="Group-11" transform="translate(145.739393, 26.989396) rotate(23.000000) translate(-145.739393, -26.989396) translate(134.239393, 12.989396)">
		<g id="Group-3_1_" transform="translate(0.000000, 0.242913)">
			<g id="Clip-2_1_">
			</g>
			<defs>
				<filter id="Adobe_OpacityMaskFilter_2_" filterUnits="userSpaceOnUse" x="3.6" y="-6.2" width="12.8" height="39.7">
					<feColorMatrix  type="matrix" values="1 0 0 0 0  0 1 0 0 0  0 0 1 0 0  0 0 0 1 0"/>
				</filter>
			</defs>
			<mask maskUnits="userSpaceOnUse" x="3.6" y="-6.2" width="12.8" height="39.7" id="mask-8_1_">
				<g class="st15">
					<polygon id="path-7_1_" class="st6" points="0,0.1 21.8,0.1 21.8,26.4 0,26.4 					"/>
				</g>
			</mask>
			<path id="Fill-1_2_" class="st16" d="M21.8,24.6l0-15.1l0-3l-6.3-6.3l-3,0l-10.6,0C0.8,0.1,0,0.9,0,2l0,22.6c0,1,0.8,1.9,1.9,1.9
				l18.1,0C21,26.4,21.8,25.6,21.8,24.6"/>
		</g>
		<g id="Group-6_1_" transform="translate(15.092001, 0.242913)">
			<g id="Clip-5_1_">
			</g>
			<defs>
				<filter id="Adobe_OpacityMaskFilter_3_" filterUnits="userSpaceOnUse" x="1.7" y="-1.2" width="1.8" height="9.7">
					<feColorMatrix  type="matrix" values="1 0 0 0 0  0 1 0 0 0  0 0 1 0 0  0 0 0 1 0"/>
				</filter>
			</defs>
			<mask maskUnits="userSpaceOnUse" x="1.7" y="-1.2" width="1.8" height="9.7" id="mask-10_1_">
				<g class="st17">
					<polygon id="path-9_1_" class="st6" points="0.3,0.1 6.7,0.1 6.7,6.5 0.3,6.5 					"/>
				</g>
			</mask>
			<path id="Fill-4_2_" class="st18" d="M0.3,5l0.1-4.9l6.3,6.3L1.9,6.5C1,6.5,0.3,5.8,0.3,5"/>
		</g>
		<path id="Fill-7_2_" class="st6" d="M12.2,10.5c-0.1,0-0.2,0.1-0.2,0.2l0,4.9c0,0,0,0,0,0l-4.9,0c-0.1,0-0.2,0.1-0.2,0.2
			c0,3,2.4,5.4,5.4,5.4c3,0,5.4-2.4,5.4-5.4C17.6,12.9,15.2,10.5,12.2,10.5"/>
		<path id="Fill-9_2_" class="st6" d="M10.3,13.5l0-5.3c0-0.1-0.1-0.2-0.2-0.2c-3.2,0-5.9,2.6-5.9,5.9c0,0.1,0.1,0.2,0.2,0.2l5.3,0
			C10,14,10.3,13.8,10.3,13.5"/>
	</g>
	<path id="Path-35-Copy-4" class="st10" d="M137.2,42.4C129,45.9,122,52.8,116,63.1"/>
</g>
<g id="Calque_5">
	
		<g id="Group-19" transform="translate(76.718933, 21.658592) rotate(-21.000000) translate(-76.718933, -21.658592) translate(62.718933, 4.658592)">
		<g id="Group-3_2_" transform="translate(-0.000000, 0.297444)">
			<g id="Clip-2_2_">
			</g>
			<defs>
				<filter id="Adobe_OpacityMaskFilter_4_" filterUnits="userSpaceOnUse" x="-9.9" y="6.6" width="45.8" height="21.2">
					<feColorMatrix  type="matrix" values="1 0 0 0 0  0 1 0 0 0  0 0 1 0 0  0 0 0 1 0"/>
				</filter>
			</defs>
			<mask maskUnits="userSpaceOnUse" x="-9.9" y="6.6" width="45.8" height="21.2" id="mask-12_1_">
				<g class="st19">
					<polygon id="path-11_1_" class="st6" points="0,0.1 26.7,0.1 26.7,32.3 0,32.3 					"/>
				</g>
			</mask>
			<path id="Fill-1_3_" class="st20" d="M26.7,30.1l0-18.5V7.8L19,0.1l-3.7,0l-13,0C1,0.1,0,1.1,0,2.4l0,27.7c0,1.3,1,2.3,2.3,2.3
				l22.1,0C25.7,32.3,26.7,31.3,26.7,30.1"/>
		</g>
		<g id="Group-6_2_" transform="translate(18.479999, 0.297444)">
			<g id="Clip-5_2_">
			</g>
			<defs>
				<filter id="Adobe_OpacityMaskFilter_5_" filterUnits="userSpaceOnUse" x="-1.9" y="3.7" width="11.7" height="2.8">
					<feColorMatrix  type="matrix" values="1 0 0 0 0  0 1 0 0 0  0 0 1 0 0  0 0 0 1 0"/>
				</filter>
			</defs>
			<mask maskUnits="userSpaceOnUse" x="-1.9" y="3.7" width="11.7" height="2.8" id="mask-14_1_">
				<g class="st21">
					<polygon id="path-13_1_" class="st6" points="0.4,0.1 8.2,0.1 8.2,8 0.4,8 					"/>
				</g>
			</mask>
			<path id="Fill-4_3_" class="st22" d="M0.4,6.1l0.1-6l7.7,7.7L2.3,8C1.2,8,0.4,7.1,0.4,6.1"/>
		</g>
		<path id="Fill-7_3_" class="st6" d="M9.5,15.7l-3.2,0c-0.2,0-0.4-0.2-0.4-0.4l0-2.1c0-0.2,0.2-0.4,0.4-0.4l3.2,0
			c0.2,0,0.4,0.2,0.4,0.4v2.1C9.9,15.5,9.7,15.7,9.5,15.7"/>
		<path id="Fill-9_3_" class="st6" d="M20.4,15.7l-8,0c-0.2,0-0.4-0.2-0.4-0.4l0-2.1c0-0.2,0.2-0.4,0.4-0.4l8,0
			c0.2,0,0.4,0.2,0.4,0.4l0,2.1C20.8,15.5,20.6,15.7,20.4,15.7"/>
		<path id="Fill-11_2_" class="st6" d="M9.5,21.1H6.3c-0.2,0-0.4-0.2-0.4-0.4l0-2.1c0-0.2,0.2-0.4,0.4-0.4l3.2,0
			c0.2,0,0.4,0.2,0.4,0.4l0,2.1C9.9,20.9,9.7,21.1,9.5,21.1"/>
		<path id="Fill-13" class="st6" d="M20.4,21.1l-8,0c-0.2,0-0.4-0.2-0.4-0.4l0-2.1c0-0.2,0.2-0.4,0.4-0.4l8,0c0.2,0,0.4,0.2,0.4,0.4
			v2.1C20.8,20.9,20.6,21.1,20.4,21.1"/>
		<path id="Fill-15" class="st6" d="M9.5,26.5H6.3c-0.2,0-0.4-0.2-0.4-0.4l0-2.1c0-0.2,0.2-0.4,0.4-0.4l3.2,0c0.2,0,0.4,0.2,0.4,0.4
			l0,2.1C9.9,26.3,9.7,26.5,9.5,26.5"/>
		<path id="Fill-17" class="st6" d="M20.4,26.5l-8,0c-0.2,0-0.4-0.2-0.4-0.4l0-2.1c0-0.2,0.2-0.4,0.4-0.4l8,0c0.2,0,0.4,0.2,0.4,0.4
			v2.1C20.8,26.3,20.6,26.5,20.4,26.5"/>
	</g>
	<path id="Path-35-Copy-3" class="st10" d="M85.5,38.8c9.9,3.4,16,9.8,18.4,19.2"/>
</g>
</svg>
