<?xml version="1.0" encoding="UTF-8"?>
<svg width="24px" height="24px" viewBox="0 0 24 24" version="1.1" xmlns="http://www.w3.org/2000/svg" xmlns:xlink="http://www.w3.org/1999/xlink">
    <title>icons/actions/remove</title>
    <g id="icons/actions/remove" stroke="none" stroke-width="1" fill="none" fill-rule="evenodd">
        <path d="M12,24 C13.6619145,24 15.2179226,23.6822811 16.6680244,23.0468432 C18.1181263,22.4276986 19.389002,21.5723014 20.4806517,20.4806517 C21.5723014,19.389002 22.4276986,18.1181263 23.0468432,16.6680244 C23.6822811,15.2179226 24,13.6619145 24,12 C24,10.3380855 23.6822811,8.78207739 23.0468432,7.33197556 C22.4276986,5.88187373 21.5723014,4.61099796 20.4806517,3.51934827 C19.389002,2.42769857 18.1181263,1.57230143 16.6680244,0.953156823 C15.2179226,0.317718941 13.6619145,0 12,0 C10.3380855,0 8.78207739,0.317718941 7.33197556,0.953156823 C5.88187373,1.57230143 4.61099796,2.42769857 3.51934827,3.51934827 C2.42769857,4.61099796 1.57230143,5.88187373 0.953156823,7.33197556 C0.317718941,8.78207739 0,10.3380855 0,12 C0,13.6619145 0.317718941,15.2179226 0.953156823,16.6680244 C1.5885947,18.1181263 2.44806517,19.3849287 3.53156823,20.4684318 C4.61507128,21.5519348 5.88187373,22.4114053 7.33197556,23.0468432 C8.78207739,23.6822811 10.3380855,24 12,24 Z M15.6904277,17.4745418 C15.5437882,17.4745418 15.4093686,17.4460285 15.287169,17.389002 C15.1649695,17.3319756 15.0549898,17.2545825 14.9572301,17.1568228 L12.1955193,14.395112 C12.1629328,14.3788187 12.1303462,14.3625255 12.0977597,14.3462322 C12.0651731,14.3299389 12.0325866,14.3217923 12,14.3217923 C11.9674134,14.3217923 11.9348269,14.3299389 11.9022403,14.3462322 L11.8044807,14.395112 L11.8044807,14.395112 L9.04276986,17.1568228 C8.96130346,17.2545825 8.85539715,17.3319756 8.72505092,17.389002 C8.59470468,17.4460285 8.45621181,17.4745418 8.3095723,17.4745418 C8.16293279,17.4745418 8.02851324,17.4460285 7.90631365,17.389002 C7.78411405,17.3319756 7.67413442,17.2545825 7.57637475,17.1568228 L6.84317719,16.4236253 C6.74541752,16.3258656 6.66802444,16.2158859 6.61099796,16.0936864 C6.55397149,15.9714868 6.52545825,15.8370672 6.52545825,15.6904277 C6.52545825,15.5437882 6.55397149,15.4052953 6.61099796,15.2749491 C6.66802444,15.1446029 6.74541752,15.0386965 6.84317719,14.9572301 L9.60488798,12.1955193 L9.65376782,12.0977597 L9.65376782,12.0977597 C9.6700611,12.0651731 9.67820774,12.0325866 9.67820774,12 C9.67820774,11.9674134 9.6700611,11.9348269 9.65376782,11.9022403 C9.63747454,11.8696538 9.62118126,11.8370672 9.60488798,11.8044807 L6.84317719,9.04276986 C6.74541752,8.96130346 6.66802444,8.85539715 6.61099796,8.72505092 C6.55397149,8.59470468 6.52545825,8.45621181 6.52545825,8.3095723 C6.52545825,8.16293279 6.55397149,8.02851324 6.61099796,7.90631365 C6.66802444,7.78411405 6.74541752,7.67413442 6.84317719,7.57637475 L7.57637475,6.84317719 C7.67413442,6.74541752 7.78411405,6.66802444 7.90631365,6.61099796 C8.02851324,6.55397149 8.16293279,6.52545825 8.3095723,6.52545825 C8.45621181,6.52545825 8.59470468,6.55397149 8.72505092,6.61099796 C8.85539715,6.66802444 8.96130346,6.74541752 9.04276986,6.84317719 L11.8044807,9.60488798 C11.8370672,9.62118126 11.8696538,9.63747454 11.9022403,9.65376782 C11.9348269,9.6700611 11.9674134,9.67820774 12,9.67820774 C12.0325866,9.67820774 12.0651731,9.6700611 12.0977597,9.65376782 C12.1303462,9.63747454 12.1629328,9.62118126 12.1955193,9.60488798 L14.9572301,6.84317719 C15.0386965,6.74541752 15.1446029,6.66802444 15.2749491,6.61099796 C15.4052953,6.55397149 15.5437882,6.52545825 15.6904277,6.52545825 C15.8370672,6.52545825 15.9714868,6.55397149 16.0936864,6.61099796 C16.2158859,6.66802444 16.3258656,6.74541752 16.4236253,6.84317719 L17.1568228,7.57637475 C17.2545825,7.67413442 17.3319756,7.78411405 17.389002,7.90631365 C17.4460285,8.02851324 17.4745418,8.16293279 17.4745418,8.3095723 C17.4745418,8.45621181 17.4460285,8.59470468 17.389002,8.72505092 C17.3319756,8.85539715 17.2545825,8.96130346 17.1568228,9.04276986 L14.395112,11.8044807 C14.3788187,11.8370672 14.3625255,11.8696538 14.3462322,11.9022403 C14.3299389,11.9348269 14.3217923,11.9674134 14.3217923,12 C14.3217923,12.0325866 14.3299389,12.0651731 14.3462322,12.0977597 C14.3625255,12.1303462 14.3788187,12.1629328 14.395112,12.1955193 L17.1568228,14.9572301 C17.2545825,15.0386965 17.3319756,15.1446029 17.389002,15.2749491 C17.4460285,15.4052953 17.4745418,15.5437882 17.4745418,15.6904277 C17.4745418,15.8370672 17.4460285,15.9714868 17.389002,16.0936864 C17.3319756,16.2158859 17.2545825,16.3258656 17.1568228,16.4236253 L16.4236253,17.1568228 C16.3258656,17.2545825 16.2158859,17.3319756 16.0936864,17.389002 C15.9714868,17.4460285 15.8370672,17.4745418 15.6904277,17.4745418 Z" id="r" fill="#000000" fill-rule="nonzero"></path>
    </g>
</svg>