<svg width="24" height="24" xmlns="http://www.w3.org/2000/svg">
    <path d="M15.5519891 3.39066643c.4793675-.28011321 1.0750262-.27633028 1.5507417.00984848 3.1184337 1.6439565 5.2633933 4.6614253 5.7779309 8.12823079.51176 3.4070579-.6407916 6.852456-3.1041387 9.2794051-3.3506292 3.3195251-8.4654607 4.1396922-12.69907387 2.0363062S.440869198 16.1858363 1.11137719 11.5347466c.51025544-3.46477012 2.64988684-6.48248304 5.76382122-8.12923093.47433432-.26538008 1.05583398-.25710821 1.5223084.02165495.46647443.27876315.74583787.78493944.73134577 1.3251193-.0144921.54017986-.32060022 1.03088761-.80136069 1.2846242-2.27865285 1.1946708-3.84898563 3.39352529-4.22989293 5.92289688-.36883082 2.4705079.46814249 4.9678489 2.25453192 6.7270186 2.42920631 2.4121657 6.14217452 3.0091085 9.21456862 1.4814482 3.0723941-1.5276603 4.8133946-4.8364334 4.3206856-8.2114673-.3815882-2.53070753-1.9529824-4.73059047-4.2329164-5.92589729-.4996598-.24269025-.8246376-.73809583-.8460494-1.28974208-.0214118-.55164626.2642024-1.0703915.7435698-1.3505047zM11.9960195 0c.8349197 0 1.5117558.671674581 1.5117558 1.50022717V10.916653c0 .8285526-.6768361 1.5002272-1.5117558 1.5002272-.8349197 0-1.5117559-.6716746-1.5117559-1.5002272V1.50022717C10.4842636.671674581 11.1610998 0 11.9960195 0z" fill="#000" fill-rule="evenodd"/>
</svg>
