<svg xmlns:xlink="http://www.w3.org/1999/xlink" width="24" height="24" xmlns="http://www.w3.org/2000/svg">
    <defs>
        <path d="M12 0C5.372583 0 0 5.372583 0 12s5.372583 12 12 12 12-5.372583 12-12C23.9922852 5.37578119 18.6242188.0077147623 12 0zm6.927 8.2l-6.845 9.289c-.1632464.2165896-.4066717.3585051-.6755781.3938578-.2689064.0353527-.5407408-.0388223-.7544219-.2058578l-4.888-3.908c-.43133439-.345178-.50117797-.9746656-.156-1.406.34517797-.4313344.97466561-.501178 1.406-.156l4.076 3.261 6.227-8.451c.204192-.30640998.5602511-.47581735.9268115-.44096248.3665605.03485487.6843108.26833226.8270949.60773489.142784.33940264.0874986.72981327-.1439064 1.01622759z" id="a"/>
    </defs>
    <use fill="#000" xlink:href="#a" fill-rule="evenodd"/>
</svg>
