<?xml version="1.0" encoding="UTF-8"?>
<svg width="24px" height="24px" viewBox="0 0 24 24" version="1.1" xmlns="http://www.w3.org/2000/svg" xmlns:xlink="http://www.w3.org/1999/xlink">
    <title>icons/actions/comment</title>
    <g id="icons/actions/comment" stroke="none" stroke-width="1" fill="none" fill-rule="evenodd">
        <path d="M22,1 C23.1045695,1 24,1.89540343 24,2.99993953 L24,2.99993953 L24,16.4995314 C24,17.6040675 23.1045695,18.4994709 22,18.4994709 L22,18.4994709 L12.312,18.4994709 L6.069,22.8223402 C5.76307584,23.034012 5.36493313,23.0583691 5.0354867,22.8855672 C4.70604026,22.7127652 4.49975349,22.3713716 4.5,21.9993651 L4.5,21.9993651 L4.5,18.4994709 L2,18.4994709 C1.47480372,18.5121147 0.966660444,18.3126425 0.59032281,17.9461008 C0.213985176,17.579559 0.00119279568,17.076861 0,16.5515298 L0,16.5515298 L0,2.99993953 C0,1.89540343 0.8954305,1 2,1 L2,1 Z M21.75,2.99993953 L2.25,2.99993953 C2.11192881,2.99993953 2,3.11186496 2,3.24993197 L2,3.24993197 L2,16.2495389 C2,16.3876059 2.11192881,16.4995314 2.25,16.4995314 L2.25,16.4995314 L5.5,16.4995314 C6.05228475,16.4995314 6.5,16.9472331 6.5,17.4995011 L6.5,17.4995011 L6.5,20.0904228 L11.431,16.677526 C11.5981564,16.5617223 11.7966467,16.4996305 12,16.4995314 L12,16.4995314 L21.75,16.4995314 C21.8880712,16.4995314 22,16.3876059 22,16.2495389 L22,16.2495389 L22,3.24993197 C22,3.11186496 21.8880712,2.99993953 21.75,2.99993953 L21.75,2.99993953 Z M6,7.99878839 C6.82842712,7.99878839 7.5,8.67034096 7.5,9.49874303 C7.5,10.3271451 6.82842712,10.9986977 6,10.9986977 C5.17157288,10.9986977 4.5,10.3271451 4.5,9.49874303 C4.5,8.67034096 5.17157288,7.99878839 6,7.99878839 Z M12,7.99878839 C12.8284271,7.99878839 13.5,8.67034096 13.5,9.49874303 C13.5,10.3271451 12.8284271,10.9986977 12,10.9986977 C11.1715729,10.9986977 10.5,10.3271451 10.5,9.49874303 C10.5,8.67034096 11.1715729,7.99878839 12,7.99878839 Z M18,7.99878839 C18.8284271,7.99878839 19.5,8.67034096 19.5,9.49874303 C19.5,10.3271451 18.8284271,10.9986977 18,10.9986977 C17.1715729,10.9986977 16.5,10.3271451 16.5,9.49874303 C16.5,8.67034096 17.1715729,7.99878839 18,7.99878839 Z" id="Combined-Shape" fill="#000000"></path>
    </g>
</svg>