<svg width="24" height="24" xmlns="http://www.w3.org/2000/svg">
    <path d="M23.9009835 8.65721114c-.2342648-.62733305-.8370003-1.04437855-1.5117787-1.04603174h-6.5378381L13.50998 1.03830423c-.2368828-.628001499-.8440357-1.0426226676-1.5203465-1.0382702912-.6763109.0044213285-1.2779389.4268831862-1.5065119 1.0579038412L8.1494369 7.6111794H1.6115988C.933773578 7.61179869.328652618 8.03245504.097109237 8.66399312c-.231543381.63153807-.0401048244 1.33920678.479130152 1.77114478l5.535486951 4.5473476-2.32268196 6.9088269c-.22375513.6602327.00963699 1.388087.57687983 1.7990516s1.33765466.4103613 1.90424183-.0014913l5.73023576-4.1623119 5.7291355 4.1644934c.5659065.4110321 1.3349987.412012 1.9019692.0024234.5669704-.4095886.8016051-1.1356771.5802527-1.7956207L17.887977 14.984667l5.5475899-4.5582551c.5123433-.43567741.697881-1.14096681.4654166-1.76920076z" fill="#000" fill-rule="evenodd"/>
</svg>
