<?xml version="1.0" encoding="UTF-8"?>
<svg width="24px" height="24px" viewBox="0 0 24 24" version="1.1" xmlns="http://www.w3.org/2000/svg" xmlns:xlink="http://www.w3.org/1999/xlink">
    <title>icons/actions/copy</title>
    <g id="icons/actions/copy" stroke="none" stroke-width="1" fill="none" fill-rule="evenodd">
        <g id="Icons/icon-24px" transform="translate(1.000000, 0.000000)" fill="#000000">
            <path d="M20.941,3.607 L17.87,0.554 C17.5126586,0.199828382 17.0301201,0.000776726157 16.527,0 L7.9,0 C6.85065898,0 6,0.850658975 6,1.9 L6,5 L2.4,5 C1.35065898,5 0.5,5.85065898 0.5,6.9 L0.5,22.11 C0.505502359,23.1554337 1.35455185,24 2.4,24 L14.1,24 C15.1473915,24 15.9972437,23.1523879 16,22.105 L16,19 L19.6,19 C20.6473915,19 21.4972437,18.1523879 21.5,17.105 L21.5,4.949 C21.5009354,4.44485074 21.2995595,3.96140435 20.941,3.607 Z M13.5,22 L3,22 C2.72385763,22 2.5,21.7761424 2.5,21.5 L2.5,7.5 C2.5,7.22385763 2.72385763,7 3,7 L10.784,7 C10.9148865,7 11.0405471,7.0513604 11.134,7.143 L13.85,9.8 C13.9459216,9.89402194 14,10.0226829 14,10.157 L14,21.5 C14,21.7761424 13.7761424,22 13.5,22 Z M19,17 L16.25,17 C16.1119288,17 16,16.8880712 16,16.75 L16,9.95 C15.9998188,9.44656413 15.7990034,8.96395953 15.442,8.609 L12.37,5.554 C12.0136411,5.19896445 11.5310326,4.99973561 11.028,5 L8.25,5 C8.11192881,5 8,4.88807119 8,4.75 L8,2.5 C8,2.22385763 8.22385763,2 8.5,2 L16.256,1.97399914 C16.3872326,1.97375688 16.5133,2.02511768 16.607,2.117 L19.35,4.8 C19.4459216,4.89402194 19.5,5.02268294 19.5,5.157 L19.5,16.5 C19.5,16.7761424 19.2761424,17 19,17 Z" id="Shape"></path>
        </g>
    </g>
</svg>