<svg width="24" height="24" xmlns="http://www.w3.org/2000/svg">
    <path d="M23.3771163 5.7355634l-3.339907-3.13777626c-.3821578-.38366489-.9027973-.59895997-1.4455814-.59778233H5.95311628c-1.12954161.00122958-2.0449091.91235882-2.04613954 2.03667053v1.85222132H2.04613953C.916597931 5.89012141.0012304386 6.80125064 0 7.92556235V19.9633343c.0012304386 1.1243117.916597931 2.035441 2.04613953 2.0366705H18.0468837c1.1295416-.0012295 2.0449091-.9123588 2.0461396-2.0366705V18.111113h1.8608372c1.1295416-.0012248 2.0449091-.912354 2.0461395-2.0366657V7.19778492c-.0031756-.55063449-.2274572-1.07713611-.6228837-1.46222152zm-6.0747907 14.0422155H2.79069767c-.30825195 0-.55813953-.2487306-.55813953-.5555553V8.6666731c0-.30682471.24988758-.55555529.55813953-.55555529h.83720931c.15412597 0 .27906976.12436529.27906976.27777765v7.68555184c0 1.1248194.91608788 2.0366705 2.04613954 2.0366705H17.5813953c.154126 0 .2790698.1243605.2790698.2777728v.833333c0 .3068247-.2498876.5555553-.5581395.5555553zm3.9069767-3.8888871H6.69767442c-.30825195 0-.55813954-.2487305-.55813954-.5555552V4.77778609c0-.30682471.24988759-.55555534.55813954-.55555534H18.2946977c.1423152 0 .2792782.05399472.3828837.15111109L21.592186 7.1111183c.1119079.10502087.1752559.25135259.1752559.40444425v7.81777405c0 .3068247-.2498876.5555552-.5581396.5555552z" fill="#000" fill-rule="evenodd"/>
</svg>
