<svg width="24" height="24" xmlns="http://www.w3.org/2000/svg">
    <path d="M21.2159209 10.9865316c1.5226609 0 2.7570215 1.2301568 2.7570215 2.747632 0 1.5174753-1.2343606 2.7476321-2.7570215 2.7476321-.5530118-.0014947-1.0923779-.1712591-1.5459371-.4865807-.0810088-.0556838-.1871545-.059197-.2716919-.0089922l-2.8673023 1.7145223c-.0746751.0460813-.1142213.1323927-.1002553.2188115.0110281.0779328.0190485.136882.0190485.1778467.0049132.0973731.066445.1829118.1574008.2188114l2.4502402.9771579c.0912994.0358568.1951615.0160112.2666791-.0509561.8829691-.8369266 2.2112652-.9999622 3.2716134-.4015592 1.0603481.598403 1.6033158 1.8174784 1.3373375 3.0026011-.2659782 1.1851227-1.2783346 2.0575086-2.4934491 2.1486997-1.2151144.0911912-2.3471477-.620264-2.788215-1.7523248-.1136293-.2751915-.1758076-.5687709-.1834672-.8662535-.0032288-.0991292-.0650019-.1869638-.1574009-.2238071l-2.4552529-.9791561c-.0909675-.0359401-.194592-.0160652-.2656766.050956-.7963927.7596943-1.9711481.9717664-2.9843294.5387448-1.0131813-.4330217-1.6687958-1.4273723-1.6655248-2.5260321.0038773-1.5152295 1.2366222-2.7419892 2.7570337-2.7436355.5533441.001355 1.0930711.1711229 1.5469396.4865807.0810088.0556839.1871545.059197.271692.0089923l2.8452461-1.7105259c.0861075-.0507983.1334583-.14793.1203064-.2467873-.0139373-.0976487-.0213058-.1961171-.0220562-.294746 0-1.5174752 1.2343605-2.747632 2.7570214-2.747632zm-13.9916331-.4955729c2.26888733.012875 4.4108618 1.045157 5.8298471 2.8095786.1078827.1343937.1387536.3146666.0817034.4771122-.0570503.1624456-.193987.2841858-.3624183.322199-1.2035381.2683333-2.2314282 1.0430939-2.81817716 2.1241693-.08764222.1613741-.25700107.2618762-.44112343.2617745H.501165712c-.158312089 0-.307303312-.0746007-.4018793834-.2011254-.094576071-.1265246-.1236208858-.2901383-.0783436231-.441321C.98297179 12.6769273 3.90463113 10.5060119 7.2242878 10.4909587zM7.01776183 0c2.63005063 0 4.76212797 2.12481623 4.76212797 4.74590988S9.64781246 9.49181976 7.01776183 9.49181976c-2.63005064 0-4.76212793-2.12481623-4.76212793-4.74590988S4.38771119 0 7.01776183 0z" fill="#000" fill-rule="evenodd"/>
</svg>
