<svg xmlns:xlink="http://www.w3.org/1999/xlink" width="24" height="24" xmlns="http://www.w3.org/2000/svg">
    <defs>
        <path d="M15.586.0000015934c.2649081-.0004725582.5191803.1041854536.707.2910016046L21.707 5.7050032c.1875494.18749273.293.44180518.293.707v15.5879984c0 1.1045711-.8954305 2-2 2H4c-1.1045695 0-2-.8954289-2-2V2.00000159C2 .895433698 2.8954305.0000015934 4 .0000015934zM14.75 2.0000032H4.5c-.27614237 0-.5.22385762-.5.5v19c0 .2761424.22385763.5.5.5h15c.2761424 0 .5-.2238576.5-.5v-14.25c0-.13807119-.1119288-.25-.25-.25H17c-1.1045695 0-2-.8954305-2-2v-2.75c0-.13807119-.1119288-.25-.25-.25zm-5.75 15.498c.27614237 0 .5.2238576.5.5v1c0 .2761424-.22385763.5-.5.5H7c-.27614237 0-.5-.2238576-.5-.5v-1c0-.2761424.22385763-.5.5-.5h2zm8 0c.2761424 0 .5.2238576.5.5v1c0 .2761424-.2238576.5-.5.5h-5.5c-.2761424 0-.5-.2238576-.5-.5v-1c0-.2761424.2238576-.5.5-.5H17zm-8-3.5c.27614237 0 .5.2238576.5.5v1c0 .2761424-.22385763.5-.5.5H7c-.27614237 0-.5-.2238576-.5-.5v-1c0-.2761424.22385763-.5.5-.5h2zm8 0c.2761424 0 .5.2238576.5.5v1c0 .2761424-.2238576.5-.5.5h-5.5c-.2761424 0-.5-.2238576-.5-.5v-1c0-.2761424.2238576-.5.5-.5H17zm-8-3.5c.27614237 0 .5.2238576.5.5v1c0 .2761424-.22385763.5-.5.5H7c-.27614237 0-.5-.2238576-.5-.5v-1c0-.2761424.22385763-.5.5-.5h2zm8 0c.2761424 0 .5.2238576.5.5v1c0 .2761424-.2238576.5-.5.5h-5.5c-.2761424 0-.5-.2238576-.5-.5v-1c0-.2761424.2238576-.5.5-.5H17z" id="a"/>
    </defs>
    <use fill="#4BAF50" xlink:href="#a" fill-rule="evenodd"/>
</svg>
