<svg xmlns:xlink="http://www.w3.org/1999/xlink" width="24" height="24" xmlns="http://www.w3.org/2000/svg">
    <defs>
        <path d="M13.7281548 12.6902411c-.04514-.045026-.070509-.1061629-.070509-.16992 0-.0637571.025369-.1248939.070509-.16992l8.89248-8.89151998c.56227-.56306535.5616253-1.47532993-.00144-2.03759998-.5630654-.56227005-1.47533-.56162535-2.0376.00143998l-8.89152 8.88767998c-.0450261.04514-.1061629.070509-.16992.070509-.0637571 0-.124894-.025369-.16992-.070509L2.45871478 1.42272112C1.89644472.860185963.984609932.85997106.422074777 1.42224112s-.562750058 1.47410484-.00048 2.03664L9.31215478 12.3504011c.04514001.0450261.07050901.1061629.07050901.16992 0 .0637571-.025369.124894-.07050901.16992l-8.890560003 8.89248c-.3637249517.3638965-.5056842279.8941956-.372403143 1.3911389.133281085.4969432.521553963.8850331 1.018559996 1.01808.49700604.1330468 1.0272382-.0091624 1.39096315-.3730589l8.89152002-8.89248c.045026-.04514.1061629-.070509.16992-.070509.0637571 0 .1248939.025369.16992.070509l8.89152 8.89248c.56227.5625352 1.4741048.5627501 2.03664.00048.5625351-.56227.56275-1.4741048.00048-2.03664l-8.89056-8.89248z" id="a"/>
    </defs>
    <use fill="#000" xlink:href="#a" fill-rule="evenodd"/>
</svg>
