<?xml version="1.0" encoding="UTF-8"?>
<svg width="24px" height="24px" viewBox="0 0 24 24" version="1.1" xmlns="http://www.w3.org/2000/svg" xmlns:xlink="http://www.w3.org/1999/xlink">
    <title>icons/document types/drop-box</title>
    <g id="icons/document-types/drop-box" stroke="none" stroke-width="1" fill="none" fill-rule="evenodd">
        <g id="Group" transform="translate(1.000000, 0.000000)" fill="#9F9F9F">
            <g id="icon" transform="translate(-0.000000, 0.500000)">
                <path d="M16.7708333,10.5416691 C20.2093558,10.5458933 22.9957758,13.3323133 23,16.7708358 C23,20.2111095 20.2111071,23.0000024 16.7708333,23.0000024 C13.3305596,23.0000024 10.5416667,20.2111095 10.5416667,16.7708358 C10.5416667,13.330562 13.3305596,10.5416691 16.7708333,10.5416691 Z M16.7708333,13.4250728 C16.6270923,13.4250728 16.4904083,13.487378 16.396125,13.5958774 L16.396125,13.5958774 L14.4794583,15.9917108 C14.3639436,16.1356093 14.3413233,16.3330534 14.4213004,16.4993486 C14.5012776,16.6656437 14.6696395,16.7712378 14.8541667,16.7708358 L14.8541667,16.7708358 L15.5729167,16.7708358 C15.7052349,16.7708358 15.8125,16.8781009 15.8125,17.0104191 L15.8125,17.0104191 L15.8125,19.6458358 C15.8125,20.1751087 16.2415604,20.6041691 16.7708333,20.6041691 C17.3001062,20.6041691 17.7291667,20.1751087 17.7291667,19.6458358 L17.7291667,19.6458358 L17.7291667,17.0104191 C17.7291667,16.8781009 17.8364318,16.7708358 17.96875,16.7708358 L17.96875,16.7708358 L18.6875,16.7708358 C18.871667,16.7709418 19.0395975,16.665487 19.1194982,16.4995552 C19.1993988,16.3336233 19.1771286,16.1365817 19.0622083,15.9926691 L19.0622083,15.9926691 L17.1455417,13.5958774 C17.0512584,13.487378 16.9145743,13.4250728 16.7708333,13.4250728 Z M6.59333333,1.21567752e-06 C7.13880767,-0.000706208352 7.63768839,0.30738233 7.88133333,0.795419102 L7.88133333,0.795419102 L8.788875,2.61050244 C8.87011414,2.77262412 9.03591264,2.87499635 9.21725,2.87500244 L9.21725,2.87500244 L18.6875,2.87500244 C19.4814093,2.87500244 20.1250013,3.51859311 20.1250013,4.31250244 L20.1250013,4.31250244 L20.1250013,9.5210441 C20.1252644,9.60106476 20.084591,9.67566375 20.0171844,9.71878839 C19.9497779,9.76191303 19.865,9.76757393 19.7924583,9.7337941 C18.8390549,9.31902176 17.8105515,9.10470946 16.7708333,9.1041691 C12.5386207,9.10892232 9.10891989,12.5386231 9.10416667,16.7708358 C9.11856632,16.8913045 9.08120646,17.0122292 9.00136429,17.1035818 C8.92152213,17.1949344 8.80668708,17.2481457 8.685375,17.2500024 L8.685375,17.2500024 L1.4375,17.2500024 C0.643590672,17.2500024 0,16.6064118 0,15.8125024 L0,15.8125024 L0,1.43750244 C0,0.643593108 0.643590672,1.21567752e-06 1.4375,1.21567752e-06 L1.4375,1.21567752e-06 Z" id="Combined-Shape"></path>
            </g>
        </g>
    </g>
</svg>