<?xml version="1.0" encoding="UTF-8"?>
<svg width="24px" height="24px" viewBox="0 0 24 24" version="1.1" xmlns="http://www.w3.org/2000/svg" xmlns:xlink="http://www.w3.org/1999/xlink">
    <title>icons/actions/folder-add-alternate</title>
    <g id="icons/actions/folder-add-alternate" stroke="none" stroke-width="1" fill="none" fill-rule="evenodd">
        <g id="Icons/Drive/folder-add-alternate" fill="#000000">
            <path d="M17.5,11 C21.0880235,11.0044079 23.9955921,13.9119765 24,17.5 C24,21.0898509 21.0898509,24 17.5,24 C13.9101491,24 11,21.0898509 11,17.5 C11,13.9101491 13.9101491,11 17.5,11 Z M17.5,14.25 C17.0857864,14.25 16.75,14.5857864 16.75,15 L16.75,15 L16.75,16.5 C16.75,16.6380712 16.6380712,16.75 16.5,16.75 L16.5,16.75 L15,16.75 C14.5857864,16.75 14.25,17.0857864 14.25,17.5 C14.25,17.9142136 14.5857864,18.25 15,18.25 L15,18.25 L16.5,18.25 C16.6380712,18.25 16.75,18.3619288 16.75,18.5 L16.75,18.5 L16.75,20 C16.75,20.4142136 17.0857864,20.75 17.5,20.75 C17.9142136,20.75 18.25,20.4142136 18.25,20 L18.25,20 L18.25,18.5 C18.25,18.3619288 18.3619288,18.25 18.5,18.25 L18.5,18.25 L20,18.25 C20.4142136,18.25 20.75,17.9142136 20.75,17.5 C20.75,17.0857864 20.4142136,16.75 20,16.75 L20,16.75 L18.5,16.75 C18.3619288,16.75 18.25,16.6380712 18.25,16.5 L18.25,16.5 L18.25,15 C18.25,14.5857864 17.9142136,14.25 17.5,14.25 Z M7.38,-9.38015654e-07 C8.13841209,-0.000732482374 8.83198999,0.427574139 9.171,1.106 L9.171,1.106 L9.98,2.724 C10.0647713,2.89317046 10.2377784,2.99999906 10.427,2.99999906 L10.427,2.99999906 L19.5,2.99999906 C20.6045695,2.99999906 21.5,3.8954305 21.5,4.99999906 L21.5,4.99999906 L21.5,10.17 C21.5003119,10.2563062 21.4550067,10.3363563 21.3808547,10.3805188 C21.3067027,10.4246814 21.2147371,10.4263853 21.139,10.385 C20.6724071,10.1463495 20.1833617,9.95441592 19.679,9.812 C19.5736169,9.78358626 19.5002959,9.688146 19.5,9.579 L19.5,9.579 L19.5,5.49999906 C19.5,5.22385763 19.2761424,4.99999906 19,4.99999906 L19,4.99999906 L10.118,4.99999906 C9.36200212,5.00073423 8.67019885,4.57512819 8.33,3.9 L8.33,3.9 L7.52,2.276 C7.43522872,2.10682954 7.2622216,1.99999906 7.073,1.99999906 L7.073,1.99999906 L2.5,1.99999906 C2.22385763,1.99999906 2,2.22385763 2,2.49999906 L2,2.49999906 L2,15.9999991 C2,16.2761424 2.22385763,16.4999991 2.5,16.4999991 L2.5,16.4999991 L9.3,16.4999991 C9.36761175,16.4985629 9.43281053,16.5251366 9.48015428,16.5734272 C9.52749802,16.6217178 9.55277556,16.68743 9.55,16.755 C9.532,17.159 9.532,17.845 9.55,18.245 C9.55277556,18.31257 9.52749802,18.3782822 9.48015428,18.4265728 C9.43281053,18.4748634 9.36761175,18.5014371 9.3,18.5000554 L9.3,18.5000554 L2,18.5000554 C0.8954305,18.5000554 0,17.6045695 0,16.4999991 L0,16.4999991 L0,1.99999906 C0,0.8954305 0.8954305,-9.38015654e-07 2,-9.38015654e-07 L2,-9.38015654e-07 Z" id="Combined-Shape"></path>
        </g>
    </g>
</svg>