<?xml version="1.0" encoding="UTF-8"?>
<svg width="178px" height="53px" viewBox="0 0 178 53" version="1.1" xmlns="http://www.w3.org/2000/svg" xmlns:xlink="http://www.w3.org/1999/xlink">
    <title>splashscreen-infomaniak-dark</title>
    <g id="mobile" stroke="none" stroke-width="1" fill="none" fill-rule="evenodd">
        <g id="App-mobile---splashscreen-3-Copy" transform="translate(-118.000000, -787.000000)" fill-rule="nonzero">
            <g id="splashscreen-infomaniak-dark" transform="translate(118.000000, 787.850000)">
                <path d="M6.04140441,34.3854785 L6.04140441,30.3630363 L0,30.3630363 L0,34.3854785 L6.04140441,34.3854785 Z M6.04140441,51.6514851 L6.04140441,36.229703 L0,36.229703 L0,51.6514851 L6.04140441,51.6514851 Z M15.545661,51.6514851 L15.545661,44.2455446 C15.545661,42.8418042 15.7732651,41.8688669 16.2284733,41.3267327 C16.6836815,40.7845985 17.2774313,40.5135314 18.0097228,40.5135314 C18.6727434,40.5135314 19.1873266,40.7144114 19.5534723,41.1161716 C19.919618,41.5179318 20.1026909,42.2028603 20.1026909,43.1709571 L20.1026909,43.1709571 L20.1026909,51.6514851 L26.1737828,51.6514851 L26.1737828,41.849505 C26.1737828,39.8165017 25.7012569,38.3135314 24.7562051,37.3405941 C23.8111533,36.3676568 22.5024297,35.8811881 20.8300344,35.8811881 C19.5930556,35.8811881 18.5440976,36.1014301 17.6831604,36.5419142 C16.8222231,36.9823982 15.9711817,37.7157316 15.1300361,38.7419142 L15.1300361,38.7419142 L15.1300361,36.229703 L9.5042566,36.229703 L9.5042566,51.6514851 L15.545661,51.6514851 Z M36.108508,51.6514851 L36.108508,40.5570957 L38.9881946,40.5570957 L38.9881946,36.229703 L36.108508,36.229703 C36.108508,35.5423542 36.1332476,35.0921892 36.1827267,34.8792079 C36.281685,34.4919692 36.4499141,34.2088009 36.6874141,34.029703 C36.924914,33.8506051 37.3157993,33.7610561 37.86007,33.7610561 C38.3053823,33.7610561 38.8892363,33.8191419 39.6116319,33.9353135 L39.6116319,33.9353135 L40.2796005,30.3630363 C38.2608511,30.1210121 36.7220495,30 35.6631956,30 C34.3371544,30 33.3302536,30.1476348 32.6424934,30.4429043 C31.9547332,30.7381738 31.4203584,31.1254125 31.0393689,31.6046205 C30.6583794,32.0838284 30.3986139,32.7009901 30.2600723,33.4561056 C30.1215307,34.2112211 30.0522598,34.9034103 30.0522598,35.5326733 L30.0522598,35.5326733 L30.0522598,36.229703 L27.7960105,36.229703 L27.7960105,40.5570957 L30.0522598,40.5570957 L30.0522598,51.6514851 L36.108508,51.6514851 Z M48.5815137,52 C51.421617,52 53.6457049,51.2424642 55.2537773,49.7273927 C56.8618497,48.2123212 57.6658859,46.2688669 57.6658859,43.8970297 C57.6658859,41.7865787 57.017709,40.010121 55.7213553,38.5676568 C54.1083349,36.7766777 51.7234398,35.8811881 48.5666699,35.8811881 C45.8057333,35.8811881 43.6138069,36.6435644 41.9908907,38.1683168 C40.3679745,39.6930693 39.5565164,41.6316832 39.5565164,43.9841584 C39.5565164,46.5108911 40.516412,48.5535754 42.4362031,50.1122112 C43.9997443,51.3707371 46.0481811,52 48.5815137,52 Z M48.6112012,48.0066007 C47.7502639,48.0066007 47.0352902,47.6774477 46.46628,47.0191419 C45.8972697,46.3608361 45.6127646,45.3443344 45.6127646,43.969637 C45.6127646,42.6143014 45.8997437,41.6050605 46.4737018,40.9419142 C47.04766,40.2787679 47.7750035,39.9471947 48.6557324,39.9471947 C49.4869822,39.9471947 50.1846382,40.2739274 50.7487005,40.9273927 C51.3127629,41.5808581 51.594794,42.5755776 51.594794,43.9115512 C51.594794,45.3443344 51.3152368,46.3850385 50.7561224,47.0336634 C50.197008,47.6822882 49.4820342,48.0066007 48.6112012,48.0066007 Z M66.2795178,51.6514851 L66.2795178,43.7808581 C66.2795178,42.6094609 66.502174,41.7672167 66.9474863,41.2541254 C67.3927987,40.7410341 67.961809,40.4844884 68.6545171,40.4844884 C69.0800378,40.4844884 69.4511314,40.6030803 69.767798,40.840264 C70.0844646,41.0774477 70.3071207,41.389659 70.4357665,41.7768977 C70.5149332,42.0189219 70.5545165,42.4787679 70.5545165,43.1564356 L70.5545165,43.1564356 L70.5545165,51.6514851 L76.6107647,51.6514851 L76.6107647,43.6937294 C76.6107647,42.580418 76.8284729,41.7720572 77.2638895,41.2686469 C77.699306,40.7652365 78.2732641,40.5135314 78.9857639,40.5135314 C79.5894096,40.5135314 80.0940969,40.779758 80.499826,41.3122112 C80.7769092,41.6510451 80.9154508,42.1689769 80.9154508,42.8660066 L80.9154508,42.8660066 L80.9154508,51.6514851 L86.971699,51.6514851 L86.971699,41.9656766 C86.971699,39.8745875 86.4966991,38.3377338 85.5466994,37.3551155 C84.5966997,36.3724972 83.2756064,35.8811881 81.5834194,35.8811881 C80.4355031,35.8811881 79.4706596,36.0627063 78.688889,36.4257426 C77.9071184,36.7887789 77.0412333,37.4737074 76.0912336,38.4805281 C75.6261295,37.6189219 75.0274318,36.970297 74.2951404,36.5346535 C73.5628489,36.0990099 72.568318,35.8811881 71.3115475,35.8811881 C70.1438395,35.8811881 69.1468346,36.079648 68.3205328,36.4765677 C67.494231,36.8734873 66.675351,37.5414741 65.8638929,38.4805281 L65.8638929,38.4805281 L65.8638929,36.229703 L60.2232696,36.229703 L60.2232696,51.6514851 L66.2795178,51.6514851 Z M95.1845497,52 C96.5996535,52 97.8415802,51.7870187 98.9103299,51.3610561 C99.6921004,51.0415842 100.478819,50.5091309 101.270485,49.7636964 C101.339756,50.2090209 101.409027,50.5357536 101.478298,50.7438944 C101.547569,50.9520352 101.696006,51.2545655 101.92361,51.6514851 L101.92361,51.6514851 L107.593921,51.6514851 C107.277254,51.0125413 107.071916,50.4873487 106.977906,50.0759076 C106.883895,49.6644664 106.83689,49.0957096 106.83689,48.369637 L106.83689,48.369637 L106.83689,41.5590759 C106.83689,40.8330033 106.688452,40.0706271 106.391578,39.2719472 C106.094703,38.4732673 105.688974,37.8561056 105.17439,37.420462 C104.442099,36.7911991 103.526735,36.3773377 102.428298,36.1788779 C101.32986,35.980418 99.8751733,35.8811881 98.0642364,35.8811881 C96.9361117,35.8811881 95.8871537,35.9634763 94.9173623,36.1280528 C93.9475709,36.2926293 93.185592,36.5249725 92.6314255,36.8250825 C91.8595508,37.2413641 91.2682749,37.7326733 90.8575979,38.2990099 C90.446921,38.8653465 90.1327284,39.6422442 89.9150201,40.629703 L89.9150201,40.629703 L95.6892371,41.2250825 C95.926737,40.5570957 96.2384557,40.1020902 96.6243931,39.860066 C97.1191846,39.550275 97.8613718,39.3953795 98.8509549,39.3953795 C99.6228296,39.3953795 100.162152,39.5405941 100.468923,39.8310231 C100.775694,40.1214521 100.929079,40.629703 100.929079,41.3557756 C100.176996,41.6462046 99.4644964,41.8809681 98.7915799,42.060066 C98.1186634,42.2391639 96.6491326,42.5513751 94.3829875,42.9966997 C92.4928839,43.3645765 91.1965301,43.9260726 90.4939262,44.6811881 C89.7913222,45.4363036 89.4400202,46.39956 89.4400202,47.5709571 C89.4400202,48.819802 89.9273899,49.870187 90.9021292,50.7221122 C91.8768685,51.5740374 93.304342,52 95.1845497,52 Z M97.4556428,48.7181518 C96.8124138,48.7181518 96.3250442,48.5705171 95.9935339,48.2752475 C95.6620236,47.979978 95.4962684,47.6 95.4962684,47.1353135 C95.4962684,46.7287129 95.6644975,46.3656766 96.0009557,46.0462046 C96.3275181,45.7364136 97.1043408,45.4217822 98.3314238,45.1023102 C99.2319443,44.879648 100.097829,44.6231023 100.929079,44.3326733 L100.929079,44.3326733 L100.929079,45.2765677 C100.929079,46.0123212 100.807855,46.610121 100.565407,47.069967 C100.32296,47.529813 99.9122827,47.9194719 99.3333766,48.2389439 C98.7544705,48.5584158 98.1285593,48.7181518 97.4556428,48.7181518 Z M116.103647,51.6514851 L116.103647,44.2455446 C116.103647,42.8418042 116.331251,41.8688669 116.786459,41.3267327 C117.241667,40.7845985 117.835417,40.5135314 118.567708,40.5135314 C119.230729,40.5135314 119.745312,40.7144114 120.111458,41.1161716 C120.477604,41.5179318 120.660676,42.2028603 120.660676,43.1709571 L120.660676,43.1709571 L120.660676,51.6514851 L126.731768,51.6514851 L126.731768,41.849505 C126.731768,39.8165017 126.259242,38.3135314 125.314191,37.3405941 C124.369139,36.3676568 123.060415,35.8811881 121.38802,35.8811881 C120.151041,35.8811881 119.102083,36.1014301 118.241146,36.5419142 C117.380209,36.9823982 116.529167,37.7157316 115.688022,38.7419142 L115.688022,38.7419142 L115.688022,36.229703 L110.062242,36.229703 L110.062242,51.6514851 L116.103647,51.6514851 Z M136.206337,34.3854785 L136.206337,30.3630363 L130.164933,30.3630363 L130.164933,34.3854785 L136.206337,34.3854785 Z M136.206337,51.6514851 L136.206337,36.229703 L130.164933,36.229703 L130.164933,51.6514851 L136.206337,51.6514851 Z M144.671532,52 C146.086636,52 147.328562,51.7870187 148.397312,51.3610561 C149.179083,51.0415842 149.965801,50.5091309 150.757468,49.7636964 C150.826738,50.2090209 150.896009,50.5357536 150.96528,50.7438944 C151.034551,50.9520352 151.182988,51.2545655 151.410592,51.6514851 L151.410592,51.6514851 L157.080903,51.6514851 C156.764237,51.0125413 156.558898,50.4873487 156.464888,50.0759076 C156.370877,49.6644664 156.323872,49.0957096 156.323872,48.369637 L156.323872,48.369637 L156.323872,41.5590759 C156.323872,40.8330033 156.175435,40.0706271 155.87856,39.2719472 C155.581685,38.4732673 155.175956,37.8561056 154.661373,37.420462 C153.929081,36.7911991 153.013717,36.3773377 151.91528,36.1788779 C150.816843,35.980418 149.362155,35.8811881 147.551219,35.8811881 C146.423094,35.8811881 145.374136,35.9634763 144.404344,36.1280528 C143.434553,36.2926293 142.672574,36.5249725 142.118408,36.8250825 C141.346533,37.2413641 140.755257,37.7326733 140.34458,38.2990099 C139.933903,38.8653465 139.619711,39.6422442 139.402002,40.629703 L139.402002,40.629703 L145.176219,41.2250825 C145.413719,40.5570957 145.725438,40.1020902 146.111375,39.860066 C146.606167,39.550275 147.348354,39.3953795 148.337937,39.3953795 C149.109812,39.3953795 149.649135,39.5405941 149.955905,39.8310231 C150.262676,40.1214521 150.416061,40.629703 150.416061,41.3557756 C149.663978,41.6462046 148.951479,41.8809681 148.278562,42.060066 C147.605646,42.2391639 146.136115,42.5513751 143.86997,42.9966997 C141.979866,43.3645765 140.683512,43.9260726 139.980908,44.6811881 C139.278304,45.4363036 138.927002,46.39956 138.927002,47.5709571 C138.927002,48.819802 139.414372,49.870187 140.389111,50.7221122 C141.363851,51.5740374 142.791324,52 144.671532,52 Z M146.942625,48.7181518 C146.299396,48.7181518 145.812026,48.5705171 145.480516,48.2752475 C145.149006,47.979978 144.983251,47.6 144.983251,47.1353135 C144.983251,46.7287129 145.15148,46.3656766 145.487938,46.0462046 C145.8145,45.7364136 146.591323,45.4217822 147.818406,45.1023102 C148.718927,44.879648 149.584812,44.6231023 150.416061,44.3326733 L150.416061,44.3326733 L150.416061,45.2765677 C150.416061,46.0123212 150.294837,46.610121 150.05239,47.069967 C149.809942,47.529813 149.399265,47.9194719 148.820359,48.2389439 C148.241453,48.5584158 147.615541,48.7181518 146.942625,48.7181518 Z M165.724222,51.6514851 L165.724222,47.6435644 L167.995316,45.4653465 L171.186721,51.6514851 L178,51.6514851 L172.017971,41.6316832 L177.673438,36.229703 L170.236721,36.229703 L165.724222,41.3412541 L165.724222,30.3630363 L159.549224,30.3630363 L159.549224,51.6514851 L165.724222,51.6514851 Z" id="infomaniak" fill="#0098FF"></path>
                <path d="M53.666,12.6 L53.666,9.156 C54.114,9.898 54.898,10.332 55.906,10.332 C57.74,10.332 59.14,8.806 59.14,6.384 C59.14,3.976 57.74,2.45 55.906,2.45 C54.898,2.45 54.114,2.884 53.666,3.626 L53.666,2.618 L52,2.618 L52,12.6 L53.666,12.6 Z M55.542,8.974 C54.45,8.974 53.596,8.12 53.596,6.384 C53.596,4.648 54.45,3.808 55.542,3.808 C56.704,3.808 57.404,4.802 57.404,6.384 C57.404,7.98 56.704,8.974 55.542,8.974 Z M63.788,10.332 C65.622,10.332 67.498,9.114 67.498,6.398 C67.498,3.682 65.622,2.45 63.788,2.45 C61.954,2.45 60.078,3.682 60.078,6.398 C60.078,9.114 61.954,10.332 63.788,10.332 Z M63.788,8.974 C62.738,8.974 61.8,8.134 61.8,6.398 C61.8,4.662 62.738,3.808 63.788,3.808 C64.838,3.808 65.776,4.662 65.776,6.398 C65.776,8.134 64.838,8.974 63.788,8.974 Z M71.586,10.15 L73.07,4.578 L74.554,10.15 L76.136,10.15 L78.138,2.618 L76.332,2.618 L75.226,7.966 L73.924,2.618 L72.202,2.618 L70.914,7.966 L69.808,2.618 L68.002,2.618 L70.004,10.15 L71.586,10.15 Z M82.45,10.332 C84.396,10.332 85.516,9.1 85.866,7.896 L84.228,7.896 C83.934,8.596 83.248,8.946 82.38,8.946 C81.428,8.946 80.448,8.26 80.336,6.86 L85.95,6.86 C86.09,4.326 84.648,2.45 82.338,2.45 C80.196,2.45 78.642,4.06 78.642,6.328 C78.642,8.484 80.028,10.332 82.45,10.332 Z M84.256,5.642 L80.336,5.642 C80.476,4.214 81.554,3.752 82.338,3.752 C83.318,3.752 84.214,4.466 84.256,5.642 Z M88.988,10.15 L88.988,6.202 C88.988,4.69 89.59,4.27 90.64,4.27 C90.892,4.27 91.158,4.284 91.438,4.312 L91.438,2.632 C91.312,2.618 91.13,2.604 91.004,2.604 C90.094,2.618 89.366,3.122 88.96,3.962 L88.96,2.618 L87.322,2.618 L87.322,10.15 L88.988,10.15 Z M95.624,10.332 C97.57,10.332 98.69,9.1 99.04,7.896 L97.402,7.896 C97.108,8.596 96.422,8.946 95.554,8.946 C94.602,8.946 93.622,8.26 93.51,6.86 L99.124,6.86 C99.264,4.326 97.822,2.45 95.512,2.45 C93.37,2.45 91.816,4.06 91.816,6.328 C91.816,8.484 93.202,10.332 95.624,10.332 Z M97.43,5.642 L93.51,5.642 C93.65,4.214 94.728,3.752 95.512,3.752 C96.492,3.752 97.388,4.466 97.43,5.642 Z M103.338,10.332 C104.346,10.332 105.13,9.898 105.578,9.156 L105.578,10.15 L107.244,10.15 L107.244,0 L105.578,0 L105.578,3.626 C105.13,2.884 104.346,2.45 103.338,2.45 C101.56,2.45 100.062,3.976 100.062,6.384 C100.062,8.806 101.56,10.332 103.338,10.332 Z M103.702,8.974 C102.596,8.974 101.798,7.98 101.798,6.384 C101.798,4.802 102.596,3.808 103.702,3.808 C104.794,3.808 105.648,4.648 105.648,6.384 C105.648,8.12 104.794,8.974 103.702,8.974 Z M116.246,10.332 C118.024,10.332 119.522,8.806 119.522,6.384 C119.522,3.976 118.024,2.45 116.246,2.45 C115.238,2.45 114.454,2.884 114.006,3.626 L114.006,0 L112.34,0 L112.34,10.15 L114.006,10.15 L114.006,9.156 C114.454,9.898 115.238,10.332 116.246,10.332 Z M115.882,8.974 C114.79,8.974 113.936,8.12 113.936,6.384 C113.936,4.648 114.79,3.808 115.882,3.808 C116.988,3.808 117.786,4.802 117.786,6.384 C117.786,7.98 116.988,8.974 115.882,8.974 Z M121.202,12.6 C122.896,12.6 123.4,12.082 124.1,10.136 L126.746,2.618 L125.038,2.618 L123.33,8.022 L121.622,2.618 L119.802,2.618 L122.532,10.108 L122.448,10.29 C122.131765,11.2123529 121.840332,11.3162145 121.200202,11.325242 L120.446,11.326 L120.446,12.6 L121.202,12.6 Z" id="poweredby" fill="#939292"></path>
            </g>
        </g>
    </g>
</svg>