<svg width="25" height="24" viewBox="0 0 25 24" fill="none" xmlns="http://www.w3.org/2000/svg">
<path fill-rule="evenodd" clip-rule="evenodd" d="M19.9988 17.7312L16.904 14.6347C18.8563 11.7107 18.2733 7.7818 15.5563 5.55134C12.8392 3.32089 8.8742 3.51641 6.38948 6.00337C3.90476 8.49033 3.71075 12.4575 5.94094 15.1753C8.17113 17.8931 12.0981 18.475 15.0198 16.5206L18.1146 19.6164C18.6386 20.1279 19.4747 20.1279 19.9988 19.6164C20.519 19.0958 20.519 18.2518 19.9988 17.7312ZM11.2282 6.00797C13.8959 6.00797 16.0585 8.17178 16.0585 10.841C16.0585 13.5102 13.8959 15.674 11.2282 15.674C8.56042 15.674 6.39779 13.5102 6.39779 10.841C6.40073 8.173 8.56164 6.01091 11.2282 6.00797Z" fill="black"/>
</svg>
