<svg xmlns:xlink="http://www.w3.org/1999/xlink" width="24" height="24" xmlns="http://www.w3.org/2000/svg">
    <defs>
        <path d="M11.9993022 4c.2 0 .389 0 .584.012 4.01.188 7.879 2.758 10.508 5.653 1.2101665 1.3204025 1.2110346 3.346561.002 4.668-1.207 1.329-5.566 5.667-10.966 5.667h-.256C6.47030222 20 2.11230222 15.662.907302224 14.333c-1.209736299-1.3212516-1.209736299-3.3477484 0-4.669.05-.055.099999996-.11.149999996-.164 2.818-3.03 6.689-5.466 10.94199998-5.5zm0 2c-3.66799998-.085-7.24799998 2.4-9.61499998 5.011-.50712963.561818-.50712963 1.416182 0 1.978.108.1193333.21766667.237.329.353 2.446 2.548 5.656 4.573 9.28599998 4.658.3246006.0039822.6491559-.0110435.972-.045 3.322-.313 6.472-2.58 8.642-4.968.5085844-.5611991.5098806-1.4162616.003-1.979-.7518451-.8270182-1.5787139-1.58258215-2.47-2.257-1.0432412-.80300389-2.1860776-1.4675297-3.4-1.977-1.1827899-.51196045-2.4581658-.7754088-3.747-.774zm0 2c2.209139 0 4 1.790861 4 4s-1.790861 4-4 4c-2.20913898 0-3.99999998-1.790861-3.99999998-4 .00207693-.2742659.03562988-.5473869.1-.814.01981859-.0834801.08106244-.150965.16223384-.1787662.0811714-.0278012.17092897-.0120343.23776616.0417662.76323319.6238627 1.86779288.5963948 2.59907368-.0646331.7312809-.6610279.8697937-1.75721252.3259263-2.5793669-.0480623-.07276435-.0545562-.16536963-.0171197-.24412962.0374366-.07875999.1133477-.13219612.2001197-.14087038.1302482-.01324199.2610805-.01991711.392-.02z" id="a"/>
    </defs>
    <use fill="#000" xlink:href="#a" fill-rule="evenodd"/>
</svg>
