<svg xmlns:xlink="http://www.w3.org/1999/xlink" width="24" height="24" xmlns="http://www.w3.org/2000/svg">
    <defs>
        <path d="M22.7234043 21.4544006c.7050443 0 1.2765957.5698518 1.2765957 1.2727997S23.4284486 24 22.7234043 24H1.27659574C.571551383 24 0 23.4301482 0 22.7272003s.571551383-1.2727997 1.27659574-1.2727997zM12.4667234 1c.7050444 0 1.2765957.56985184 1.2765957 1.27279972V12.6211705c-.0002728.0675966.0265392.132503.0744801.1803014.0479409.0477983.113041.0745306.1808391.0742586h2.2008511c.413.0000879.7852943.248173.9433307.6286057.1580363.3804326.0707029.8183188-.2212882 1.1095296l-3.7297021 3.7186116c-.3988084.3975024-1.0452768.3975024-1.4440851 0l-3.73072342-3.7186116c-.29109024-.2902911-.3788873-.7264625-.22267859-1.1062559.15620871-.3797934.52587195-.628929.9375722-.6318794h2.20289361c.1410089 0 .2553192-.1139704.2553192-.25456V2.27279972C11.1901277 1.56985184 11.761679 1 12.4667234 1z" id="a"/>
    </defs>
    <use fill="#000" xlink:href="#a" fill-rule="evenodd"/>
</svg>
