<svg width="24" height="24" xmlns="http://www.w3.org/2000/svg">
    <path d="M15.586 0c.2651948 0 .5195073.105450625.707.293l5.414 5.414c.1875494.18749273.293.44180519.293.707V22c0 1.1045695-.8954305 2-2 2H4c-1.1045695 0-2-.8954305-2-2V2c0-1.1045695.8954305-2 2-2zm-.621 2H4.5c-.27614237 0-.5.22385763-.5.5v19c0 .2761424.22385763.5.5.5h15c.2761424 0 .5-.2238576.5-.5V7.035c0-.13235245-.052531-.25929446-.146-.353l-4.536-4.536c-.0937055-.09346895-.2206475-.146-.353-.146zm-1.166 8.4429981c.1723956 0 .332631.0888104.424.2350019l4.339 6.939c.0484351.0770904.0511325.1744166.0070417.2540714-.0440909.0796547-.1279985.129043-.2190417.1289288H6.25c-.09104323.0001142-.17495078-.0492741-.21904166-.1289288-.04409087-.0796548-.04139345-.176981.00704166-.2540714l2.775-4.439c.09136901-.1461915.25160441-.2350019.424-.2350019s.33263099.0888104.424.2350019l.864 1.382c.0460288.0726178.1260233.1166237.212.1166237.0859767 0 .1659712-.0440059.212-.1166237l2.426-3.882c.091369-.1461915.2516044-.2350019.424-.2350019zM8.799 6c1.1045695 0 2 .8954305 2 2s-.8954305 2-2 2-2-.8954305-2-2 .8954305-2 2-2z" fill="#00BCD4" fill-rule="evenodd"/>
</svg>
