<svg width="222" height="220" viewBox="0 0 222 220" fill="none" xmlns="http://www.w3.org/2000/svg">
<path d="M148.074 37.2953C149.418 43.7678 146.243 50.5809 139.935 56.3696C133.631 62.1543 124.23 66.8822 113.222 69.1669C102.215 71.4516 91.7082 70.8559 83.623 68.0578C75.5324 65.2578 69.9082 60.271 68.5648 53.7985C67.2214 47.326 70.3963 40.5128 76.7042 34.7242C83.008 28.9395 92.4096 24.2116 103.417 21.9269C114.424 19.6422 124.931 20.2379 133.016 23.036C141.107 25.836 146.731 30.8228 148.074 37.2953Z" fill="#F1F1F1" stroke="#9F9F9F" stroke-width="0.472561"/>
<path fill-rule="evenodd" clip-rule="evenodd" d="M11.5745 85.3322L21.056 72.9394C22.5827 70.9438 24.5064 69.3168 26.7576 68.2009C37.781 62.7367 73.8944 45.6393 107.618 38.6395L113.588 67.4014L11.5745 85.3322ZM214.311 43.2521L200.681 35.6564C198.486 34.4333 196.074 33.7062 193.564 33.5784C181.277 32.9527 141.342 31.64 107.618 38.6398L113.588 67.4017L214.311 43.2521Z" fill="#FAFAFA"/>
<path d="M21.056 72.9394L21.2436 73.0829L21.056 72.9394ZM11.5745 85.3322L11.3868 85.1887L11.0187 85.6698L11.6154 85.5649L11.5745 85.3322ZM26.7576 68.2009L26.8625 68.4126L26.7576 68.2009ZM107.618 38.6395L107.85 38.5915L107.802 38.3601L107.57 38.4081L107.618 38.6395ZM113.588 67.4014L113.629 67.6341L113.869 67.592L113.82 67.3534L113.588 67.4014ZM200.681 35.6564L200.796 35.45L200.681 35.6564ZM214.311 43.2521L214.366 43.4819L214.956 43.3406L214.426 43.0457L214.311 43.2521ZM193.564 33.5784L193.552 33.8144L193.564 33.5784ZM107.618 38.6398L107.57 38.4084L107.339 38.4564L107.387 38.6878L107.618 38.6398ZM113.588 67.4017L113.357 67.4497L113.407 67.6883L113.643 67.6315L113.588 67.4017ZM20.8683 72.7958L11.3868 85.1887L11.7622 85.4758L21.2436 73.0829L20.8683 72.7958ZM26.6527 67.9892C24.3672 69.1221 22.4157 70.7733 20.8683 72.7958L21.2436 73.0829C22.7497 71.1144 24.6457 69.5114 26.8625 68.4126L26.6527 67.9892ZM107.57 38.4081C73.8147 45.4145 37.6783 62.5239 26.6527 67.9892L26.8625 68.4126C37.8837 62.9495 73.9741 45.8641 107.666 38.8708L107.57 38.4081ZM113.82 67.3534L107.85 38.5915L107.387 38.6875L113.357 67.4494L113.82 67.3534ZM11.6154 85.5649L113.629 67.6341L113.547 67.1687L11.5336 85.0995L11.6154 85.5649ZM200.566 35.8628L214.196 43.4585L214.426 43.0457L200.796 35.45L200.566 35.8628ZM193.552 33.8144C196.024 33.9402 198.401 34.6562 200.566 35.8628L200.796 35.45C198.571 34.2103 196.124 33.4722 193.576 33.3425L193.552 33.8144ZM107.667 38.8711C141.359 31.8779 181.267 33.1888 193.552 33.8144L193.576 33.3425C181.287 32.7166 141.326 31.402 107.57 38.4084L107.667 38.8711ZM113.82 67.3537L107.85 38.5917L107.387 38.6878L113.357 67.4497L113.82 67.3537ZM214.256 43.0223L113.533 67.1719L113.643 67.6315L214.366 43.4819L214.256 43.0223Z" fill="#9F9F9F"/>
<path d="M217.107 45.5489C217.343 46.6864 216.915 47.9717 215.798 49.3966C214.684 50.8195 212.907 52.3486 210.52 53.9557C205.749 57.1686 198.591 60.6612 189.571 64.2207C171.534 71.3381 146.095 78.7062 117.53 84.6351C88.9663 90.5639 62.6964 93.9286 43.3167 94.5774C33.625 94.9019 25.668 94.5467 20.0124 93.4979C17.1835 92.9733 14.9448 92.2776 13.3558 91.416C11.7644 90.5532 10.8601 89.5444 10.624 88.4069C10.3879 87.2694 10.816 85.9841 11.9326 84.5592C13.0474 83.1363 14.8243 81.6072 17.2108 80.0001C21.9818 76.7872 29.1401 73.2946 38.1604 69.7351C56.1974 62.6177 81.6363 55.2496 110.201 49.3207C138.765 43.3919 165.035 40.0272 184.414 39.3784C194.106 39.0539 202.063 39.4092 207.719 40.4579C210.548 40.9825 212.786 41.6782 214.375 42.5398C215.967 43.4026 216.871 44.4114 217.107 45.5489Z" fill="white" stroke="#9F9F9F" stroke-width="0.472561"/>
<path d="M198.001 55.7347C198.125 56.3309 197.778 57.0802 196.821 57.9864C195.879 58.8802 194.404 59.8683 192.438 60.9306C188.51 63.0535 182.672 65.4457 175.352 67.9575C160.716 72.9801 140.189 78.4691 117.24 83.2324C94.2909 87.9957 73.2744 91.1297 57.8484 92.3469C50.1337 92.9556 43.8265 93.0842 39.3778 92.7001C37.1517 92.5078 35.4053 92.1883 34.1846 91.7436C32.9468 91.2928 32.3297 90.7437 32.206 90.1475C32.0822 89.5513 32.4298 88.802 33.3859 87.8958C34.3288 87.002 35.8038 86.0139 37.7695 84.9516C41.6978 82.8287 47.5352 80.4365 54.8549 77.9247C69.491 72.9021 90.0187 67.4131 112.968 62.6498C135.916 57.8865 156.933 54.7525 172.359 53.5353C180.074 52.9265 186.381 52.798 190.83 53.1821C193.056 53.3743 194.802 53.6939 196.023 54.1385C197.261 54.5894 197.878 55.1385 198.001 55.7347Z" fill="#F1F1F1" stroke="#9F9F9F" stroke-width="0.472561"/>
<ellipse cx="115.686" cy="75.7467" rx="51.2271" ry="5.01524" transform="rotate(-11.7259 115.686 75.7467)" fill="#5287FF"/>
<circle cx="43.3836" cy="74.656" r="2.14939" transform="rotate(-11.7259 43.3836 74.656)" fill="#F1F1F1"/>
<circle cx="72.6751" cy="64.1863" r="2.14939" transform="rotate(-11.7259 72.6751 64.1863)" fill="#F1F1F1"/>
<circle cx="111.258" cy="56.1775" r="2.14939" transform="rotate(-11.7259 111.258 56.1775)" fill="#F1F1F1"/>
<circle cx="150.543" cy="48.0232" r="2.14939" transform="rotate(-11.7259 150.543 48.0232)" fill="#F1F1F1"/>
<circle cx="180.88" cy="46.1169" r="2.14939" transform="rotate(-11.7259 180.88 46.1169)" fill="#F1F1F1"/>
<ellipse cx="20.9423" cy="86.4327" rx="2.50762" ry="1.43293" transform="rotate(26.1943 20.9423 86.4327)" fill="#F1F1F1"/>
<ellipse cx="2.50762" cy="1.43293" rx="2.50762" ry="1.43293" transform="matrix(-0.647507 0.76206 0.76206 0.647507 206.673 45.1543)" fill="#F1F1F1"/>
<ellipse cx="116.49" cy="212.888" rx="93.3307" ry="6.37957" fill="#F1F1F1"/>
<path d="M76.086 83.1708L152.168 68.0488L171.071 214.543H57.1836L76.086 83.1708Z" fill="url(#paint0_linear_3251_12006)" fill-opacity="0.24"/>
<path d="M114.189 164.341L119.813 150.436L131.264 145.58C132.054 145.245 132.967 145.614 133.302 146.404L144.138 171.955C144.473 172.745 144.104 173.657 143.314 173.993L123.53 182.383C122.739 182.719 121.827 182.35 121.492 181.559L114.189 164.341Z" fill="white" stroke="#9F9F9F" stroke-width="0.472561"/>
<path d="M117.182 160.176L131.799 153.976" stroke="#F1F1F1" stroke-width="0.472561"/>
<path d="M118.896 164.22L133.514 158.02" stroke="#F1F1F1" stroke-width="0.472561"/>
<path d="M119.754 166.241L134.372 160.042" stroke="#F1F1F1" stroke-width="0.472561"/>
<path d="M120.612 168.264L135.23 162.064" stroke="#F1F1F1" stroke-width="0.472561"/>
<path d="M121.469 170.285L129.304 166.962" stroke="#F1F1F1" stroke-width="0.472561"/>
<path d="M118.039 162.197L132.657 155.998" stroke="#F1F1F1" stroke-width="0.472561"/>
<path d="M114.366 163.903L119.636 150.874L122.909 158.591C123.244 159.382 122.875 160.294 122.085 160.629L114.366 163.903Z" fill="#F1F1F1" stroke="#9F9F9F" stroke-width="0.472561"/>
<path d="M94.7798 127.516L111.097 118.097L126.172 122.136C127.243 122.423 127.878 123.524 127.592 124.595L118.592 158.181C118.305 159.251 117.205 159.887 116.134 159.6L90.1281 152.632C89.0573 152.345 88.4219 151.244 88.7088 150.173L94.7798 127.516Z" fill="white" stroke="#9F9F9F" stroke-width="0.472561"/>
<path d="M100.997 125.75L120.212 130.899" stroke="#F1F1F1" stroke-width="0.472561"/>
<path d="M99.5732 131.065L118.788 136.214" stroke="#F1F1F1" stroke-width="0.472561"/>
<path d="M98.8604 133.724L118.075 138.872" stroke="#F1F1F1" stroke-width="0.472561"/>
<path d="M98.1489 136.381L117.364 141.529" stroke="#F1F1F1" stroke-width="0.472561"/>
<path d="M97.4365 139.039L107.735 141.799" stroke="#F1F1F1" stroke-width="0.472561"/>
<path d="M100.285 128.408L119.5 133.557" stroke="#F1F1F1" stroke-width="0.472561"/>
<path d="M95.1891 127.28L110.687 118.333L107.932 128.616C107.645 129.687 106.545 130.323 105.474 130.036L95.1891 127.28Z" fill="#F1F1F1" stroke="#9F9F9F" stroke-width="0.472561"/>
<defs>
<linearGradient id="paint0_linear_3251_12006" x1="113.891" y1="74.1921" x2="113.891" y2="214.543" gradientUnits="userSpaceOnUse">
<stop stop-color="#5287FF"/>
<stop offset="1" stop-color="white" stop-opacity="0"/>
</linearGradient>
</defs>
</svg>
