<?xml version="1.0" encoding="UTF-8"?>
<svg width="70px" height="70px" viewBox="0 0 70 70" version="1.1" xmlns="http://www.w3.org/2000/svg" xmlns:xlink="http://www.w3.org/1999/xlink">
    <title>drive-blocked</title>
    <defs>
        <path d="M28.6507526,24.322975 L17.2387177,2.52937035 L17.2387177,2.52937035 C16.8171738,1.72494863 15.9840212,1.22093023 15.0758398,1.22093023 C14.1676583,1.22093023 13.3345057,1.72494863 12.9129619,2.52937035 L1.49970604,24.322975 C1.10318828,25.079978 1.13125651,25.9891873 1.57371362,26.7202902 C2.01617074,27.4513932 2.80863031,27.8978588 3.66319442,27.8978588 L26.4872642,27.8978588 C27.3418283,27.8978588 28.1342879,27.4513932 28.576745,26.7202902 C29.0192021,25.9891873 29.0472703,25.079978 28.6507526,24.322975 Z M13.8542991,10.1882657 C13.8542991,9.51396455 14.4009282,8.96733546 15.0752293,8.96733546 C15.7495304,8.96733546 16.2961595,9.51396455 16.2961595,10.1882657 L16.2961595,17.5138471 C16.2961595,18.1881482 15.7495304,18.7347773 15.0752293,18.7347773 C14.4009282,18.7347773 13.8542991,18.1881482 13.8542991,17.5138471 L13.8542991,10.1882657 Z M15.1362758,24.2411727 L15.1020898,24.2411727 C14.1016299,24.237965 13.2818046,23.4461495 13.243834,22.4464052 C13.2260562,21.9630191 13.4033533,21.4927797 13.7358459,21.1414581 C14.0683386,20.7901365 14.5281089,20.5872313 15.0117409,20.578382 L15.045927,20.578382 C16.046223,20.5795747 16.867321,21.3699623 16.9066246,22.3694866 C16.925755,22.8540018 16.7486907,23.3257595 16.4154889,23.6780342 C16.0822871,24.030309 15.6211051,24.2333317 15.1362758,24.2411727 Z" id="path-1"></path>
    </defs>
    <g id="drive-blocked" stroke="none" stroke-width="1" fill="none" fill-rule="evenodd">
        <g id="Group-12">
            <path d="M50.5358948,47.9763251 C53.1194984,47.9827253 55.2255871,50.0081529 55.3436343,52.5502467 L55.3488372,52.7632516 L55.3488372,62.3371045 C55.3411227,64.9062135 53.30538,67.0001801 50.7500126,67.1187546 L50.5358948,67.124031 L4.81294236,67.124031 C2.23040232,67.1150878 0.125795369,65.0910366 0.00540698216,62.5500204 L0,62.3371045 L0,52.7632516 C0.00771455085,50.1941426 2.04345721,48.100176 4.59882458,47.9816015 L4.81294236,47.9763251 L50.5358948,47.9763251 Z M48.1294236,58.1461505 L7.21941355,58.1461505 C6.22262055,58.1461505 5.41456016,58.949843 5.41456016,59.9412478 C5.41456016,60.8830825 6.14383466,61.6555068 7.07138751,61.7303946 L7.21941355,61.7363453 L48.1294236,61.7363453 C49.1262167,61.7363453 49.9342771,60.9326528 49.9342771,59.9412478 C49.9342771,58.949843 49.1262167,58.1461505 48.1294236,58.1461505 Z M46.9261881,50.3697884 C45.5971307,50.3697884 44.5197169,51.4413784 44.5197169,52.7632516 C44.5197169,54.0851249 45.5971307,55.1567148 46.9261881,55.1567148 C48.2552454,55.1567148 49.3326593,54.0851249 49.3326593,52.7632516 C49.3326593,51.4413784 48.2552454,50.3697884 46.9261881,50.3697884 Z M52.120155,34.9457364 L52.183,34.9439612 L54.5787664,44.3502283 C54.6362672,44.5707179 54.5623752,44.8045214 54.3883791,44.9526366 C54.2143829,45.1007518 53.9707196,45.1372693 53.7605663,45.0467262 C52.8549814,44.6598463 51.8875181,44.4392809 50.9049673,44.3946158 L50.5358948,44.3861304 L4.81294236,44.3861304 C3.70415172,44.3867383 2.6070539,44.6114863 1.58827098,45.0467262 C1.37811759,45.1372693 1.13445426,45.1007518 0.96045816,44.9526366 C0.811318644,44.8256807 0.735724906,44.6357702 0.753380805,44.4452504 L0.770070779,44.3502283 L4.83941355,28.3786482 C5.75243134,25.2649989 8.5266979,23.0655264 11.7617331,22.8576509 L12.032356,22.8449612 L35.7879439,22.8454951 C37.9144589,29.8487746 44.4220773,34.9457364 52.120155,34.9457364 Z" id="Combined-Shape" fill="#5287FF" fill-rule="nonzero"></path>
            <g id="Icons/interface-essential/alert-triangle" transform="translate(40.697674, 0.000000)">
                <mask id="mask-2" fill="white">
                    <use xlink:href="#path-1"></use>
                </mask>
                <use id="icon" fill="#FB472E" xlink:href="#path-1"></use>
            </g>
        </g>
    </g>
</svg>