<?xml version="1.0" encoding="UTF-8"?>
<svg width="299px" height="270px" viewBox="0 0 299 270" version="1.1" xmlns="http://www.w3.org/2000/svg" xmlns:xlink="http://www.w3.org/1999/xlink">
    <title>illu 3</title>
    <defs>
        <polygon id="path-1" points="0 0.248524446 139.360381 0.248524446 139.360381 139.608985 0 139.608985"></polygon>
    </defs>
    <g id="mobile" stroke="none" stroke-width="1" fill="none" fill-rule="evenodd">
        <g id="Drive---App-mobile---Onboarding-2" transform="translate(-57.000000, -203.000000)">
            <g id="illu-3" transform="translate(57.000000, 203.000000)">
                <g id="accueil-fonctionnalite-2">
                    <g id="Fill-108-Clipped" transform="translate(221.920336, 78.233788)" fill-rule="nonzero">
                        <g id="Group-2" transform="translate(0.022168, 0.009484)">
                            <path d="M13.8867844,61.8194766 C10.8999888,60.3657747 7.29995435,61.6086761 5.84488418,64.5954723 C4.39118219,67.5822689 5.63408328,71.1823023 8.6208799,72.6360043 C11.6076755,74.0910755 15.20771,72.8481734 16.6627812,69.8613778 C18.1164821,66.873213 16.873581,63.2731785 13.8867844,61.8194766" id="Fill-108" fill="#AF00FF"></path>
                            <path d="M6.63018362,76.7269029 C5.40370894,76.1300905 3.92673654,76.6406663 3.33129329,77.8657728 C2.73448185,79.0922485 3.24368847,80.5692198 4.47016417,81.1646631 C5.69527066,81.7614745 7.17224204,81.2522679 7.7690545,80.0257932 C8.36586593,78.8006867 7.85529113,77.3237143 6.63018362,76.7269029" id="Fill-109" fill="#AF00FF"></path>
                            <path d="M30.7839485,0.171153142 C13.7898716,0.171153142 0.0139242637,13.9471007 0.0139242637,30.9411775 C0.0139242637,47.9352542 13.7898716,61.709833 30.7839485,61.709833 C47.7780254,61.709833 61.5526035,47.9352542 61.5526035,30.9411775 C61.5526035,13.9471007 47.7780254,0.171153142 30.7839485,0.171153142" id="Fill-110" fill="#ECEBE9"></path>
                            <path d="M31.7463757,5.04091773 L29.8204255,5.04091773 C23.5429518,5.04091773 18.4057171,10.1781525 18.4057171,16.4556262 L18.4057171,22.8918847 C18.4057171,29.1707273 23.5429518,34.3065932 29.8204255,34.3065932 L31.7463757,34.3065932 C38.0238494,34.3065932 43.1597149,29.1707273 43.1597149,22.8918847 L43.1597149,16.4556262 C43.1597149,10.1781525 38.0238494,5.04091773 31.7463757,5.04091773" id="Fill-111" fill="#174E62"></path>
                            <path d="M40.8997698,37.8889693 C35.6626105,37.8889693 35.6626105,33.0008623 35.6626105,28.5083484 L35.6626105,22.8988658 L25.8261673,22.8988658 L25.8261673,28.5083484 C25.8261673,33.0008623 25.4784834,37.8889693 20.589008,37.8889693 C19.6253488,37.8889693 18.6931722,38.0313281 17.8102749,38.2927754 C20.2673319,42.9522871 25.1568072,46.1307201 30.7895605,46.1307201 C36.4141006,46.1307201 41.2953627,42.9618689 43.7565274,38.3160456 C42.8517278,38.0381722 41.8921752,37.8889693 40.8997698,37.8889693" id="Fill-112" fill="#D7AD83"></path>
                            <path d="M43.7964966,38.3153612 C41.335333,42.9625533 36.4540698,46.1300356 30.8295308,46.1300356 C25.1967775,46.1300356 20.3073021,42.9529715 17.8502441,38.292091 C13.7820691,39.4994028 10.7911659,43.278754 10.7911659,47.7247276 L10.7911659,54.3197709 C16.1693158,58.9245291 23.1490015,61.7101067 30.7843591,61.7101067 C38.4183476,61.7101067 45.3980333,58.9245291 50.7761822,54.3197709 L50.7761822,47.7247276 C50.7761822,43.3074995 47.8236076,39.547312 43.7964966,38.3153612" id="Fill-113" fill="#AF00FF"></path>
                            <path d="M32.1715352,37.7190969 C33.6416636,37.7190969 35.1501186,36.7650195 36.4778881,35.2565642 C35.6702758,33.4346459 35.6620626,30.9173598 35.6620626,28.5082115 L35.6620626,22.8987289 L25.8256204,22.8987289 L25.8256204,28.5082115 C25.8256204,29.6580323 25.80235,30.832492 25.685999,31.9439854 C27.3299688,35.2483512 29.802083,37.7190969 32.1715352,37.7190969" id="Fill-114" fill="#C59264"></path>
                            <path d="M35.1276695,14.3500854 C34.2173951,17.0809098 24.6328179,19.7145467 22.5056492,18.5674637 C21.7445777,18.7577316 21.1546103,19.8418484 21.1546103,21.1764617 C21.1546103,22.6301636 21.8486089,23.8073611 22.7096061,23.8320001 C23.7731899,29.182773 27.3855432,34.2488285 30.7843591,34.2488285 C34.1818049,34.2488285 37.7941592,29.182773 38.857743,23.8320001 C39.7187402,23.8073611 40.4113696,22.6301636 40.4113696,21.1764617 C40.4113696,20.66178 40.3223956,20.1867945 40.1731927,19.7816196 C38.9439796,19.1998651 36.2227369,17.1972606 35.1276695,14.3500854" id="Fill-115" fill="#D7AD83"></path>
                        </g>
                    </g>
                    <g id="Fill-109-Clipped" transform="translate(213.591877, 107.752163)"></g>
                    <g id="Fill-116-Clipped" transform="translate(162.255915, 4.897826)" fill-rule="nonzero">
                        <g id="Group-4" transform="translate(0.042388, 0.042547)">
                            <path d="M26.7412206,68.2758321 C23.4395928,67.8994027 20.4596402,70.2688548 20.0818419,73.5691141 C19.7054127,76.8693733 22.0748649,79.8506942 25.3764926,80.2271237 C28.6767522,80.6049219 31.658073,78.2341011 32.0345031,74.9338417 C32.4123015,71.6335825 30.0414801,68.6522615 26.7412206,68.2758321" id="Fill-116" fill="#4C949B"></path>
                            <path d="M24.8597579,84.7486568 C23.5059816,84.5939786 22.2836125,85.5672197 22.1275646,86.9209967 C21.9742562,88.273405 22.9461275,89.4971428 24.2999049,89.651821 C25.6536822,89.8064993 26.8774195,88.8332582 27.0320982,87.4794811 C27.1867769,86.1257041 26.2135353,84.9019663 24.8597579,84.7486568" id="Fill-117" fill="#4C949B"></path>
                            <path d="M30.8537459,0.243128989 C13.8596701,0.243128989 0.0837216843,14.0190765 0.0837216843,31.0131534 C0.0837216843,48.0072301 13.8596701,61.7818089 30.8537459,61.7818089 C47.8478228,61.7818089 61.6237712,48.0072301 61.6237712,31.0131534 C61.6237712,14.0190765 47.8478228,0.243128989 30.8537459,0.243128989" id="Fill-118" fill="#184A63"></path>
                            <path d="M43.8964094,36.6428947 L43.8553444,36.6689025 C43.8553444,36.6593207 43.8567136,36.6511077 43.8567136,36.6428947 C42.9519141,36.3663902 39.2642748,34.6991501 38.330729,34.0544291 L23.376216,33.8395223 C22.434458,34.6895683 18.7933585,36.3581772 17.9118293,36.6196245 C17.9145667,36.623731 17.915936,36.6264687 17.9173052,36.6305752 C13.8669247,37.8488377 9.85076428,42.312606 9.85076428,46.7462601 L10.3640775,53.9600164 C15.8051937,58.8221156 22.9819912,61.781535 30.8541566,61.781535 C38.7564374,61.781535 45.9592427,58.8002141 51.4085721,53.9038942 L51.9177777,46.7462601 C51.9177777,42.329032 47.9248887,37.8734767 43.8964094,36.6428947" id="Fill-119" fill="#4C949B"></path>
                            <path d="M23.3766266,33.839796 C24.8152714,32.3573485 25.4517786,32.1835066 25.4517786,27.440496 C25.4517786,22.6988543 36.7870954,22.6399945 36.7870954,27.440496 C36.7870954,32.2423665 37.0471735,33.1895997 38.3297715,34.054703 C38.3297715,34.054703 38.6213332,39.5971127 30.8915267,39.5971127 C23.1617191,39.5971127 23.3766266,33.839796 23.3766266,33.839796" id="Fill-120" fill="#EFD6CE"></path>
                            <path d="M29.3191459,35.5682229 C30.139078,36.1116502 31.3368075,36.0883799 32.1717968,36.0883799 C33.0204742,36.0883799 34.2291543,36.1034372 35.060037,35.5449527 C35.6883321,35.1233519 36.4945752,34.1583237 37.2967117,32.8839391 C36.8929055,31.9777708 36.7875061,30.4843727 36.7875061,27.4414543 C36.7875061,22.6409526 25.4508211,22.6998124 25.4508211,27.4414543 C25.4508211,28.3530978 25.4275507,29.0950059 25.3796417,29.7109814 C26.5801086,32.496559 28.2021772,34.8276836 29.3191459,35.5682229" id="Fill-121" fill="#D3B6AE"></path>
                            <path d="M39.3908913,19.3307008 C38.2725545,9.56954408 35.8113899,9.10687809 31.1313462,9.10687809 C26.4513015,9.10687809 23.9901379,9.56954408 22.8718001,19.3307008 C22.0997779,19.5072805 21.5029665,20.609192 21.5029665,21.9561249 C21.5029665,23.424884 22.2106532,24.6157698 23.0839691,24.6157698 C23.1811564,24.6157698 23.274238,24.596606 23.3659495,24.5678605 C24.4760741,28.4539809 26.8113052,32.1662593 28.2773271,33.1395004 C29.0972582,33.6815587 30.2949887,33.6599003 31.1313462,33.6599003 C31.9786543,33.6599003 33.1887036,33.6747146 34.0195864,33.1148614 C35.4418047,32.1607839 37.7770359,28.4471367 38.8926363,24.5678605 C38.985717,24.596606 39.0801658,24.6157698 39.1787222,24.6157698 C40.0520382,24.6157698 40.7597259,23.424884 40.7597259,21.9561249 C40.7597259,20.609192 40.1629144,19.5072805 39.3908913,19.3307008" id="Fill-122" fill="#EFD6CE"></path>
                            <path d="M24.1219568,23.0067051 C24.1219568,20.4634112 24.1520712,20.3785434 24.532607,19.0726756 C32.2254551,17.8585196 34.538785,15.2946932 36.6782725,14.3118702 C38.3564634,16.1242067 38.1182865,19.5367104 38.1182865,23.0067051 C39.4132032,22.9943856 38.4673396,19.506596 39.7978455,19.506596 C39.6445361,13.297564 40.264619,11.2662141 36.8918108,8.50664425 C33.5463806,5.76897584 28.7869433,7.01872145 25.3005225,9.10756249 C21.9509858,11.1142734 22.6025502,12.6802198 22.6052886,19.4189907 C23.993286,19.7762564 22.8489403,23.0067051 24.1219568,23.0067051" id="Fill-123" fill="#C6AC9F"></path>
                        </g>
                    </g>
                    <g id="Fill-117-Clipped" transform="translate(173.073502, 82.817778)"></g>
                    <g id="Fill-124-Clipped" transform="translate(73.467384, 4.897826)" fill-rule="nonzero">
                        <g id="Group-3" transform="translate(0.017735, 0.114523)">
                            <path d="M35.2365926,68.2038563 C31.9363331,68.5802856 29.5655117,71.5616066 29.9433101,74.8618658 C30.3197403,78.1621252 33.3010611,80.532946 36.6013196,80.1551478 C39.9015791,79.7787183 42.2724005,76.7973974 41.8959703,73.4971382 C41.518173,70.1968789 38.5368512,67.8274268 35.2365926,68.2038563" id="Fill-124" fill="#FD6222"></path>
                            <path d="M37.1180553,84.676681 C35.7642779,84.8299904 34.7910363,86.0537282 34.945715,87.4075053 C35.1003937,88.7612823 36.3227618,89.7345234 37.6779083,89.5798451 C39.0316847,89.4251669 40.003557,88.2014291 39.8502476,86.8490208 C39.6942007,85.4952438 38.4718316,84.5220027 37.1180553,84.676681" id="Fill-125" fill="#FD6222"></path>
                            <path d="M31.1240663,0.171153101 C14.12999,0.171153101 0.354042463,13.9471006 0.354042463,30.9411775 C0.354042463,47.9352542 14.12999,61.709833 31.1240663,61.709833 C48.1181431,61.709833 61.8940915,47.9352542 61.8940915,30.9411775 C61.8940915,13.9471006 48.1181431,0.171153101 31.1240663,0.171153101" id="Fill-126" fill="#E1D8D3"></path>
                            <path d="M18.7470678,38.2926385 L18.7470678,16.4556262 C18.7470678,10.1781525 23.8829338,5.04091771 30.1617763,5.04091771 L32.0863573,5.04091771 C38.3652002,5.04091771 43.5010657,10.1781525 43.5010657,16.4556262 L43.5010657,38.2926385 L18.7470678,38.2926385 Z" id="Fill-127" fill="#D14311"></path>
                            <path d="M44.1367526,38.3153611 L18.1904998,38.292091 C14.1223245,39.4994028 11.1314218,43.278754 11.1314218,47.7247275 L11.1314218,54.3197708 C16.5095714,58.9245291 23.4906259,61.7101067 31.1246142,61.7101067 C38.7586027,61.7101067 45.7382883,58.9245291 51.1164382,54.3197708 L51.1164382,47.7247275 C51.1164382,43.3074995 48.1652319,39.5473119 44.1367526,38.3153611" id="Fill-128" fill="#FD6222"></path>
                            <path d="M41.2400258,37.8889693 C36.0028655,37.8889693 36.0028655,33.0008622 36.0028655,28.5083484 L36.0028655,22.8988658 L26.166423,22.8988658 L26.166423,28.5083484 C26.166423,33.0008622 25.820108,37.8889693 20.9292633,37.8889693 C19.965604,37.8889693 19.0334279,38.0313281 18.1518987,38.2927754 C20.6089561,42.9522871 25.4970631,46.13072 31.1298155,46.13072 C36.7543556,46.13072 41.636987,42.9618689 44.0967824,38.3160456 C43.1919828,38.0381722 42.2324302,37.8889693 41.2400258,37.8889693" id="Fill-129" fill="#EFD6CE"></path>
                            <path d="M32.5123381,37.7192338 C33.9810973,37.7192338 35.4909215,36.7651564 36.818691,35.2567011 C36.0110787,33.4347827 36.0028655,30.9174966 36.0028655,28.5083484 L36.0028655,22.8988658 L26.166423,22.8988658 L26.166423,28.5083484 C26.166423,29.6581691 26.1431528,30.8326289 26.0268019,31.9441223 C27.6707718,35.248488 30.1428859,37.7192338 32.5123381,37.7192338" id="Fill-130" fill="#D3B6AE"></path>
                            <path d="M38.0030059,15.7710722 C36.4603299,16.9496385 34.3263173,17.8229548 31.9034813,18.1377866 C28.7578999,18.5443304 25.8477584,17.9160355 23.94371,16.6211183 C23.7739746,17.6025724 22.1614878,19.5586365 21.7549441,19.7242654 C21.5920528,20.1403911 21.4962345,20.6386467 21.4962345,21.1765985 C21.4962345,22.6303005 22.1902334,23.8074979 23.0498613,23.8321369 C24.1134454,29.1829099 27.725799,34.2489653 31.1246142,34.2489653 C34.5234302,34.2489653 38.1344142,29.1829099 39.197998,23.8321369 C40.057626,23.8074979 40.7516257,22.6303005 40.7516257,21.1765985 C40.7516257,20.6537039 40.6612824,20.1705054 40.5066038,19.761224 C39.4512331,19.1616746 38.2795105,17.267208 38.0030059,15.7710722" id="Fill-131" fill="#EFD6CE"></path>
                        </g>
                    </g>
                    <g id="Fill-125-Clipped" transform="translate(119.197420, 82.817778)"></g>
                    <g id="Fill-132-Clipped" transform="translate(14.248220, 78.233788)">
                        <g id="Group" transform="translate(0.016675, 0.139112)">
                            <path d="M55.7077199,64.4662551 C54.254018,61.4780901 50.653984,60.2351886 47.6671877,61.6902594 C44.6803915,63.1439614 43.43749,66.7439958 44.8911919,69.7321606 C46.3448939,72.717588 49.9462967,73.9618583 52.9330929,72.5067871 C55.9198892,71.0530852 57.1614218,67.4530517 55.7077199,64.4662551" id="Fill-132" fill="#FF9B00" fill-rule="nonzero"></path>
                            <path d="M54.9237886,76.5972751 C53.6986819,77.1940865 53.1881068,78.6710589 53.7849185,79.8961654 C54.3817302,81.1226401 55.8587024,81.6318467 57.083809,81.0350353 C58.3102844,80.439592 58.8194908,78.9626206 58.222679,77.7361449 C57.6258673,76.5110384 56.150264,76.0004626 54.9237886,76.5972751" id="Fill-133" fill="#FF9B00" fill-rule="nonzero"></path>
                            <path d="M30.7700244,0.0415252982 C13.7759476,0.0415252982 0,13.8174729 0,30.8115496 C0,47.8056264 13.7759476,61.5802052 30.7700244,61.5802052 C47.7641012,61.5802052 61.5400488,47.8056264 61.5400488,30.8115496 C61.5400488,13.8174729 47.7641012,0.0415252982 30.7700244,0.0415252982" id="Fill-134" fill="#EDDCC3" fill-rule="nonzero"></path>
                            <path d="M43.8133719,36.441291 L43.7723068,36.4672989 C43.7723068,36.457717 43.7736756,36.449504 43.7736756,36.441291 C42.8688763,36.1647864 39.1812369,34.4975464 38.2476919,33.8528255 L30.808078,42.86523 L23.2931782,33.6379185 C22.3500514,34.4879646 18.7103212,36.1565734 17.828792,36.4180207 C17.8301608,36.4221273 17.8328985,36.424865 17.8342673,36.4289715 C13.7838868,37.6472339 9.76772721,42.1110024 9.76772721,46.5446563 L10.2796712,53.7584127 C15.7221561,58.6205118 22.8989539,61.5799313 30.7697506,61.5799313 C38.6720306,61.5799313 45.876205,58.5986104 51.325534,53.7022904 L51.8347404,46.5446563 C51.8347404,42.1274284 47.841851,37.671873 43.8133719,36.441291" id="Fill-135" fill="#FF9B00" fill-rule="nonzero"></path>
                            <path d="M23.2934519,33.6380553 C24.7320967,32.1556079 25.3672357,31.981766 25.3672357,27.2387555 C25.3672357,22.4971137 36.7039207,22.4382538 36.7039207,27.2387555 C36.7039207,32.0406259 36.9639992,32.9878591 38.2465968,33.8529623 L30.8069829,42.8653669 L23.2934519,33.6380553 Z" id="Fill-136" fill="#875744" fill-rule="nonzero"></path>
                            <g id="Fill-137-Clipped" transform="translate(24.917710, 23.459502)"></g>
                            <path d="M29.2354244,35.3664824 C30.055356,35.9099095 31.253086,35.8866394 32.0894436,35.8866394 C32.9367521,35.8866394 34.1454327,35.9016965 34.9776839,35.3432122 C35.6059788,34.9216112 36.4122221,33.9565831 37.2129901,32.6821985 C36.809184,31.7760302 36.7037838,30.282632 36.7037838,27.2397136 C36.7037838,22.439212 25.3670988,22.4980719 25.3670988,27.2397136 C25.3670988,28.1513572 25.3438286,28.8932654 25.2959195,29.5092407 C26.4963871,32.2948183 28.1184556,34.6259431 29.2354244,35.3664824" id="Fill-137" fill="#000000" fill-rule="nonzero" opacity="0.256859189"></path>
                            <path d="M39.307854,19.1289603 C38.1895165,9.36780342 35.7269837,8.90513744 31.0483084,8.90513744 C26.3682642,8.90513744 23.5512034,9.51563748 22.4328658,19.2767943 C21.6608433,19.4520051 21.3035776,20.4238774 21.4199285,21.7543842 C21.5472301,23.217668 22.1276158,24.4140291 23.0009321,24.4140291 C23.0967504,24.4140291 23.1911999,24.3948655 23.2815431,24.36612 C24.3930364,28.2522403 26.7282676,31.9645187 28.194289,32.9377598 C29.0142208,33.4798182 30.2119507,33.4581597 31.0483084,33.4581597 C31.8956167,33.4581597 33.1056662,33.472974 33.9365486,32.9131208 C35.3587673,31.9590433 37.6926297,28.2453962 38.8082295,24.36612 C38.9026791,24.3948655 38.9971287,24.4140291 39.0956848,24.4140291 C39.9676321,24.4140291 40.6766883,23.2231433 40.6766883,21.7543842 C40.6766883,20.4074514 40.0785077,19.3055398 39.307854,19.1289603" id="Fill-138" fill="#875744" fill-rule="nonzero"></path>
                            <path d="M24.0955887,22.8049646 C24.0955887,20.2616705 24.0380977,17.0613361 24.6732368,15.7883203 C25.3097447,14.5153045 33.7540829,11.2191517 37.7456035,15.7883203 C38.2082695,17.9278082 38.0919186,19.3349697 38.0919186,22.8049646 C39.3690409,22.8049646 38.3821115,19.3240191 39.7112494,19.3240191 C40.2902664,16.3084773 42.1203977,7.02641248 30.0719189,6.72663786 C27.0467953,6.65135193 24.1229654,6.28039788 24.1229654,6.28039788 C24.1229654,6.28039788 22.6692635,8.25699448 22.2887276,11.4504847 C21.9081916,14.6453438 22.4324552,19.2774787 22.4324552,19.2774787 C23.820453,19.6333757 22.8225729,22.8049646 24.0955887,22.8049646" id="Fill-139" fill="#241E20" fill-rule="nonzero"></path>
                        </g>
                    </g>
                    <g id="Fill-133-Clipped" transform="translate(78.679045, 107.752163)"></g>
                    <g id="Fill-140-Clipped" fill="#FD6222" fill-rule="nonzero">
                        <path d="M68.3445236,21.6389419 L9.83644267,21.6389419 C4.42680986,21.6389419 0,17.2135009 0,11.8011304 L0,9.83685333 C0,4.42722051 4.42680986,0.000410650265 9.83644267,0.000410650265 L53.2134302,0.000410650265 C58.6244318,0.000410650265 63.0512417,4.42722051 63.0512417,9.83685333 L63.0512417,11.8011304 C63.0512417,17.2135009 63.0512417,20.4590068 68.3445236,21.6389419" id="Fill-140"></path>
                    </g>
                    <g id="Fill-141-Clipped" transform="translate(229.489703, 0.000000)" fill="#4C949B" fill-rule="nonzero">
                        <path d="M0.112211826,21.6389419 L58.6202931,21.6389419 C64.0299256,21.6389419 68.4567352,17.2135009 68.4567352,11.8011304 L68.4567352,9.83685333 C68.4567352,4.42722051 64.0299256,0.000410650265 58.6202931,0.000410650265 L15.2433057,0.000410650265 C9.83230396,0.000410650265 5.40549438,4.42722051 5.40549438,9.83685333 L5.40549438,11.8011304 C5.40549438,17.2135009 5.40549438,20.4590068 0.112211826,21.6389419" id="Fill-141"></path>
                    </g>
                    <g id="Fill-142-Clipped" transform="translate(20.481816, 7.569367)" fill="#FFFFFF" fill-rule="nonzero">
                        <path d="M3.14563134,0.329080369 C1.53177579,0.329080369 0.224539058,1.63768589 0.224539058,3.25017259 C0.224539058,4.86402814 1.53177579,6.17126477 3.14563134,6.17126477 C4.75811799,6.17126477 6.06672352,4.86402814 6.06672352,3.25017259 C6.06672352,1.63768589 4.75811799,0.329080369 3.14563134,0.329080369" id="Fill-142"></path>
                    </g>
                    <g id="Fill-143-Clipped" transform="translate(29.832210, 7.569367)" fill="#FFFFFF" fill-rule="nonzero">
                        <path d="M3.29891605,0.329080369 C1.6864294,0.329080369 0.377823869,1.63768589 0.377823869,3.25017259 C0.377823869,4.86402814 1.6864294,6.17126477 3.29891605,6.17126477 C4.9127716,6.17126477 6.22000833,4.86402814 6.22000833,3.25017259 C6.22000833,1.63768589 4.9127716,0.329080369 3.29891605,0.329080369" id="Fill-143"></path>
                    </g>
                    <g id="Fill-144-Clipped" transform="translate(39.627862, 7.569367)" fill="#FFFFFF" fill-rule="nonzero">
                        <path d="M3.00749147,0.329080369 C1.39363602,0.329080369 0.0863992868,1.63768589 0.0863992868,3.25017259 C0.0863992868,4.86402814 1.39363602,6.17126477 3.00749147,6.17126477 C4.61997822,6.17126477 5.92858375,4.86402814 5.92858375,3.25017259 C5.92858375,1.63768589 4.61997822,0.329080369 3.00749147,0.329080369" id="Fill-144"></path>
                    </g>
                    <g id="Fill-145-Clipped" transform="translate(271.343849, 7.569367)" fill="#FFFFFF" fill-rule="nonzero">
                        <path d="M2.97582664,0.329080369 C1.36197119,0.329080369 0.0547346648,1.63768589 0.0547346648,3.25017259 C0.0547346648,4.86402814 1.36197119,6.17126477 2.97582664,6.17126477 C4.58968209,6.17126477 5.89691861,4.86402814 5.89691861,3.25017259 C5.89691861,1.63768589 4.58968209,0.329080369 2.97582664,0.329080369" id="Fill-145"></path>
                    </g>
                    <g id="Fill-146-Clipped" transform="translate(261.548198, 7.569367)" fill="#FFFFFF" fill-rule="nonzero">
                        <path d="M3.2671145,0.329080369 C1.65325906,0.329080369 0.346022531,1.63768589 0.346022531,3.25017259 C0.346022531,4.86402814 1.65325906,6.17126477 3.2671145,6.17126477 C4.88096995,6.17126477 6.18820648,4.86402814 6.18820648,3.25017259 C6.18820648,1.63768589 4.88096995,0.329080369 3.2671145,0.329080369" id="Fill-146"></path>
                    </g>
                    <g id="Fill-147-Clipped" transform="translate(252.197803, 7.569367)" fill="#FFFFFF" fill-rule="nonzero">
                        <path d="M3.1132817,0.329080369 C1.50079546,0.329080369 0.193558938,1.63768589 0.193558938,3.25017259 C0.193558938,4.86402814 1.50079546,6.17126477 3.1132817,6.17126477 C4.72713818,6.17126477 6.0343747,4.86402814 6.0343747,3.25017259 C6.0343747,1.63768589 4.72713818,0.329080369 3.1132817,0.329080369" id="Fill-147"></path>
                    </g>
                </g>
                <g id="Group-11" transform="translate(149.409681, 170.379432) rotate(45.000000) translate(-149.409681, -170.379432) translate(79.409681, 100.379432)">
                    <polygon id="Fill-274" fill="#A0A0A0" fill-rule="nonzero" points="22.7429142 65.9046242 19.663447 68.9840915 13.7874506 63.1086248 16.8669178 60.0291579"></polygon>
                    <polygon id="Fill-276" fill="#A0A0A0" fill-rule="nonzero" points="14.2431715 57.4053584 11.1637043 60.4848258 8.77780604 58.0983976 11.8567434 55.0189303"></polygon>
                    <polygon id="Fill-278" fill="#A0A0A0" fill-rule="nonzero" points="29.7665048 72.9286916 26.6870376 76.0081589 20.8115711 70.1326926 23.8905084 67.0526954"></polygon>
                    <polygon id="Fill-280" fill="#A0A0A0" fill-rule="nonzero" points="72.403614 23.5795416 69.3241471 26.6590088 61.3271756 18.6615075 64.4061126 15.5820403"></polygon>
                    <g id="Group-284" transform="translate(0.000000, 0.000000)">
                        <g id="Fill-282-Clipped" transform="translate(0.000000, 0.000000)">
                            <mask id="mask-2" fill="white">
                                <use xlink:href="#path-1"></use>
                            </mask>
                            <g id="path-3"></g>
                            <path d="M36.9613418,3.04333165 L2.79472772,37.2099458 C-0.931681878,40.9363553 -0.931681878,46.9993874 2.79472772,50.7252671 L88.8831082,136.814177 C92.6095178,140.540587 98.6730797,140.540587 102.398959,136.814177 L136.565574,102.647034 C140.291983,98.9211537 140.291983,92.8581216 136.565574,89.1322419 L50.4771931,3.04333165 C46.7513135,-0.683077958 40.6877514,-0.683077958 36.9613418,3.04333165" id="Fill-282" fill="#BCBCBC" fill-rule="nonzero" mask="url(#mask-2)"></path>
                        </g>
                    </g>
                    <path d="M37.805811,3.88774783 L3.63972674,38.0543619 C0.378522255,41.3150365 0.378522255,46.6203883 3.63972674,49.8810632 L89.7281074,135.969444 C92.9882519,139.230648 98.2936038,139.230118 101.554279,135.969444 L135.721422,101.802829 C138.981567,98.5426845 138.981567,93.2373326 135.721422,89.9766582 L49.6325119,3.88774783 C46.3718375,0.627603039 41.0664856,0.627603039 37.805811,3.88774783" id="Fill-285" fill="#3F3F3F" fill-rule="nonzero"></path>
                    <path d="M39.495703,5.57716304 L34.7297348,10.3431312 L35.0751947,10.6885911 C36.9338958,12.5472922 36.9338958,15.5886104 35.0751947,17.4467817 L17.1981778,35.3243285 C15.3394766,37.1819699 12.2986882,37.1819699 10.4399871,35.3243285 L10.0945273,34.9783388 L5.32908893,39.7437771 C2.99988425,42.0729818 2.99988425,45.8624432 5.32908893,48.1916477 L91.4174694,134.280028 C93.746674,136.609233 97.5361354,136.609233 99.8648102,134.280028 L134.031424,100.113414 C136.360629,97.7842094 136.360629,93.994748 134.031424,91.6660732 L47.9425141,5.57716304 C45.6138393,3.24795832 41.8249077,3.24795832 39.495703,5.57716304" id="Fill-287" fill="#FFFFFF" fill-rule="nonzero"></path>
                    <path d="M25.8330312,19.2398348 L18.9916548,26.0812113 C18.6626202,26.4102459 18.6626202,26.9490997 18.9916548,27.2781343 L19.0271545,27.3141638 C19.3561891,27.6431984 19.8950428,27.6431984 20.2240774,27.3141638 L27.0659838,20.4727873 C27.3950184,20.1432229 27.3950184,19.6043691 27.0659838,19.2753345 L27.0299542,19.2398348 C26.7009196,18.9108002 26.1620659,18.9108002 25.8330312,19.2398348" id="Fill-289" fill="#444444" fill-rule="nonzero"></path>
                    <path d="M28.5660848,16.5063043 L28.6021144,16.4708046 C28.931149,16.14177 29.4700028,16.14177 29.7990374,16.4708046 L29.8350669,16.5063043 C30.1641015,16.8358688 30.1641015,17.3747226 29.8350669,17.7037571 L29.7990374,17.7392568 C29.4700028,18.0682915 28.931149,18.0682915 28.6021144,17.7392568 L28.5660848,17.7037571 C28.2370502,17.3747226 28.2370502,16.8358688 28.5660848,16.5063043" id="Fill-291" fill="#444444" fill-rule="nonzero"></path>
                    <polygon id="Fill-293" fill="#FFFFFF" fill-rule="nonzero" points="53.6370382 11.2714751 11.0230831 53.8854301 82.1316467 124.994523 124.746132 82.3800386"></polygon>
                    <path d="M99.8650751,134.280187 L134.031689,100.113573 C136.360894,97.7843684 136.360894,93.9949069 134.031159,91.6657023 L124.746132,82.3801445 L82.1316467,124.994629 L91.4177343,134.280187 C93.7464091,136.609392 97.5358705,136.609392 99.8650751,134.280187" id="Fill-295" fill="#F6F6F6" fill-rule="nonzero"></path>
                    <path d="M39.495703,5.57716304 L34.7297348,10.3431312 L35.0757245,10.6885911 C36.9338958,12.5467623 36.9338958,15.5886104 35.0751947,17.4462518 L17.1981778,35.3243285 C15.3394766,37.1819699 12.2986882,37.1824997 10.4399871,35.3243285 L10.0945273,34.9783388 L5.32908893,39.7437771 C2.99988425,42.0729818 2.99988425,45.8624432 5.32908893,48.1916477 L11.023348,53.8853771 L53.6367733,11.2714221 L47.9425141,5.57716304 C45.6138393,3.24795832 41.8249077,3.24795832 39.495703,5.57716304" id="Fill-297" fill="#2296F4" fill-rule="nonzero"></path>
                    <polygon id="Fill-299" fill="#F6F6F6" fill-rule="nonzero" points="58.5293217 16.1637586 15.9148368 58.7777136 11.023295 53.8851122 53.6372502 11.271687"></polygon>
                    <path d="M50.8822607,18.1625512 C50.6417106,18.1620213 50.4038094,18.1620213 50.1621997,18.1614914 C50.2808852,18.2812367 50.4006303,18.3999223 50.5224949,18.5223168 C50.6443599,18.400982 50.7625155,18.2828263 50.8822607,18.1625512 L50.8822607,18.1625512 Z M49.3854446,19.2905941 C49.450616,19.3557652 49.5088988,19.4140483 49.5693015,19.4744508 C49.7595161,19.2842359 49.9460222,19.09773 50.1330581,18.9101644 L49.9492013,18.7263077 C49.7595161,18.9159927 49.5740702,19.1014389 49.3854446,19.2905941 L49.3854446,19.2905941 Z M51.0004163,18.628816 C50.6168079,19.0124247 50.2400867,19.3891455 49.863366,19.7653364 C49.9269478,19.8294479 49.98735,19.8893205 50.0445735,19.9470738 C50.4265928,19.5650545 50.8038434,19.1888636 51.1810939,18.8105533 C51.1191021,18.7480314 51.0624085,18.6913378 51.0004163,18.628816 L51.0004163,18.628816 Z M50.518256,20.425525 C50.9018649,20.0424461 51.278586,19.6651955 51.6558366,19.2879448 L51.4735694,19.1056777 C51.0926098,19.4861074 50.7158891,19.863358 50.3365191,20.2432579 L50.518256,20.425525 Z M51.950431,19.5820096 L50.8128509,20.7190599 L50.995648,20.9018569 C51.3760777,20.5219571 51.7533283,20.1447065 52.1326982,19.7642768 L51.950431,19.5820096 Z M52.8972666,19.7632171 C52.2593315,20.4011521 51.6288144,21.0311394 50.995648,21.6643059 L48.6240554,19.2932433 C48.6367719,19.2784076 48.6489582,19.2609227 48.6637941,19.2466169 C49.0760143,18.8338665 49.4882349,18.4200565 49.9025749,18.0094255 C49.9311866,17.9818735 49.9788728,17.95962 50.0175513,17.9590901 C50.3481755,17.9548513 50.6793295,17.9575006 51.0099537,17.9548513 C51.0671772,17.9548513 51.1090349,17.9696871 51.1503632,18.0115449 C51.7172985,18.5811298 52.2858239,19.1485953 52.8548786,19.7176503 C52.868125,19.7308964 52.8803113,19.7452023 52.8972666,19.7632171 L52.8972666,19.7632171 Z" id="Fill-301" fill="#C9C9C9" fill-rule="nonzero"></path>
                    <path d="M50.9593533,16.7536366 C50.7346985,16.7499277 50.4983869,16.7456889 50.2694933,16.7425098 C50.3828806,16.8553671 50.5020959,16.9751124 50.6202515,17.0932682 C50.7426464,16.9703438 50.8602721,16.8527179 50.9593533,16.7536366 M52.9929038,18.338937 C52.8026887,18.5296817 52.6183025,18.7140682 52.4291472,18.9032234 C52.3046333,18.7781796 52.1811792,18.6552553 52.0513667,18.5249131 C52.1101798,18.4650404 52.170582,18.4051678 52.233634,18.3415862 L52.0450085,18.1529609 C51.985666,18.2117739 51.9257932,18.2721763 51.8611521,18.3362878 C51.76366,18.2382662 51.6714669,18.1466028 51.5750349,18.0501707 L51.757832,17.8679036 C51.6931905,17.8032623 51.6327883,17.7433897 51.5665573,17.676629 C51.5066849,17.7359718 51.4468121,17.7969042 51.3789919,17.8647245 C51.2793808,17.7428598 51.1771205,17.6374204 51.0006812,17.6999423 C50.9996219,17.6919946 50.9990921,17.6851066 50.9980324,17.6776887 C51.0928747,17.5828462 51.1871873,17.4885335 51.2841491,17.3910418 C51.2168587,17.3242812 51.1585755,17.2654682 51.091815,17.1987076 C51.0133977,17.2771249 50.9349804,17.3560719 50.8560333,17.4339594 C50.7707283,17.5187348 50.6970792,17.635301 50.5942894,17.6776887 C50.4904395,17.7200764 50.3563883,17.6877558 50.2361132,17.690405 C50.1751807,17.6914647 50.1137184,17.697293 50.0527863,17.701002 C50.0506669,17.6930543 50.0480176,17.6856364 50.0458982,17.6776887 L50.2355834,17.4885335 C50.1693523,17.4217729 50.10948,17.3619003 50.0458982,17.2988486 L49.4826714,17.8626051 C49.5096936,17.8933362 49.5356561,17.9240673 49.5653275,17.9574476 C49.4402838,18.0835511 49.31577,18.2070052 49.1891367,18.3336385 L48.7191627,17.8641946 C48.7377077,17.8440605 48.7551925,17.8233965 48.7742668,17.804322 C49.184368,17.3936911 49.5944692,16.9825303 50.0066897,16.5734889 C50.0310627,16.5491159 50.0734502,16.5321608 50.1078904,16.5321608 C50.4496411,16.5284519 50.7919221,16.5284519 51.1336727,16.5305713 C51.1633442,16.5305713 51.2014934,16.5422279 51.2216274,16.5628919 C51.8055182,17.1430737 52.3867596,17.7259048 52.9690607,18.3087358 C52.9764787,18.3156237 52.9817768,18.325161 52.9929038,18.338937" id="Fill-303" fill="#C9C9C9" fill-rule="nonzero"></path>
                    <path d="M40.0141577,28.5090734 C40.133903,28.6293485 40.2531185,28.7480341 40.3691548,28.8640705 C40.4920791,28.7406163 40.6102349,28.6224605 40.7241519,28.5090734 L40.0141577,28.5090734 Z M39.2347537,29.6318179 C39.2967457,29.6938099 39.3582079,29.7558019 39.4196701,29.8167343 C39.6077655,29.6275791 39.7948013,29.441603 39.9807774,29.2556269 L39.795861,29.0712404 L39.2347537,29.6318179 Z M40.8465464,28.9763979 C40.4655868,29.3578873 40.088866,29.7346081 39.7105557,30.1123885 L39.8928229,30.2951855 C40.2727228,29.9152857 40.6499734,29.5385649 41.0293434,29.1591949 C40.9684111,29.0972029 40.9090683,29.0389198 40.8465464,28.9763979 L40.8465464,28.9763979 Z M40.3670354,30.769398 L41.5014365,29.6349969 C41.4373251,29.5708855 41.3769226,29.5110129 41.3191694,29.4521999 L40.1847683,30.586601 C40.2462304,30.6485931 40.3050434,30.7068762 40.3670354,30.769398 L40.3670354,30.769398 Z M40.8423076,31.2441404 L41.9767087,30.1097393 C41.9125973,30.0456279 41.8527246,29.9857552 41.7939117,29.9269423 L40.6600404,31.0608136 C40.7215026,31.1233354 40.7797857,31.1816185 40.8423076,31.2441404 L40.8423076,31.2441404 Z M42.644845,30.0159565 C42.0116786,30.6491229 41.3816912,31.2785804 40.7490546,31.9117468 L38.4701854,29.6328775 L38.7441159,29.358947 C39.078449,29.0246139 39.4127821,28.6892212 39.7502942,28.3564776 C39.7799656,28.3273361 39.8313607,28.3072019 39.8726887,28.3066721 C40.2091412,28.3019035 40.5450638,28.3024333 40.8809864,28.303493 C40.9111876,28.3040228 40.9498664,28.3146198 40.9700006,28.3347539 C41.5236901,28.8852643 42.0752602,29.4373642 42.6268302,29.9894642 C42.6321287,29.9952925 42.6358376,30.0027103 42.644845,30.0159565 L42.644845,30.0159565 Z" id="Fill-305" fill="#C9C9C9" fill-rule="nonzero"></path>
                    <path d="M38.4184194,29.020799 C38.4973665,28.9434415 38.498956,28.8125694 38.4215984,28.734682 C38.3474199,28.6594438 38.2176076,28.6567946 38.1413097,28.7288536 C38.060773,28.803562 38.0565343,28.9354938 38.1323023,29.0155005 C38.205951,29.0944476 38.3405319,29.096567 38.4184194,29.020799 M38.085146,29.6364805 L40.3640153,31.9153498 C40.2432103,32.0356249 40.1345918,32.1617284 40.0090182,32.2661081 C39.8633104,32.3874429 39.6677971,32.3598909 39.5236789,32.2157727 C39.0998018,31.7924254 38.6769844,31.3690782 38.2536371,30.9457309 C38.0379896,30.7306133 37.8223422,30.514436 37.6066947,30.2987885 C37.4318454,30.1239392 37.4318454,29.9125305 37.6066947,29.7376812 C37.7010074,29.6428387 37.7958499,29.5479962 37.8949312,29.4489149 L37.7047163,29.2587001 C37.7656486,29.1982975 37.8244616,29.1437234 37.8774462,29.0838507 C37.8933416,29.065836 37.902349,29.0298064 37.8970505,29.0064932 C37.8085662,28.6658019 38.0671312,28.4077668 38.409412,28.4951914 C38.4321954,28.5015496 38.4687548,28.4904228 38.4867696,28.4745274 C38.5450527,28.4231323 38.5980373,28.3664387 38.6573801,28.3065661 C38.7214915,28.3706775 38.7803045,28.4300203 38.8475949,28.4973108 C38.9562135,28.3886923 39.0590036,28.2832529 39.1644431,28.1804626 C39.2841883,28.0638964 39.4426124,28.0432325 39.5946783,28.1269482 C39.0929138,28.6287127 38.5937985,29.1283578 38.085146,29.6364805" id="Fill-307" fill="#C9C9C9" fill-rule="nonzero"></path>
                    <path d="M17.1396827,50.0154319 C16.7364696,50.418645 16.338555,50.8165599 15.9390508,51.216064 C16.190198,51.4666812 16.4355169,51.712 16.6861342,51.9620878 C17.0861682,51.5615236 17.4840829,51.1636091 17.8862363,50.7614558 C17.6372085,50.5124281 17.3929493,50.2681686 17.1396827,50.0154319 M18.7896244,52.8628265 L19.5213422,52.1311087 C19.6416173,52.0108337 19.6453262,51.9064539 19.5298197,51.7893576 C19.2929784,51.5503971 19.0556072,51.3130258 18.8166465,51.0767141 C18.7016698,50.9633272 18.5914618,50.9574988 18.4791344,51.0692966 C17.9816086,51.5631132 17.4851426,52.0590496 16.9918556,52.5576349 C16.8832371,52.6667834 16.8885355,52.777521 16.9960943,52.8861397 C17.235055,53.1277498 17.4750755,53.36777 17.7166854,53.6067309 C17.8311322,53.719588 17.935512,53.7164088 18.0499588,53.6030219 C18.2968672,53.3566435 18.5427159,53.1097348 18.7896244,52.8628265 M16.3782935,53.1690777 C16.0391918,52.8299759 15.6995602,52.4914043 15.3615182,52.1517726 C15.1532886,51.9435429 15.1548782,51.695045 15.365757,51.4836362 C15.9851475,50.864246 16.604008,50.2443256 17.2260477,49.6275847 C17.2631369,49.5899654 17.3277782,49.5629432 17.3807628,49.5613536 C17.6223727,49.5539356 17.8645125,49.5539356 18.1066524,49.5592342 C18.1569878,49.5602939 18.2189798,49.5820175 18.2534198,49.6164577 C18.8781087,50.2358483 19.4996185,50.8578878 20.1211283,51.4809873 C20.3203505,51.6807394 20.3229997,51.9329462 20.1232477,52.1332281 C19.4355071,52.823618 18.7461769,53.5129482 18.0557871,54.2001586 C17.856035,54.3993812 17.6054177,54.3951424 17.4035462,54.1943306 C17.0612655,53.8531094 16.7200444,53.5113587 16.3782935,53.1690777" id="Fill-309" fill="#C9C9C9" fill-rule="nonzero"></path>
                    <path d="M17.290265,51.0528711 C17.1440274,50.9066336 17.0009689,50.7635752 16.8520821,50.6146884 C16.9458649,50.5209053 17.0401776,50.4260629 17.1403185,50.3264519 L17.5785015,50.7646349 L17.290265,51.0528711 Z" id="Fill-311" fill="#C9C9C9" fill-rule="nonzero"></path>
                    <path d="M28.9789941,41.4287416 C28.9874717,41.4372191 28.9943597,41.4435773 29.0012477,41.4504653 C29.1443062,41.5940536 29.2873647,41.737642 29.431483,41.8807005 C29.4616842,41.910372 29.4770498,41.944812 29.4632737,41.9866698 C29.4489679,42.0306471 29.4145279,42.0476022 29.3705506,42.0518409 C28.7400334,42.117012 28.1089864,42.182713 27.4784692,42.2478841 C27.4000519,42.2563616 27.355015,42.2113247 27.3624328,42.1323776 C27.4281338,41.5018604 27.4938347,40.8708133 27.558476,40.2397663 C27.5632446,40.1973786 27.5796698,40.1634684 27.6215277,40.1486327 C27.6649751,40.1327373 27.6994151,40.1481029 27.7306761,40.1793638 C27.8737346,40.323482 28.0183826,40.4676002 28.161971,40.6111886 C28.168859,40.6180766 28.1752172,40.6244348 28.1831649,40.6329123 C28.2266123,40.5947634 28.2679403,40.5571443 28.310328,40.5216446 C28.6134001,40.2657288 28.9514421,40.0813422 29.345118,40.0087533 C29.6842197,39.9467612 30.0169632,39.9764327 30.3444083,40.0781632 C30.6644355,40.1772444 30.9553211,40.3319596 31.2228936,40.5311818 C31.2928333,40.5825769 31.3590641,40.6392705 31.4258247,40.6943745 C31.4623841,40.7240459 31.4660931,40.7812693 31.4374813,40.8199481 C31.4072801,40.8602164 31.3521761,40.8692238 31.3097884,40.8427315 C31.2568037,40.8072318 31.2054087,40.768553 31.1487151,40.7394114 C30.9378362,40.6307929 30.7121217,40.5963529 30.4779295,40.6154274 C30.1928722,40.6398003 29.9327176,40.7399413 29.6868689,40.8814103 C29.4309531,41.0287076 29.2031191,41.213624 28.9901209,41.417085 C28.9874717,41.4192043 28.9848224,41.4223834 28.9789941,41.4287416" id="Fill-313" fill="#C9C9C9" fill-rule="nonzero"></path>
                    <polygon id="Fill-315" fill="#E5E5E5" fill-rule="nonzero" points="26.0053373 57.6257744 22.391785 61.2393269 21.4989938 60.3470655 25.1125461 56.7329836"></polygon>
                    <polygon id="Fill-317" fill="#E5E5E5" fill-rule="nonzero" points="28.8801778 54.7509342 28.5336582 55.0969237 27.6408671 54.2051922 27.9873867 53.858143"></polygon>
                    <polygon id="Fill-319" fill="#E5E5E5" fill-rule="nonzero" points="31.7549653 51.8756167 31.4089756 52.2221361 30.5161845 51.3298752 30.862704 50.9828255"></polygon>
                    <polygon id="Fill-321" fill="#E5E5E5" fill-rule="nonzero" points="34.6303356 49.0007761 34.2838161 49.3472959 33.3910249 48.4550346 33.7375445 48.1079849"></polygon>
                    <polygon id="Fill-323" fill="#E5E5E5" fill-rule="nonzero" points="37.5051761 46.1254061 37.1586566 46.4719255 36.2663953 45.5796641 36.612385 45.2326148"></polygon>
                    <polygon id="Fill-325" fill="#E5E5E5" fill-rule="nonzero" points="40.3804935 43.2505654 40.033974 43.5970849 39.1411828 42.7048236 39.4877023 42.3577742"></polygon>
                    <polygon id="Fill-327" fill="#E5E5E5" fill-rule="nonzero" points="43.255334 40.375248 42.9088145 40.7217676 42.0160233 39.8300361 42.3625428 39.4829867"></polygon>
                    <polygon id="Fill-329" fill="#E5E5E5" fill-rule="nonzero" points="46.1307042 37.5004075 45.7841848 37.8469271 44.8913936 36.9546657 45.2379134 36.6076164"></polygon>
                    <polygon id="Fill-331" fill="#E5E5E5" fill-rule="nonzero" points="49.0055448 34.625567 48.6590254 34.9715567 47.7662342 34.0798253 48.1127536 33.7327759"></polygon>
                    <polygon id="Fill-333" fill="#E5E5E5" fill-rule="nonzero" points="51.8803324 31.7502497 51.5343425 32.0967692 50.6415517 31.2045079 50.9880711 30.8574585"></polygon>
                    <polygon id="Fill-335" fill="#E5E5E5" fill-rule="nonzero" points="54.7557029 28.8754092 54.4091831 29.2219287 53.5163919 28.3296674 53.8629117 27.982618"></polygon>
                    <polygon id="Fill-337" fill="#E5E5E5" fill-rule="nonzero" points="60.8975762 22.7335359 57.2840237 26.3465584 56.3917623 25.4542971 60.004785 21.8407447"></polygon>
                    <path d="M110.693281,113.817944 C109.595439,112.720632 108.500247,111.62491 107.402935,110.527598 C108.220488,109.710045 109.037511,108.893551 109.857713,108.07282 C109.859832,108.086066 109.862482,108.095073 109.862482,108.10461 C109.862482,108.394436 109.863011,108.684262 109.860892,108.973558 C109.860892,108.994752 109.846056,109.020715 109.830691,109.03714 C109.34906,109.51983 108.8669,110.00199 108.38474,110.484151 L108.344472,110.523889 L110.69434,112.873758 C111.475334,112.092764 112.257387,111.311241 113.044209,110.523889 C113.033082,110.513292 113.021426,110.500576 113.008709,110.488919 C112.526019,110.005699 112.042799,109.522479 111.55905,109.039789 C111.535207,109.015946 111.52514,108.992103 111.52514,108.958193 C111.526729,108.680553 111.526199,108.402384 111.52567,108.124745 C111.52567,108.109379 111.519841,108.092954 111.516662,108.077588 C111.521961,108.076529 111.527789,108.075999 111.533617,108.075469 L113.984687,110.526538 L110.693281,113.817944 Z" id="Fill-339" fill="#C9C9C9" fill-rule="nonzero"></path>
                    <path d="M110.196073,107.668335 C110.528816,107.668865 110.858381,107.669395 111.191654,107.669924 C111.192184,107.676282 111.193774,107.687409 111.193774,107.698536 C111.193774,108.776773 111.193774,109.855011 111.192184,110.933248 C111.192184,110.968218 111.181057,111.006897 111.163572,111.036568 C111.014686,111.289835 110.86262,111.540982 110.711614,111.792659 C110.707375,111.800077 110.702076,111.806965 110.693069,111.819681 C110.649091,111.747622 110.607764,111.679802 110.567495,111.611981 C110.449339,111.414879 110.330654,111.217776 110.213558,111.020143 C110.202961,111.002128 110.195543,110.978815 110.195543,110.958151 C110.195013,109.867727 110.195013,108.777833 110.195013,107.687409 C110.195013,107.681051 110.195543,107.675752 110.196073,107.668335" id="Fill-341" fill="#C9C9C9" fill-rule="nonzero"></path>
                    <path d="M111.184342,107.325259 C110.857957,107.325259 110.528393,107.325259 110.19088,107.325789 C110.195119,107.186969 110.186641,107.04497 110.206776,106.906151 C110.243335,106.656593 110.474348,106.484923 110.729204,106.500289 C110.973993,106.515654 111.177454,106.715406 111.190171,106.961255 C111.195999,107.08259 111.186992,107.204454 111.184342,107.325259" id="Fill-343" fill="#C9C9C9" fill-rule="nonzero"></path>
                    <path d="M121.121029,102.173775 L118.041031,105.253242 C117.998644,105.29563 117.930823,105.29563 117.888436,105.253242 L115.49406,102.859396 C115.452202,102.817538 115.452202,102.748658 115.49406,102.70733 L116.621573,101.579817 C116.864242,101.337147 117.364418,101.551205 117.637818,101.278334 C117.819556,101.097127 118.931703,99.9844494 118.931703,99.9844494 C118.973561,99.9425917 119.041911,99.9425917 119.083769,99.9844494 L121.121029,102.021179 C121.162356,102.063037 121.162356,102.131917 121.121029,102.173775" id="Fill-345" fill="#CECECE" fill-rule="nonzero"></path>
                    <polygon id="Fill-347" fill="#CECECE" fill-rule="nonzero" points="100.747269 117.071042 102.187922 117.55956 103.406569 116.649814 103.386964 118.170473 104.628394 119.048428 103.176615 119.499858 102.724656 120.952166 101.846701 119.710206 100.326042 119.73034 101.235788 118.511164"></polygon>
                    <path d="M126.694747,94.9054483 C126.551159,95.0490365 126.483868,95.2403109 126.492346,95.4284065 L124.907046,95.9566633 C124.890091,95.9354695 124.872076,95.9148056 124.852472,95.8952014 C124.832867,95.8755967 124.812203,95.857582 124.791009,95.841157 L125.318736,94.2553265 C125.507362,94.2643341 125.698636,94.1965139 125.842225,94.0529252 C126.113506,93.781644 126.113506,93.3418714 125.842225,93.0705902 C125.570943,92.7993089 125.131171,92.7993089 124.859889,93.0705902 C124.588608,93.3418714 124.588608,93.781644 124.859889,94.0529252 C124.884262,94.0772981 124.910225,94.0995516 124.936717,94.1191563 L124.411639,95.6938598 C124.217716,95.6800835 124.018493,95.746844 123.870136,95.8952014 C123.598855,96.1664826 123.598855,96.6062552 123.870136,96.8775364 C124.141948,97.1482878 124.58119,97.1482878 124.852472,96.8775364 C125.001359,96.7286496 125.068119,96.5299573 125.053813,96.3355034 L126.628517,95.8109556 C126.648651,95.8379778 126.670375,95.8639403 126.694747,95.8877834 C126.966029,96.1590646 127.405801,96.1590646 127.677083,95.8877834 C127.948364,95.6165022 127.948364,95.1767295 127.677083,94.9054483 C127.405801,94.6341667 126.966029,94.6341667 126.694747,94.9054483" id="Fill-349" fill="#C9C9C9" fill-rule="nonzero"></path>
                    <path d="M96.0775211,124.669463 C96.168655,124.577799 96.1681251,124.426793 96.0764614,124.337249 C95.9837385,124.246115 95.8348517,124.247175 95.7437183,124.339368 C95.6525844,124.431032 95.6531143,124.582568 95.7447775,124.672112 C95.8380308,124.762716 95.9863877,124.761656 96.0775211,124.669463 L96.0775211,124.669463 Z M95.3511019,124.286384 C95.3511019,124.286384 94.982329,123.914962 94.8053604,123.738522 C94.732771,123.666463 94.6426973,123.666993 94.5706383,123.739052 C94.1313955,124.177765 93.6926826,124.617008 93.2534402,125.056251 C93.1824405,125.12725 93.1829703,125.218913 93.2544999,125.290442 C93.4298791,125.466351 93.8007714,125.836714 93.8007714,125.836714 L95.3511019,124.286384 Z M96.1299759,125.065258 L94.5796454,126.615588 L95.4565414,127.492484 C95.5296602,127.565603 95.619204,127.566133 95.6923232,127.492484 C96.1310357,127.054301 97.0301852,126.154092 97.038133,126.140316 C97.0794608,126.074085 97.067804,126.002026 97.0079317,125.941624 C96.7218145,125.654977 96.1299759,125.065258 96.1299759,125.065258 L96.1299759,125.065258 Z M94.9097397,127.389164 C94.8705313,127.427843 94.8350314,127.463343 94.7995319,127.498842 C94.6257424,127.671572 94.3449238,127.68058 94.1615968,127.518447 C94.1414628,127.500432 93.6873845,127.047943 93.4812742,126.840243 C93.3445736,126.702483 93.3037756,126.538761 93.3583499,126.353314 C93.3795437,126.282845 93.4176924,126.221913 93.4701472,126.169988 L93.5803554,126.05978 C93.5713479,126.050242 93.2068134,125.687298 93.0330238,125.512448 C92.87513,125.353494 92.8433391,125.123541 92.9540767,124.934386 C92.9752709,124.899416 93.0012334,124.865506 93.0303746,124.836364 C93.4706771,124.394473 93.9115094,123.95364 94.3528712,123.513338 C94.5187133,123.348556 94.7645619,123.327362 94.9574263,123.458234 C94.9828589,123.475189 95.5656899,124.055901 95.5752268,124.064908 C95.6149656,124.025169 95.6499352,123.984901 95.6912635,123.950991 C95.7310017,123.917081 95.7728595,123.883701 95.8189565,123.860387 C95.9922161,123.772963 96.2073335,123.806343 96.3456236,123.942513 C96.5739874,124.168228 96.8012915,124.394473 97.0264762,124.623896 C97.2039747,124.804044 97.199206,125.098108 97.0211776,125.276667 C96.9830289,125.315875 96.9448797,125.353494 96.9046116,125.393763 C96.9136187,125.4033 97.130856,125.620007 97.2320566,125.721737 C97.4217414,125.912482 97.4217414,126.207607 97.2315268,126.398352 C96.792284,126.837594 96.3535715,127.276837 95.9137988,127.71555 C95.7426586,127.88669 95.4867427,127.906824 95.2912291,127.763766 C95.2684458,127.74787 95.2488415,127.727206 95.2281776,127.707602 C95.1296262,127.60958 94.9187472,127.398171 94.9097397,127.389164 L94.9097397,127.389164 Z" id="Fill-351" fill="#C9C9C9" fill-rule="nonzero"></path>
                    <polygon id="Fill-353" fill="#C9C9C9" fill-rule="nonzero" points="95.2465102 126.829223 95.0271539 126.609866 96.1324133 125.504607 96.35177 125.723963"></polygon>
                    <polygon id="Fill-355" fill="#C9C9C9" fill-rule="nonzero" points="95.5688686 127.151581 95.3495123 126.932225 95.9636044 126.318133 96.1829606 126.537489"></polygon>
                    <polygon id="Fill-357" fill="#FFFFFF" fill-rule="nonzero" points="117.628387 79.4638171 79.1223309 117.969873 25.8838965 64.7309084 64.3899525 26.2253825"></polygon>
                    <polygon id="Stroke-359" stroke="#D3D3D3" stroke-width="0.770000004" points="117.628387 79.4638171 79.1223309 117.969873 25.8838965 64.7309084 64.3899525 26.2253825"></polygon>
                    <path d="M97.5475269,96.7045416 L96.3627905,97.8887482 C96.229799,98.0217397 96.0125622,98.0217397 95.8795706,97.8887482 L95.8647351,97.8744425 C95.7317435,97.741451 95.7317435,97.5242137 95.8647351,97.3912226 L97.0494715,96.2064858 C97.182463,96.0734947 97.4002297,96.0734947 97.5332212,96.2064858 L97.5475269,96.2207919 C97.6805184,96.3537834 97.6805184,96.5715501 97.5475269,96.7045416" id="Fill-361" fill="#C9C9C9" fill-rule="nonzero"></path>
                    <path d="M65.650139,34.7337087 L50.7392023,49.6446456 C50.6517775,49.73207 50.5087191,49.73207 50.4212942,49.6446456 L50.4117573,49.6345783 C50.3243324,49.5471539 50.3243324,49.4040951 50.4117573,49.3166707 L65.3226939,34.4057338 C65.4101188,34.3183091 65.5531772,34.3183091 65.640602,34.4057338 L65.650139,34.415271 C65.7375638,34.5026956 65.7375638,34.6457542 65.650139,34.7337087" id="Fill-363" fill="#C9C9C9" fill-rule="nonzero"></path>
                    <path d="M67.1124093,36.1959787 L52.2014722,51.1069155 C52.1140478,51.1943403 51.9715188,51.1943403 51.8840944,51.1069155 L51.8740272,51.0973785 C51.7866028,51.0099537 51.7866028,50.8663654 51.8740272,50.7789406 L66.7849643,35.8685336 C66.8723887,35.781109 67.015447,35.781109 67.1028719,35.8685336 L67.1124093,35.8775411 C67.1998337,35.9649657 67.1998337,36.1085541 67.1124093,36.1959787" id="Fill-365" fill="#C9C9C9" fill-rule="nonzero"></path>
                    <path d="M68.575156,37.6582488 L53.6642194,52.5691858 C53.5767945,52.65714 53.4337362,52.65714 53.3463113,52.5691858 L53.3367739,52.5596484 C53.2493495,52.472224 53.2493495,52.3286353 53.3367739,52.2412109 L68.247711,37.3308037 C68.3351354,37.243379 68.4781942,37.243379 68.5656186,37.3308037 L68.575156,37.3403409 C68.6625809,37.4277656 68.6625809,37.5708241 68.575156,37.6582488" id="Fill-367" fill="#C9C9C9" fill-rule="nonzero"></path>
                    <path d="M70.0374259,39.1209957 L55.1264892,54.0319325 C55.0390644,54.1193574 54.8965359,54.1193574 54.809111,54.0319325 L54.7990442,54.0223951 C54.7116194,53.9349707 54.7116194,53.7913825 54.7990442,53.7039577 L69.7099809,38.7935506 C69.7974057,38.7061259 69.9404641,38.7061259 70.0278889,38.7935506 L70.0374259,38.802558 C70.1248508,38.8899827 70.1248508,39.033571 70.0374259,39.1209957" id="Fill-369" fill="#C9C9C9" fill-rule="nonzero"></path>
                    <path d="M71.5001731,40.5832657 L56.589236,55.4942024 C56.5018116,55.5816273 56.3587528,55.5816273 56.2713284,55.4942024 L56.261791,55.4846654 C56.1743666,55.3972406 56.1743666,55.2536524 56.261791,55.1662275 L71.1727281,40.2558207 C71.2601525,40.168396 71.4026814,40.168396 71.4901058,40.2558207 L71.5001731,40.2653579 C71.5875975,40.3527825 71.5875975,40.4958411 71.5001731,40.5832657" id="Fill-371" fill="#C9C9C9" fill-rule="nonzero"></path>
                    <path d="M72.962443,42.0460126 L58.0515063,56.9569496 C57.9640815,57.044374 57.8215529,57.044374 57.7341281,56.9569496 L57.7240613,56.9468823 C57.6366364,56.8594579 57.6366364,56.7163991 57.7240613,56.6289747 L72.6349979,41.7185676 C72.7224228,41.6311429 72.8654812,41.6311429 72.952906,41.7185676 L72.962443,41.727575 C73.0498678,41.8149996 73.0498678,41.958588 72.962443,42.0460126" id="Fill-373" fill="#C9C9C9" fill-rule="nonzero"></path>
                    <path d="M74.4251902,43.5082827 L59.514253,58.4192195 C59.4268282,58.5066443 59.2837698,58.5066443 59.1963454,58.4192195 L59.186808,58.4096825 C59.0993832,58.3222577 59.0993832,58.1786694 59.186808,58.0912446 L74.0977447,43.1808376 C74.1851695,43.0934129 74.3276981,43.0934129 74.4151229,43.1808376 L74.4251902,43.1903748 C74.5126146,43.2777995 74.5126146,43.420858 74.4251902,43.5082827" id="Fill-375" fill="#C9C9C9" fill-rule="nonzero"></path>
                    <path d="M75.88746,44.9710295 L60.9765229,59.8819667 C60.8890985,59.9693911 60.7465696,59.9693911 60.6591452,59.8819667 L60.6490779,59.8718994 C60.5616535,59.7844745 60.5616535,59.6414162 60.6490779,59.5539913 L75.560015,44.6435845 C75.6474394,44.5561597 75.7904982,44.5561597 75.8779226,44.6435845 L75.88746,44.6525921 C75.9748844,44.7400165 75.9748844,44.8836051 75.88746,44.9710295" id="Fill-377" fill="#C9C9C9" fill-rule="nonzero"></path>
                    <path d="M77.3502068,46.4332994 L62.4392701,61.3442365 C62.3518453,61.4316609 62.2087869,61.4316609 62.121362,61.3442365 L62.1118251,61.3346991 C62.0244002,61.2472747 62.0244002,61.1036861 62.1118251,61.0162617 L77.0227618,46.1058544 C77.1101866,46.01843 77.2527151,46.01843 77.34014,46.1058544 L77.3502068,46.1153918 C77.4376316,46.2028167 77.4376316,46.345875 77.3502068,46.4332994" id="Fill-379" fill="#C9C9C9" fill-rule="nonzero"></path>
                    <path d="M78.8124771,47.8960466 L63.90154,62.8069833 C63.8141156,62.8944081 63.6715866,62.8944081 63.5841622,62.8069833 L63.574095,62.7969165 C63.4866706,62.7094916 63.4866706,62.5664332 63.574095,62.4790084 L78.4850321,47.5686016 C78.5724565,47.4811767 78.7155148,47.4811767 78.8029397,47.5686016 L78.8124771,47.5776087 C78.8999015,47.6650335 78.8999015,47.8086218 78.8124771,47.8960466" id="Fill-381" fill="#C9C9C9" fill-rule="nonzero"></path>
                    <path d="M93.9462141,63.029784 L79.0352774,77.9407207 C78.9478525,78.0281455 78.805324,78.0281455 78.7178992,77.9407207 L78.7078324,77.9311833 C78.6204075,77.8437589 78.6204075,77.7001702 78.7078324,77.6127458 L93.618769,62.7023386 C93.7061939,62.6149142 93.8492523,62.6149142 93.9366771,62.7023386 L93.9462141,62.7113461 C94.0336389,62.798771 94.0336389,62.9423592 93.9462141,63.029784" id="Fill-383" fill="#C9C9C9" fill-rule="nonzero"></path>
                    <path d="M95.4090142,64.4920539 L80.4980771,79.4029906 C80.4106527,79.4904154 80.2675939,79.4904154 80.1801695,79.4029906 L80.1706321,79.3934536 C80.0832077,79.3060288 80.0832077,79.1624405 80.1706321,79.0750157 L95.0815692,64.1646089 C95.1689936,64.077184 95.3115226,64.077184 95.3994768,64.1646089 L95.4090142,64.1741458 C95.4964386,64.2615707 95.4964386,64.404629 95.4090142,64.4920539" id="Fill-385" fill="#C9C9C9" fill-rule="nonzero"></path>
                    <path d="M96.8712311,65.9548006 L81.9602945,80.8657378 C81.8728696,80.9531622 81.7303411,80.9531622 81.6429163,80.8657378 L81.6328494,80.8562003 C81.5454246,80.7687759 81.5454246,80.6251873 81.6328494,80.5377629 L96.5437861,65.6273556 C96.631211,65.5399312 96.7742693,65.5399312 96.8616937,65.6273556 L96.8712311,65.6363632 C96.958656,65.7237876 96.958656,65.8673762 96.8712311,65.9548006" id="Fill-387" fill="#C9C9C9" fill-rule="nonzero"></path>
                    <path d="M98.3340309,67.417071 L83.4230942,82.3280076 C83.3356693,82.4154325 83.192611,82.4154325 83.1051866,82.3280076 L83.0956492,82.3184707 C83.0082243,82.2310458 83.0082243,82.0874576 83.0956492,82.0000327 L98.0065858,67.0896259 C98.0940107,67.0022011 98.2365392,67.0022011 98.323964,67.0896259 L98.3340309,67.0991629 C98.4214557,67.1865877 98.4214557,67.3296461 98.3340309,67.417071" id="Fill-389" fill="#C9C9C9" fill-rule="nonzero"></path>
                    <path d="M99.7962482,68.8798177 L84.8853111,83.7907548 C84.7978867,83.8781792 84.6553577,83.8781792 84.5679333,83.7907548 L84.5578661,83.7806876 C84.4704417,83.6932627 84.4704417,83.5502043 84.5578661,83.4627795 L99.4688032,68.5523727 C99.5562276,68.4649478 99.6992864,68.4649478 99.7867108,68.5523727 L99.7962482,68.5613802 C99.8836726,68.6488046 99.8836726,68.7923929 99.7962482,68.8798177" id="Fill-391" fill="#C9C9C9" fill-rule="nonzero"></path>
                    <path d="M101.259048,70.3420876 L86.3481113,85.2530247 C86.2606864,85.3404491 86.117628,85.3404491 86.0302032,85.2530247 L86.0206662,85.2434873 C85.9332414,85.1560629 85.9332414,85.0124742 86.0206662,84.9250498 L100.931603,70.0146426 C101.019028,69.9272182 101.161556,69.9272182 101.248981,70.0146426 L101.259048,70.02418 C101.346473,70.1116044 101.346473,70.2546632 101.259048,70.3420876" id="Fill-393" fill="#C9C9C9" fill-rule="nonzero"></path>
                    <path d="M102.721265,71.8048348 L87.8103281,86.7157714 C87.7229037,86.8031963 87.5803748,86.8031963 87.4929504,86.7157714 L87.4828831,86.7057046 C87.3954583,86.6182798 87.3954583,86.4752214 87.4828831,86.3877966 L102.39382,71.4773897 C102.481245,71.3899649 102.624303,71.3899649 102.711728,71.4773897 L102.721265,71.4863968 C102.80869,71.5738217 102.80869,71.7174099 102.721265,71.8048348" id="Fill-395" fill="#C9C9C9" fill-rule="nonzero"></path>
                    <path d="M104.184065,73.2671046 L89.2731279,88.1780418 C89.1857035,88.2654662 89.0426451,88.2654662 88.9552203,88.1780418 L88.9456829,88.1685043 C88.8582584,88.0810795 88.8582584,87.9374913 88.9456829,87.8500669 L103.85662,72.9396596 C103.944044,72.8522352 104.086573,72.8522352 104.173998,72.9396596 L104.184065,72.949197 C104.27149,73.0366214 104.27149,73.1796802 104.184065,73.2671046" id="Fill-397" fill="#C9C9C9" fill-rule="nonzero"></path>
                    <path d="M105.646282,74.7298518 L90.7353452,89.6407885 C90.6479204,89.7282133 90.5053919,89.7282133 90.417967,89.6407885 L90.4079002,89.6307212 C90.3204753,89.5432968 90.3204753,89.400238 90.4079002,89.3128136 L105.318837,74.4024064 C105.406262,74.314982 105.54932,74.314982 105.636745,74.4024064 L105.646282,74.4114139 C105.733707,74.4988388 105.733707,74.642427 105.646282,74.7298518" id="Fill-399" fill="#C9C9C9" fill-rule="nonzero"></path>
                    <path d="M107.109082,76.1921217 L92.1981449,91.1030584 C92.1107205,91.1904832 91.9676617,91.1904832 91.8802373,91.1030584 L91.8706999,91.0935214 C91.7832755,91.0060966 91.7832755,90.8625083 91.8706999,90.7750835 L106.781637,75.8646767 C106.869061,75.7772518 107.01159,75.7772518 107.099015,75.8646767 L107.109082,75.8742136 C107.196506,75.9616385 107.196506,76.1046969 107.109082,76.1921217" id="Fill-401" fill="#C9C9C9" fill-rule="nonzero"></path>
                    <path d="M77.6457024,79.3303487 L62.7347653,94.2412858 C62.6473409,94.3287102 62.5048119,94.3287102 62.4168577,94.2412858 L62.4073203,94.2317484 C62.3198954,94.144324 62.3198954,94.0007353 62.4073203,93.9133109 L77.3182574,79.0029037 C77.4056818,78.9154793 77.5487401,78.9154793 77.636165,79.0029037 L77.6457024,79.0124411 C77.7331268,79.0998655 77.7331268,79.2429243 77.6457024,79.3303487" id="Fill-403" fill="#C9C9C9" fill-rule="nonzero"></path>
                    <path d="M79.1084491,80.7930959 L64.1975125,95.7040325 C64.1100876,95.7914574 63.9670293,95.7914574 63.8796044,95.7040325 L63.870067,95.6939653 C63.7826426,95.6065409 63.7826426,95.4634825 63.870067,95.3760577 L78.7810041,80.4656509 C78.8684285,80.378226 79.0109575,80.378226 79.0983819,80.4656509 L79.1084491,80.474658 C79.195874,80.5620828 79.195874,80.705671 79.1084491,80.7930959" id="Fill-405" fill="#C9C9C9" fill-rule="nonzero"></path>
                    <path d="M80.570719,82.2553657 L65.6597823,97.1663024 C65.5723575,97.2537273 65.4292991,97.2537273 65.3418743,97.1663024 L65.3323373,97.1567655 C65.2449125,97.0693406 65.2449125,96.9257524 65.3323373,96.8383275 L80.243274,81.9279207 C80.3306988,81.8404959 80.4737572,81.8404959 80.5611821,81.9279207 L80.570719,81.9374581 C80.6581439,82.0248825 80.6581439,82.1679409 80.570719,82.2553657" id="Fill-407" fill="#C9C9C9" fill-rule="nonzero"></path>
                    <path d="M82.0334662,83.7181125 L67.1225291,98.6290496 C67.0351047,98.716474 66.8920459,98.716474 66.8046215,98.6290496 L66.7945542,98.6189823 C66.7071298,98.5315579 66.7071298,98.3884991 66.7945542,98.3010747 L81.7060212,83.3906675 C81.7934456,83.3032431 81.9359745,83.3032431 82.0233989,83.3906675 L82.0334662,83.399675 C82.1208906,83.4870994 82.1208906,83.6306881 82.0334662,83.7181125" id="Fill-409" fill="#C9C9C9" fill-rule="nonzero"></path>
                    <path d="M83.4957361,85.1803828 L68.5847994,100.091319 C68.4973746,100.178744 68.3543162,100.178744 68.2668913,100.091319 L68.2573544,100.081783 C68.1699295,99.9943577 68.1699295,99.8512993 68.2573544,99.7633446 L83.1682911,84.8529378 C83.2557159,84.7655129 83.3987743,84.7655129 83.4861991,84.8529378 L83.4957361,84.8624747 C83.5831609,84.9498996 83.5831609,85.092958 83.4957361,85.1803828" id="Fill-411" fill="#C9C9C9" fill-rule="nonzero"></path>
                    <path d="M84.9584828,86.6431296 L70.0470163,101.554067 C69.9595914,101.641491 69.8170629,101.641491 69.7296385,101.554067 L69.7195713,101.543999 C69.6321464,101.456575 69.6321464,101.314046 69.7195713,101.226092 L84.6305079,86.3156845 C84.7179328,86.2282597 84.8609912,86.2282597 84.948416,86.3156845 L84.9584828,86.3246921 C85.0459077,86.4121165 85.0459077,86.5557051 84.9584828,86.6431296" id="Fill-413" fill="#C9C9C9" fill-rule="nonzero"></path>
                    <path d="M86.4207531,88.1053999 L71.509816,103.016337 C71.4223916,103.103761 71.2793328,103.103761 71.1919084,103.016337 L71.182371,103.006799 C71.0949466,102.919375 71.0949466,102.776316 71.182371,102.688362 L86.0933081,87.7779544 C86.1807325,87.69053 86.3237913,87.69053 86.4112157,87.7779544 L86.4207531,87.7874918 C86.5081775,87.8749167 86.5081775,88.017975 86.4207531,88.1053999" id="Fill-415" fill="#C9C9C9" fill-rule="nonzero"></path>
                    <path d="M87.883023,89.5681466 L72.9720863,104.479083 C72.8846615,104.566508 72.742133,104.566508 72.6547081,104.479083 L72.6446413,104.469016 C72.5572165,104.381592 72.5572165,104.239063 72.6446413,104.151108 L87.555578,89.2407016 C87.6430028,89.1532767 87.7860612,89.1532767 87.8734861,89.2407016 L87.883023,89.2497087 C87.9704479,89.3371335 87.9704479,89.4807218 87.883023,89.5681466" id="Fill-417" fill="#C9C9C9" fill-rule="nonzero"></path>
                    <path d="M89.3457702,91.0304165 L74.4348331,105.941354 C74.3474087,106.028778 74.2043499,106.028778 74.1169255,105.941354 L74.1073881,105.931816 C74.0199632,105.844392 74.0199632,105.701333 74.1073881,105.613379 L89.0183252,90.7029715 C89.1057496,90.6155471 89.2482781,90.6155471 89.3362328,90.7029715 L89.3457702,90.711979 C89.4331946,90.7994034 89.4331946,90.9429921 89.3457702,91.0304165" id="Fill-419" fill="#C9C9C9" fill-rule="nonzero"></path>
                    <path d="M90.8080401,92.4931637 L75.8971034,107.4041 C75.8096786,107.491525 75.66715,107.491525 75.5797252,107.4041 L75.5696579,107.394033 C75.4822335,107.306609 75.4822335,107.16408 75.5696579,107.076125 L90.4805951,92.1657187 C90.5680195,92.077764 90.7110783,92.077764 90.7985027,92.1657187 L90.8080401,92.1747258 C90.8954649,92.2621506 90.8954649,92.4057388 90.8080401,92.4931637" id="Fill-421" fill="#C9C9C9" fill-rule="nonzero"></path>
                    <path d="M80.2752768,49.3583165 L65.3643402,64.2692536 C65.2769153,64.356678 65.1338569,64.356678 65.0464321,64.2692536 L65.0368947,64.2597162 C64.9494703,64.1722918 64.9494703,64.0287031 65.0368947,63.9412787 L79.9478318,49.0308715 C80.0352562,48.9434471 80.1777852,48.9434471 80.2652096,49.0308715 L80.2752768,49.0404089 C80.3627017,49.1278333 80.3627017,49.2708921 80.2752768,49.3583165" id="Fill-423" fill="#C9C9C9" fill-rule="nonzero"></path>
                    <path d="M81.7374937,50.8210637 L66.826557,65.7320003 C66.7391322,65.8194252 66.5966037,65.8194252 66.5091788,65.7320003 L66.499112,65.7219331 C66.4116872,65.6345087 66.4116872,65.4914503 66.499112,65.4040255 L81.4100487,50.4936182 C81.4974735,50.4061938 81.6405319,50.4061938 81.7279568,50.4936182 L81.7374937,50.5026258 C81.8249186,50.5900506 81.8249186,50.7336388 81.7374937,50.8210637" id="Fill-425" fill="#C9C9C9" fill-rule="nonzero"></path>
                    <path d="M83.2002939,52.2833335 L68.2893568,67.1942702 C68.2019324,67.2816951 68.0588736,67.2816951 67.9714492,67.1942702 L67.9619118,67.1847333 C67.8744874,67.0973084 67.8744874,66.9537202 67.9619118,66.8662953 L82.8728489,51.9558885 C82.9602733,51.8684637 83.1028022,51.8684637 83.1902266,51.9558885 L83.2002939,51.9654255 C83.2877183,52.0528503 83.2877183,52.1959087 83.2002939,52.2833335" id="Fill-427" fill="#C9C9C9" fill-rule="nonzero"></path>
                    <path d="M84.6625108,53.7460803 L69.7515741,68.6570174 C69.6641493,68.7444418 69.5216208,68.7444418 69.433666,68.6570174 L69.4241291,68.6469501 C69.3367042,68.5595257 69.3367042,68.4164669 69.4241291,68.3290425 L84.3350658,53.4186353 C84.4224906,53.3312109 84.565549,53.3312109 84.6529738,53.4186353 L84.6625108,53.4276428 C84.7499356,53.5150672 84.7499356,53.6586559 84.6625108,53.7460803" id="Fill-429" fill="#C9C9C9" fill-rule="nonzero"></path>
                    <path d="M77.1127299,64.2204018 L71.2144798,70.1191813 C71.127055,70.2066062 70.9839966,70.2066062 70.8965722,70.1191813 L70.8870348,70.1096443 C70.7996099,70.0222195 70.7996099,69.8791611 70.8870348,69.7917363 L76.7852849,63.8929568 C76.8727093,63.8055319 77.0157677,63.8055319 77.1031925,63.8929568 L77.1127299,63.9024937 C77.2001543,63.9899186 77.2001543,64.1329769 77.1127299,64.2204018" id="Fill-431" fill="#C9C9C9" fill-rule="nonzero"></path>
                    <polygon id="Fill-433" fill="#EDEBEA" fill-rule="nonzero" points="49.2171656 50.4345406 34.0036863 65.6480195 37.4545758 69.098909 43.6839797 75.038487 58.7427436 60.0978788 54.4080704 55.6254454"></polygon>
                    <path d="M45.7928215,57.2630419 C46.2368325,57.7075828 46.2368325,58.4276442 45.7928215,58.8716552 C45.3482801,59.3161966 44.628749,59.3161966 44.1842077,58.8716552 C43.7396666,58.4276442 43.7396666,57.7075828 44.1842077,57.2630419 C44.6282192,56.8190304 45.3482801,56.8190304 45.7928215,57.2630419" id="Fill-435" fill="#FFFFFF" fill-rule="nonzero"></path>
                    <path d="M50.9732885,60.5202722 C51.0967427,60.1133502 50.9981913,59.6539738 50.6760444,59.3328866 C50.2118993,58.8682112 49.4589873,58.8682112 48.9948422,59.3328866 C48.6726953,59.6545036 48.5741439,60.1144099 48.6986577,60.5218618 C48.5137412,60.5446451 48.3351834,60.6267714 48.1937142,60.7687705 C47.9780669,60.9844178 47.9001795,61.2864302 47.9600518,61.5645995 C47.7825533,61.5985098 47.6071742,61.6562632 47.4408026,61.7357402 C47.1626333,61.4575704 46.7106744,61.4575704 46.4319752,61.7357402 C46.342431,61.8258139 46.2814984,61.9333728 46.249708,62.0472896 C45.6880708,61.9582756 45.0941128,62.1294159 44.6617581,62.5623004 C43.9443462,63.2791826 43.9443462,64.4411357 44.6617581,65.1585478 C44.2770898,65.5426865 44.2770898,66.1668453 44.6617581,66.5515139 C44.7751455,66.6649008 44.9097261,66.7443778 45.0517252,66.7904743 L51.2360921,60.6061075 C51.1502572,60.5721972 51.0623025,60.543056 50.9732885,60.5202722" id="Fill-437" fill="#FFFFFF" fill-rule="nonzero"></path>
                    <path d="M54.4080174,55.6253924 C53.0600882,56.4487739 50.9836203,57.8475684 49.1869113,62.1154811 C48.6528261,63.3844632 47.9979361,63.9815998 47.2354871,64.6232439 L42.9463806,64.8362419 L42.3301692,67.0223881 L37.995496,66.806211 L37.6807672,68.1408939 L37.4545228,69.098856 L40.9070019,72.5502754 L56.1199513,57.3367964 L54.4080174,55.6253924 Z" id="Fill-439" fill="#1B526E" fill-rule="nonzero"></path>
                    <path d="M53.5511499,59.8512355 C52.9412967,60.2242472 47.2237243,62.3266776 44.606813,67.7840953 C43.7013057,69.6729979 42.1223635,69.7323404 41.4431004,69.9008318 C40.9763058,70.0163381 39.9462844,70.0581962 39.2993419,70.9435695 L40.8607992,72.5050266 L47.7435038,65.622322 L53.5511499,59.8512355 Z" id="Fill-441" fill="#2D6D7C" fill-rule="nonzero"></path>
                    <path d="M51.2993029,54.2386787 C51.0100066,54.5274451 51.1673711,55.1531935 51.4561376,55.4419595 L50.8934406,56.1630806 L52.920103,54.1369481 L51.1922739,52.4096489 C50.7636282,52.9500924 50.7991276,53.7390337 51.2993029,54.2386787" id="Fill-443" fill="#FFFFFF" fill-rule="nonzero"></path>
                    <path d="M38.4649929,64.911692 C38.557716,64.6065005 38.4835375,64.2610408 38.2419275,64.0194311 C37.8932886,63.6707918 37.3279425,63.6707918 36.9787738,64.0194311 C36.7371638,64.2610408 36.6635152,64.6075602 36.7567681,64.9127517 C36.6184782,64.930237 36.4844271,64.9916989 36.3779279,65.0981981 C36.215795,65.2603313 36.1575119,65.4871055 36.202019,65.6953348 C36.0690275,65.7212973 35.9370958,65.7642151 35.8125819,65.8246173 C35.6032926,65.6153283 35.263661,65.6153283 35.0543717,65.8246173 C34.987611,65.8919081 34.9420443,65.9729747 34.9176713,66.0582797 C34.7544786,66.0323172 34.587577,66.0360262 34.4249142,66.0694066 L35.9974982,67.6414608 L39.7106617,63.9288271 C39.6460205,63.9023348 38.5322834,64.9286474 38.4649929,64.911692" id="Fill-445" fill="#FFFFFF" fill-rule="nonzero"></path>
                    <polygon id="Fill-447" fill="#91CECE" fill-rule="nonzero" points="58.8635489 60.0809769 43.6500696 75.2944558 40.8450628 72.4889194 56.0585419 57.2754401"></polygon>
                    <path d="M43.6729059,73.0715385 C48.2179281,68.527046 52.5038555,65.1752378 54.2210879,64.7227491 L55.4450327,63.4993337 C54.0880963,63.4214462 49.4492914,66.9534023 44.5047647,71.8984585 C43.7746364,72.6285867 43.075769,73.3512974 42.4145208,74.0586422 L42.5596987,74.2043499 C42.9221136,73.8292187 43.2930061,73.4514383 43.6729059,73.0715385" id="Fill-449" fill="#6EB3B7" fill-rule="nonzero"></path>
                    <path d="M54.2211939,64.722802 C52.5039614,65.1752908 48.2180341,68.527099 43.6730119,73.0715915 C43.2931121,73.4514913 42.9222196,73.8292717 42.5598047,74.2044029 L43.6502285,75.2942968 L54.2211939,64.722802 Z" id="Fill-451" fill="#4C949B" fill-rule="nonzero"></path>
                    <path d="M47.6680007,65.5470838 L40.785826,72.4292586 L41.1355246,72.7794869 C41.9287046,72.0398218 42.3536414,71.3928791 42.6053185,71.0627848 C42.9714423,70.5822142 43.6205041,69.5924611 45.1279171,68.3054644 C47.9504089,65.8951932 53.4226622,60.2062325 56.1036847,57.3212187 L55.9955964,57.2126005 L47.6680007,65.5470838 Z" id="Fill-453" fill="#6EB3B7" fill-rule="nonzero"></path>
                    <polygon id="Fill-455" fill="#387E89" fill-rule="nonzero" points="44.7108749 74.2331206 42.4441922 69.1254014 47.5513813 71.3926142"></polygon>
                    <polygon id="Fill-457" fill="#387E89" fill-rule="nonzero" points="49.6817876 69.2622079 41.6122274 64.6149252 46.2595099 72.6844856"></polygon>
                    <polygon id="Fill-459" fill="#2D6D7C" fill-rule="nonzero" points="42.4440332 69.1256133 44.7107159 74.2333325 45.7698791 73.1741697"></polygon>
                    <polygon id="Fill-461" fill="#2D6D7C" fill-rule="nonzero" points="41.6120154 64.6146603 46.2592979 72.6842207 47.5870931 71.3569553"></polygon>
                    <polygon id="Fill-463" fill="#246377" fill-rule="nonzero" points="47.6850616 55.902714 53.2971946 65.6471188 57.4299963 61.5143171"></polygon>
                    <polygon id="Fill-465" fill="#1B526E" fill-rule="nonzero" points="47.6850616 55.902714 55.7556817 63.1886316 56.7046368 62.239677 57.4299963 61.5143171"></polygon>
                    <polygon id="Fill-467" fill="#ECEBE9" fill-rule="nonzero" points="45.3695799 77.0231327 55.0170228 86.6705756 70.2342112 71.4533877 60.5867682 61.8059448"></polygon>
                    <path d="M48.8720234,78.7073555 L55.7711535,71.8082258 C55.7711535,71.8082258 54.8931978,71.6180108 54.7978256,72.4456311 C54.1238607,72.2050806 53.6978643,72.6225998 53.6395815,72.8695081 C53.0843021,72.6437936 52.2164141,72.4334444 51.4502562,73.7421648 C50.9151113,73.2070203 50.3110865,73.9101264 50.5807781,74.431495 C49.7860084,74.3366526 49.1088649,75.7052458 49.8474708,76.3495392 C49.2815947,76.4454413 49.2858336,77.2073604 49.656196,77.3800902 L48.8720234,78.7073555 Z" id="Fill-469" fill="#FFFFFF" fill-rule="nonzero"></path>
                    <polygon id="Fill-471" fill="#E1D8D3" fill-rule="nonzero" points="65.9047302 67.1247015 60.1553673 65.6109305 61.4916397 72.8846615 55.910238 73.8346762 54.4849511 79.8918799 49.3422623 80.9966099 54.1972448 85.851592 69.4144327 70.6344041"></polygon>
                    <polygon id="Fill-473" fill="#FFFFFF" fill-rule="nonzero" points="57.0955042 74.9445983 55.4264882 75.8903742 55.910238 73.8345703 57.9776987 73.4827523"></polygon>
                    <polygon id="Fill-475" fill="#FFFFFF" fill-rule="nonzero" points="62.3225977 67.4967599 60.7028574 68.5887729 60.1555262 65.6105067 63.0998826 66.3856717"></polygon>
                    <path d="M70.2340522,71.4535467 L55.0168639,86.6707346 L49.2436579,80.8969988 C54.2671315,79.2783177 63.0906631,72.7018644 66.0397882,67.2598125 L70.2340522,71.4535467 Z" id="Fill-477" fill="#D7AD83" fill-rule="nonzero"></path>
                    <path d="M70.2340522,71.4535467 L55.0168639,86.6707346 L51.5606759,83.2140167 C57.6915286,76.9713666 61.4809901,75.0114648 62.9968804,76.2883947 L70.2340522,71.4535467 Z" id="Fill-479" fill="#C59264" fill-rule="nonzero"></path>
                    <polygon id="Fill-481" fill="#8C5044" fill-rule="nonzero" points="64.7446316 76.9429138 64.7022441 76.9233096 64.7250274 76.9625185"></polygon>
                    <path d="M62.101122,68.6532024 L58.0244841,72.7298403 L58.5394945,71.8905636 C58.5394945,71.8905636 58.1659529,71.6500136 58.6338075,71.1821591 C58.2835791,70.1876373 59.2484294,69.9243039 59.2484294,69.9243039 C59.0725199,69.3981666 59.9907438,68.5604795 60.6069553,69.2651751 C60.6069553,69.2651751 60.8279011,68.6086955 61.2952258,69.1056912 L62.101122,68.6532024 Z" id="Fill-483" fill="#FFFFFF" fill-rule="nonzero"></path>
                    <path d="M60.8339414,75.6933245 C57.131375,78.5354205 54.4630685,81.8840496 52.7166949,84.3706186 L54.9028412,86.5567649 C58.0522481,83.0661367 61.2583483,75.3674686 60.8339414,75.6933245" id="Fill-485" fill="#EFCDAF" fill-rule="nonzero"></path>
                    <path d="M57.2921305,67.9210608 C57.7366714,68.3656017 57.7366714,69.0856631 57.2921305,69.530204 C56.848119,69.9747453 56.1280576,69.9742155 55.6835167,69.530204 C55.2389754,69.0856631 55.2389754,68.3656017 55.6835167,67.9210608 C56.1275278,67.4765194 56.8475892,67.4770493 57.2921305,67.9210608" id="Fill-487" fill="#FFFFFF" fill-rule="nonzero"></path>
                    <path d="M70.235059,71.452487 L55.0178706,86.6696749 L54.0604383,85.7117127 C56.6911255,80.2595935 61.6383011,74.4381712 67.2880533,68.5049515 L70.235059,71.452487 Z" id="Fill-489" fill="#B28057" fill-rule="nonzero"></path>
                    <polygon id="Fill-491" fill="#724F4E" fill-rule="nonzero" points="63.7165175 77.971028 55.1261183 69.500374 58.8403416 75.9507235 59.1974581 75.1956925 59.3177331 76.7799334 61.3210823 80.2567853 61.3957906 80.291225"></polygon>
                    <polygon id="Fill-493" fill="#623F3D" fill-rule="nonzero" points="59.0043288 72.8360746 60.045477 72.3332505 55.1263833 69.500162 63.7167824 77.970816 65.9522043 75.7353941 60.7724261 72.7518289"></polygon>
                    <polygon id="Fill-495" fill="#724F4E" fill-rule="nonzero" points="66.5106624 75.176936 60.6065844 69.3549838 63.1593841 73.7882088 63.4052331 73.2689591 63.4878888 74.3583233 64.8644298 76.7479305 64.9158249 76.7717736"></polygon>
                    <polygon id="Fill-497" fill="#623F3D" fill-rule="nonzero" points="63.2720296 71.6475763 63.9878521 71.3021166 60.6069023 69.3549308 66.5104505 75.1768831 68.0475351 73.6403283 64.4874971 71.5898229"></polygon>
                    <path d="M68.5627579,79.2858417 L58.1714104,89.6771891 C58.0839856,89.7646135 57.9403974,89.7646135 57.8529725,89.6771891 L57.8439654,89.6681816 C57.7565405,89.5807567 57.7565405,89.4371685 57.8439654,89.3497437 L68.2353124,78.9583967 C68.3227372,78.8709718 68.4657956,78.8709718 68.5532205,78.9583967 L68.5627579,78.9674042 C68.6501823,79.0548286 68.6501823,79.1984168 68.5627579,79.2858417" id="Fill-499" fill="#C9C9C9" fill-rule="nonzero"></path>
                    <path d="M64.3622945,86.4113217 L59.6339452,91.1402008 C59.545991,91.2276252 59.403462,91.2276252 59.3160376,91.1402008 L59.3059703,91.1301335 C59.2185459,91.0427091 59.2185459,90.9001802 59.3059703,90.8127558 L64.0348494,86.0838767 C64.1222739,85.9964523 64.2648028,85.9964523 64.3522272,86.0838767 L64.3622945,86.0934141 C64.4497193,86.1808385 64.4497193,86.3238973 64.3622945,86.4113217" id="Fill-501" fill="#C9C9C9" fill-rule="nonzero"></path>
                    <path d="M79.8778922,63.0013312 L83.2434762,59.6362766 C83.5539663,59.3252566 83.5539663,58.8160747 83.2434762,58.5050548 L83.1300893,58.3921973 C82.8190694,58.0806479 82.309887,58.0806479 81.9983372,58.3921973 L79.5038203,60.8867142 C79.192271,61.198264 79.192271,61.7074464 79.5038203,62.0184659 L79.6166778,62.1313233 C79.9276977,62.4423433 80.1142034,62.6293788 79.8778922,63.0013312" id="Fill-503" fill="#71A0FF" fill-rule="nonzero"></path>
                    <path d="M81.6593943,59.9754314 C81.7526476,60.0681544 81.9025941,60.0681544 81.9958469,59.9754314 C82.0885703,59.8821786 82.0885703,59.7322317 81.9958469,59.6389788 C81.9025941,59.5462559 81.7526476,59.5462559 81.6593943,59.6389788 C81.5666714,59.7322317 81.5666714,59.8821786 81.6593943,59.9754314" id="Fill-505" fill="#FFFFFF" fill-rule="nonzero"></path>
                    <path d="M81.112964,60.5218088 C81.2056869,60.6150621 81.3561633,60.6150621 81.4488867,60.5218088 C81.5421395,60.4290858 81.5421395,60.2786095 81.4488867,60.1858865 C81.3561633,60.0931631 81.2056869,60.0931631 81.112964,60.1858865 C81.020241,60.2786095 81.020241,60.4290858 81.112964,60.5218088" id="Fill-507" fill="#FFFFFF" fill-rule="nonzero"></path>
                    <path d="M80.5665866,61.0687165 C80.6593095,61.1614394 80.8097859,61.1614394 80.9025088,61.0687165 C80.9952323,60.9754632 80.9952323,60.8255167 80.9025088,60.7322639 C80.8097859,60.6395409 80.6593095,60.6395409 80.5665866,60.7322639 C80.4733333,60.8255167 80.4733333,60.9754632 80.5665866,61.0687165" id="Fill-509" fill="#FFFFFF" fill-rule="nonzero"></path>
                    <path d="M69.9572075,37.6214774 L73.3227916,34.2558932 C73.6332817,33.9454032 73.6332817,33.4362209 73.3227916,33.125201 L73.2094042,33.0118139 C72.8983848,32.7007941 72.3892024,32.7007941 72.0776526,33.0118139 L69.5831357,35.5068605 C69.2715863,35.8178803 69.2715863,36.3270627 69.5831357,36.6386124 L69.6959931,36.7509398 C70.0075429,37.0624895 70.1935187,37.2489954 69.9572075,37.6214774" id="Fill-511" fill="#FD6222" fill-rule="nonzero"></path>
                    <path d="M71.7392395,34.5950479 C71.8319629,34.6883008 71.9824393,34.6883008 72.0751622,34.5950479 C72.1678852,34.5023248 72.1678852,34.3518484 72.0751622,34.2591253 C71.9824393,34.1664022 71.8319629,34.1664022 71.7392395,34.2591253 C71.6459867,34.3518484 71.6459867,34.5023248 71.7392395,34.5950479" id="Fill-513" fill="#FFFFFF" fill-rule="nonzero"></path>
                    <path d="M71.1923323,35.1419553 C71.2850553,35.2346784 71.4355316,35.2346784 71.528255,35.1419553 C71.6215078,35.0487023 71.6215078,34.8987558 71.528255,34.8055029 C71.4355316,34.7127798 71.2850553,34.7127798 71.1923323,34.8055029 C71.0996093,34.8987558 71.0996093,35.0487023 71.1923323,35.1419553" id="Fill-515" fill="#FFFFFF" fill-rule="nonzero"></path>
                    <path d="M70.6459015,35.6883859 C70.7386249,35.7816388 70.8891012,35.7816388 70.9818242,35.6883859 C71.0745476,35.5956628 71.0745476,35.4451864 70.9818242,35.3524633 C70.8891012,35.2597402 70.7386249,35.2597402 70.6459015,35.3524633 C70.5526487,35.4451864 70.5526487,35.5956628 70.6459015,35.6883859" id="Fill-517" fill="#FFFFFF" fill-rule="nonzero"></path>
                    <path d="M69.4501446,38.216018 L54.2032847,53.4628773 C53.9108097,53.7548229 53.4334182,53.7548229 53.1409428,53.4628773 L49.659852,49.9823168 C49.3684367,49.6903712 49.3684367,49.2124499 49.659852,48.9205043 L64.9072417,33.673645 C65.1997167,33.3811698 65.6771082,33.3811698 65.9695836,33.673645 L69.4501446,37.1536761 C69.7420897,37.4461513 69.7420897,37.9240727 69.4501446,38.216018" id="Fill-519" fill="#FCAE24" fill-rule="nonzero" opacity="0.300000012"></path>
                    <path d="M78.9082202,63.9834014 L71.8156964,71.0759248 C71.5232214,71.3684002 71.0458299,71.3684002 70.7533544,71.0759248 L69.9416298,70.2642001 C69.6496846,69.9717251 69.6496846,69.4938038 69.9416298,69.2018582 L77.0341537,62.1093348 C77.3266286,61.8173892 77.8040201,61.8173892 78.0964956,62.1093348 L78.9082202,62.9210594 C79.2001654,63.2135344 79.2001654,63.6909259 78.9082202,63.9834014" id="Fill-521" fill="#71A0FF" fill-rule="nonzero"></path>
                </g>
            </g>
        </g>
    </g>
</svg>