<svg width="24" height="24" xmlns="http://www.w3.org/2000/svg">
    <path d="M22 1.5c1.1045695 0 2 .8954305 2 2v17c0 1.1045695-.8954305 2-2 2H2c-1.1045695 0-2-.8954305-2-2v-17c0-1.1045695.8954305-2 2-2h20zm-7.8202756 8.8c-.2141453 0-.4131856.1057686-.5266818.2798751l-3.0135143 4.623262-.0390904.0476547c-.0581295.0576964-.1388121.091238-.2242505.091238-.106798 0-.2061651-.0524087-.2633409-.1388927l-1.96659136-1.716965-.06355068-.0811852c-.11671188-.1252395-.28467669-.19869-.46313113-.19869-.21414533 0-.4131856.1057687-.52668181.2798752L1.9357663 20.1438667l-.02927076.0576172c-.02990958.0797159-.02329104.169077.0205238.2449687.05476854.0948647.15899632.1535806.27208787.1535806H21.4859848l.0664665-.0068653c.0863378-.018067.1618066-.0708235.2056214-.1467153.0547685-.0948647.0514179-.2107752-.008747-.3025859l-7.0429195-9.5639916-.0635506-.0811851c-.1167119-.1252396-.2846767-.19869-.4631312-.19869zm-6.03593198-5c-1.44074283 0-2.60869565 1.11928813-2.60869565 2.5s1.16795282 2.5 2.60869565 2.5 2.60869568-1.11928813 2.60869568-2.5-1.16795285-2.5-2.60869568-2.5z" fill="#000" fill-rule="evenodd"/>
</svg>
