<svg width="25" height="24" viewBox="0 0 25 24" fill="none" xmlns="http://www.w3.org/2000/svg">
<path fill-rule="evenodd" clip-rule="evenodd" d="M5.27775 7.33333C5.64594 7.33333 5.94442 7.03486 5.94442 6.66667V5.66667C5.94442 5.48257 6.09366 5.33333 6.27775 5.33333H7.27775C7.64594 5.33333 7.94442 5.03486 7.94442 4.66667C7.94442 4.29848 7.64594 4 7.27775 4H5.94442C5.20804 4 4.61108 4.59695 4.61108 5.33333V6.66667C4.61108 7.03486 4.90956 7.33333 5.27775 7.33333ZM17.2778 4.66667C17.2778 5.03486 17.5762 5.33333 17.9444 5.33333H18.9444C19.1285 5.33333 19.2778 5.48257 19.2778 5.66667V6.66667C19.2778 7.03486 19.5762 7.33333 19.9444 7.33333C20.3126 7.33333 20.6111 7.03486 20.6111 6.66667V5.33333C20.6111 4.59695 20.0141 4 19.2778 4H17.9444C17.5762 4 17.2778 4.29848 17.2778 4.66667ZM6.27775 18.6667H7.27775C7.64594 18.6667 7.94442 18.9651 7.94442 19.3333C7.94442 19.7015 7.64594 20 7.27775 20H5.94442C5.20804 20 4.61108 19.403 4.61108 18.6667V17.3333C4.61108 16.9651 4.90956 16.6667 5.27775 16.6667C5.64594 16.6667 5.94442 16.9651 5.94442 17.3333V18.3333C5.94442 18.5174 6.09366 18.6667 6.27775 18.6667ZM19.9444 16.6667C19.5762 16.6667 19.2778 16.9651 19.2778 17.3333V18.3333C19.2778 18.5174 19.1285 18.6667 18.9444 18.6667H17.9444C17.5762 18.6667 17.2778 18.9651 17.2778 19.3333C17.2778 19.7015 17.5762 20 17.9444 20H19.2778C20.0141 20 20.6111 19.403 20.6111 18.6667V17.3333C20.6111 16.9651 20.3126 16.6667 19.9444 16.6667ZM8.3184 6.66667H16.9038C17.4785 6.66667 17.9444 7.13258 17.9444 7.70732V16.2927C17.9444 16.8674 17.4785 17.3333 16.9038 17.3333H8.3184C7.74367 17.3333 7.27775 16.8674 7.27775 16.2927V7.70732C7.27775 7.13258 7.74367 6.66667 8.3184 6.66667ZM10.9197 12.8485C10.7345 12.8601 10.5694 12.9695 10.4866 13.1355L9.38662 15.3365C9.34621 15.4172 9.35045 15.513 9.39784 15.5897C9.44523 15.6665 9.529 15.7132 9.6192 15.7132H15.8647C15.9538 15.7133 16.0368 15.6678 16.0846 15.5926C16.1324 15.5173 16.1383 15.4229 16.1004 15.3422L14.2387 11.3878C14.155 11.2099 13.9783 11.0944 13.7818 11.0891C13.5843 11.0799 13.3994 11.1861 13.3078 11.3612L12.0398 13.7167C12.0182 13.757 11.9771 13.7829 11.9315 13.7852C11.8859 13.7874 11.8425 13.7656 11.8171 13.7277L11.3852 13.0793C11.2823 12.9249 11.1049 12.8369 10.9197 12.8485ZM9.48914 9.91695C9.48914 9.34222 9.95505 8.8763 10.5298 8.8763C11.1045 8.8763 11.5704 9.34222 11.5704 9.91695C11.5704 10.4917 11.1045 10.9576 10.5298 10.9576C9.95505 10.9576 9.48914 10.4917 9.48914 9.91695Z" fill="black"/>
</svg>
