<svg xmlns:xlink="http://www.w3.org/1999/xlink" width="24" height="24" xmlns="http://www.w3.org/2000/svg">
    <defs>
        <path d="M22 21.9999998H2c-1.1045695 0-2-.8954303-2-2V3.99999978c0-1.10456928.8954305-2 2-2h6.5C9.25563788 1.9996438 9.946963 2.42519368 10.287 3.1l.81 1.62c.0838093.17104778.2575237.27961928.448.27999978H22c1.1045695 0 2 .89543072 2 2V19.9999998c0 1.1045697-.8954305 2-2 2zM8.191 4H2.5c-.27614237 0-.5.22385763-.5.5v15c0 .2761424.22385763.5.5.5h19c.2761424 0 .5-.2238576.5-.5v-12c0-.27614237-.2238576-.5-.5-.5H11.236c-.7559979.00073423-1.44780115-.42487181-1.788-1.1l-.81-1.619c-.08336761-.17111419-.25665997-.2800519-.447-.281z" id="a"/>
    </defs>
    <use fill="#000" xlink:href="#a" fill-rule="evenodd"/>
</svg>
