<svg width="24" height="24" xmlns="http://www.w3.org/2000/svg">
    <path d="M15.586 0c.2651948 0 .5195073.105450625.707.293l5.414 5.414c.1875494.18749273.293.44180519.293.707V22c0 1.1045695-.8954305 2-2 2H4c-1.1045695 0-2-.8954305-2-2V2c0-1.1045695.8954305-2 2-2zm-.621 2H4.5c-.27614237 0-.5.22385763-.5.5v19c0 .2761424.22385763.5.5.5h15c.2761424 0 .5-.2238576.5-.5V7.035c0-.13235245-.052531-.25929446-.146-.353l-4.536-4.536c-.0937055-.09346895-.2206475-.146-.353-.146zM11.5 17c.5522847 0 1 .4477153 1 1s-.4477153 1-1 1H7c-.55228475 0-1-.4477153-1-1s.44771525-1 1-1h4.5zm4.5-4c.5522847 0 1 .4477153 1 1s-.4477153 1-1 1H7c-.55228475 0-1-.4477153-1-1s.44771525-1 1-1h9zm0-4c.5522847 0 1 .44771525 1 1 0 .5522847-.4477153 1-1 1H7c-.55228475 0-1-.4477153-1-1 0-.55228475.44771525-1 1-1h9z" fill="#2196F3" fill-rule="nonzero"/>
</svg>
