<?xml version="1.0" encoding="UTF-8"?>
<svg width="204px" height="204px" viewBox="0 0 204 204" version="1.1" xmlns="http://www.w3.org/2000/svg" xmlns:xlink="http://www.w3.org/1999/xlink">
    <title>splashscreen-kdrive-light</title>
    <g id="mobile" stroke="none" stroke-width="1" fill="none" fill-rule="evenodd">
        <g id="App-mobile---splashscreen-3" transform="translate(-105.000000, -318.000000)">
            <g id="splashscreen-kdrive-light" transform="translate(105.000000, 318.000000)">
                <circle id="Oval" fill="#FFFFFF" cx="102" cy="102" r="102"></circle>
                <g id="Group" transform="translate(50.000000, 50.000000)">
                    <g id="logo" transform="translate(6.240000, 6.240000)">
                        <path d="M40.9147807,2.5291959 L48.4141705,5.66429793 C49.5662502,6.14592212 50.4569757,7.09778821 50.8611682,8.27926101 L53.8460152,17.004102 C54.327815,18.4124242 55.4938906,19.4782661 56.9397308,19.8318876 L88.1912297,27.4753335 C90.1453833,27.9532776 91.52,29.7046128 91.52,31.716365 L91.52,68.1761848 C91.52,70.5874796 89.5652593,72.5422204 87.1539644,72.5422204 C86.7187372,72.5422204 86.2859562,72.4771441 85.8699752,72.34915 L37.9468083,57.6035609 C36.1148563,57.0398833 34.8647619,55.3473065 34.8647619,53.4305957 L34.8647619,6.55740489 C34.8647619,4.14611001 36.8195026,2.19136929 39.2307975,2.19136929 C39.8089563,2.19136929 40.3813576,2.30619965 40.9147807,2.5291959 Z" id="Rectangle-Copy-32" fill="#A2BFFF" opacity="0.504231771"></path>
                        <path d="M30.0195426,11.2453864 L37.5189324,14.3804884 C38.6710121,14.8621126 39.5617376,15.8139787 39.9659301,16.9954515 L42.9507771,25.7202925 C43.4325769,27.1286146 44.5986525,28.1944565 46.0444927,28.548078 L77.2959916,36.191524 C79.2501452,36.669468 80.6247619,38.4208033 80.6247619,40.4325554 L80.6247619,76.8923752 C80.6247619,79.3036701 78.6700212,81.2584108 76.2587263,81.2584108 C75.8234991,81.2584108 75.3907181,81.1933346 74.9747371,81.0653404 L27.0515702,66.3197513 C25.2196182,65.7560738 23.9695238,64.063497 23.9695238,62.1467861 L23.9695238,15.2735954 C23.9695238,12.8623005 25.9242645,10.9075598 28.3355594,10.9075598 C28.9137182,10.9075598 29.4861195,11.0223901 30.0195426,11.2453864 Z" id="Rectangle-Copy-12" fill="#A0BDFF" opacity="0.8"></path>
                        <path d="M19.1243045,18.6541486 L26.6236943,21.7892506 C27.7757741,22.2708748 28.6664995,23.2227409 29.070692,24.4042137 L32.055539,33.1290547 C32.5373388,34.5373768 33.7034144,35.6032187 35.1492546,35.9568402 L66.4007535,43.6002862 C68.3549071,44.0782302 69.7295238,45.8295655 69.7295238,47.8413176 L69.7295238,84.3011374 C69.7295238,86.7124323 67.7747831,88.667173 65.3634882,88.667173 C64.928261,88.667173 64.49548,88.6020968 64.079499,88.4741026 L16.1563321,73.7285135 C14.3243801,73.164836 13.0742857,71.4722592 13.0742857,69.5555483 L13.0742857,22.6823575 C13.0742857,20.2710627 15.0290264,18.3163219 17.4403213,18.3163219 C18.0184801,18.3163219 18.5908814,18.4311523 19.1243045,18.6541486 Z" id="Rectangle" fill="#1A47FF"></path>
                        <path d="M8.07492851,37.9794169 L56.4769206,51.4244145 C57.9413678,51.8312054 59.0888782,52.9703093 59.5064258,54.4317259 L68.623868,86.342776 C68.9550848,87.5020349 68.283824,88.7103042 67.1245651,89.041521 C66.7181731,89.1576329 66.2868133,89.1532762 65.8828495,89.0289796 L15.1756808,73.4267747 C13.8538222,73.020049 12.8028366,72.0110856 12.3425407,70.7069139 L2.78925651,43.6392748 C1.98672908,41.3654471 3.17945367,38.8715684 5.45328144,38.069041 C6.29731806,37.7711457 7.2125184,37.7398585 8.07492851,37.9794169 Z" id="Rectangle-Copy-37" fill="#5287FF"></path>
                    </g>
                </g>
            </g>
        </g>
    </g>
</svg>