<?xml version="1.0" encoding="UTF-8"?>
<svg width="24px" height="24px" viewBox="0 0 24 24" version="1.1" xmlns="http://www.w3.org/2000/svg" xmlns:xlink="http://www.w3.org/1999/xlink">
    <title>icons/document types/file-default</title>
    <g id="icons/document-types/file-default" stroke="none" stroke-width="1" fill="none" fill-rule="evenodd">
        <g id="icon" transform="translate(0.000000, -0.000000)" fill="#9E9E9E">
            <path d="M15.318,2.146 L19.854,6.682 C19.947469,6.77570554 20,6.90264755 20,7.035 L20,21.5 C20,21.7761424 19.7761424,22 19.5,22 L4.5,22 C4.22385763,22 4,21.7761424 4,21.5 L4,2.5 C4,2.22385763 4.22385763,2 4.5,2 L14.965,2 C15.0973525,2 15.2242945,2.05253105 15.318,2.146 Z M15.586,0 L4,0 C2.8954305,0 2,0.8954305 2,2 L2,22 C2,23.1045695 2.8954305,24 4,24 L20,24 C21.1045695,24 22,23.1045695 22,22 L22,6.414 C22,6.14880519 21.8945494,5.89449273 21.707,5.707 L16.293,0.293 C16.1055073,0.105450625 15.8511948,0 15.586,0 Z"></path>
        </g>
    </g>
</svg>