<?xml version="1.0" encoding="UTF-8"?>
<svg width="150px" height="150px" viewBox="0 0 150 150" version="1.1" xmlns="http://www.w3.org/2000/svg" xmlns:xlink="http://www.w3.org/1999/xlink">
    <title>Group 12</title>
    <defs>
        <circle id="path-1" cx="75" cy="75" r="75"></circle>
    </defs>
    <g id="v222" stroke="none" stroke-width="1" fill="none" fill-rule="evenodd">
        <g id="Drive---App-mobile---Modifier-offre---Success" transform="translate(-131.000000, -299.000000)">
            <g id="Group-12" transform="translate(131.000000, 299.000000)">
                <g id="Group-9">
                    <mask id="mask-2" fill="white">
                        <use xlink:href="#path-1"></use>
                    </mask>
                    <use id="Mask" fill="#C9E9FF" xlink:href="#path-1"></use>
                    <g mask="url(#mask-2)" fill-rule="nonzero">
                        <g transform="translate(6.750000, 11.250000)">
                            <polygon id="CONFETTI_5_" fill="#85CDFF" transform="translate(83.804669, 51.705298) rotate(135.000000) translate(-83.804669, -51.705298) " points="79.6408576 49.383954 87.9685994 49.383741 87.9684807 54.0266413 79.6407389 54.0268543"></polygon>
                            <polygon id="CONFETTI_5_-Copy-3" fill="#85CDFF" transform="translate(116.663930, 106.571557) rotate(-330.000000) translate(-116.663930, -106.571557) " points="112.500119 104.250213 120.827861 104.25 120.827742 108.8929 112.5 108.893113"></polygon>
                            <polygon id="CONFETTI_6_" fill="#85CDFF" transform="translate(4.803872, 39.166677) rotate(-171.575760) translate(-4.803872, -39.166677) " points="0.640090016 36.8451417 8.96761996 36.8452034 8.96765437 41.4882129 0.640124434 41.4881512"></polygon>
                            <polygon id="CONFETTI_11_" fill="#275F86" transform="translate(118.514081, 28.093144) rotate(18.500177) translate(-118.514081, -28.093144) " points="114.350319 25.7716159 122.677771 25.7717441 122.677843 30.4146727 114.35039 30.4145445"></polygon>
                            <polygon id="CONFETTI_12_" fill="#275F86" transform="translate(36.738073, 119.439911) rotate(-49.148255) translate(-36.738073, -119.439911) " points="32.5742308 117.118567 40.9020323 117.118356 40.9019148 121.761255 32.5741133 121.761466"></polygon>
                            <polygon id="CONFETTI_14_" fill="#275F86" transform="translate(57.413924, 5.321484) rotate(59.999272) translate(-57.413924, -5.321484) " points="53.25 3 61.577745 3.00018446 61.5778478 7.64296778 53.2501028 7.64278332"></polygon>
                            <polygon id="CONFETTI_11_" fill="#275F86" transform="translate(83.097752, 113.361878) rotate(109.500177) translate(-83.097752, -113.361878) " points="78.9339898 111.04035 87.2614423 111.040478 87.2615137 115.683406 78.9340613 115.683278"></polygon>
                            <polygon id="CONFETTI_14_" fill="#85CDFF" transform="translate(114.689506, 75.694304) rotate(150.999272) translate(-114.689506, -75.694304) " points="110.525582 73.3728199 118.853327 73.3730043 118.85343 78.0157876 110.525685 78.0156032"></polygon>
                            <polygon id="CONFETTI_16_" fill="#FFFFFF" transform="translate(67.051119, 19.591763) rotate(111.549251) translate(-67.051119, -19.591763) " points="62.8871808 17.2704121 71.2151385 17.2702666 71.2150573 21.9131138 62.8870997 21.9132593"></polygon>
                            <polygon id="CONFETTI_16_-Copy" fill="#FFFFFF" transform="translate(23.664019, 81.821496) rotate(111.549251) translate(-23.664019, -81.821496) " points="19.5000811 79.5001455 27.8280388 79.5 27.8279576 84.1428472 19.5 84.1429927"></polygon>
                        </g>
                    </g>
                </g>
                <g id="handshake" transform="translate(22.500000, 33.750000)">
                    <path d="M37.2290625,14.728916 L18.4570312,20.2145508 L14.2687207,36.8283398 C14.9932617,42.9306445 16.1371875,48.6430957 19.9100098,51.8412891 L51.0447656,77.1450586 L54.8116406,80.0432227 C60.4828711,84.4054395 65.8546875,78.309082 61.5429199,73.8029004 C61.4830371,73.7368652 61.417207,73.6708301 61.351377,73.6047949 C62.8066113,74.8289062 64.4414941,75.1769238 65.8727344,74.9429297 C69.0227344,74.4329004 71.1787207,71.0966895 68.2801465,67.982373 C73.9454297,72.5066016 78.784248,65.3001562 74.3465625,61.3458398 C79.293252,62.9058691 84.6829102,56.4914355 79.5446777,51.043125 C79.5087891,51.001084 79.466748,50.9530957 79.4249121,50.9110547 L66.5433398,31.7337891 L49.266123,20.6630566 L37.2290625,14.728916 Z" id="Path" fill="#FFBC85"></path>
                    <path d="M50.5775977,77.6850293 C55.3684277,72.578584 48.3797754,66.7043262 44.5171289,70.1664551 L40.3790625,74.1027246 C40.3310742,74.1507129 40.2892383,74.1927539 40.24125,74.2286426 C36.7678418,77.720918 43.0799414,85.677334 48.3018457,80.1090527 L50.5775977,77.6850293 Z" id="Path" fill="#FFE5C1"></path>
                    <path d="M37.3008398,63.0440918 L32.9291895,67.6284082 L32.9111426,67.6524023 C30.7192676,69.9806543 32.240332,73.5508594 34.8335449,74.9429297 C36.4384863,75.8069238 38.4507129,75.8430176 40.24125,74.2288477 L44.9244141,74.1568652 L44.5171289,70.1666602 L45.115957,69.6026953 C49.7991211,65.1504492 43.0379004,57.4579687 37.7618555,62.5582617 L37.3008398,63.0440918 Z" id="Path" fill="#FFE5C1"></path>
                    <path d="M29.4916699,56.7617285 L25.3954395,61.1120508 L24.8206055,61.7301563 C20.7783105,66.0203906 28.0185938,72.7768945 32.1925488,68.3966309 L32.9111426,67.6526074 C32.9710254,67.5865723 37.3607227,67.1304785 37.8397852,67.076543 L37.7618555,62.5582617 L39.1631543,61.0882617 C43.9839258,56.0300098 36.4503809,49.3694824 31.8629883,54.2478809 L29.4916699,56.7617285 Z" id="Path" fill="#FFE5C1"></path>
                    <path d="M19.9100098,51.8412891 L18.5206055,53.3473828 C14.2447266,57.9917871 20.616709,65.3961328 25.3954395,61.1118457 L29.3179687,60.5058398 L29.4916699,56.7615234 C33.3662109,52.3753125 26.6111426,44.5688086 21.2932617,50.3411426 L19.9100098,51.8412891 Z" id="Path" fill="#FFE5C1"></path>
                    <path d="M25.7789355,1.69599609 L6.76511719,20.0033203 L1.35720703,25.2055371 C-0.403388672,26.8976367 -0.457324219,29.7238184 1.23149414,31.4879004 L9.29824219,39.9004102 C9.76541016,40.3864453 10.549834,40.4044922 11.0409961,39.9365039 L14.2689258,36.8283398 L37.2292676,14.728916 L40.0798535,11.9806641 C40.5710156,11.5126758 40.5888574,10.7266113 40.1157422,10.2346289 L32.0489941,1.82211914 C30.3601758,0.0578320313 27.5395313,0.00389648438 25.7789355,1.69599609 Z" id="Path" fill="#3A8AC2"></path>
                    <path d="M61.9381055,33.5220703 L56.1651563,34.8421582 L58.4288086,37.1402637 L75.9156152,54.5294531 L76.0353809,54.6615234 C78.1433789,56.8935938 78.4786816,59.2819336 77.8080762,61.2258691 C81.2634375,59.9057812 83.4612598,55.1955469 79.5446777,51.043125 L79.4249121,50.9110547 L74.1788086,45.6967383 L61.9381055,33.5220703 Z" id="Path" fill="#F5A96C"></path>
                    <polygon id="Path" fill="#F5A96C" points="37.2290625 14.728916 33.5520117 18.2630273 45.0441797 23.9334375 49.266123 20.6632617"></polygon>
                    <path d="M49.266123,20.6632617 L45.0441797,23.9334375 L41.0677148,27.0057129 C31.024834,34.7822754 39.3549023,42.4626562 45.3136523,39.8286328 L52.0149902,35.7904395 L56.1651562,34.8423633 L61.9381055,33.5222754 L74.1788086,45.6971484 L79.4249121,50.9114648 C82.7246191,49.675459 87.3897363,46.1112012 92.42625,37.9985156 L84.7704785,21.9808887 L66.8907422,13.4149805 L62.3035547,17.0811621 C61.5490723,17.6812207 61.7765039,17.5671973 60.8243262,17.5372559 C57.3808594,17.4291797 53.0032617,17.77125 50.434043,19.7574316 L49.266123,20.6632617 Z" id="Path" fill="#FFE5C1"></path>
                    <path d="M49.2482813,33.1201172 L42.5469434,37.1583105 C40.7205176,37.9683691 38.66625,37.8063574 36.9895313,36.9663574 C38.4447656,39.7625977 42.2056934,41.2026562 45.3136523,39.8286328 L52.0149902,35.7904395 L56.1651563,34.8423633 L61.8663281,33.5403223 C59.225332,31.2781055 58.7522168,30.9481348 53.3925,32.1781934 L49.2482813,33.1201172 Z" id="Path" fill="#FED1A3"></path>
                    <path d="M88.2580371,33.9841113 C83.7725684,41.2026563 79.5865137,44.8208496 76.3946777,46.404873 C76.0353809,46.5849316 75.6879785,46.7348438 75.3526758,46.8609668 L79.4249121,50.9112598 C82.7246191,49.6752539 87.3897363,46.1109961 92.42625,37.9983105 L88.2580371,33.9841113 Z" id="Path" fill="#FED1A3"></path>
                    <path d="M19.275293,7.9603125 C21.0358887,6.28625977 23.8386914,6.35229492 25.5213574,8.10427734 L33.5881055,16.5167871 C34.0552734,17.0087695 34.0431738,17.794834 33.5522168,18.2628223 L37.2292676,14.7285059 L40.0798535,11.9802539 C40.5710156,11.5122656 40.5888574,10.7262012 40.1157422,10.2342188 L32.0489941,1.82170898 C30.3601758,0.0576269531 27.5395313,0.00348632812 25.7789355,1.69579102 L19.275293,7.9603125 Z" id="Path" fill="#275F86"></path>
                    <path d="M17.1133594,56.8997461 C17.1551953,60.8300684 21.7425879,64.3881738 25.3956445,61.1120508 L27.9646582,58.387793 L29.4916699,56.7617285 C31.0906641,54.9496582 30.875127,52.5615234 29.707207,50.7793945 C29.7012598,51.8234473 29.3538574,52.8675 28.557334,53.7735352 L25.8384082,56.6598047 L24.4670508,58.1238574 C21.8024707,60.5058398 18.6463184,59.2638867 17.1133594,56.8997461 L17.1133594,56.8997461 Z" id="Path" fill="#FED1A3"></path>
                    <path d="M23.8206445,65.8163379 C24.7787695,69.0325781 29.2523437,71.486748 32.1927539,68.3964258 L32.9113477,67.6524023 C32.9172949,67.6403027 32.9232422,67.6343555 32.9293945,67.6284082 L37.3010449,63.0440918 C37.4566992,62.8699805 37.6064062,62.7079687 37.7622656,62.5580566 L39.1635645,61.0880566 C41.7625195,58.3637988 40.7744531,55.1717578 38.5887305,53.5694824 C38.983916,55.0394824 38.6666602,56.7377344 37.1933789,58.2797168 L35.7920801,59.7497168 C35.6364258,59.8996289 35.4867187,60.0616406 35.3308594,60.2298047 L35.3308594,60.235752 L30.959209,64.8200684 C30.9532617,64.8260156 30.9473145,64.832168 30.9352148,64.8381152 L30.2225684,65.5880859 C28.2700195,67.6405078 25.6470703,67.2504492 23.8206445,65.8163379 L23.8206445,65.8163379 Z" id="Path" fill="#FED1A3"></path>
                    <path d="M40.3790625,74.1029297 L43.5708984,71.0726953 L44.5171289,70.1666602 L45.115957,69.6026953 C47.6072461,67.2326074 46.8587109,63.9443848 44.8105957,62.1561035 C45.2478223,63.7222852 44.9244141,65.4923145 43.4152441,66.9264258 L42.8223633,67.4903906 L41.1335449,69.0924609 L38.6781445,71.4326074 L38.540332,71.5525781 C36.7497949,73.166748 34.7375684,73.1306543 33.132627,72.2726074 C32.7374414,72.0566602 32.3660449,71.7925195 32.0307422,71.486543 C32.4259277,72.9085547 33.4859766,74.2226953 34.8333398,74.9427246 C36.4382813,75.8067188 38.4505078,75.8428125 40.2410449,74.2286426 L40.3790625,74.1029297 Z" id="Path" fill="#FED1A3"></path>
                    <path d="M50.5775977,77.6850293 C52.9731152,75.1289355 52.4220703,72.3866309 50.7931348,70.7125781 C50.7572461,71.8466602 50.2781836,73.0648242 49.1762988,74.2347949 L46.9005469,76.6649707 C44.1038965,79.6412695 40.9957324,78.7471289 39.2470312,76.7369531 C39.2710254,80.3791406 44.1338379,84.5555566 48.3018457,80.1092578 L50.5775977,77.6850293 Z" id="Path" fill="#FED1A3"></path>
                    <path d="M74.3459473,62.931709 C73.9595801,62.931709 73.5719824,62.7910254 73.2666211,62.5067871 L66.8827441,56.5603418 C66.2422852,55.9635645 66.2063965,54.9603223 66.8025586,54.319248 C67.3987207,53.6783789 68.4013477,53.6422852 69.0422168,54.2388574 L75.4260937,60.1853027 C76.0665527,60.7820801 76.1024414,61.7853223 75.5062793,62.4263965 C75.1941504,62.7621094 74.7706641,62.931709 74.3459473,62.931709 Z" id="Path" fill="#F5A96C" fill-rule="nonzero"></path>
                    <path d="M68.2795313,69.5682422 C67.8931641,69.5682422 67.5055664,69.4275586 67.2002051,69.1431152 L60.8103809,63.1907227 C60.1699219,62.5939453 60.1340332,61.5909082 60.7304004,60.949834 C61.3261523,60.3089648 62.3289844,60.272666 62.9698535,60.8696484 L69.3596777,66.822041 C70.0001367,67.4188184 70.0360254,68.4218555 69.4396582,69.0629297 C69.1275293,69.3984375 68.704043,69.5682422 68.2795313,69.5682422 L68.2795313,69.5682422 Z" id="Path" fill="#F5A96C" fill-rule="nonzero"></path>
                    <path d="M61.5603516,75.400459 C61.1743945,75.400459 60.787207,75.2599805 60.4820508,74.9763574 L57.230332,71.9522754 C56.5892578,71.3559082 56.5525488,70.3528711 57.1483008,69.7113867 C57.7438477,69.0699023 58.7466797,69.0331934 59.3877539,69.6291504 L62.6394727,72.6532324 C63.2805469,73.2495996 63.3172559,74.2526367 62.7215039,74.8941211 C62.409375,75.2302441 61.9854785,75.400459 61.5603516,75.400459 L61.5603516,75.400459 Z" id="Path" fill="#F5A96C" fill-rule="nonzero"></path>
                    <path d="M66.8905371,13.4147754 L88.257832,33.9841113 L92.4258398,37.9983105 L93.9590039,39.4744629 C94.450166,39.9424512 95.2345898,39.9244043 95.7017578,39.4383691 L99.9118066,35.0460059 L103.768506,31.0256543 C105.457324,29.2615723 105.403389,26.4353906 103.642793,24.743291 L99.9118066,21.1550391 L79.2212695,1.23375 C77.4606738,-0.458349609 74.6400293,-0.404414062 72.9512109,1.35966797 L64.8844629,9.77217773 C64.4113477,10.2641602 64.4293945,11.0502246 64.9203516,11.5182129 L66.8905371,13.4147754 Z" id="Path" fill="#FFDC16"></path>
                    <path d="M94.5879785,29.9159766 L90.3779297,34.314082 C89.9048145,34.8001172 89.1263379,34.8181641 88.6351758,34.3440234 L92.4260449,37.9983105 L93.959209,39.4744629 C94.4503711,39.9424512 95.2347949,39.9244043 95.7019629,39.4383691 L99.9120117,35.0460059 L103.768711,31.0256543 C105.457529,29.2615723 105.403594,26.4353906 103.642998,24.743291 L98.9239453,20.2010156 L99.3252832,20.5910742 L98.3372168,19.6370508 C100.073818,21.3291504 100.127754,24.1434375 98.4450879,25.8954199 L94.5879785,29.9159766 Z" id="Shape" fill="#FFEC82"></path>
                </g>
            </g>
        </g>
    </g>
</svg>