<svg width="101" height="124" viewBox="0 0 101 124" fill="none" xmlns="http://www.w3.org/2000/svg">
<path d="M71.4161 64.5245L71.4016 64.2899H71.1665H18.9646H18.7296L18.7151 64.5245L16.0381 107.892L16.0217 108.158H16.2876H73.8436H74.1095L74.0931 107.892L71.4161 64.5245Z" fill="#FAFAFA" stroke="#9F9F9F" stroke-width="0.5"/>
<path d="M43.3419 77.8001C43.3419 81.1796 44.6018 84.4351 45.7901 87.5697C46.3053 88.9287 46.9698 90.3451 47.0786 91.8097C47.1246 92.4286 47.3579 93.4295 47.0285 93.9963C46.4404 95.0083 43.6367 94.7721 42.7835 94.7532C40.005 94.6916 37.1844 94.2103 34.6084 93.1623C34.0293 92.9267 32.9573 92.5422 33.3127 91.7186C33.8246 90.5326 35.826 89.7846 36.8705 89.2587C40.2264 87.569 43.6918 86.3827 47.4079 85.7545C49.1268 85.464 50.9064 85.0737 52.6551 84.9976C52.9414 84.9852 53.8906 84.8972 53.0345 85.0467C48.2497 85.8819 43.4946 86.9011 38.7174 87.7799C36.0446 88.2716 33.3566 88.7295 30.6712 89.1535C29.8583 89.2819 27.4313 89.6974 28.223 89.4759C30.2593 88.9063 32.2164 87.9972 34.2219 87.3314C39.7075 85.5102 45.565 84.2087 51.3022 83.4488C54.7484 82.9923 58.2168 82.7717 61.6677 82.3695C62.5904 82.262 63.5418 82.0892 64.4739 82.0892" stroke="#0098FF" stroke-width="0.5" stroke-linecap="round"/>
<path d="M16.2876 29.2209H16.0178L16.0383 29.49L18.7151 64.559L18.7327 64.7899H18.9643H71.1606H71.3923L71.4099 64.559L73.2897 39.9304L73.298 39.8217L73.2241 39.7417L63.5817 29.3013L63.5075 29.2209H63.3981H16.2876Z" fill="#FAFAFA" stroke="#9F9F9F" stroke-width="0.5"/>
<path d="M63.8602 29.7083L63.4998 29.3222L63.4297 29.8457L62.0847 39.8781L62.0468 40.1612L62.3324 40.1613L73.0469 40.1677L73.6226 40.1681L73.2298 39.7472L63.8602 29.7083Z" fill="#F1F1F1" stroke="#9F9F9F" stroke-width="0.5"/>
<rect x="25.6577" y="41.5175" width="28.1087" height="2.14162" rx="1.07081" fill="#9F9F9F"/>
<rect x="25.6577" y="46.8716" width="38.0137" height="2.14162" rx="1.07081" fill="#9F9F9F"/>
<rect x="25.6577" y="52.2256" width="38.0137" height="2.14162" rx="1.07081" fill="#9F9F9F"/>
<rect x="25.6577" y="57.5797" width="38.0137" height="2.14162" rx="1.07081" fill="#9F9F9F"/>
<rect x="88.3633" y="65.6079" width="8.24852" height="26.7252" transform="rotate(48.6406 88.3633 65.6079)" fill="#91CDFF"/>
<rect x="90.106" y="67.5893" width="2.96947" height="26.7252" transform="rotate(48.6406 90.106 67.5893)" fill="#19A1FF"/>
<path d="M93.0677 61.4655C94.1618 60.5022 95.8297 60.6084 96.793 61.7025L98.7551 63.9314C99.7184 65.0255 99.6123 66.6934 98.5181 67.6567L94.3081 71.363L88.8577 65.1718L93.0677 61.4655Z" fill="#91CDFF"/>
<path fill-rule="evenodd" clip-rule="evenodd" d="M71.2079 89.0627C71.6182 88.7015 72.2436 88.7413 72.6049 89.1516C72.9661 89.5619 72.9263 90.1873 72.516 90.5486L71.2079 89.0627ZM69.7703 85.9323C69.4091 85.522 68.7837 85.4822 68.3733 85.8435L69.7899 87.4526C69.7897 87.4527 69.7895 87.4529 69.7894 87.4531L71.2065 89.0628C71.6168 88.7015 71.6566 88.0761 71.2954 87.6658L71.1863 87.542C70.8315 87.1389 70.2217 87.0934 69.8113 87.4343C70.202 87.0705 70.2344 86.4594 69.8793 86.0562L69.7703 85.9323ZM67.065 84.3575C67.4753 83.9963 68.1008 84.0361 68.462 84.4464C68.8232 84.8567 68.7834 85.4821 68.3731 85.8434L67.065 84.3575ZM67.0642 84.3578L72.5147 90.549L63.758 93.5768C63.2001 93.7697 62.689 93.1891 62.951 92.6602L67.0642 84.3578Z" fill="#F1F1F1"/>
<path d="M64.3813 89.7973L66.7795 92.5214L63.6927 93.6396C63.1289 93.8438 62.607 93.251 62.881 92.7176L64.3813 89.7973Z" fill="#19A1FF"/>
<circle cx="16.7059" cy="32.2982" r="14.5091" transform="rotate(-7.16694 16.7059 32.2982)" fill="#0098FF"/>
<g clip-path="url(#clip0_3767_27704)">
<path d="M15.8012 25.1004C16.0497 25.0692 16.2764 25.2452 16.3077 25.4937L16.4208 26.3934C16.452 26.6419 16.2759 26.8686 16.0275 26.8999C15.779 26.9311 15.5523 26.755 15.5211 26.5066L15.4079 25.6068C15.3767 25.3584 15.5528 25.1316 15.8012 25.1004Z" fill="white"/>
<path fill-rule="evenodd" clip-rule="evenodd" d="M14.8904 36.028C14.1876 35.7418 13.5686 35.2799 13.0936 34.6849C12.5714 34.0308 12.2445 33.2425 12.1507 32.4107L12.1505 32.4087C12.0218 31.2213 12.3592 30.0303 13.0915 29.0867C13.8239 28.1432 14.8939 27.5208 16.0761 27.3508C16.0814 27.35 16.0867 27.3494 16.0921 27.3488C17.2791 27.2209 18.4695 27.5586 19.4125 28.291C20.3555 29.0233 20.9774 30.093 21.1474 31.2747L21.1476 31.2767C21.2632 32.1062 21.142 32.9514 20.798 33.715C20.4852 34.4096 19.9995 35.0108 19.3891 35.4624L19.691 37.8637C19.736 38.2216 19.637 38.5828 19.4157 38.8677C19.1945 39.1526 18.8691 39.338 18.5111 39.383L16.7117 39.6093C16.3537 39.6543 15.9926 39.5553 15.7076 39.334C15.4227 39.1127 15.2374 38.7873 15.1924 38.4294L14.8904 36.028ZM15.8092 36.0669L15.9224 36.9666L18.6216 36.6272L18.5084 35.7275L15.8092 36.0669ZM16.0355 37.8664L16.0921 38.3162C16.1071 38.4356 16.1689 38.544 16.2638 38.6178C16.3588 38.6915 16.4792 38.7245 16.5985 38.7095L18.398 38.4833C18.5173 38.4683 18.6258 38.4065 18.6995 38.3115C18.7733 38.2165 18.8063 38.0961 18.7913 37.9768L18.7347 37.527L16.0355 37.8664ZM13.8079 29.6427C14.3945 28.887 15.2508 28.3878 16.1972 28.2495C17.1481 28.1492 18.101 28.4206 18.8563 29.0072C19.6134 29.5952 20.1129 30.454 20.2496 31.4028C20.3414 32.0627 20.2449 32.7351 19.9713 33.3426C19.7116 33.9189 19.3026 34.4145 18.7873 34.7785L15.3042 35.2165C14.7152 34.9915 14.1964 34.6129 13.8023 34.1192C13.3868 33.5988 13.1268 32.9717 13.0519 32.3101C12.9489 31.3566 13.2199 30.4004 13.8079 29.6427Z" fill="white"/>
<path d="M10.295 32.1905C10.0466 32.2217 9.8705 32.4485 9.90174 32.6969C9.93298 32.9454 10.1597 33.1215 10.4082 33.0902L11.3079 32.9771C11.5564 32.9458 11.7324 32.7191 11.7012 32.4706C11.67 32.2222 11.4432 32.0461 11.1948 32.0773L10.295 32.1905Z" fill="white"/>
<path d="M10.772 27.7011C10.9216 27.5003 11.2056 27.4588 11.4064 27.6084L12.146 28.1594C12.3468 28.3091 12.3883 28.5931 12.2386 28.7939C12.089 28.9947 11.8049 29.0362 11.6041 28.8866L10.8646 28.3356C10.6638 28.1859 10.6223 27.9019 10.772 27.7011Z" fill="white"/>
<path d="M21.9916 30.7197C21.7431 30.751 21.567 30.9777 21.5983 31.2262C21.6295 31.4746 21.8563 31.6507 22.1047 31.6195L23.0044 31.5063C23.2529 31.4751 23.429 31.2483 23.3977 30.9999C23.3665 30.7514 23.1398 30.5753 22.8913 30.6066L21.9916 30.7197Z" fill="white"/>
<path d="M21.3177 26.375C21.5124 26.5325 21.5425 26.818 21.385 27.0127L20.8049 27.7297C20.6474 27.9243 20.3619 27.9545 20.1673 27.797C19.9726 27.6395 19.9425 27.354 20.1 27.1593L20.68 26.4423C20.8376 26.2476 21.123 26.2175 21.3177 26.375Z" fill="white"/>
</g>
<defs>
<clipPath id="clip0_3767_27704">
<rect width="14.5091" height="14.5091" fill="white" transform="translate(8.60352 26.0055) rotate(-7.16694)"/>
</clipPath>
</defs>
</svg>
