<?xml version="1.0" encoding="UTF-8"?>
<svg width="35px" height="35px" viewBox="0 0 35 35" version="1.1" xmlns="http://www.w3.org/2000/svg" xmlns:xlink="http://www.w3.org/1999/xlink">
    <title>circle-drive</title>
    <defs>
        <circle id="path-1" cx="17.5" cy="17.5" r="17.5"></circle>
        <path d="M16.125,9.93825 C16.9525718,9.94031121 17.6229388,10.6106782 17.625,11.43825 L17.625,11.43825 L17.625,14.43825 C17.6225289,15.2656514 16.9524014,15.9357789 16.125,15.93825 L16.125,15.93825 L1.875,15.93825 C1.04776884,15.9353698 0.377880214,15.2654812 0.375,14.43825 L0.375,14.43825 L0.375,11.43825 C0.377471101,10.6108486 1.0475986,9.9407211 1.875,9.93825 L1.875,9.93825 Z M15.375,13.125 L2.625,13.125 C2.31433983,13.125 2.0625,13.3768398 2.0625,13.6875 C2.0625,13.9981602 2.31433983,14.25 2.625,14.25 L2.625,14.25 L15.375,14.25 C15.6856602,14.25 15.9375,13.9981602 15.9375,13.6875 C15.9375,13.3768398 15.6856602,13.125 15.375,13.125 L15.375,13.125 Z M15,10.68825 C14.5857864,10.68825 14.25,11.0240364 14.25,11.43825 C14.25,11.8524636 14.5857864,12.18825 15,12.18825 C15.4142136,12.18825 15.75,11.8524636 15.75,11.43825 C15.75,11.0240364 15.4142136,10.68825 15,10.68825 Z M13.875,2.06325 C14.9193697,2.09397636 15.8249596,2.79421843 16.1175,3.79725 L16.1175,3.79725 L17.385,8.802 C17.4029207,8.87109117 17.3798915,8.94435429 17.3256639,8.99076671 C17.2714364,9.03717913 17.1954963,9.04862202 17.13,9.02025 C16.8124865,8.88386607 16.4705653,8.81344052 16.125,8.81325 L16.125,8.81325 L1.875,8.81325 C1.52943468,8.81344052 1.18751354,8.88386607 0.87,9.02025 C0.804503666,9.04862202 0.728563633,9.03717913 0.674336067,8.99076671 C0.6201085,8.94435429 0.597079306,8.87109117 0.615,8.802 L0.615,8.802 L1.88325,3.79725 C2.17570501,2.79447515 3.08091023,2.09429634 4.125,2.06325 L4.125,2.06325 Z" id="path-3"></path>
    </defs>
    <g id="export" stroke="none" stroke-width="1" fill="none" fill-rule="evenodd">
        <g id="circle-drive">
            <mask id="mask-2" fill="white">
                <use xlink:href="#path-1"></use>
            </mask>
            <use id="Mask" fill="#0098FF" xlink:href="#path-1"></use>
            <g id="Group" mask="url(#mask-2)">
                <g transform="translate(8.500000, 9.000000)" id="Icons/interface-essential/add-circle">
                    <mask id="mask-4" fill="white">
                        <use xlink:href="#path-3"></use>
                    </mask>
                    <use id="icon" fill="#FFFFFF" xlink:href="#path-3"></use>
                </g>
            </g>
        </g>
    </g>
</svg>