<svg width="24" height="24" xmlns="http://www.w3.org/2000/svg">
    <path d="M7.5 13c4.1421356 0 7.5 3.3578644 7.5 7.5 0 .2761424-.2238576.5-.5.5H.5c-.276142375 0-.5-.2238576-.5-.5C0 16.3578644 3.35786438 13 7.5 13zm9 0c4.1403079.0044093 7.4955907 3.3596921 7.5 7.5 0 .2761424-.2238576.5-.5.5H17c-.2761424 0-.5-.2238576-.5-.5-.0007268-2.3517493-.9263465-4.6088677-2.577-6.284-.1199929-.1232928-.1681702-.2996169-.1275435-.4667961.0406268-.1671792.1643506-.301729.3275435-.3562039.7655449-.2599692 1.5685181-.3927283 2.377-.393zm0-10c2.6233525 0 4.7499999 2.12664747 4.7499999 4.75S19.1233525 12.5 16.5 12.5c-1.2436863-.00418662-2.4350125-.50114189-3.313-1.382-.1551802-.1509911-.1955454-.38470569-.1-.579.4360545-.86503015.6631359-1.82027884.663-2.789-.0014146-.96912324-.2302135-1.92439323-.668-2.789-.0955454-.19429431-.0551802-.4280089.1-.579.8792128-.88207991 2.0725796-1.3791362244 3.318-1.382zm-9 0c2.6233526 0 4.75 2.12664744 4.75 4.75S10.1233526 12.5 7.5 12.5c-2.62335256 0-4.75-2.12664744-4.75-4.75S4.87664744 3 7.5 3z" fill="#000" fill-rule="evenodd"/>
</svg>
