<?xml version="1.0" encoding="UTF-8"?>
<svg width="24px" height="24px" viewBox="0 0 24 24" version="1.1" xmlns="http://www.w3.org/2000/svg" xmlns:xlink="http://www.w3.org/1999/xlink">
    <title>icons/actions/lock</title>
    <g id="icons/actions/lock" stroke="none" stroke-width="1" fill="none" fill-rule="evenodd">
        <path d="M12,0 C15.7279221,0 18.75,3.02207794 18.75,6.75 L18.75,6.75 L18.75,9.5 L19.5,9.5 C20.6045695,9.5 21.5,10.3954305 21.5,11.5 L21.5,11.5 L21.5,22 C21.5,23.1045695 20.6045695,24 19.5,24 L19.5,24 L4.5,24 C3.3954305,24 2.5,23.1045695 2.5,22 L2.5,22 L2.5,11.5 C2.5,10.3954305 3.3954305,9.5 4.5,9.5 L4.5,9.5 L5.25,9.5 L5.25,6.75 C5.25,3.02207794 8.27207794,0 12,0 Z M13.8783268,14.8040754 C13.5445959,13.8914599 12.6031884,13.3507782 11.6467426,13.5224022 C10.6902968,13.6940263 9.9956083,14.5282881 9.99997929,15.5 C10.0019942,16.2116287 10.3830905,16.8682577 11,17.223 L11,17.223 L11,19.5 C11,20.0522847 11.4477153,20.5 12,20.5 C12.5522847,20.5 13,20.0522847 13,19.5 L13,19.5 L13,17.223 C13.8415301,16.7371291 14.2120576,15.7166909 13.8783268,14.8040754 Z M16.25,9.00000006 C16.25,9.27614237 16.0261424,9.50000006 15.75,9.50000006 L8.25,9.50000006 C7.97385763,9.50000006 7.75,9.27614237 7.75,9.00000006 L7.75,6.75 C7.75,4.40278984 9.65278984,2.50000006 12,2.50000006 C14.3472102,2.50000006 16.25,4.40278984 16.25,6.75 L16.25,9.00000006 Z" id="Shape" fill="#000000"></path>
    </g>
</svg>