<?xml version="1.0" encoding="UTF-8"?>
<svg width="24px" height="24px" viewBox="0 0 24 24" version="1.1" xmlns="http://www.w3.org/2000/svg" xmlns:xlink="http://www.w3.org/1999/xlink">
    <title>button-refresh-arrow</title>
    <g id="button-refresh-arrow" stroke="none" stroke-width="1" fill="none" fill-rule="evenodd">
        <g transform="translate(0.000000, 1.000000)" fill="#000000" fill-rule="nonzero" id="Path">
            <path d="M10.664,19.073 C9.98827961,18.9329958 9.32700418,19.3672796 9.187,20.043 C9.04699582,20.7187204 9.48127961,21.3799958 10.157,21.52 C14.9871179,22.5163424 19.8749675,20.0947354 22.008564,15.648332 C24.1421605,11.2019286 22.9729723,5.87386589 19.1736344,2.72938359 C15.3742965,-0.415098708 9.9215904,-0.567577661 5.9524633,2.35966802 C1.98333619,5.28691371 0.518221027,10.541311 2.4,15.1 C2.4453462,15.2073553 2.41050115,15.3318019 2.316,15.4 L1.316,16.126 C0.996612952,16.3577598 0.843385992,16.7556733 0.924844067,17.1417889 C1.00630214,17.5279045 1.30721078,17.8300099 1.693,17.913 L5.639,18.762 C5.70809537,18.7762912 5.77844298,18.7836609 5.849,18.784 C6.32046914,18.7841408 6.7279915,18.4549561 6.827,17.994 L7.772,13.594 C7.85934737,13.1888415 7.68771025,12.771792 7.34048201,12.5454835 C6.99325377,12.319175 6.54240908,12.3305175 6.207,12.574 L4.846,13.563 C4.78079449,13.6105096 4.69666928,13.623632 4.62009192,13.5982384 C4.54351456,13.5728449 4.48389843,13.5120571 4.46,13.435 C3.36032701,9.87911932 4.77626481,6.02712656 7.91714023,4.03001122 C11.0580157,2.03289588 15.1469014,2.38466462 17.9005247,4.88888642 C20.654148,7.39310822 21.3913723,11.4303385 19.7005245,14.7461494 C18.0096767,18.0619603 14.3090051,19.8361524 10.665,19.078 L10.664,19.073 Z"></path>
        </g>
    </g>
</svg>