<?xml version="1.0" encoding="UTF-8"?>
<svg width="254px" height="254px" viewBox="0 0 254 254" version="1.1" xmlns="http://www.w3.org/2000/svg" xmlns:xlink="http://www.w3.org/1999/xlink">
    <title>music</title>
    <defs>
        <linearGradient x1="100%" y1="-3.82007604%" x2="-11.0339398%" y2="106.940871%" id="linearGradient-1">
            <stop stop-color="#1EDFFF" offset="0%"></stop>
            <stop stop-color="#C700FF" offset="99.9709671%"></stop>
        </linearGradient>
    </defs>
    <g id="mobile" stroke="none" stroke-width="1" fill="none" fill-rule="evenodd">
        <g id="Drive---App-mobile---Preview-v2---Full-music" transform="translate(-80.000000, -243.000000)">
            <g id="Music" transform="translate(40.000000, 243.000000)">
                <g id="music" transform="translate(40.000000, 0.000000)">
                    <rect id="Rectangle" fill="url(#linearGradient-1)" x="0" y="0" width="254" height="254" rx="127"></rect>
                    <path d="M156.424805,129.072929 C154.245035,131.100719 150.848248,131.040886 148.741486,128.937588 C146.634725,126.834291 146.574792,123.443089 148.605923,121.266904 C152.055235,118.476679 153.332324,113.797767 151.777734,109.646237 C150.724888,106.872698 148.10815,105.000453 145.13906,104.896345 C141.578369,104.875286 138.069335,104.044173 134.878622,102.466167 C134.307125,102.189748 133.633377,102.226342 133.095291,102.563028 C132.557205,102.899714 132.230495,103.489117 132.230529,104.123106 L132.230529,150.944526 C132.21831,162.126225 123.131077,171.182038 111.930957,171.173913 C100.730836,171.165778 91.6568026,162.096783 91.6608696,150.915078 C91.6649393,139.733373 100.74557,130.670961 111.945693,130.670955 L119.321997,130.670955 C120.340452,130.670955 121.166073,129.846691 121.166073,128.829911 L121.166073,88.3490452 C121.166338,85.9153864 122.762119,83.7687024 125.095197,83.063488 C127.428276,82.3582735 129.948756,83.2607446 131.301114,85.2855487 C134.490808,89.967962 139.519709,93.080432 145.13906,93.8500833 C152.594598,93.9327762 159.260289,98.506994 162.008667,105.426565 C165.18971,113.698494 162.974346,123.071283 156.424805,129.050836 L156.424805,129.072929 Z" id="Path" fill="#FFFFFF"></path>
                </g>
            </g>
        </g>
    </g>
</svg>