<?xml version="1.0" encoding="UTF-8"?>
<svg width="24px" height="24px" viewBox="0 0 24 24" version="1.1" xmlns="http://www.w3.org/2000/svg" xmlns:xlink="http://www.w3.org/1999/xlink">
    <title>icons/actions/drive-switch</title>
    <g id="icons/actions/drive-switch" stroke="none" stroke-width="1" fill="none" fill-rule="evenodd">
        <path d="M21.2466267,7.92592593 C21.4633668,7.92592593 21.6686149,8.01364049 21.8151103,8.16528412 L21.8832431,8.24632324 L23.8836088,11.3681542 C24.0308701,11.5936854 24.0383765,11.8777906 23.906217,12.1102701 C23.7905775,12.3136897 23.5839264,12.4495784 23.3514948,12.4804458 L23.2504931,12.4871355 L22.7033931,12.4871355 C22.4442134,12.4860636 22.227144,12.6783128 22.2033016,12.9300453 C21.8135886,16.9988215 18.9248762,20.4268879 14.9078557,21.5876304 C10.8908351,22.7483729 6.55391725,21.4081962 3.95496512,18.203013 C3.62425734,17.7800234 3.70192347,17.1765912 4.12956308,16.8464622 C4.55720269,16.5163332 5.177155,16.5812184 5.52325187,16.9923279 C7.58062225,19.5333079 10.9987442,20.6243726 14.1981797,19.7613652 C17.3976153,18.8983578 19.7553519,16.2493282 20.181932,13.0383338 C20.2007496,12.8983828 20.1564922,12.7573426 20.0605902,12.65164 C19.9838687,12.5670779 19.8801131,12.5117653 19.7675907,12.4936363 L19.6818406,12.4871355 L19.2457609,12.4871355 C18.9732281,12.4870255 18.7221964,12.3427496 18.5900369,12.1102701 C18.4767574,11.9110019 18.4660895,11.6738047 18.5561997,11.4680753 L18.6096446,11.3681542 L20.6100103,8.24632324 C20.7565416,8.0453152 20.9937632,7.92592593 21.2466267,7.92592593 Z M20.0453246,5.79237033 C20.3760814,6.21478813 20.2984038,6.81740479 19.8707008,7.14708755 C19.4429978,7.47677031 18.8229536,7.41197281 18.4768054,7.00141901 C16.4191302,4.46387345 13.0005017,3.37428352 9.80059201,4.23612443 C6.60068232,5.09796534 4.24259631,7.74341444 3.81595292,10.9500687 C3.79713258,11.0898306 3.84139655,11.2306801 3.9373127,11.3362399 C4.01404561,11.4206877 4.1178166,11.4759255 4.23035564,11.49403 L4.31611847,11.500522 L4.75226283,11.500522 C5.02512519,11.5006286 5.27641465,11.6450095 5.40848002,11.8775581 C5.51975911,12.0753913 5.53004152,12.310079 5.44116588,12.5140227 L5.3884734,12.6131196 L3.38781121,15.730731 C3.25046154,15.9443476 3.00989097,16.0740741 2.75110047,16.0740741 C2.52928005,16.0740741 2.32084569,15.9787648 2.17932571,15.8170112 L2.11438973,15.730731 L0.113727541,12.6131196 C-0.0305545536,12.3878932 -0.0380620775,12.1041721 0.0941170138,11.8720068 C0.209773719,11.6688621 0.416455397,11.5331571 0.648921403,11.5023314 L0.749938117,11.4956507 L1.29411823,11.4956507 C1.55333627,11.4967212 1.77043784,11.3047319 1.79428378,11.0533396 C2.18581716,6.99090428 5.07562079,3.56909294 9.09286917,2.41109759 C13.1101176,1.25310225 17.4466353,2.59188418 20.0453246,5.79237033 Z M15.8144966,12.7622857 C16.2046428,12.7632454 16.5268532,13.0494432 16.5786621,13.4209158 L16.5859355,13.5241905 L16.5859355,15.048 C16.5847705,15.4332451 16.2950788,15.7513645 15.9190412,15.8026758 L15.8144966,15.8099048 L8.48582746,15.8099048 C8.09584185,15.8085637 7.77385161,15.5225383 7.72175384,15.1512304 L7.7143886,15.048 L7.7143886,13.5241905 C7.71555356,13.1389454 8.00524532,12.820826 8.38128286,12.7695146 L8.48582746,12.7622857 L15.8144966,12.7622857 Z M15.4287772,14.3809524 L8.87154689,14.3809524 C8.71177667,14.3809524 8.58225732,14.508871 8.58225732,14.6666667 C8.58225732,14.8019201 8.67741439,14.915223 8.80521544,14.944835 L8.87154689,14.952381 L15.4287772,14.952381 C15.5885474,14.952381 15.7180668,14.8244623 15.7180668,14.6666667 C15.7180668,14.508871 15.5885474,14.3809524 15.4287772,14.3809524 Z M15.2359175,13.1432381 C15.0228905,13.1432381 14.8501981,13.3137963 14.8501981,13.5241905 C14.8501981,13.7345847 15.0228905,13.9051429 15.2359175,13.9051429 C15.4489444,13.9051429 15.6216369,13.7345847 15.6216369,13.5241905 C15.6216369,13.3137963 15.4489444,13.1432381 15.2359175,13.1432381 Z M14.6573383,8.76228571 C15.1496906,8.77659217 15.5820694,9.07665312 15.7665993,9.51899045 L15.8106394,9.64304762 L16.4625053,12.1851429 C16.4717218,12.2202368 16.459878,12.2574498 16.4319892,12.2810244 C16.4041003,12.3045989 16.3650449,12.3104112 16.3313607,12.296 C16.2088895,12.2440442 16.0793575,12.2109337 15.9472696,12.1975848 L15.8144966,12.1908571 L8.48582746,12.1908571 C8.30810578,12.1909539 8.13225828,12.2267256 7.96896342,12.296 C7.93527915,12.3104112 7.89622375,12.3045989 7.86833492,12.2810244 C7.84974236,12.265308 7.83828095,12.2435301 7.83543667,12.2203595 L7.83781882,12.1851429 L8.49007037,9.64304762 C8.62794386,9.17614716 9.0306165,8.83839704 9.51037295,8.77320113 L9.64298575,8.76228571 L14.6573383,8.76228571 Z" id="Combined-Shape" fill="#000000" fill-rule="nonzero"></path>
    </g>
</svg>