<?xml version="1.0" encoding="UTF-8"?>
<svg width="328px" height="80px" viewBox="0 0 328 80" version="1.1" xmlns="http://www.w3.org/2000/svg" xmlns:xlink="http://www.w3.org/1999/xlink">
    <title>logo-kdrive-only-dark</title>
    <g id="logo-kdrive-only-dark" stroke="none" stroke-width="1" fill="none" fill-rule="evenodd">
        <g id="logo-kdrive" transform="translate(0.000000, 1.000000)" fill-rule="nonzero">
            <path d="M34.5023672,0.30310847 L41.2448433,3.1160188 C42.2806434,3.54814687 43.081468,4.40219052 43.4448653,5.46224439 L46.1284516,13.2904411 C46.5616232,14.5540312 47.6100067,15.5103374 48.9099183,15.8276176 L77.0072027,22.6855532 C78.7641235,23.1143794 80,24.6857314 80,26.4907375 L80,59.2036143 C80,61.3671026 78.2425515,63.1209563 76.0746286,63.1209563 C75.6833291,63.1209563 75.2942284,63.0625677 74.9202325,62.9477274 L31.8339523,49.7175288 C30.1868992,49.21178 29.0629771,47.6931478 29.0629771,45.9734156 L29.0629771,3.91734192 C29.0629771,1.75385371 30.8204257,0 32.9883484,0 C33.5081537,0 34.0227825,0.103029347 34.5023672,0.30310847 Z" id="Rectangle-Copy-32" fill="#A2BFFF" opacity="0.504231771"></path>
            <path d="M24.7067859,8.12354364 L31.449262,10.936454 C32.4850623,11.368582 33.2858867,12.2226257 33.6492841,13.2826796 L36.3328705,21.1108762 C36.7660421,22.3744663 37.8144256,23.3307726 39.1143372,23.6480527 L67.2116214,30.5059884 C68.9685422,30.9348146 70.2044189,32.5061666 70.2044189,34.3111727 L70.2044189,67.0240495 C70.2044189,69.1875376 68.4469702,70.9413913 66.2790475,70.9413913 C65.8877478,70.9413913 65.4986473,70.8830029 65.1246512,70.7681626 L22.0383711,57.537964 C20.3913181,57.0322152 19.2673958,55.513583 19.2673958,53.7938508 L19.2673958,11.7377771 C19.2673958,9.57428889 21.0248444,7.82043516 23.1927673,7.82043516 C23.7125724,7.82043516 24.2272012,7.92346452 24.7067859,8.12354364 Z" id="Rectangle-Copy-12" fill="#A0BDFF" opacity="0.8"></path>
            <path d="M14.9112047,14.7709138 L21.6536807,17.5838241 C22.689481,18.0159522 23.4903056,18.8699957 23.853703,19.9300497 L26.5372892,27.7582464 C26.9704608,29.0218365 28.0188444,29.9781428 29.3187559,30.2954229 L57.4160403,37.1533586 C59.1729611,37.5821846 60.4088376,39.1535368 60.4088376,40.9585429 L60.4088376,73.6714197 C60.4088376,75.8349078 58.6513889,77.5887615 56.4834662,77.5887615 C56.0921665,77.5887615 55.703066,77.5303731 55.3290701,77.4155328 L12.2427899,64.1853342 C10.5957369,63.6795854 9.47181462,62.1609532 9.47181462,60.441221 L9.47181462,18.3851472 C9.47181462,16.221659 11.2292633,14.4678053 13.397186,14.4678053 C13.9169912,14.4678053 14.43162,14.5708347 14.9112047,14.7709138 Z" id="Rectangle" fill="#1A47FF"></path>
            <path d="M4.97704277,32.1101412 L48.4938195,44.1734081 C49.81046,44.5383934 50.8421522,45.5604324 51.2175568,46.8716606 L59.4147756,75.5032408 C59.7125627,76.5433636 59.1090523,77.6274601 58.0667975,77.9246381 C57.7014228,78.0288174 57.3136,78.0249083 56.9504083,77.9133856 L11.3611158,63.9146047 C10.1726724,63.549678 9.22776284,62.6444049 8.81392464,61.4742618 L0.224853888,37.1883403 C-0.496674412,35.1481919 0.575668429,32.9106071 2.61999866,32.1905545 C3.37884663,31.9232738 4.20167576,31.895202 4.97704277,32.1101412 Z" id="Rectangle-Copy-37" fill="#5287FF"></path>
        </g>
        <path d="M110.961113,58.3482385 L110.961113,49.7249322 L113.816436,46.6666667 L122.282219,58.3482385 L129.245199,58.3482385 L117.773814,42.4552846 L128.093052,31.3753388 L120.929697,31.3753388 L110.961113,42.204607 L110.961113,22 L105,22 L105,58.3482385 L110.961113,58.3482385 Z M142.019013,58.3482385 C153.540492,58.3482385 162.306835,54.3373984 162.306835,40.1490515 C162.306835,25.9607046 153.540492,22 142.019013,22 L132.100523,22 L132.100523,58.3482385 L142.019013,58.3482385 Z M141.718453,53.2344173 L138.462383,53.2344173 L138.462383,27.1138211 L141.718453,27.1138211 C148.681434,27.1138211 155.694508,28.6680217 155.694508,40.1490515 C155.694508,51.6802168 148.681434,53.2344173 141.718453,53.2344173 Z M173.778221,58.3482385 L173.778221,44.2100271 C173.778221,38.795393 175.932236,37.2913279 179.689241,37.2913279 C180.590921,37.2913279 181.542696,37.3414634 182.544564,37.4417344 L182.544564,31.4254743 C182.093723,31.3753388 181.442509,31.3252033 180.991669,31.3252033 C177.735598,31.3753388 175.130742,33.1802168 173.678034,36.1883469 L173.678034,31.3753388 L167.817108,31.3753388 L167.817108,58.3482385 L173.778221,58.3482385 Z M192.262681,28.0162602 L192.262681,22 L186.301568,22 L186.301568,28.0162602 L192.262681,28.0162602 Z M192.262681,58.3482385 L192.262681,31.3753388 L186.301568,31.3753388 L186.301568,58.3482385 L192.262681,58.3482385 Z M211.047701,58.3482385 L220.765818,31.3753388 L214.554238,31.3753388 L208.392751,50.6273713 L202.181171,31.3753388 L195.618938,31.3753388 L205.437242,58.3482385 L211.047701,58.3482385 Z M235.443181,59 C242.406161,59 246.413632,54.5880759 247.665967,50.2764228 L241.805041,50.2764228 C240.75308,52.7831978 238.298504,54.0365854 235.192714,54.0365854 C231.786363,54.0365854 228.279826,51.5799458 227.879079,46.5663957 L247.966527,46.5663957 C248.467461,37.4918699 243.307842,30.7737127 235.042434,30.7737127 C227.378145,30.7737127 221.817779,36.5392954 221.817779,44.6612466 C221.817779,52.3821138 226.777025,59 235.443181,59 Z M241.905228,42.204607 L227.879079,42.204607 C228.380013,37.0907859 232.237204,35.4363144 235.042434,35.4363144 C238.548971,35.4363144 241.754947,37.9932249 241.905228,42.204607 Z" id="kDrive" fill="#FFFFFF" fill-rule="nonzero"></path>
        <g id="Beta" transform="translate(270.000000, 29.000000)">
            <rect id="Rectangle" fill="#40C36D" x="0" y="0" width="58" height="29" rx="14.2602043"></rect>
            <path d="M19.6512265,18.3488115 C21.4724583,18.3488115 23.0492295,17.6520987 23.0492295,15.7330826 C23.0492295,14.5230024 22.4014088,13.985189 21.729142,13.6673901 C22.1936172,13.3618143 22.7314306,12.6284324 22.7314306,11.7972662 C22.7314306,9.96381134 21.0690982,9.48711308 19.5045501,9.48711308 L16.057655,9.48711308 L16.057655,18.3488115 L19.6512265,18.3488115 Z M19.6145574,13.1417997 L17.8055486,13.1417997 L17.8055486,10.8560927 L19.6145574,10.8560927 C20.4212775,10.8560927 20.9346449,11.2716758 20.9346449,11.9683886 C20.9346449,12.7384397 20.4335006,13.1417997 19.6145574,13.1417997 Z M19.7367877,16.9798319 L17.8055486,16.9798319 L17.8055486,14.4618872 L19.6634495,14.4618872 C20.7512994,14.4618872 21.2646668,14.9141394 21.2646668,15.7330826 C21.2646668,16.5398027 20.7512994,16.9798319 19.7367877,16.9798319 Z M27.0583841,18.5077109 C28.8429468,18.5077109 29.8085663,17.419861 30.1630343,16.4420185 L28.4273637,16.4420185 C28.0851188,17.016501 27.5595284,17.1998465 27.046161,17.1998465 C26.2516639,17.1998465 25.4693899,16.64981 25.3838286,15.525291 L30.2363725,15.525291 C30.3097107,13.2029149 29.0385153,11.6261437 27.0094919,11.6261437 C25.0660298,11.6261437 23.7092732,13.0806846 23.7092732,15.0363697 C23.7092732,16.9309398 24.9437995,18.5077109 27.0583841,18.5077109 Z M28.5251479,14.364103 L25.4082747,14.364103 C25.5427281,13.2640301 26.3616712,12.86067 26.9972689,12.86067 C27.7062048,12.86067 28.4884788,13.251807 28.5251479,14.364103 Z M34.587772,18.3488115 L34.587772,17.1387313 L34.0744046,17.1387313 C33.475476,17.1387313 33.2432384,17.0042779 33.2432384,16.3320112 L33.2432384,12.9340082 L34.612218,12.9340082 L34.612218,11.7728201 L33.2432384,11.7728201 L33.2432384,9.98825741 L31.55646,9.98825741 L31.55646,11.7728201 L30.6275095,11.7728201 L30.6275095,12.9340082 L31.55646,12.9340082 L31.55646,16.5764718 C31.55646,17.8843363 31.8498127,18.3488115 33.3532457,18.3488115 L34.587772,18.3488115 Z M37.7902064,18.5077109 C38.780272,18.5077109 39.4769849,18.2143581 39.9414601,17.5298683 C39.9659062,17.8476672 40.0025753,18.14102 40.0514674,18.3488115 L41.6037925,18.3488115 C41.4815622,17.798775 41.408224,17.2120695 41.408224,16.1731117 C41.408224,15.5741832 41.43267,14.7063479 41.43267,14.4985563 C41.43267,12.2739644 40.1614747,11.6016977 38.5969266,11.6016977 C36.9101481,11.6016977 35.8345213,12.5550942 35.7122909,13.8507356 L37.2890621,13.8507356 C37.3257312,13.1295767 37.8635446,12.7873318 38.5113653,12.7873318 C39.1958551,12.7873318 39.7458916,13.1417997 39.7458916,14.1563114 L39.7458916,14.2663187 C37.1668318,14.5596715 35.4189382,15.0241467 35.4189382,16.5764718 C35.4189382,17.774329 36.5312341,18.5077109 37.7902064,18.5077109 Z M38.2913507,17.3587459 C37.5335227,17.3587459 37.1546087,16.9676088 37.1546087,16.4909106 C37.1546087,15.7575287 37.9124367,15.5375141 39.7947837,15.3419456 L39.7947837,15.8308668 C39.7947837,16.7842634 39.3425315,17.3587459 38.2913507,17.3587459 Z" fill="#FFFFFF" fill-rule="nonzero"></path>
        </g>
    </g>
</svg>