<svg width="24" height="24" viewBox="0 0 24 24" fill="none" xmlns="http://www.w3.org/2000/svg">
<path fill-rule="evenodd" clip-rule="evenodd" d="M18.2314 10.1385C18.5503 10.3862 18.6765 10.8141 18.5443 11.1993C18.3697 11.5669 17.9828 11.7795 17.5844 11.7266H16.5845C16.0846 11.7627 15.6098 11.9627 15.2315 12.2966L8.93592 18.6878C7.95973 19.6794 6.37733 19.6794 5.40114 18.6878L0.732421 13.9417C0.263467 13.4653 0 12.8191 0 12.1452C0 11.4714 0.263467 10.8252 0.732421 10.3488L3.55325 7.48246C3.61068 7.42356 3.69287 7.39699 3.77324 7.41134L9.53288 8.43961C9.66807 8.46433 9.79757 8.37358 9.82287 8.23639L9.96586 7.4154C9.99019 7.27803 9.90088 7.14645 9.76587 7.12074L1.82635 5.69823C1.46273 5.64842 1.15516 5.40025 1.02502 5.05165C0.894876 4.70306 0.963073 4.31004 1.2027 4.02769C1.44232 3.74534 1.81487 3.61903 2.17333 3.69859L6.38108 4.45354C6.46143 4.46771 6.54354 4.44117 6.60106 4.38241L8.52495 2.43053C9.11905 1.85649 10.0517 1.85649 10.6458 2.43053L18.2314 10.1385ZM21.0007 14.3526C21.359 14.3526 21.6899 14.5474 21.8681 14.8633C22.8411 16.5906 24 18.8757 24 19.9518C24 21.6353 22.6569 23 21.0002 23C19.3434 23 18.0004 21.6353 18.0004 19.9518C18.0004 18.8737 19.1593 16.5896 20.1332 14.8633C20.3115 14.5474 20.6424 14.3526 21.0007 14.3526Z" fill="black"/>
</svg>
