<svg width="24" height="24" viewBox="0 0 24 24" fill="none" xmlns="http://www.w3.org/2000/svg">
<path fill-rule="evenodd" clip-rule="evenodd" d="M18.5493 10.6291C18.5791 10.6656 18.6206 10.6906 18.6667 10.7C19.0432 10.7769 19.3817 10.9815 19.6246 11.2793C19.8676 11.5771 20.0002 11.9497 20 12.334V16.334C20 16.7305 19.8587 17.1141 19.6014 17.4158C19.344 17.7175 18.9876 17.9175 18.596 17.98C18.5388 17.9892 18.485 18.0132 18.4398 18.0495C18.3947 18.0859 18.3598 18.1334 18.3387 18.1873C18.1668 18.6234 17.8677 18.9976 17.4804 19.2615C17.0931 19.5255 16.6354 19.6668 16.1667 19.6673H14.2147C14.1334 19.6673 14.0549 19.6969 13.994 19.7507C13.8118 19.9121 13.5767 20.0011 13.3333 20.0007H12.6667C12.4015 20.0007 12.1471 19.8953 11.9596 19.7078C11.772 19.5202 11.6667 19.2659 11.6667 19.0007C11.6667 18.7354 11.772 18.4811 11.9596 18.2936C12.1471 18.106 12.4015 18.0007 12.6667 18.0007H13.3333C13.5766 18.0009 13.8115 18.0897 13.994 18.2507C14.0549 18.3044 14.1334 18.334 14.2147 18.334H16.1667C16.4319 18.334 16.6862 18.2286 16.8738 18.0411C17.0613 17.8536 17.1667 17.5992 17.1667 17.334V10.5C17.1667 9.12971 16.6223 7.81555 15.6534 6.84661C14.6844 5.87768 13.3703 5.33333 12 5.33333C10.6297 5.33333 9.31555 5.87768 8.34661 6.84661C7.37768 7.81555 6.83333 9.12971 6.83333 10.5V17.6673C6.83333 17.7557 6.79821 17.8405 6.7357 17.903C6.67319 17.9655 6.58841 18.0007 6.5 18.0007H5.66667C5.22464 18.0007 4.80072 17.8251 4.48816 17.5125C4.17559 17.1999 4 16.776 4 16.334V12.334C4.00008 11.9487 4.13363 11.5754 4.37793 11.2775C4.62224 10.9796 4.9622 10.7755 5.34 10.7C5.38612 10.6906 5.42757 10.6656 5.45734 10.6291C5.48711 10.5927 5.50336 10.5471 5.50333 10.5C5.50333 8.77609 6.18815 7.12279 7.40714 5.90381C8.62613 4.68482 10.2794 4 12.0033 4C13.7272 4 15.3805 4.68482 16.5995 5.90381C17.8185 7.12279 18.5033 8.77609 18.5033 10.5C18.5033 10.5471 18.5196 10.5927 18.5493 10.6291ZM8.66665 11.669L8.36665 11.4436C8.31712 11.4065 8.25824 11.3839 8.19658 11.3783C8.13493 11.3727 8.07294 11.3845 8.01758 11.4121C7.96221 11.4398 7.91564 11.4824 7.8831 11.535C7.85055 11.5877 7.83331 11.6484 7.83331 11.7103V16.9603C7.83331 17.0222 7.85055 17.0829 7.8831 17.1355C7.91564 17.1882 7.96221 17.2307 8.01758 17.2584C8.07294 17.2861 8.13493 17.2978 8.19658 17.2923C8.25824 17.2867 8.31712 17.2641 8.36665 17.227L8.66665 17.0023C8.87364 16.847 9.04165 16.6457 9.15736 16.4143C9.27307 16.1829 9.33331 15.9277 9.33331 15.669V13.0023C9.33331 12.7435 9.27307 12.4884 9.15736 12.2569C9.04165 12.0255 8.87364 11.8242 8.66665 11.669ZM15.6334 17.227C15.6829 17.2641 15.7418 17.2867 15.8034 17.2923C15.8651 17.2978 15.9271 17.2861 15.9824 17.2584C16.0378 17.2307 16.0844 17.1882 16.1169 17.1355C16.1494 17.0829 16.1667 17.0222 16.1667 16.9603V11.7103C16.1667 11.6484 16.1494 11.5877 16.1169 11.535C16.0844 11.4824 16.0378 11.4398 15.9824 11.4121C15.9271 11.3845 15.8651 11.3727 15.8034 11.3783C15.7418 11.3839 15.6829 11.4065 15.6334 11.4436L15.3334 11.669C15.1264 11.8242 14.9584 12.0255 14.8426 12.2569C14.7269 12.4884 14.6667 12.7435 14.6667 13.0023V15.669C14.6667 15.9277 14.7269 16.1829 14.8426 16.4143C14.9584 16.6457 15.1264 16.847 15.3334 17.0023L15.6334 17.227Z" fill="black"/>
</svg>
