<?xml version="1.0" encoding="UTF-8"?>
<svg width="24px" height="24px" viewBox="0 0 24 24" version="1.1" xmlns="http://www.w3.org/2000/svg" xmlns:xlink="http://www.w3.org/1999/xlink">
    <title>icons/document types/folder-shared</title>
    <g id="icons/document-types/folder-shared" stroke="none" stroke-width="1" fill="none" fill-rule="evenodd">
        <path d="M8.5,2.00001471 C9.06753168,1.99750288 9.58748755,2.31675996 9.842,2.82402838 L9.842,2.82402838 L10.789,4.72402557 C10.8737713,4.89319578 11.0467784,5.00001471 11.236,5.00002516 L11.236,5.00002516 L22.5,5.00002516 C23.3284271,5.00002516 24,5.67159704 24,6.50001471 L24,6.50001471 L24,20.5000022 C24,21.3284281 23.3284271,22 22.5,22 L22.5,22 L1.5,22 C0.671572875,22 0,21.3284281 0,20.5000022 L0,20.5000022 L0,3.50002738 C0,2.67160148 0.671572875,2.00001471 1.5,2.00001471 L1.5,2.00001471 Z M10.1446696,8.88890829 C9.94020519,8.88890829 9.75392006,8.96514149 9.60912871,9.10734897 L9.60912871,9.10734897 L5.55574339,13.0819064 C5.41042814,13.2246277 5.33333333,13.4088763 5.33333333,13.6111235 C5.33333333,13.8133707 5.41042814,13.9976194 5.55574339,14.1403407 L5.55574339,14.1403407 L9.60937224,18.1151371 C9.66656968,18.1807664 9.76153941,18.2457759 9.87032366,18.2851389 C9.95861284,18.3170859 10.0508105,18.3333388 10.1446696,18.3333388 C10.2385287,18.3333388 10.3307264,18.3170859 10.4190156,18.2851389 C10.5277999,18.2457759 10.6227696,18.1807664 10.6993897,18.0947636 C10.8250014,17.9726919 10.9026199,17.7897327 10.9026199,17.5889183 C10.9026199,17.3881038 10.8250014,17.2051447 10.6802098,17.0629377 L10.6802098,17.0629377 L7.92690505,14.3587806 L17.9021256,14.3587806 C18.1095417,14.3587806 18.298418,14.283576 18.4442566,14.1403407 C18.5890481,13.9981337 18.6666667,13.8151746 18.6666667,13.6143601 C18.6666667,13.4106465 18.5900952,13.2251416 18.4442566,13.0819064 C18.298418,12.9386711 18.1095417,12.8634664 17.9021256,12.8634664 L17.9021256,12.8634664 L7.92690505,12.8634664 L10.6802098,10.1593093 C10.8250014,10.0171024 10.9026199,9.83414322 10.9026199,9.63332879 C10.9026199,9.43251437 10.8250014,9.24955518 10.6802098,9.10734824 C10.5354183,8.96514129 10.3491338,8.88890829 10.1446696,8.88890829 Z" id="folder-left" fill="#5287FF" fill-rule="nonzero"></path>
    </g>
</svg>