<svg width="24" height="24" viewBox="0 0 24 24" fill="none" xmlns="http://www.w3.org/2000/svg">
<g clip-path="url(#clip0_1149_9098)">
<path fill-rule="evenodd" clip-rule="evenodd" d="M2.46667 2C2.20893 2 2 2.20893 2 2.46667V17H3.70511L6.87171 12.0919C6.8844 12.0722 6.89777 12.053 6.91181 12.0343C7.12667 11.7476 7.40064 11.5104 7.71515 11.3389C8.02966 11.1673 8.37737 11.0654 8.73472 11.0399C9.09208 11.0145 9.45072 11.0661 9.78637 11.1914C10.122 11.3166 10.4268 11.5126 10.6801 11.7659L10.7445 11.8302L12.4138 8.63675C12.4388 8.58891 12.4676 8.54318 12.5 8.5C12.7329 8.18951 13.0348 7.9375 13.382 7.76393C13.7291 7.59036 14.1119 7.5 14.5 7.5C14.8881 7.5 15.2709 7.59036 15.618 7.76393C15.9652 7.9375 16.2671 8.18951 16.5 8.5C16.5298 8.53972 16.5566 8.58161 16.5802 8.62531L21.0968 17H22V2.46667C22 2.20893 21.7911 2 21.5333 2H2.46667ZM22 19H20.5H4.25H2V21.5333C2 21.7911 2.20893 22 2.46667 22H21.5333C21.7911 22 22 21.7911 22 21.5333V19ZM0 18V21.5333C0 22.8956 1.10436 24 2.46667 24H21.5333C22.8956 24 24 22.8956 24 21.5333V18V2.46667C24 1.10436 22.8956 0 21.5333 0H2.46667C1.10436 0 0 1.10436 0 2.46667V18ZM6.375 3.5C4.78718 3.5 3.5 4.78718 3.5 6.375C3.5 7.96282 4.78718 9.25 6.375 9.25C7.96282 9.25 9.25 7.96282 9.25 6.375C9.25 4.78718 7.96282 3.5 6.375 3.5Z" fill="black"/>
</g>
<defs>
<clipPath id="clip0_1149_9098">
<rect width="24" height="24" fill="white"/>
</clipPath>
</defs>
</svg>
