<svg width="24" height="24" xmlns="http://www.w3.org/2000/svg">
    <path d="M15.586 0c.2651948 0 .5195073.105450625.707.293l5.414 5.414c.1875494.18749273.293.44180519.293.707V22c0 1.1045695-.8954305 2-2 2H4c-1.1045695 0-2-.8954305-2-2V2c0-1.1045695.8954305-2 2-2zm-.621 2H4.5c-.27614237 0-.5.22385763-.5.5v19c0 .2761424.22385763.5.5.5h15c.2761424 0 .5-.2238576.5-.5V7.035c0-.13235245-.052531-.25929446-.146-.353l-4.536-4.536c-.0937055-.09346895-.2206475-.146-.353-.146zm-.32 4.737c.6433077-.12048634 1.30686.05171071 1.8103998.46981301C16.9589395 7.6249153 17.2501784 8.24550647 17.25 8.9v4.855c0 1.2150264-.9849736 2.2-2.2 2.2-1.2150264 0-2.2-.9849736-2.2-2.2 0-1.2150264.9849736-2.2 2.2-2.2.068 0 .2.037.2-.128V8.9c0-.11045695-.0895431-.2-.2-.2l-4.115 1.32c-.0401183.0121111-.0808401.0221247-.122.03-.0958201.0180231-.1646803.1025141-.163.2v5.9c0 1.2150264-.98497355 2.2-2.2 2.2-1.21502645 0-2.2-.9849736-2.2-2.2 0-1.2150264.98497355-2.2 2.2-2.2.069 0 .2-.001.2-.15v-3.554c.00088492-1.03090809.71751073-1.92294927 1.724-2.146l4.149-1.336c.0399679-.01291084.0807169-.0232651.122-.031z" fill="#00BCD4" fill-rule="evenodd"/>
</svg>
