<svg width="24" height="24" xmlns="http://www.w3.org/2000/svg">
    <path d="M21.5 13.251c1.1034291.0027483 1.9972517.8965709 2 2v4c-.0032948 1.1032019-.8967981 1.9967052-2 2h-19c-1.10297489-.0038403-1.996159714-.8970251-2-2v-4c.003294801-1.1032019.89679813-1.9967052 2-2zm-1 4.249h-17c-.41421356 0-.75.3357864-.75.75s.33578644.75.75.75h17c.4142136 0 .75-.3357864.75-.75s-.3357864-.75-.75-.75zm-.5-3.249c-.5522847 0-1 .4477153-1 1s.4477153 1 1 1 1-.4477153 1-1-.4477153-1-1-1zm-1.5-11.5c1.392493.04096848 2.5999461.97462457 2.99 2.312l1.69 6.673c.0238943.0921216-.0068113.1898057-.0791148.2516889-.0723034.0618833-.1735568.0771405-.2608852.0393111-.4233514-.1818452-.8792462-.275746-1.34-.276h-19c-.46075376.000254-.91664861.0941548-1.34.276-.08732845.0378294-.188581822.0225722-.260885244-.0393111C.826811334 11.9258057.796105741 11.8281216.82 11.736l1.691-6.673C2.90094001 3.72596687 4.1078803 2.79239512 5.5 2.751z" fill="#000" fill-rule="nonzero"/>
</svg>
