<svg width="24" height="24" xmlns="http://www.w3.org/2000/svg">
    <path d="M8 6.4999999c1.21328733-.00030522 2.307311.73022789 2.772 1.8510001.1406889.33064931.093157.71136136-.1245091.99727008-.2176661.28590872-.5719966.43305086-.92816407.38543684C9.3631594 9.68609291 9.05992179 9.4510442 8.925 9.118c-.04970407-.12154977-.12352272-.23176747-.217-.324-.18700379-.18901021-.44211585-.29494657-.708-.2940001H4c-1.1045695 0-2 .8954306-2 2v3c0 1.1045696.8954305 2 2 2h4c.26517971.0013505.51970218-.1042799.706-.2929999.0945523-.0925246.16909252-.203484.219-.326.21181714-.510019.79696501-.7517786 1.307-.54.2454176.1017038.4402808.2968806.5415899.5424614.1013091.2455808.1007371.5213802-.0015899.7665386-.4665213 1.1191291-1.55952728 1.8485884-2.772 1.8499999H4c-2.209139 0-4-1.7908609-4-4v-3c0-2.2091389 1.790861-4 4-4zM20 6.5c2.209139 0 4 1.790861 4 4v3c0 2.209139-1.790861 4-4 4h-4c-1.2130442.000473-2.3069998-.72962-2.772-1.85-.13719-.3299348-.0879407-.7079971.1291962-.9917745.2171369-.2837774.5691732-.4301573.9235-.384.3543269.0461574.6571138.2778397.7943038.6077745.0494559.1216817.1233063.2319467.217.324.1867461.1893929.4420267.2953992.708.294h4c1.1045695 0 2-.8954305 2-2v-3c0-1.1045695-.8954305-2-2-2h-4c-.264801-.00142737-.5191143.10339581-.706.291-.0943348.09270529-.168843.20361699-.219.326-.1349218.3330442-.4381594.56809291-.7943268.61570692-.3561675.04761402-.710498-.09952812-.9281641-.38543684C13.134843 9.06136136 13.0873111 8.68064931 13.228 8.35 13.6943046 7.23069259 14.7874458 6.50114313 16 6.5zM18 11c.5522847 0 1 .4477153 1 1s-.4477153 1-1 1H7c-.55228475 0-1-.4477153-1-1s.44771525-1 1-1z" fill="#000" fill-rule="evenodd"/>
</svg>
