<svg width="124" height="124" viewBox="0 0 124 124" fill="none" xmlns="http://www.w3.org/2000/svg">
<rect width="124" height="124" rx="62" fill="#2E2F30"/>
<path fill-rule="evenodd" clip-rule="evenodd" d="M75.5 57H77C79.2091 57 81 58.7909 81 61V82C81 84.2091 79.2091 86 77 86H47C44.7909 86 43 84.2091 43 82V61C43 58.7909 44.7909 57 47 57H48.5V51.5C48.5 44.0442 54.5442 38 62 38C69.4558 38 75.5 44.0442 75.5 51.5V57ZM61.2935 65.0448C59.3806 65.3881 57.9912 67.0566 58 69C58.004 70.4233 58.7662 71.7365 60 72.446V77C60 78.1046 60.8954 79 62 79C63.1046 79 64 78.1046 64 77V72.446C65.6831 71.4743 66.4241 69.4334 65.7567 67.6082C65.0892 65.7829 63.2064 64.7016 61.2935 65.0448ZM70.5 56C70.5 56.5523 70.0523 57 69.5 57H54.5C53.9477 57 53.5 56.5523 53.5 56V51.5C53.5 46.8056 57.3056 43 62 43C66.6944 43 70.5 46.8056 70.5 51.5V56Z" fill="#85A2B6"/>
</svg>
