<svg width="17" height="17" viewBox="0 0 17 17" fill="none" xmlns="http://www.w3.org/2000/svg">
<path fill-rule="evenodd" clip-rule="evenodd" d="M14.8441 2.98405H11.6775C11.5854 2.98405 11.5108 2.90943 11.5108 2.81738V1.98405C11.5108 1.06357 10.7646 0.317383 9.84412 0.317383H6.51078C5.59031 0.317383 4.84412 1.06357 4.84412 1.98405V2.81738C4.84412 2.86159 4.82656 2.90398 4.7953 2.93523C4.76405 2.96649 4.72165 2.98405 4.67745 2.98405H1.51078C1.14259 2.98405 0.844116 3.28253 0.844116 3.65072C0.844116 4.01891 1.14259 4.31738 1.51078 4.31738H14.8441C15.2123 4.31738 15.5108 4.01891 15.5108 3.65072C15.5108 3.28253 15.2123 2.98405 14.8441 2.98405ZM6.17749 2.81731V1.98398C6.17749 1.79988 6.32673 1.65064 6.51082 1.65064H9.84416C10.0283 1.65064 10.1775 1.79988 10.1775 1.98398V2.81731C10.1775 2.90936 10.1029 2.98398 10.0108 2.98398H6.34416C6.25211 2.98398 6.17749 2.90936 6.17749 2.81731ZM3.17748 5.31738H13.1775C13.3616 5.31738 13.5108 5.46662 13.5108 5.65072V14.984C13.5108 15.7204 12.9139 16.3174 12.1775 16.3174H4.17748C3.4411 16.3174 2.84415 15.7204 2.84415 14.984V5.65072C2.84415 5.46662 2.99339 5.31738 3.17748 5.31738ZM6.51084 14.4841C6.78698 14.4841 7.01084 14.2603 7.01084 13.9841V7.98412C7.01084 7.70798 6.78698 7.48412 6.51084 7.48412C6.23469 7.48412 6.01084 7.70798 6.01084 7.98412V13.9841C6.01084 14.2603 6.23469 14.4841 6.51084 14.4841ZM10.3442 13.9841C10.3442 14.2603 10.1203 14.4841 9.84418 14.4841C9.56804 14.4841 9.34418 14.2603 9.34418 13.9841V7.98412C9.34418 7.70798 9.56804 7.48412 9.84418 7.48412C10.1203 7.48412 10.3442 7.70798 10.3442 7.98412V13.9841Z" fill="#85A2B6"/>
<mask id="mask0_2315_22092" style="mask-type:luminance" maskUnits="userSpaceOnUse" x="0" y="0" width="16" height="17">
<path fill-rule="evenodd" clip-rule="evenodd" d="M14.8441 2.98405H11.6775C11.5854 2.98405 11.5108 2.90943 11.5108 2.81738V1.98405C11.5108 1.06357 10.7646 0.317383 9.84412 0.317383H6.51078C5.59031 0.317383 4.84412 1.06357 4.84412 1.98405V2.81738C4.84412 2.86159 4.82656 2.90398 4.7953 2.93523C4.76405 2.96649 4.72165 2.98405 4.67745 2.98405H1.51078C1.14259 2.98405 0.844116 3.28253 0.844116 3.65072C0.844116 4.01891 1.14259 4.31738 1.51078 4.31738H14.8441C15.2123 4.31738 15.5108 4.01891 15.5108 3.65072C15.5108 3.28253 15.2123 2.98405 14.8441 2.98405ZM6.17749 2.81731V1.98398C6.17749 1.79988 6.32673 1.65064 6.51082 1.65064H9.84416C10.0283 1.65064 10.1775 1.79988 10.1775 1.98398V2.81731C10.1775 2.90936 10.1029 2.98398 10.0108 2.98398H6.34416C6.25211 2.98398 6.17749 2.90936 6.17749 2.81731ZM3.17748 5.31738H13.1775C13.3616 5.31738 13.5108 5.46662 13.5108 5.65072V14.984C13.5108 15.7204 12.9139 16.3174 12.1775 16.3174H4.17748C3.4411 16.3174 2.84415 15.7204 2.84415 14.984V5.65072C2.84415 5.46662 2.99339 5.31738 3.17748 5.31738ZM6.51084 14.4841C6.78698 14.4841 7.01084 14.2603 7.01084 13.9841V7.98412C7.01084 7.70798 6.78698 7.48412 6.51084 7.48412C6.23469 7.48412 6.01084 7.70798 6.01084 7.98412V13.9841C6.01084 14.2603 6.23469 14.4841 6.51084 14.4841ZM10.3442 13.9841C10.3442 14.2603 10.1203 14.4841 9.84418 14.4841C9.56804 14.4841 9.34418 14.2603 9.34418 13.9841V7.98412C9.34418 7.70798 9.56804 7.48412 9.84418 7.48412C10.1203 7.48412 10.3442 7.70798 10.3442 7.98412V13.9841Z" fill="white"/>
</mask>
<g mask="url(#mask0_2315_22092)">
</g>
</svg>
