<?xml version="1.0" encoding="UTF-8"?>
<svg width="270px" height="105px" viewBox="0 0 270 105" version="1.1" xmlns="http://www.w3.org/2000/svg" xmlns:xlink="http://www.w3.org/1999/xlink">
    <title>Group 2</title>
    <g id="mobile" stroke="none" stroke-width="1" fill="none" fill-rule="evenodd">
        <g id="Drive---App-mobile---Liens-de-partage-securises" transform="translate(-72.000000, -509.000000)">
            <g id="Actions" transform="translate(0.000000, 469.000000)">
                <g id="Group-2" transform="translate(72.000000, 40.000000)">
                    <g id="Group" transform="translate(0.000000, 28.071427)">
                        <g id="logo" transform="translate(3.593143, 3.593143)">
                            <path d="M23.5533825,1.45372332 L27.8799453,3.26243257 C28.542134,3.53925901 29.0541024,4.08636963 29.286423,4.76545287 L31.0066453,9.79373954 C31.2835726,10.6032105 31.9538059,11.2158318 32.7848415,11.4190853 L50.7861252,15.821813 C51.9093275,16.0965241 52.6994254,17.1031511 52.6994254,18.2594598 L52.6994254,39.2636839 C52.6994254,40.6496404 51.5758857,41.7731802 50.1899291,41.7731802 C49.9397706,41.7731802 49.6910181,41.7357759 49.4519218,41.6622078 L21.8474606,33.1685278 C20.7944969,32.844539 20.0759716,31.871685 20.0759716,30.7700039 L20.0759716,3.76904469 C20.0759716,2.38308815 21.1995114,1.25954839 22.5854679,1.25954839 C22.9177802,1.25954839 23.2467832,1.32555023 23.5533825,1.45372332 Z" id="Rectangle-Copy-32" fill="#A2BFFF" opacity="0.504231771"></path>
                            <path d="M17.2796413,6.47271622 L21.6062041,8.28142547 C22.2683929,8.55825191 22.7803613,9.10536253 23.0126818,9.78444577 L24.7329042,14.8127324 C25.0098315,15.6222034 25.6800648,16.2348247 26.5111003,16.4380782 L44.5123841,20.8408059 C45.6355864,21.115517 46.4256843,22.122144 46.4256843,23.2784527 L46.4256843,44.2826768 C46.4256843,45.6686333 45.3021445,46.7921731 43.916188,46.7921731 C43.6660295,46.7921731 43.4172769,46.7547688 43.1781807,46.6812007 L15.5737195,38.1875207 C14.5207558,37.8635319 13.8022305,36.8906779 13.8022305,35.7889968 L13.8022305,8.78803759 C13.8022305,7.40208105 14.9257702,6.27854129 16.3117268,6.27854129 C16.644039,6.27854129 16.9730421,6.34454313 17.2796413,6.47271622 Z" id="Rectangle-Copy-12" fill="#A0BDFF" opacity="0.8"></path>
                            <path d="M11.0059002,10.7388603 L15.332463,12.5475696 C15.9946518,12.824396 16.5066202,13.3715066 16.7389407,14.0505899 L18.459163,19.0788766 C18.7360904,19.8883476 19.4063237,20.5009688 20.2373592,20.7042223 L38.238643,25.10695 C39.3618453,25.3816612 40.1519432,26.3882882 40.1519432,27.5445968 L40.1519432,48.5488209 C40.1519432,49.9347775 39.0284034,51.0583172 37.6424469,51.0583172 C37.3922884,51.0583172 37.1435358,51.0209129 36.9044396,50.9473448 L9.29997833,42.4536648 C8.24701468,42.1296761 7.52848935,41.156822 7.52848935,40.055141 L7.52848935,13.0541817 C7.52848935,11.6682252 8.65202911,10.5446854 10.0379856,10.5446854 C10.3702979,10.5446854 10.699301,10.6106872 11.0059002,10.7388603 Z" id="Rectangle" fill="#1A47FF"></path>
                            <path d="M4.64128217,21.8671161 L32.5232431,29.6121051 C33.3649735,29.8459191 34.024536,30.5006497 34.2645326,31.3406381 L39.5164378,49.7223076 C39.7068135,50.3886228 39.3209884,51.083108 38.6546732,51.2734838 C38.4210885,51.3402223 38.1731528,51.3377181 37.9409637,51.2662753 L8.73632266,42.2802323 C7.97654887,42.0464558 7.37246665,41.466527 7.10789922,40.7169193 L1.60320014,25.1202715 C1.14192593,23.8133279 1.82747644,22.3799042 3.13442006,21.9186299 C3.61955279,21.7474066 4.14558878,21.7294235 4.64128217,21.8671161 Z" id="Rectangle-Copy-37" fill="#5287FF"></path>
                        </g>
                    </g>
                    <g id="Group" transform="translate(164.685704, 9.357142)">
                        <g id="logo" transform="translate(5.726571, 5.726571)">
                            <path d="M37.5599372,2.32595734 L44.4271553,5.19678148 C45.4866574,5.63970379 46.3058068,6.5150808 46.6775196,7.601614 L49.4140631,15.6006527 C49.8571469,16.8958063 50.9295202,17.8760004 52.2591771,18.2012059 L80.9284289,25.2130897 C82.7255526,25.6526276 83.9897093,27.2632308 83.9897093,29.1133246 L83.9897093,62.5552602 C83.9897093,64.7727907 82.1920456,66.5704543 79.9745151,66.5704543 C79.5742615,66.5704543 79.1762574,66.5106074 78.7937034,66.3928985 L34.8304621,52.865748 C33.1457203,52.3473659 31.9960797,50.7907994 31.9960797,49.0281097 L31.9960797,6.03047159 C31.9960797,3.8129411 33.7937434,2.01527745 36.0112739,2.01527745 C36.5429735,2.01527745 37.0693784,2.1208804 37.5599372,2.32595734 Z" id="Rectangle-Copy-32" fill="#A2BFFF" opacity="0.504231771"></path>
                            <path d="M27.5611623,10.3249773 L34.4283804,13.1958014 C35.4878825,13.6387237 36.3070319,14.5141007 36.6787447,15.6006339 L39.4152882,23.5996727 C39.858372,24.8948263 40.9307453,25.8750203 42.2604021,26.2002259 L70.929654,33.2121096 C72.7267777,33.6516475 73.9909344,35.2622507 73.9909344,37.1123446 L73.9909344,70.5542801 C73.9909344,72.7718106 72.1932707,74.5694742 69.9757402,74.5694742 C69.5754866,74.5694742 69.1774825,74.5096273 68.7949285,74.3919184 L24.8316872,60.8647679 C23.1469454,60.3463858 21.9973048,58.7898193 21.9973048,57.0271296 L21.9973048,14.0294915 C21.9973048,11.811961 23.7949685,10.0142974 26.012499,10.0142974 C26.5441986,10.0142974 27.0706035,10.1199003 27.5611623,10.3249773 Z" id="Rectangle-Copy-12" fill="#A0BDFF" opacity="0.8"></path>
                            <path d="M17.5623874,17.1241445 L24.4296055,19.9949686 C25.4891075,20.4378909 26.308257,21.3132679 26.6799698,22.3998011 L29.4165133,30.3988399 C29.8595971,31.6939935 30.9319703,32.6741875 32.2616272,32.9993931 L60.9308791,40.0112768 C62.7280028,40.4508147 63.9921595,42.0614179 63.9921595,43.9115118 L63.9921595,77.3534473 C63.9921595,79.5709778 62.1944958,81.3686414 59.9769653,81.3686414 C59.5767117,81.3686414 59.1787076,81.3087945 58.7961536,81.1910856 L14.8329123,67.6639351 C13.1481705,67.145553 11.9985299,65.5889865 11.9985299,63.8262968 L11.9985299,20.8286587 C11.9985299,18.6111282 13.7961935,16.8134646 16.013724,16.8134646 C16.5454237,16.8134646 17.0718286,16.9190675 17.5623874,17.1241445 Z" id="Rectangle" fill="#1A47FF"></path>
                            <path d="M7.42605159,34.858774 L51.8254502,47.1919401 C53.1722188,47.5660425 54.2275188,48.6136115 54.6115135,49.957593 L62.9753508,79.2310259 C63.279952,80.2971303 62.6626318,81.4083067 61.5965274,81.7129079 C61.2227918,81.8196895 60.8260948,81.8156829 60.4545923,81.7013744 L13.9310632,67.3864431 C12.7154251,67.0124006 11.7488936,66.0845145 11.3255857,64.8851421 L2.56512026,40.0638229 C1.82708152,37.9727131 2.92396235,35.679235 5.01507217,34.9411962 C5.79128456,34.6672389 6.63294215,34.6384659 7.42605159,34.858774 Z" id="Rectangle-Copy-37" fill="#5287FF"></path>
                        </g>
                    </g>
                    <polygon id="Star" fill="#FFCE1D" points="180.592846 19.1821417 176.742853 21.2062029 177.478136 16.9191725 174.363427 13.8830807 178.66785 13.2576114 180.592846 9.3571423 182.517843 13.2576114 186.822266 13.8830807 183.707556 16.9191725 184.44284 21.2062029"></polygon>
                    <polygon id="Star-Copy-2" fill="#FFDA55" points="262.935699 47.2535686 259.085705 49.2776298 259.820989 44.9905994 256.706279 41.9545076 261.010702 41.3290383 262.935699 37.4285692 264.860695 41.3290383 269.165118 41.9545076 266.050409 44.9905994 266.785692 49.2776298"></polygon>
                    <polygon id="Star-Copy-3" fill="#FFC31D" points="256.385699 17.7785704 250.885709 20.6700864 251.936113 14.5457572 247.486528 10.2084832 253.635704 9.31495565 256.385699 3.74285692 259.135694 9.31495565 265.28487 10.2084832 260.835285 14.5457572 261.885689 20.6700864"></polygon>
                    <polygon id="Star-Copy-4" fill="#F9E6A0" points="232.057129 20.5857131 229.857133 21.7423195 230.277295 19.2925878 228.497461 17.5576782 230.957131 17.2002672 232.057129 14.9714277 233.157127 17.2002672 235.616797 17.5576782 233.836963 19.2925878 234.257125 21.7423195"></polygon>
                    <polygon id="Star-Copy" fill="#FFE277" points="204.921416 7.01785672 202.171421 8.46361472 202.696624 5.40145015 200.471831 3.23281316 203.546419 2.78604936 204.921416 0 206.296414 2.78604936 209.371002 3.23281316 207.146209 5.40145015 207.671411 8.46361472"></polygon>
                    <path d="M122.688651,52.3999969 L143.344069,59.8857107 L122.688651,67.3714246 L126.410138,63.5669969 L87.9571376,68.1936081 L99.2263086,60.667294 L87.9571376,53.14098 L126.110138,57.1789969 L122.688651,52.3999969 Z" id="Combined-Shape" fill="#FFC31D"></path>
                </g>
            </g>
        </g>
    </g>
</svg>