<?xml version="1.0" encoding="UTF-8"?>
<svg width="24px" height="24px" viewBox="0 0 24 24" version="1.1" xmlns="http://www.w3.org/2000/svg" xmlns:xlink="http://www.w3.org/1999/xlink">
    <title>form.svg</title>
    <g id="form.svg" stroke="none" stroke-width="1" fill="none" fill-rule="evenodd">
        <g id="list-edit" transform="translate(0.000000, 0.001123)" fill="#009688" fill-rule="nonzero">
            <path d="M7.41434187,12.5298881 L6.03946391,14.2477356 C6.01346979,14.2849962 5.97090581,14.3072005 5.92547403,14.3072005 C5.88004225,14.3072005 5.83747827,14.2849962 5.81148415,14.2477356 L5.03055347,13.4668049 C4.73731629,13.1738439 4.26210874,13.1740677 3.96914768,13.4673049 C3.67618663,13.7605421 3.67641046,14.2357496 3.96964764,14.5287107 L5.4695145,16.0285775 C5.61018297,16.1688909 5.80078318,16.2476483 5.99946746,16.2475582 L6.04046382,16.2475582 C6.25369004,16.2360737 6.45190907,16.1342364 6.58541545,15.967583 L8.58523794,13.4678049 C8.84396036,13.1441947 8.79135849,12.6721209 8.46774835,12.4133985 C8.14413822,12.154676 7.6720644,12.2072779 7.41334196,12.530888 L7.41434187,12.5298881 Z" id="Path"></path>
            <path d="M8.46824832,6.91338665 C8.1448924,6.65473978 7.67310226,6.70711117 7.41434187,7.03037626 L6.03946391,8.74822378 C6.01346979,8.78548438 5.97090581,8.80768863 5.92547403,8.80768863 C5.88004225,8.80768863 5.83747827,8.78548438 5.81148415,8.74822378 L5.03055347,7.9672931 C4.84086228,7.77778052 4.56447663,7.70386272 4.30550833,7.77338382 C4.04654003,7.84290492 3.84433252,8.04530302 3.77505541,8.3043367 C3.7057783,8.56337038 3.77995644,8.83968627 3.96964764,9.02919884 L5.4695145,10.5290657 C5.61018297,10.669379 5.80078318,10.7481365 5.99946746,10.7480463 L6.04046382,10.7480463 C6.25369004,10.7365618 6.45190907,10.6347245 6.58541545,10.4680711 L8.58523794,7.96829301 C8.70976087,7.81294844 8.76740173,7.61446393 8.7454568,7.41658438 C8.72351186,7.21870483 8.62378243,7.03767276 8.46824832,6.91338665 L8.46824832,6.91338665 Z" id="Path"></path>
            <path d="M13.7497795,9.49915712 C13.7497795,9.08498033 13.4140229,8.74922369 12.9998461,8.74922369 L10.4990681,8.74922369 C10.0848913,8.74922369 9.74913463,9.08498033 9.74913463,9.49915712 C9.74913463,9.91333392 10.0848913,10.2490912 10.4990681,10.2490912 L12.9988462,10.2490912 C13.1979141,10.249356 13.3889196,10.1704626 13.5297757,10.029794 C13.6706318,9.8891254 13.7497795,9.6982252 13.7497795,9.49915712 L13.7497795,9.49915712 Z" id="Path"></path>
            <path d="M10.4990681,14.2477356 C10.0848913,14.2477356 9.74913463,14.5834923 9.74913463,14.9976691 C9.74913463,15.4118459 10.0848913,15.7476025 10.4990681,15.7476025 L11.9989349,15.7476025 C12.4131117,15.7476025 12.7488684,15.4118459 12.7488684,14.9976691 C12.7488684,14.5834923 12.4131117,14.2477356 11.9989349,14.2477356 L10.4990681,14.2477356 Z" id="Path"></path>
            <path d="M17.9984024,7.24835692 L17.9984024,15.5756178 C17.9976439,15.6763855 18.0577014,15.7676741 18.150538,15.8068669 C18.2433746,15.8460597 18.3506817,15.8254274 18.4223648,15.7546019 C18.9103214,15.2766443 19.6772534,14.5277108 19.9222316,14.2967313 C19.9716884,14.2513054 19.9993469,14.1868903 19.9982577,14.119747 L19.9982577,6.41243112 C19.9982577,6.14725984 19.8927836,5.89296996 19.7052509,5.70549387 L14.2927313,0.291974393 C14.1050916,0.1048083 13.8508219,0 13.5857941,0 L1.99982249,0 C0.895351025,0 0,0.895351335 0,1.9998228 L0,21.9980477 C0,23.1025191 0.895351025,23.9978702 1.99982249,23.9978702 L13.3118184,23.9978702 C13.4480965,23.9962508 13.5581771,23.8861703 13.5597964,23.7498922 C13.5717953,23.3599268 13.6597875,22.6689881 13.7187823,22.2820225 C13.7289598,22.2103447 13.7074345,22.1377868 13.6598154,22.0832552 C13.6121962,22.0287236 13.5431997,21.9976195 13.4708043,21.9980477 L2.49977811,21.9980477 C2.22366024,21.9980477 1.99982249,21.7742099 1.99982249,21.498092 L1.99982249,2.49977842 C1.99982249,2.22366055 2.22366024,1.9998228 2.49977811,1.9998228 L12.7488684,1.9998228 C12.8869273,1.9998228 12.9988462,2.11174168 12.9988462,2.24980061 L12.9988462,4.99955653 C12.9988462,6.10402799 13.8941972,6.99937902 14.9986687,6.99937902 L17.7484246,6.99937902 C17.886094,6.99937791 17.9978517,7.11068863 17.9984024,7.24835692 Z" id="Path"></path>
            <path d="M23.43292,15.5576194 C22.6869883,14.8131 21.4790913,14.8131 20.7331596,15.5576194 L15.6466111,20.6441678 C15.5770929,20.7140068 15.5294817,20.8026262 15.5096233,20.8991452 L15.0096677,23.3989233 C14.9796026,23.5462095 15.0174053,23.6992063 15.1126063,23.8155416 C15.2078073,23.9318768 15.3503011,23.9992015 15.5006241,23.9988765 C15.5341639,23.9990353 15.5676439,23.9960221 15.6006152,23.9898709 L18.1003933,23.4899152 C18.1973909,23.4705779 18.2864734,23.4229048 18.3563706,23.3529274 L23.4429191,18.2663789 C23.8014281,17.9061814 24.0018629,17.4181245 24,16.9099243 C23.998111,16.4017241 23.7940784,15.9151603 23.43292,15.5576194 Z" id="Path"></path>
        </g>
    </g>
</svg>