<svg xmlns:xlink="http://www.w3.org/1999/xlink" width="24" height="24" xmlns="http://www.w3.org/2000/svg">
    <defs>
        <path d="M0 12c0 .8284271.671572875 1.5 1.5 1.5h8.75c.1380712 0 .25.1119288.25.25v8.75c0 .8284271.6715729 1.5 1.5 1.5s1.5-.6715729 1.5-1.5v-8.75c0-.1380712.1119288-.25.25-.25h8.75c.8284271 0 1.5-.6715729 1.5-1.5s-.6715729-1.5-1.5-1.5h-8.75c-.1380712 0-.25-.1119288-.25-.25V1.5C13.5.671572875 12.8284271 0 12 0s-1.5.671572875-1.5 1.5v8.75c0 .1380712-.1119288.25-.25.25H1.5c-.828427125 0-1.5.6715729-1.5 1.5z" id="a"/>
    </defs>
    <use fill="#000" xlink:href="#a" fill-rule="evenodd"/>
</svg>
