<?xml version="1.0" encoding="UTF-8"?>
<svg width="33px" height="34px" viewBox="0 0 33 34" version="1.1" xmlns="http://www.w3.org/2000/svg" xmlns:xlink="http://www.w3.org/1999/xlink">
    <title>Group 2</title>
    <g id="v222" stroke="none" stroke-width="1" fill="none" fill-rule="evenodd">
        <g id="Drive---App-mobile---Menu" transform="translate(-45.000000, -307.000000)">
            <g id="Group-10-Copy-7" transform="translate(25.000000, 289.000000)">
                <g id="Group-4" transform="translate(20.000000, 18.000000)">
                    <path d="M12.5791115,6.00991573 L14.7858198,6.9612982 C15.1465955,7.11684013 15.4237249,7.4191169 15.5474241,7.79201217 L16.4582592,10.5377539 C16.6063522,10.9841848 16.9721233,11.3241075 17.4281922,11.4391434 L26.9358727,13.8372992 C27.5473379,13.9915312 27.9758217,14.5415133 27.9758217,15.1721298 L27.9758217,26.6562232 C27.9758217,27.4165194 27.3594799,28.0328612 26.5991837,28.0328612 C26.4579047,28.0328612 26.3174676,28.0111136 26.1828059,27.9683824 L11.617716,23.3465493 C11.0459221,23.1651061 10.6574559,22.6342817 10.6574559,22.0343902 L10.6574559,7.27407076 C10.6574559,6.51377459 11.2737977,5.89743277 12.0340939,5.89743277 C12.2215295,5.89743277 12.4069909,5.93570905 12.5791115,6.00991573 Z" id="Rectangle-Copy-32" fill="#A2BFFF" opacity="0.504231771"></path>
                    <path d="M9.24865654,8.75767083 L11.4553648,9.7090533 C11.8161405,9.86459523 12.09327,10.166872 12.2169692,10.5397673 L13.1278043,13.285509 C13.2758972,13.7319399 13.6416684,14.0718626 14.0977372,14.1868985 L23.6054178,16.5850543 C24.2168829,16.7392863 24.6453667,17.2892684 24.6453667,17.9198849 L24.6453667,29.4039783 C24.6453667,30.1642745 24.0290249,30.7806163 23.2687287,30.7806163 C23.1274498,30.7806163 22.9870127,30.7588687 22.8523509,30.7161375 L8.28726107,26.0943044 C7.71546718,25.9128612 7.32700092,25.3820368 7.32700092,24.7821453 L7.32700092,10.0218259 C7.32700092,9.26152969 7.94334274,8.64518787 8.70363891,8.64518787 C8.89107457,8.64518787 9.07653596,8.68346415 9.24865654,8.75767083 Z" id="Rectangle-Copy-12" fill="#A0BDFF" opacity="0.8"></path>
                    <path d="M5.91820158,11.0932628 L8.12490986,12.0446452 C8.48568554,12.2001872 8.76281499,12.5024639 8.88651421,12.8753592 L9.79734932,15.6211009 C9.94544225,16.0675318 10.3112134,16.4074545 10.7672823,16.5224904 L20.2749628,18.9206462 C20.886428,19.0748783 21.3149118,19.6248603 21.3149118,20.2554768 L21.3149118,31.7395703 C21.3149118,32.4998664 20.6985699,33.1162082 19.9382738,33.1162082 C19.7969948,33.1162082 19.6565577,33.0944606 19.5218959,33.0517294 L4.95680611,28.4298963 C4.38501221,28.2484532 3.99654595,27.7176287 3.99654595,27.1177372 L3.99654595,12.3574178 C3.99654595,11.5971216 4.61288778,10.9807798 5.37318395,10.9807798 C5.56061961,10.9807798 5.746081,11.0190561 5.91820158,11.0932628 Z" id="Rectangle" fill="#1A47FF"></path>
                    <path d="M2.53564266,17.1736148 L17.2428676,21.3868209 C17.7035604,21.5187964 18.0624693,21.8808542 18.1904156,22.3426823 L20.975808,32.3966834 C21.0773024,32.7630322 20.8625955,33.1422941 20.4962467,33.2437885 C20.367652,33.2794148 20.2314744,33.2768947 20.1042859,33.2365349 L4.65795894,28.3350654 C4.24194799,28.2030557 3.91318185,27.881593 3.77186118,27.4686522 L0.854048714,18.9427661 C0.607870003,18.2234287 0.991440913,17.4407232 1.71077832,17.1945445 C1.97712555,17.1033925 2.26501547,17.0960878 2.53564266,17.1736148 Z" id="Rectangle-Copy-37" fill="#5287FF"></path>
                    <polygon id="Star" fill="#FFCE1D" points="3.39100869 6.58928571 2.1086287 7.28457395 2.35354148 5.81192983 1.31607428 4.76899748 2.74981869 4.5541416 3.39100869 3.21428571 4.03219868 4.5541416 5.4659431 4.76899748 4.42847589 5.81192983 4.67338868 7.28457395"></polygon>
                    <polygon id="Star-Copy-2" fill="#FFDA55" points="30.8182849 16.2321429 29.5359049 16.9274311 29.7808176 15.454787 28.7433504 14.4118546 30.1770949 14.1969987 30.8182849 12.8571429 31.4594748 14.1969987 32.8932193 14.4118546 31.8557521 15.454787 32.1006648 16.9274311"></polygon>
                    <polygon id="Star-Copy-3" fill="#FFC31D" points="28.6365697 6.10714286 26.8045983 7.10041177 27.1544737 4.99663446 25.6723777 3.50673109 27.720584 3.19979412 28.6365697 1.28571429 29.5525554 3.19979412 31.6007617 3.50673109 30.1186657 4.99663446 30.4685411 7.10041177"></polygon>
                    <polygon id="Star-Copy-4" fill="#F9E6A0" points="20.5330563 7.07142857 19.8002677 7.46873614 19.9402179 6.62722521 19.3473795 6.03126386 20.166662 5.90848908 20.5330563 5.14285714 20.8994506 5.90848908 21.7187331 6.03126386 21.1258947 6.62722521 21.2658449 7.46873614"></polygon>
                    <polygon id="Star-Copy" fill="#FFE277" points="11.4945221 2.41071429 10.5785364 2.90734874 10.7534741 1.85546008 10.0124261 1.1105084 11.0365292 0.957039915 11.4945221 0 11.952515 0.957039915 12.9766181 1.1105084 12.2355701 1.85546008 12.4105078 2.90734874"></polygon>
                </g>
            </g>
        </g>
    </g>
</svg>