<svg width="192" height="152" viewBox="0 0 192 152" fill="none" xmlns="http://www.w3.org/2000/svg">
<path fill-rule="evenodd" clip-rule="evenodd" d="M82.4937 99.7227C82.4052 99.6553 82.317 99.5875 82.2291 99.5193C82.1872 99.5873 82.145 99.6551 82.1025 99.7227H82.4937ZM131.498 134.793C132.649 134.907 133.816 134.965 134.996 134.965C154.387 134.965 170.106 119.225 170.106 99.8078C170.106 82.9948 158.32 68.9382 142.57 65.4707C140.605 46.3797 124.602 31.4941 105.152 31.4941C88.2265 31.4941 73.9118 42.7656 69.1856 58.2712C65.7349 56.7875 61.9331 55.9659 57.9397 55.9659C42.1846 55.9659 29.4126 68.755 29.4126 84.5311C29.4126 84.6084 29.4129 84.6856 29.4135 84.7627C28.0545 84.536 26.6588 84.418 25.2355 84.418C11.2983 84.418 0 95.7315 0 109.687C0 123.643 11.2983 134.957 25.2355 134.957C26.2125 134.957 27.1765 134.901 28.1246 134.793H131.498Z" fill="#F5F5F5"/>
<path d="M40.2515 86.6132C40.13 83.7436 42.4235 81.3509 45.2956 81.3509H73.766C75.4518 81.3509 77.0263 82.1923 77.9632 83.5939L83.2845 91.5543C84.302 93.0764 86.012 93.9902 87.8428 93.9902H129.681C132.571 93.9902 134.872 96.4124 134.723 99.2991L132.284 146.547C132.146 149.231 129.93 151.336 127.243 151.336H47.8316C45.1264 151.336 42.9019 149.203 42.7875 146.501L40.2515 86.6132Z" fill="#FAFAFA" stroke="#9F9F9F" stroke-width="0.434253"/>
<path d="M47.8919 70.0011C47.8919 69.0946 48.6268 68.3597 49.5333 68.3597H105.397C106.304 68.3597 107.038 69.0946 107.038 70.0011V148.355H47.8919V70.0011Z" fill="white" stroke="#9F9F9F" stroke-width="0.434253"/>
<path d="M70.9465 84.7198C70.9465 83.8133 71.6814 83.0785 72.5879 83.0785H114.433C115.339 83.0785 116.074 83.8133 116.074 84.7198V151.334H70.9465V84.7198Z" fill="white" stroke="#9F9F9F" stroke-width="0.434253"/>
<path d="M42.9266 92.2775C42.9266 89.4892 45.187 87.2288 47.9753 87.2288H73.7934C75.4071 87.2288 76.9235 88.0002 77.8738 89.3045L83.1597 96.5593C84.1917 97.9757 85.8386 98.8134 87.5911 98.8134H126.815C129.603 98.8134 131.864 101.074 131.864 103.862V146.289C131.864 149.077 129.603 151.337 126.815 151.337H47.9753C45.187 151.337 42.9266 149.077 42.9266 146.289V92.2775Z" fill="#F1F1F1" stroke="#9F9F9F" stroke-width="0.434253"/>
<rect x="50.0079" y="73.751" width="35.72" height="0.510282" fill="#E0E0E0"/>
<rect x="50.0079" y="76.5518" width="35.72" height="0.510282" fill="#E0E0E0"/>
<rect x="50.0079" y="79.3545" width="35.72" height="0.510282" fill="#E0E0E0"/>
<rect x="50.0079" y="82.1553" width="17.3497" height="0.510282" fill="#E0E0E0"/>
<rect x="70.1711" y="108.523" width="32.6118" height="32.6116" rx="4.89176" fill="white"/>
<path opacity="0.504232" fill-rule="evenodd" clip-rule="evenodd" d="M84.3359 116.155C84.3359 115.518 84.9698 115.086 85.5443 115.332L87.0476 115.975C87.2777 116.073 87.4556 116.268 87.5364 116.51L88.1341 118.298C88.2303 118.586 88.4632 118.804 88.752 118.876L95.007 120.442C95.3973 120.539 95.6719 120.897 95.6719 121.309V128.779C95.6719 129.379 95.1042 129.808 94.5434 129.632L84.9515 126.611C84.5856 126.496 84.3359 126.15 84.3359 125.758V116.155Z" fill="#A2BFFF"/>
<path opacity="0.8" fill-rule="evenodd" clip-rule="evenodd" d="M82.1559 117.94C82.1559 117.303 82.7897 116.871 83.3642 117.117L84.8676 117.76C85.0977 117.859 85.2756 118.053 85.3563 118.295L85.9541 120.083C86.0503 120.371 86.2832 120.589 86.5719 120.661L92.827 122.227C93.2173 122.325 93.4918 122.683 93.4918 123.094V130.564C93.4918 131.164 92.9241 131.593 92.3634 131.417L82.7714 128.396C82.4056 128.281 82.1559 127.935 82.1559 127.543V117.94Z" fill="#A0BDFF"/>
<path fill-rule="evenodd" clip-rule="evenodd" d="M79.976 119.457C79.976 118.82 80.6098 118.388 81.1843 118.633L82.6877 119.277C82.9178 119.375 83.0957 119.57 83.1764 119.811L83.7741 121.6C83.8703 121.887 84.1032 122.105 84.392 122.178L90.6471 123.743C91.0374 123.841 91.3119 124.199 91.3119 124.61V132.08C91.3119 132.681 90.7442 133.11 90.1835 132.933L80.5915 129.913C80.2256 129.798 79.976 129.452 79.976 129.06V119.457Z" fill="#1A47FF"/>
<path fill-rule="evenodd" clip-rule="evenodd" d="M77.917 123.748C77.6823 123.068 78.2931 122.398 78.9727 122.591L88.6611 125.346C88.9535 125.429 89.1827 125.662 89.2661 125.961L91.091 132.498C91.1861 132.839 90.8743 133.151 90.5436 133.047L80.3956 129.851C80.1316 129.768 79.9217 129.562 79.8298 129.295L77.917 123.748Z" fill="#5287FF"/>
<path d="M185.159 54.3199L184.304 49.4966L181.832 49.9346L182.687 54.758L177.798 53.8265L177.389 56.2399L182.256 57.0498L180.123 61.5247L182.515 62.5222L184.546 57.9401L188.271 61.5025L189.884 59.7535L186.391 56.3174L190.765 53.8703L189.43 51.7656L185.159 54.3199Z" fill="#5C89F7"/>
<path d="M15.86 56.7617L13.6407 52.3948L11.4022 53.5324L13.6215 57.8993L8.67278 58.4287L8.9832 60.8567L13.8759 60.2172L13.1348 65.1189L15.7138 65.3782L16.3256 60.4037L20.9248 62.73L21.9601 60.5878L17.619 58.315L21.0932 54.7024L19.2048 53.0764L15.86 56.7617Z" fill="#5C89F7"/>
<path d="M65.2185 35.2918L65.9158 31.996L64.2398 31.6414L63.5424 34.9372L60.6896 33.0893L59.8119 34.524L62.6823 36.2887L60.1846 38.5959L61.4416 39.8457L63.9019 37.4438L65.3432 40.6713L66.8123 39.9694L65.4849 36.8818L68.879 36.4425L68.5753 34.7579L65.2185 35.2918Z" fill="#B3CAFF"/>
<path d="M119.201 9.49223V4.59375H116.69V9.49223L112.038 7.72219L111.215 10.0274L115.866 11.6739L112.985 15.708L115.167 17.1075L117.966 12.95L121.012 17.1075L122.905 15.6668L120.065 11.6739L124.799 10.0274L123.852 7.72219L119.201 9.49223Z" fill="#1A47FF"/>
<path d="M185.073 92.3928V89.3281H183.502V92.3928L180.591 91.2854L180.076 92.7276L182.987 93.7578L181.184 96.2816L182.549 97.1572L184.3 94.5561L186.206 97.1572L187.39 96.2559L185.613 93.7578L188.575 92.7276L187.983 91.2854L185.073 92.3928Z" fill="#B3CAFF"/>
<path d="M138.55 39.3363L134.962 38.1001C133.864 37.6857 132.663 37.5959 131.5 37.8411C130.337 38.0863 129.261 38.6564 128.398 39.4845L122.025 45.8405C121.822 46.0539 121.682 46.3189 121.621 46.6051C121.559 46.8914 121.58 47.1872 121.68 47.4587C121.778 47.7498 121.948 48.0101 122.175 48.2161C122.401 48.4222 122.676 48.5675 122.976 48.6391L131.63 50.669" fill="#F1F1F1"/>
<path d="M138.55 39.3363L134.962 38.1001C133.864 37.6857 132.663 37.5959 131.5 37.8411C130.337 38.0863 129.261 38.6564 128.398 39.4845L122.025 45.8405C121.822 46.0539 121.682 46.3189 121.621 46.6051C121.559 46.8914 121.58 47.1872 121.68 47.4587C121.778 47.7498 121.948 48.0101 122.175 48.2161C122.401 48.4222 122.676 48.5675 122.976 48.6391L131.63 50.669L138.55 39.3363Z" stroke="#9F9F9F" stroke-width="0.434253" stroke-linecap="round" stroke-linejoin="round"/>
<path d="M152.701 53.3913L153.937 56.979C154.351 58.0775 154.441 59.2784 154.196 60.4411C153.951 61.6038 153.38 62.68 152.552 63.5435L146.196 69.9157C145.983 70.119 145.718 70.2593 145.432 70.3205C145.145 70.3817 144.85 70.3613 144.578 70.2616C144.287 70.1628 144.027 69.9926 143.821 69.7663C143.615 69.54 143.469 69.2647 143.398 68.9652L141.368 60.3113" fill="#F1F1F1"/>
<path d="M152.701 53.3913L153.937 56.979C154.351 58.0775 154.441 59.2784 154.196 60.4411C153.951 61.6038 153.38 62.68 152.552 63.5435L146.196 69.9157C145.983 70.119 145.718 70.2593 145.432 70.3205C145.145 70.3817 144.85 70.3613 144.578 70.2616C144.287 70.1628 144.027 69.9926 143.821 69.7663C143.615 69.54 143.469 69.2647 143.398 68.9652L141.368 60.3113L152.701 53.3913Z" stroke="#9F9F9F" stroke-width="0.434253" stroke-linecap="round" stroke-linejoin="round"/>
<path d="M176.152 31.9018L176.153 31.9018L176.152 31.8888L175.549 16.3465C175.545 16.2332 175.454 16.1423 175.341 16.1379L159.799 15.536L159.799 15.5356L159.786 15.5359C157.453 15.5841 155.169 16.2053 153.134 17.3448C151.099 18.4843 149.376 20.107 148.117 22.0702L148.117 22.0701L148.114 22.0752L131.236 50.0268C131.184 50.1122 131.197 50.2218 131.268 50.2924L141.368 60.406C141.438 60.4766 141.548 60.4901 141.634 60.4385L169.586 43.5743L169.586 43.5743L169.59 43.5715C171.559 42.3167 173.188 40.5955 174.333 38.56C175.478 36.5245 176.102 34.2377 176.152 31.9018Z" fill="white" stroke="#9F9F9F" stroke-width="0.434253" stroke-linecap="round" stroke-linejoin="round"/>
<path d="M175.332 16.3558L175.935 31.8981C175.935 31.8981 172.325 25.7469 169.133 22.5557C165.942 19.3646 159.791 15.7539 159.791 15.7539L175.332 16.3558Z" fill="#F1F1F1"/>
<path d="M157.764 39.5317C160.864 39.5317 163.377 37.0186 163.377 33.9186C163.377 30.8186 160.864 28.3055 157.764 28.3055C154.663 28.3055 152.15 30.8186 152.15 33.9186C152.15 37.0186 154.663 39.5317 157.764 39.5317Z" fill="#F5F5F5" stroke="#9F9F9F" stroke-width="0.434253" stroke-linecap="round" stroke-linejoin="round"/>
<path d="M133.073 68.4024C132.416 69.0595 131.323 69.5538 130.018 69.9185C128.72 70.2814 127.242 70.5083 125.845 70.649C124.448 70.7896 123.137 70.8436 122.175 70.8623C121.694 70.8717 121.301 70.8723 121.028 70.8705C120.944 70.87 120.871 70.8692 120.811 70.8684C120.811 70.8083 120.81 70.7359 120.809 70.6521C120.808 70.3793 120.808 69.9859 120.817 69.505C120.836 68.5429 120.89 67.232 121.031 65.8353C121.171 64.4375 121.398 62.9597 121.761 61.6616C122.126 60.3571 122.62 59.2635 123.277 58.6064C125.982 55.9013 130.368 55.9013 133.073 58.6064C135.779 61.3115 135.779 65.6973 133.073 68.4024Z" fill="white" stroke="#9F9F9F" stroke-width="0.434253"/>
<path d="M131.062 65.5239C129.707 66.879 124.928 66.7507 124.928 66.7507C124.928 66.7507 124.8 61.9718 126.155 60.6167C127.51 59.2616 129.707 59.2616 131.062 60.6167C132.417 61.9718 132.417 64.1688 131.062 65.5239Z" fill="#F1F1F1"/>
</svg>
