<?xml version="1.0" encoding="UTF-8"?>
<svg width="24px" height="24px" viewBox="0 0 24 24" version="1.1" xmlns="http://www.w3.org/2000/svg" xmlns:xlink="http://www.w3.org/1999/xlink">
    <title>support_link</title>
    <defs>
        <filter id="filter-1">
            <feColorMatrix in="SourceGraphic" type="matrix" values="0 0 0 0 0.690196 0 0 0 0 0.690196 0 0 0 0 0.690196 0 0 0 1.000000 0"></feColorMatrix>
        </filter>
    </defs>
    <g id="support_link" stroke="none" stroke-width="1" fill="none" fill-rule="evenodd">
        <g filter="url(#filter-1)" id="Support">
            <g>
                <path d="M7,11.546875 L6.55,11.208875 C6.39849118,11.0952434 6.19578522,11.0769654 6.0263932,11.1616614 C5.85700119,11.2463574 5.75,11.419489 5.75,11.6088721 L5.75,19.483875 C5.75,19.673261 5.85700119,19.8463926 6.0263932,19.9310886 C6.19578522,20.0157846 6.39849118,19.9975066 6.55,19.883875 L7,19.546875 C7.62951461,19.074739 8,18.3337683 8,17.546875 L8,13.546875 C8,12.7599817 7.62951461,12.019011 7,11.546875 L7,11.546875 Z" id="Path" fill="#000000" fill-rule="nonzero"></path>
                <path d="M17.45,19.883875 C17.6015088,19.9975066 17.8042148,20.0157846 17.9736068,19.9310886 C18.1429988,19.8463926 18.25,19.673261 18.25,19.483875 L18.25,11.6088721 C18.25,11.419489 18.1429988,11.2463574 17.9736068,11.1616614 C17.8042148,11.0769654 17.6015088,11.0952434 17.45,11.208875 L17,11.546875 C16.3704854,12.019011 16,12.7599817 16,13.546875 L16,17.546875 C16,18.3337683 16.3704854,19.074739 17,19.546875 L17.45,19.883875 Z" id="Path" fill="#000000" fill-rule="nonzero"></path>
                <path d="M22,10.095875 C21.8573824,10.0668624 21.7549326,9.94141365 21.755,9.795875 C21.755,4.41109869 17.3897763,0.045875 12.005,0.045875 C6.62022369,0.045875 2.255,4.41109869 2.255,9.795875 C2.25506739,9.94141365 2.15261758,10.0668624 2.01,10.095875 C0.841490579,10.3294329 0.000242971444,11.3552528 0,12.546875 L0,18.546875 C0,19.9275869 1.11928813,21.046875 2.5,21.046875 L3.75,21.046875 C4.02614237,21.046875 4.25,20.8230174 4.25,20.546875 L4.25,9.795875 C4.25,5.51566819 7.71979319,2.045875 12,2.045875 C16.2802068,2.045875 19.75,5.51566819 19.75,9.795875 L19.75,20.046875 C19.75,20.8753021 19.0784271,21.546875 18.25,21.546875 L15.322,21.546875 C15.2001193,21.5469435 15.0824105,21.5024915 14.991,21.421875 C14.7172852,21.180481 14.3649531,21.0471566 14,21.046875 L13,21.046875 C12.1715729,21.046875 11.5,21.7184479 11.5,22.546875 C11.5,23.3753021 12.1715729,24.0468773 13,24.0468773 L14,24.0468773 C14.3651221,24.0475189 14.7177712,23.9140745 14.991,23.671875 C15.0824105,23.5912585 15.2001193,23.5468065 15.322,23.546875 L18.25,23.546875 C19.6886121,23.5453846 20.9803179,22.6652168 21.508,21.326875 C21.572607,21.1622357 21.7193849,21.0439768 21.894,21.015875 C23.1073511,20.8222309 24,19.7755812 24,18.546875 L24,12.546875 C24.000718,11.3583278 23.1645339,10.3335843 22,10.095875 Z" id="Path" fill="#000000" fill-rule="nonzero"></path>
            </g>
        </g>
    </g>
</svg>