<svg width="24" height="24" xmlns="http://www.w3.org/2000/svg">
    <path d="M23.555 8.729c-.2187407-.5876754-.7789383-.97814031-1.406-.98h-6.087c-.2122832.00015295-.401522-.13375754-.472-.334l-2.185-6.193C13.1858327.635838575 12.6257951.247333228 12 .247333228S10.8141673.635838575 10.595 1.222l-.005.016-2.18 6.177c-.07035603.19989632-.25908389.33372882-.471.334H1.85c-.63135605-.00047472-1.19542482.39443843-1.410988716.98785472C.223447388 9.33027101.402539142 9.99514402.887 10.4l5.184 4.3c.15871272.1317089.22026923.3473552.155.543l-2.178 6.531c-.20654285.6196301.01160681 1.3016853.53939553 1.6864456.52778873.3847602 1.24388061.3837712 1.77060447-.0024456l5.346-3.92c.1759194-.1288856.4150806-.1288856.591 0l5.344 3.919c.526522.3875491 1.2434077.3894427 1.7719697.0046806.5285621-.384762.7470421-1.0675469.5400303-1.6876806l-2.178-6.535c-.0652692-.1956448-.0037127-.4112911.155-.543l5.194-4.306c.4781673-.40820939.6510265-1.07130241.433-1.661z" fill="#000" fill-rule="evenodd"/>
</svg>
