<?xml version="1.0" encoding="UTF-8"?>
<svg width="24px" height="24px" viewBox="0 0 24 24" version="1.1" xmlns="http://www.w3.org/2000/svg" xmlns:xlink="http://www.w3.org/1999/xlink">
    <title>icons/actions/ofline</title>
    <g id="icons/actions/ofline" stroke="none" stroke-width="1" fill="none" fill-rule="evenodd">
        <path d="M0.308180031,0.293193675 C0.693819617,-0.092935519 1.31737317,-0.0983609102 1.70965622,0.280999764 L1.70965622,0.280999764 L23.7042829,22.3035508 C24.0831626,22.6963319 24.077744,23.3206771 23.6921045,23.7068063 C23.3064649,24.0929355 22.6829113,24.0983609 22.2906283,23.7190002 L22.2906283,23.7190002 L0.296001582,1.69644918 C-0.0828780669,1.30366809 -0.0774595551,0.679322869 0.308180031,0.293193675 Z M5.14150818,9.36532754 C5.47374392,9.26745026 5.83283883,9.35921851 6.07758913,9.60454706 C6.36052001,9.88783715 6.32952758,10.121076 6.33852538,10.6215885 C6.34252441,10.840813 6.33752563,11.1231021 6.32352905,11.3473317 C6.30647175,11.6376489 6.16416263,11.9061873 5.9336243,12.0830851 C5.70358124,12.2609255 5.40699122,12.3283014 5.12282238,12.2672737 C4.9467732,12.2314797 4.76759508,12.2133714 4.58795305,12.2132183 C3.16016041,12.214323 2.00313593,13.3732644 2.00258466,14.8028701 C1.95687228,15.4634856 2.18840627,16.1132569 2.64142859,16.595706 C3.25467145,17.099628 4.01971251,17.3817688 4.8128981,17.396526 L4.8128981,17.396526 L13.4407903,17.4005301 C13.7059203,17.4005868 13.9601707,17.5060889 14.1476176,17.6938305 L14.1476176,17.6938305 L14.2354221,17.7943249 C14.4494887,18.0750835 14.5017592,18.4521567 14.3642427,18.784602 C14.2095365,19.1586029 13.8450874,19.4025802 13.4407903,19.4025802 L13.4407903,19.4025802 L4.80789932,19.4025802 C3.49094144,19.3883797 2.22330465,18.8989504 1.23777151,18.0241687 C0.424331378,17.1993197 -0.0210502938,16.0799383 0.00307314457,14.9209911 C-0.0287999615,14.0610673 0.187812981,13.2101992 0.626920738,12.4704818 C1.41603308,11.1503633 2.80610644,10.3064162 4.34001362,10.2161734 C4.41051289,10.213017 4.4698433,10.1622746 4.48397845,10.0930473 L4.48397845,10.0930473 L4.48397845,10.0740278 C4.55703402,9.73507305 4.80927244,9.46320483 5.14150818,9.36532754 Z M12.0001422,3.99179904 C14.6983911,4.0017745 17.1962307,5.41959573 18.5905322,7.73263022 C18.6317331,7.80055188 18.7024907,7.84506334 18.7814856,7.85275323 C21.8081766,8.14067311 24.0910015,10.7330872 23.9972113,13.7758184 C23.9993538,15.1634753 23.4705869,16.4992502 22.5195723,17.5086408 C22.3346707,17.7097724 22.0761136,17.8270878 21.8031732,17.8336935 C21.5302328,17.8402992 21.2663169,17.7356286 21.071926,17.5436767 L21.071926,17.5436767 L20.9905191,17.4511993 C20.6916324,17.0662769 20.7137211,16.5113373 21.0599289,16.1512509 C21.694343,15.4638132 22.0314537,14.5530346 21.9976998,13.6176565 C22.0079169,12.8495851 21.7782779,12.0974988 21.3408603,11.4664536 C20.6079749,10.3959722 19.3767928,9.77808705 18.0816565,9.83077872 C17.6893416,9.8580359 17.3205382,9.64140187 17.1528834,9.28522007 C16.7496878,8.35992796 16.1001683,7.56344691 15.2753421,6.98286246 C13.8585962,6.03866371 12.1027905,5.75533347 10.4615181,6.20606702 C10.0580945,6.34864776 9.6097537,6.19389413 9.3797824,5.83268468 C8.94988743,5.17701327 9.10584932,4.53135212 9.75669032,4.33114711 C10.4832522,4.10590159 11.239551,3.99150285 12.0001422,3.99179904 Z" id="Combined-Shape" fill="#000000" fill-rule="nonzero"></path>
    </g>
</svg>