<?xml version="1.0" encoding="UTF-8"?>
<svg width="24px" height="24px" viewBox="0 0 24 24" version="1.1" xmlns="http://www.w3.org/2000/svg" xmlns:xlink="http://www.w3.org/1999/xlink">
    <title>icons/actions/chevron-down</title>
    <defs>
        <path d="M19.4552762,11.9721509 C19.4560934,12.6338532 19.1718833,13.2638522 18.6752744,13.7011509 L7.52327443,23.5121509 C6.75468347,24.1570802 5.61180122,24.0704799 4.94916504,23.3171014 C4.28652887,22.5637229 4.34651626,21.4191353 5.08427443,20.7391509 L14.8362744,12.1601509 C14.8904292,12.1126817 14.9214836,12.0441652 14.9214836,11.9721509 C14.9214836,11.9001366 14.8904292,11.8316201 14.8362744,11.7841509 L5.08427443,3.20515091 C4.34651626,2.52516655 4.28652887,1.38057887 4.94916504,0.627200388 C5.61180122,-0.126178092 6.75468347,-0.212778371 7.52327443,0.432150906 L18.6712744,10.2401509 C19.1690855,10.6781984 19.4546448,11.3090513 19.4552762,11.9721509 Z" id="path-1"></path>
    </defs>
    <g id="icons/actions/chevron-down" stroke="none" stroke-width="1" fill="none" fill-rule="evenodd">
        <mask id="mask-2" fill="white">
            <use xlink:href="#path-1"></use>
        </mask>
        <use id="path" fill="#000000" transform="translate(11.972151, 11.972151) scale(-1, -1) rotate(-90.000000) translate(-11.972151, -11.972151) " xlink:href="#path-1"></use>
    </g>
</svg>