<?xml version="1.0" encoding="UTF-8"?>
<svg width="24px" height="24px" viewBox="0 0 24 24" version="1.1" xmlns="http://www.w3.org/2000/svg" xmlns:xlink="http://www.w3.org/1999/xlink">
    <title>icons/actions/tag</title>
    <g id="icons/actions/tag" stroke="none" stroke-width="1" fill="none" fill-rule="evenodd">
        <path d="M12.6305976,1.06054417 C12.9719876,0.754460091 13.3581117,0.508828227 13.7889813,0.323641211 C14.2198509,0.138454195 14.6792,0.0378853029 15.1670424,0.0219315174 L21.9236927,0 C22.4928485,0 22.980757,0.201793337 23.387433,0.604819526 C23.7941089,1.00784571 23.9975419,1.49943317 23.9977379,2.07959664 L24,8.77561657 C23.9839017,9.25908074 23.8864861,9.71027985 23.7077501,10.1292275 C23.5290141,10.5481751 23.2852191,10.9187486 22.9763577,11.2409591 L22.9641697,11.2651284 C22.9560444,11.2812413 22.9438511,11.289295 22.9275895,11.2892896 L10.9062924,23.3961515 C10.7274802,23.58948 10.5080024,23.7384747 10.2478523,23.8431401 C9.98770214,23.9478055 9.71940756,24 9.44296046,24 C9.15025177,24 8.87785647,23.9474373 8.62576638,23.8426019 C8.37367628,23.7377666 8.15003236,23.5886248 7.9548279,23.3951723 L0.610296851,16.1165557 C0.415092392,15.9231031 0.264600046,15.7014663 0.158815297,15.4516386 C0.0530305489,15.201811 0,14.939918 0,14.6659519 C0,14.3758702 0.0526616927,14.1099835 0.158280387,13.8682837 C0.26389908,13.626584 0.406112394,13.4090732 0.584924593,13.2157447 L12.6305976,1.06054417 Z M17.7541827,4.63990052 C17.3313813,4.63976034 16.9655526,4.79273533 16.6566858,5.09883021 C16.3478189,5.40492508 16.1934586,5.76747055 16.1936001,6.18647751 C16.1937472,6.62160011 16.3483538,6.98827695 16.6574248,7.28651903 C16.9664958,7.58476111 17.3324266,7.73395005 17.755228,7.73409044 C18.1942911,7.73423601 18.5641864,7.58529122 18.8649252,7.28725147 C19.1656639,6.98921173 19.3159576,6.62263605 19.3158107,6.18751345 C19.315669,5.76850649 19.165129,5.40585986 18.8641861,5.09956265 C18.5632432,4.79326544 18.1932457,4.6400463 17.7541827,4.63990052 Z" id="Shape" fill="#000000"></path>
    </g>
</svg>