<svg width="24" height="24" viewBox="0 0 24 24" fill="none" xmlns="http://www.w3.org/2000/svg">
<path fill-rule="evenodd" clip-rule="evenodd" d="M5.33316 2.02236C7.30655 0.703788 9.62663 0 12 0C15.1815 0.00344108 18.2318 1.26883 20.4815 3.51852C22.7312 5.76821 23.9966 8.81846 24 12C24 14.3734 23.2962 16.6934 21.9776 18.6668C20.6591 20.6402 18.7849 22.1783 16.5922 23.0865C14.3995 23.9948 11.9867 24.2324 9.65892 23.7694C7.33115 23.3064 5.19295 22.1635 3.51472 20.4853C1.83649 18.807 0.693605 16.6689 0.230582 14.3411C-0.232441 12.0133 0.00519943 9.60051 0.913451 7.4078C1.8217 5.21508 3.35977 3.34094 5.33316 2.02236ZM6.7607 19.8412C8.31159 20.8773 10.1349 21.4302 12 21.43V21.429C14.4998 21.4261 16.8964 20.4317 18.6641 18.6641C20.4317 16.8964 21.4261 14.4998 21.429 12C21.429 10.1349 20.8759 8.31164 19.8397 6.76087C18.8035 5.21009 17.3306 4.00142 15.6075 3.28772C13.8843 2.57401 11.9882 2.38733 10.1589 2.75127C8.32967 3.11521 6.6494 4.01343 5.33063 5.33234C4.01186 6.65124 3.11382 8.3316 2.75008 10.1609C2.38633 11.9902 2.57322 13.8863 3.28711 15.6094C4.001 17.3325 5.20982 18.8052 6.7607 19.8412ZM10.683 7.74876L16.609 10.7118H16.605C16.8626 10.8144 17.0834 10.992 17.239 11.2215C17.3946 11.451 17.4778 11.722 17.4778 11.9993C17.4778 12.2766 17.3946 12.5475 17.239 12.777C17.0834 13.0065 16.8626 13.1841 16.605 13.2868L10.679 16.2498C10.4433 16.3705 10.1828 16.4349 9.91799 16.4378C9.65001 16.4384 9.38715 16.3643 9.15899 16.2238C8.9352 16.0793 8.75293 15.879 8.63017 15.6426C8.50742 15.4062 8.44842 15.1419 8.45899 14.8758V9.12176C8.44443 8.85465 8.50214 8.58855 8.62605 8.35147C8.74996 8.1144 8.93549 7.91511 9.16312 7.77458C9.39074 7.63405 9.65204 7.55749 9.91951 7.55295C10.187 7.5484 10.4507 7.61605 10.683 7.74876Z" fill="black"/>
</svg>
