<?xml version="1.0" encoding="UTF-8"?>
<svg width="24px" height="24px" viewBox="0 0 24 24" version="1.1" xmlns="http://www.w3.org/2000/svg" xmlns:xlink="http://www.w3.org/1999/xlink">
    <title>icon-filter</title>
    <g id="icon-filter" stroke="none" stroke-width="1" fill="none" fill-rule="evenodd">
        <path d="M23.8940144,0.552000134 C23.7244717,0.213659136 23.3784574,0 23.000014,0 L1,0 C0.621233927,0 0.274970684,0.214002428 0.105578609,0.552786538 C-0.0638134659,0.891570649 -0.0272574826,1.29698267 0.200005834,1.60000039 L9,13.4230032 L9,22 C9.00817623,23.1011744 9.89884054,23.9918386 11,24 C11.4328324,24.0005126 11.8540561,23.8601048 12.2000101,23.6000057 L14.2000109,22.1000053 C14.7027571,21.7215747 14.9989143,21.1292603 15.0000112,20.5 L15.0000112,13.4230032 L23.8000143,1.60000039 C24.0274568,1.2967226 24.0638558,0.89091216 23.8940144,0.552000134 Z M5.41700771,2.20000053 L9.35600913,7.4500018 C9.42092021,7.53654991 9.45600916,7.64181674 9.45600916,7.75000188 L9.45600916,9.00000048 C9.45600916,9.21521743 9.31829407,9.4062869 9.11412292,9.47434394 C8.90995178,9.54240098 8.68513801,9.47217446 8.55600884,9.30000225 L3.62000706,2.80000068 C3.50637541,2.64849182 3.48809741,2.44578581 3.57279345,2.27639375 C3.65748949,2.1070017 3.83062111,2.00000048 4.02000415,2.00000048 L5.02000415,2.00000048 C5.17632968,2.00094055 5.32321557,2.07493848 5.41700771,2.20000053 Z" id="Shape" fill="#000000" fill-rule="nonzero"></path>
    </g>
</svg>