<?xml version="1.0" encoding="UTF-8"?>
<svg width="24px" height="24px" viewBox="0 0 24 24" version="1.1" xmlns="http://www.w3.org/2000/svg" xmlns:xlink="http://www.w3.org/1999/xlink">
    <title>icons/actions/filter</title>
    <g id="icons/actions/filter" stroke="none" stroke-width="1" fill="none" fill-rule="evenodd">
        <g id="data-transfer-vertical" fill="#000000" transform="translate(2.000000, 0.000000)">
            <path d="M4.481,5.124 C5.30942712,5.124 5.981,5.79557288 5.981,6.624 L5.981,6.624 L5.981,16.736 C5.981,16.8740712 6.09292881,16.986 6.231,16.986 L6.231,16.986 L7.481,16.986 C7.84120617,16.9859244 8.17361896,17.179577 8.35121558,17.4929584 C8.5288122,17.8063399 8.52414598,18.1910187 8.339,18.5 L8.339,18.5 L5.339,23.5 C5.15827837,23.8012121 4.83276775,23.985516 4.4815,23.985516 C4.13023225,23.985516 3.80472163,23.8012121 3.624,23.5 L3.624,23.5 L0.624,18.5 C0.437374985,18.1910095 0.43176256,17.8054226 0.609315373,17.4911314 C0.786868187,17.1768401 1.12002373,16.9826336 1.481,16.983 L1.481,16.983 L2.731,16.983 C2.79738566,16.9832671 2.86112947,16.9570137 2.9080716,16.9100716 C2.95501373,16.8631295 2.98126715,16.7993857 2.981,16.733 L2.981,16.733 L2.981,6.624 C2.981,5.79557288 3.65257288,5.124 4.481,5.124 Z M15.5185,0.0164672888 C15.8612787,0.0164672888 16.1820442,0.185372411 16.376,0.468 L16.376,0.468 L19.376,5.468 C19.5615768,5.77688265 19.56662,6.16172045 19.3892014,6.47536014 C19.2117828,6.78899983 18.8793432,6.98293147 18.519,6.983 L18.519,6.983 L17.269,6.983 C17.2026143,6.98273285 17.1388705,7.00898627 17.0919284,7.0559284 C17.0449863,7.10287053 17.0187329,7.16661434 17.019,7.233 L17.019,7.233 L17.019,17.34 C17.019,18.1684271 16.3474271,18.84 15.519,18.84 C14.6905729,18.84 14.019,18.1684271 14.019,17.34 L14.019,17.34 L14.019,7.233 C14.019,7.09492881 13.9070712,6.983 13.769,6.983 L13.769,6.983 L12.519,6.983 C12.158478,6.98329203 11.8257082,6.78950217 11.6480446,6.47579551 C11.4703811,6.16208885 11.475331,5.77703597 11.661,5.468 L11.661,5.468 L14.661,0.468 C14.8549558,0.185372411 15.1757213,0.0164672888 15.5185,0.0164672888 Z" id="Combined-Shape"></path>
        </g>
    </g>
</svg>