<svg width="24" height="24" viewBox="0 0 24 24" fill="none" xmlns="http://www.w3.org/2000/svg">
<path fill-rule="evenodd" clip-rule="evenodd" d="M2.48682 0.75C1.85951 0.75 1.2399 0.964682 0.767991 1.37306C0.292671 1.78439 9.56054e-05 2.36752 9.56054e-05 3.00291L0 19.3346L0.000191211 19.3466C0.0101352 19.9693 0.279336 20.5476 0.724626 20.9808C1.16738 21.4115 1.75671 21.6746 2.3773 21.7451C2.40541 21.7483 2.43368 21.7499 2.46197 21.7499H10.2264C10.6406 21.7499 10.9764 21.4141 10.9764 20.9999C10.9764 20.5857 10.6406 20.2499 10.2264 20.2499H2.5087C2.20762 20.208 1.94906 20.0793 1.77055 19.9056C1.58866 19.7287 1.50453 19.5219 1.50009 19.3276V3.00291C1.50009 2.84111 1.57346 2.65969 1.74954 2.50732C1.92903 2.352 2.19291 2.24999 2.48682 2.24999H7.697C7.99091 2.24999 8.25479 2.352 8.43427 2.50732C8.61035 2.65969 8.68373 2.84111 8.68373 3.00291V4.50583C8.68373 4.92004 9.01951 5.25583 9.43372 5.25583H21.5908C21.8847 5.25583 22.1486 5.35783 22.3281 5.51315C22.4332 5.60414 22.5 5.74101 22.5 6.00875V10.6758C22.5 11.09 22.8358 11.4258 23.25 11.4258C23.6642 11.4258 24 11.09 24 10.6758V6.00875C24 5.47929 23.8559 4.85161 23.3096 4.3789C22.8377 3.97052 22.2181 3.75584 21.5908 3.75584H10.1837V3.00291C10.1837 2.36753 9.89114 1.78439 9.41582 1.37306C8.94391 0.964682 8.3243 0.75 7.697 0.75H2.48682ZM13.7574 13.0074C14.8826 11.8821 16.4087 11.25 18 11.25C19.5913 11.25 21.1174 11.8821 22.2426 13.0074C23.3678 14.1326 23.9999 15.6587 23.9999 17.25C23.9999 18.8413 23.3678 20.3674 22.2426 21.4926C21.1174 22.6178 19.5913 23.2499 18 23.2499C16.4087 23.2499 14.8826 22.6178 13.7574 21.4926C12.6321 20.3674 12 18.8413 12 17.25C12 15.6587 12.6321 14.1326 13.7574 13.0074ZM14.7154 17.2346C14.4247 16.9394 14.4284 16.4646 14.7235 16.1739L17.4735 13.4656C17.7654 13.1781 18.2341 13.1781 18.526 13.4656L21.276 16.1739C21.5711 16.4646 21.5747 16.9394 21.2841 17.2346C20.9934 17.5297 20.5186 17.5333 20.2235 17.2427L18.7497 15.7913V20.4999C18.7497 20.9142 18.4139 21.2499 17.9997 21.2499C17.5855 21.2499 17.2497 20.9142 17.2497 20.4999L17.2497 15.7913L15.776 17.2427C15.4809 17.5333 15.006 17.5297 14.7154 17.2346Z" fill="#666666"/>
</svg>
