<?xml version="1.0" encoding="UTF-8"?>
<svg width="24px" height="24px" viewBox="0 0 24 24" version="1.1" xmlns="http://www.w3.org/2000/svg" xmlns:xlink="http://www.w3.org/1999/xlink">
    <title>icons/actions/edit-document</title>
    <g id="icons/actions/edit-document" stroke="none" stroke-width="1" fill="none" fill-rule="evenodd">
        <path d="M13,0.988 C13.5522847,0.988 14,1.43571525 14,1.988 C14,2.54028475 13.5522847,2.988 13,2.988 L13,2.988 L3,2.988 C2.44771525,2.988 2,3.43571525 2,3.988 L2,3.988 L2,20.988 C2,21.5402847 2.44771525,21.988 3,21.988 L3,21.988 L18,21.988 C18.5522847,21.988 19,21.5402847 19,20.988 L19,20.988 L19,12.488 C19,11.9357153 19.4477153,11.488 20,11.488 C20.5522847,11.488 21,11.9357153 21,12.488 L21,12.488 L21,20.988 C21,22.6448542 19.6568542,23.988 18,23.988 L18,23.988 L3,23.988 C1.34314575,23.988 -4.97379915e-14,22.6448542 -4.97379915e-14,20.988 L-4.97379915e-14,20.988 L-4.97379915e-14,3.988 C-4.97379915e-14,2.33114575 1.34314575,0.988 3,0.988 L3,0.988 Z M10.349,11.235 C10.5127782,11.2024976 10.6819722,11.2538935 10.8,11.372 L10.8,11.372 L12.621,13.19 C12.7399339,13.3088611 12.7911597,13.479543 12.7573321,13.6442516 C12.7235044,13.8089601 12.6091537,13.9456361 12.453,14.008 L12.453,14.008 L9.423,15.22 C9.23671361,15.2867192 9.02876654,15.2438952 8.884,15.109 C8.74256255,14.9676858 8.69890683,14.7556999 8.773,14.57 L8.773,14.57 L9.985,11.535 C10.0494519,11.3811035 10.1856265,11.2688716 10.349,11.235 Z M17.722,3.441 C17.9206452,3.25418748 18.2303548,3.25418748 18.429,3.441 L18.429,3.441 L20.551,5.563 C20.6450417,5.65680426 20.6978938,5.78417274 20.6978938,5.917 C20.6978938,6.04982726 20.6450417,6.17719574 20.551,6.271 L20.551,6.271 L14.187,12.635 C13.9917501,12.830191 13.6752499,12.830191 13.48,12.635 L13.48,12.635 L11.359,10.514 C11.163809,10.3187501 11.163809,10.0022499 11.359,9.807 L11.359,9.807 Z M20.587,0.578 C21.3783715,-0.177303746 22.6236285,-0.177303746 23.415,0.578 C24.1957639,1.3589997 24.1957639,2.6250003 23.415,3.406 L23.415,3.406 L22.354,4.467 C22.1587501,4.66219097 21.8422499,4.66219097 21.647,4.467 L21.647,4.467 L19.526,2.346 C19.330809,2.15075007 19.330809,1.83424993 19.526,1.639 L19.526,1.639 Z" id="Combined-Shape" fill="#000000"></path>
    </g>
</svg>