<?xml version="1.0" encoding="UTF-8"?>
<svg width="24px" height="24px" viewBox="0 0 24 24" version="1.1" xmlns="http://www.w3.org/2000/svg" xmlns:xlink="http://www.w3.org/1999/xlink">
    <title>icons/actions/link-broken</title>
    <g id="icons/actions/link-broken" stroke="none" stroke-width="1" fill="none" fill-rule="evenodd">
        <g id="link-broken" fill="#000000" fill-rule="nonzero">
            <path d="M5.727,5.283 C6.1210214,5.66478367 6.7469786,5.66478367 7.141,5.283 C7.53138194,4.89250015 7.53138194,4.25949985 7.141,3.869 L5.141,1.869 C4.74862111,1.49002779 4.12491522,1.49544763 3.73918142,1.88118142 C3.35344763,2.26691522 3.34802779,2.89062111 3.727,3.283 L5.727,5.283 Z" id="Path"></path>
            <path d="M9.5,4.5 C10.0522847,4.5 10.5,4.05228475 10.5,3.5 L10.5,1 C10.5,0.44771525 10.0522847,0 9.5,0 C8.94771525,0 8.5,0.44771525 8.5,1 L8.5,3.5 C8.5,4.05228475 8.94771525,4.5 9.5,4.5 Z" id="Path"></path>
            <path d="M2.909,9 L5.409,9 C5.96128475,9 6.409,8.55228475 6.409,8 C6.409,7.44771525 5.96128475,7 5.409,7 L2.909,7 C2.35671525,7 1.909,7.44771525 1.909,8 C1.909,8.55228475 2.35671525,9 2.909,9 Z" id="Path"></path>
            <path d="M10.727,17.869 L7.327,21.269 C6.33576172,22.2080641 4.78323828,22.2080641 3.792,21.269 L2.731,20.209 C1.7604111,19.2301444 1.7604111,17.6518556 2.731,16.673 L6.131,13.273 C6.39095658,13.0219255 6.4952126,12.6501221 6.40369716,12.3004927 C6.31218172,11.9508632 6.03913676,11.6778183 5.68950732,11.5863028 C5.33987789,11.4947874 4.96807447,11.5990434 4.717,11.859 L1.317,15.259 C-0.434883189,17.0186393 -0.434883189,19.8633607 1.317,21.623 L2.378,22.683 C4.13729682,24.4347676 6.98170318,24.4347676 8.741,22.683 L12.141,19.283 C12.4009566,19.0319255 12.5052126,18.6601221 12.4136972,18.3104927 C12.3221817,17.9608632 12.0491368,17.6878183 11.6995073,17.5963028 C11.3498779,17.5047874 10.9780745,17.6090434 10.727,17.869 L10.727,17.869 Z" id="Path"></path>
            <path d="M19.377,7 L14.877,7 C14.3247153,7 13.877,7.44771525 13.877,8 C13.877,8.55228475 14.3247153,9 14.877,9 L19.377,9 C20.7911813,9.03887731 21.9355622,10.1627527 22,11.576 L22,13.576 C21.9183857,14.9668786 20.7456737,16.0407939 19.353,16 L14.877,16 C14.3247153,16 13.877,16.4477153 13.877,17 C13.877,17.5522847 14.3247153,18 14.877,18 L19.353,18 C21.8563565,18.0576151 23.9345356,16.0791636 24,13.576 L24,11.576 C23.9534796,9.04999218 21.9033513,7.02070659 19.377,7 Z" id="Path"></path>
        </g>
    </g>
</svg>