<svg width="57" height="16" viewBox="0 0 57 16" fill="none" xmlns="http://www.w3.org/2000/svg">
<path d="M1.04588 11.7001L0.208617 11.4731C0.0667074 11.4305 -0.0326291 11.2744 0.0099437 11.1325L1.40065 5.89606C1.44323 5.75415 1.59933 5.65481 1.74124 5.69738L2.49336 5.89606C2.63526 5.93863 2.7346 6.09473 2.69203 6.23664L2.01086 8.77681L4.33818 6.06635C4.4517 5.93863 4.63619 5.93863 4.74971 6.05216L5.47345 6.74751C5.5444 6.81847 5.57279 6.9178 5.5444 7.01714L5.11868 8.69167L7.26151 6.08054C7.37503 5.95282 7.55952 5.93863 7.68723 6.05216L8.35421 6.71913C8.43935 6.79008 8.46774 6.88942 8.43935 6.98876C8.31164 7.47125 8.11296 8.20918 7.87172 9.07482C7.744 9.54312 7.78657 9.94047 7.97105 10.1817C8.04201 10.2811 8.18392 10.3662 8.34002 10.4088C8.49612 10.4372 8.83766 10.514 9.15323 10.4088L9.84307 11.4873C8.93307 11.8863 8.15553 11.7285 7.99943 11.7001C7.57371 11.5866 7.20474 11.3596 6.92092 10.9906C6.53777 10.4939 6.39586 9.81275 6.52358 9.07482L4.4517 11.6008C4.38075 11.686 4.26722 11.7285 4.16788 11.7001L3.33062 11.4873C3.18871 11.4447 3.08937 11.2886 3.13195 11.1467L3.71378 8.81939L1.3297 11.6008C1.25875 11.686 1.14522 11.7285 1.04588 11.7001Z" fill="url(#paint0_linear_4326_79068)"/>
<path d="M12.4413 14.1977C12.3136 14.6944 11.973 16 10.5964 16C9.75918 16 9.06383 15.2904 9.06383 14.4674C9.06383 13.1192 10.0572 12.3955 11.2067 11.9272C11.1215 11.9414 11.0506 11.9414 10.9654 11.9414C10.3126 11.9414 9.71661 11.6576 9.34765 11.1609C8.90773 10.5649 8.7942 9.72761 9.03545 8.8052C9.30507 7.78345 9.61727 6.57722 9.74499 6.05216C9.78757 5.91025 9.91528 5.83929 10.0572 5.88186L10.8661 6.08054C11.008 6.12311 11.0931 6.26502 11.0506 6.40693C10.9228 6.9178 10.5964 8.13822 10.341 9.14578C10.2133 9.65665 10.1991 10.0966 10.3978 10.352C10.5681 10.5791 10.8235 10.6216 10.9654 10.6216C11.6466 10.6216 12.1858 9.8979 12.3987 9.20254L13.236 6.09473C13.2785 5.93863 13.4204 5.86767 13.5624 5.91025L14.3429 6.10892C14.4848 6.15149 14.5841 6.19406 14.5841 6.20826C14.4848 6.6056 13.0373 12.0123 12.4413 14.1977ZM11.306 13.3321C10.7384 13.6301 10.3836 14.0842 10.3836 14.4106C10.3836 14.5241 10.4687 14.666 10.639 14.666C10.9086 14.666 11.1357 13.9139 11.306 13.3321Z" fill="url(#paint1_linear_4326_79068)"/>
<path d="M17.5628 3.75321V8.63303L20.0312 5.88031H21.3052L18.9733 8.41691L21.6237 12H20.3611L18.2795 9.17903L17.5628 9.95252V12H16.5277V3.75321H17.5628ZM25.0689 3.60534C26.5477 3.60534 27.8785 4.26508 28.197 5.85756H27.0709C26.7865 4.90207 25.8538 4.58358 25.0234 4.58358C24.3864 4.58358 23.2717 4.86795 23.2717 5.78931C23.2717 6.51731 23.8518 6.8813 24.6139 7.05193L25.5694 7.26805C26.832 7.54105 28.3449 8.01879 28.3449 9.67952C28.3449 11.2948 26.8434 12.1479 25.2054 12.1479C23.2603 12.1479 22.0318 11.09 21.8157 9.44065H22.9532C23.1693 10.5781 23.9656 11.1696 25.2282 11.1696C26.4453 11.1696 27.1505 10.5895 27.1505 9.7819C27.1505 8.91741 26.4112 8.55341 25.3761 8.32591L24.3523 8.10979C23.2262 7.85954 22.0887 7.23392 22.0887 5.85756C22.0887 4.28783 23.7381 3.60534 25.0689 3.60534ZM33.4011 11.1241C33.0485 11.7043 32.4911 12.1479 31.4788 12.1479C30.0569 12.1479 29.5223 11.1924 29.5223 9.79327V5.88031H30.5574V9.48615C30.5574 10.4303 30.7167 11.2493 31.8428 11.2493C32.821 11.2493 33.4011 10.5554 33.4011 9.24728V5.88031H34.4362V12H33.4011V11.1241ZM37.1134 3.75321V5.00445H36.0783V3.75321H37.1134ZM37.1134 5.88031V12H36.0783V5.88031H37.1134ZM39.0512 4.3447H40.0863V5.88031H41.2465V6.71068H40.0863V10.3393C40.0863 10.9763 40.1318 11.1355 40.7233 11.1355H41.2465V12H40.4958C39.3242 12 39.0512 11.7384 39.0512 10.4644V6.71068H38.0843V5.88031H39.0512V4.3447ZM43.0928 9.2814C43.1383 10.6009 44.071 11.2379 44.981 11.2379C45.891 11.2379 46.3915 10.8284 46.6531 10.2255H47.7224C47.438 11.2834 46.4711 12.1479 44.981 12.1479C43.0473 12.1479 41.9781 10.7601 41.9781 8.95153C41.9781 7.0178 43.2748 5.77794 44.9469 5.77794C46.8124 5.77794 47.9385 7.34767 47.802 9.2814H43.0928ZM43.1042 8.39416H46.71C46.6873 7.52967 46.0389 6.66518 44.9469 6.66518C44.0255 6.66518 43.1952 7.16567 43.1042 8.39416Z" fill="#333333"/>
<path d="M56.292 3.62614L55.8364 5.38034H53.8356L53.2611 7.68406H51.4782L52.0527 5.38034H49.9727L50.4085 3.62614H52.4885L53.063 1.36469H54.8657L54.2912 3.62614H56.292Z" fill="url(#paint2_linear_4326_79068)"/>
<defs>
<linearGradient id="paint0_linear_4326_79068" x1="0" y1="10.8437" x2="14.5841" y2="10.8437" gradientUnits="userSpaceOnUse">
<stop stop-color="#1DDDFD"/>
<stop offset="0.25" stop-color="#337CFF"/>
<stop offset="0.5" stop-color="#A055FC"/>
<stop offset="0.755" stop-color="#F34BBB"/>
<stop offset="1" stop-color="#FD8C3D"/>
</linearGradient>
<linearGradient id="paint1_linear_4326_79068" x1="0" y1="10.8437" x2="14.5841" y2="10.8437" gradientUnits="userSpaceOnUse">
<stop stop-color="#1DDDFD"/>
<stop offset="0.25" stop-color="#337CFF"/>
<stop offset="0.5" stop-color="#A055FC"/>
<stop offset="0.755" stop-color="#F34BBB"/>
<stop offset="1" stop-color="#FD8C3D"/>
</linearGradient>
<linearGradient id="paint2_linear_4326_79068" x1="49.9727" y1="4.52437" x2="55.1888" y2="3.10962" gradientUnits="userSpaceOnUse">
<stop stop-color="#1DDDFD"/>
<stop offset="0.25" stop-color="#337CFF"/>
<stop offset="0.5" stop-color="#A055FC"/>
<stop offset="0.755" stop-color="#F34BBB"/>
<stop offset="1" stop-color="#FD8C3D"/>
</linearGradient>
</defs>
</svg>