<svg xmlns:xlink="http://www.w3.org/1999/xlink" width="24" height="24" xmlns="http://www.w3.org/2000/svg">
    <defs>
        <path d="M1.941 16.673c.17397308-.0491877.36094831-.0006277.489.127l4.766 4.776c.12810908.1279799.17700974.3152242.12783833.4895026S7.13510914 22.3738531 6.959 22.416l-6.272 1.5c-.168931733.0392878-.346224261-.010505-.47-.132-.1230483737-.1228788-.1734146055-.3008647-.133-.47l1.506-6.277c.04250256-.1759146.17674671-.3151307.351-.364zM14.713 3.838l.0788951.0064375c.1036971.01680672.2002069.06600442.2751049.1415625l4.942 4.956c.1945254.19513488.1945254.51086512 0 .706L9.092 20.565c-.19524993.195191-.51175007.195191-.707 0l-4.948-4.948c-.19519097-.1952499-.19519097-.5117501 0-.707L14.359 3.985c.0937868-.09408066.2211575-.147.354-.147zM17.545.8c.9759051-.973957145 2.5560949-.973957145 3.532 0L23.2 2.924c.9726272.97567438.9726272 2.55432562 0 3.53l-1.416 1.419c-.1952499.19519097-.5117501.19519097-.707 0l-4.95-4.949c-.195191-.19524993-.195191-.51175007 0-.707z" id="a"/>
    </defs>
    <use fill="#000" xlink:href="#a" fill-rule="evenodd"/>
</svg>
