<svg width="24" height="24" viewBox="0 0 24 24" fill="none" xmlns="http://www.w3.org/2000/svg">
<path fill-rule="evenodd" clip-rule="evenodd" d="M2 18.535C2.79313 17.4006 3.71651 16.183 4.4992 15.1779C5.00893 14.5233 5.46349 13.9531 5.79074 13.5465C5.95442 13.343 6.08638 13.1804 6.17763 13.0683L6.28288 12.9393L6.28995 12.9307C6.5942 12.4966 7.09191 12.2407 7.61953 12.2407C8.1156 12.2407 8.58523 12.4669 8.89249 12.8547L10.2368 14.0619L12.8083 10.004C13.1075 9.53202 13.6272 9.2514 14.1797 9.2514C14.7207 9.2514 15.2302 9.52044 15.532 9.9747L21.8239 18.763L22 19.0294V3.20001H2V18.535ZM1.99976 1.20001C0.895323 1.20001 0 2.09534 0 3.19977V20.8003C0 21.9047 0.895323 22.8 1.99976 22.8H22.0002C23.1047 22.8 24 21.9047 24 20.8003V3.19977C24 2.09533 23.1047 1.20001 22.0002 1.20001H1.99976ZM10.7524 7.68001C10.7524 9.10017 9.58447 10.2514 8.14373 10.2514C6.70299 10.2514 5.53503 9.10017 5.53503 7.68001C5.53503 6.25985 6.70299 5.10858 8.14373 5.10858C9.58447 5.10858 10.7524 6.25985 10.7524 7.68001ZM11.4807 15.8353L14.1981 11.5472L20.1759 19.8968L20.6406 20.6H3.01571C3.86514 19.3011 5.0709 17.6989 6.07718 16.4067C6.57897 15.7623 7.02673 15.2007 7.34893 14.8003C7.46774 14.6526 7.56939 14.527 7.65031 14.4273L9.37926 15.9799C9.62825 16.2702 9.99293 16.4375 10.3761 16.4375C10.8191 16.4375 11.2373 16.214 11.4807 15.8353Z" fill="black"/>
</svg>
