<?xml version="1.0" encoding="UTF-8"?>
<svg width="35px" height="35px" viewBox="0 0 35 35" version="1.1" xmlns="http://www.w3.org/2000/svg" xmlns:xlink="http://www.w3.org/1999/xlink">
    <title>circle-tag</title>
    <defs>
        <circle id="path-1" cx="17.5" cy="17.5" r="17.5"></circle>
    </defs>
    <g id="export" stroke="none" stroke-width="1" fill="none" fill-rule="evenodd">
        <g id="circle-tag">
            <mask id="mask-2" fill="white">
                <use xlink:href="#path-1"></use>
            </mask>
            <use id="Mask" fill="#0098FF" xlink:href="#path-1"></use>
            <path d="M17.9729482,9.79540813 C18.2289907,9.56584507 18.5185837,9.38162117 18.841736,9.24273091 C19.1648882,9.10384065 19.5094,9.02841398 19.8752818,9.01644864 L24.9427695,9 C25.3696364,9 25.7355678,9.151345 26.0405747,9.45361464 C26.3455817,9.75588429 26.4981564,10.1245749 26.4983034,10.5596975 L26.5,15.5817124 C26.4879263,15.9443106 26.4148646,16.2827099 26.2808126,16.5969206 C26.1467606,16.9111313 25.9639143,17.1890614 25.7322683,17.4307193 L25.7231273,17.4488463 C25.7170333,17.460931 25.7078883,17.4669713 25.6956921,17.4669672 L16.6797193,26.5471137 C16.5456102,26.69211 16.3810018,26.803856 16.1858892,26.8823551 C15.9907766,26.9608542 15.7895557,27 15.5822203,27 C15.3626888,27 15.1583924,26.960578 14.9693248,26.8819514 C14.7802572,26.8033249 14.6125243,26.6914686 14.4661209,26.5463792 L8.95772264,21.0874168 C8.81131929,20.9423273 8.69845003,20.7760997 8.61911147,20.588729 C8.53977291,20.4013582 8.5,20.2049385 8.5,19.9994639 C8.5,19.7819026 8.53949627,19.5824876 8.61871029,19.4012128 C8.69792431,19.219938 8.8045843,19.0568049 8.93869344,18.9118085 L17.9729482,9.79540813 Z M21.815637,12.4799254 C21.4985359,12.4798203 21.2241645,12.5945515 20.9925143,12.8241227 C20.7608642,13.0536938 20.645094,13.3256029 20.6452,13.6398581 C20.6453104,13.9662001 20.7612654,14.2412077 20.9930686,14.4648893 C21.2248719,14.6885708 21.4993199,14.8004625 21.816421,14.8005678 C22.1457183,14.800677 22.4231398,14.6889684 22.6486939,14.4654386 C22.874248,14.2419088 22.9869682,13.966977 22.986858,13.6406351 C22.9867518,13.3263799 22.8738468,13.0543949 22.6481396,12.824672 C22.4224324,12.5949491 22.1449343,12.4800347 21.815637,12.4799254 Z" id="Shape" fill="#FFFFFF" mask="url(#mask-2)"></path>
        </g>
    </g>
</svg>