<?xml version="1.0" encoding="UTF-8"?>
<svg width="24px" height="24px" viewBox="0 0 24 24" version="1.1" xmlns="http://www.w3.org/2000/svg" xmlns:xlink="http://www.w3.org/1999/xlink">
    <title>icons/actions/open-with</title>
    <g id="icons/actions/open-with" stroke="none" stroke-width="1" fill="none" fill-rule="evenodd">
        <path d="M13,0 C13.5522847,0 14,0.44771525 14,1 C14,1.51283584 13.6139598,1.93550716 13.1166211,1.99327227 L13,2 L2.116,2 L2.116,22 L22,22 L22,11 C22,10.4871642 22.3860402,10.0644928 22.8833789,10.0067277 L23,10 C23.5128358,10 23.9355072,10.3860402 23.9932723,10.8833789 L24,11 L24,23 C24,23.5128358 23.6139598,23.9355072 23.1166211,23.9932723 L23,24 L1.11655201,24 C0.603716172,24 0.181044851,23.6139598 0.123279743,23.1166211 L0.116552011,23 L0.116552011,1 C0.116552011,0.487164161 0.502592201,0.0644928393 0.999930886,0.00672773133 L1.11655201,0 L13,0 Z M21.6529305,1.00083226 C21.9063631,0.989967909 22.1527363,1.0858685 22.3321048,1.26520049 C22.5114734,1.44453247 22.6073936,1.6908553 22.596527,1.94423622 L22.596527,1.94423622 L22.3877234,7.56364237 C22.3788599,7.81061762 22.224315,8.02881139 21.9942459,8.11917248 C21.7641769,8.20953357 21.502413,8.15484769 21.3277847,7.97994003 L21.3277847,7.97994003 L19.8998372,6.55105954 C19.8707792,6.52197434 19.8313482,6.50563166 19.7902306,6.50563166 C19.7491129,6.50563166 19.709682,6.52197434 19.680624,6.55105954 L19.680624,6.55105954 L12.7277782,13.5317768 L12.7277782,13.5317768 C12.3355704,13.9237949 11.7024055,13.9236389 11.3119774,13.5330185 L11.3119774,13.5330185 L10.0903609,12.3108 C9.70056395,11.9208109 9.6999972,11.2888923 10.089094,10.8982047 L10.089094,10.8982047 L17.0451669,3.91369145 C17.0745624,3.88480199 17.0911193,3.84531817 17.0911193,3.80410722 C17.0911193,3.76289626 17.0745624,3.72341244 17.0451669,3.69452298 L17.0451669,3.69452298 L15.6159948,2.26992791 C15.4409233,2.0951744 15.3863181,1.83318764 15.4770027,1.60306598 C15.5676873,1.37294433 15.7863557,1.21860317 16.033602,1.2102055 L16.033602,1.2102055 Z" id="Combined-Shape" fill="#000000" fill-rule="nonzero"></path>
    </g>
</svg>