<svg width="24" height="24" viewBox="0 0 24 24" fill="none" xmlns="http://www.w3.org/2000/svg">
<path fill-rule="evenodd" clip-rule="evenodd" d="M10.5574 0.138298C12.214 -0.182112 13.9301 0.05836 15.4348 0.821746C16.7937 1.51117 17.9103 2.59161 18.6443 3.91855C19.2341 3.94842 19.8165 4.07076 20.3701 4.28202C21.0795 4.55271 21.7271 4.96382 22.2738 5.4907C22.8206 6.01759 23.2553 6.64942 23.5521 7.34834C23.8486 8.04726 24.0012 8.79889 24.0006 9.55818C24.0003 12.0233 22.7611 13.4614 21.5214 14.2498C21.0045 14.5787 20.4918 14.7933 20.0754 14.9318L21.6244 17.8366C21.6601 17.9036 21.685 17.9734 21.6994 18.0442C21.9511 18.4751 22.0817 18.9758 22.0817 19.4814V21.3579C22.0817 22.0252 21.8539 22.6839 21.421 23.1851C20.9852 23.6899 20.3678 24.0001 19.6958 24.0001H4.30488C3.63274 24.0001 3.01539 23.6899 2.57955 23.1851C2.14675 22.6839 1.91882 22.0252 1.91882 21.3579V19.4814C1.91882 18.9756 2.04972 18.4748 2.30151 18.0439C2.31595 17.9733 2.34068 17.9034 2.37633 17.8366L3.81168 15.1451C3.41066 15.0853 2.86419 14.9602 2.3079 14.6933C1.74726 14.4245 1.16148 14.0039 0.717635 13.3501C0.270416 12.6914 1.07349e-05 11.8439 1.15004e-08 10.7787C-4.74777e-05 10.1196 0.146981 9.46878 0.430362 8.87375C0.71376 8.27871 1.12636 7.7544 1.63811 7.33909C2.14986 6.92376 2.74786 6.62785 3.38847 6.47298C3.75612 6.38409 4.13248 6.34295 4.50838 6.34966C4.73898 4.96103 5.3522 3.65811 6.28648 2.59116C7.39805 1.32175 8.90075 0.458714 10.5574 0.138298ZM4.64441 16.8392H19.3565L17.0675 12.5469C16.9543 12.3346 16.8377 12.2032 16.7439 12.1312C16.6549 12.0629 16.5996 12.0564 16.5768 12.0564H7.42637V12.0598L7.42303 12.0564C7.39966 12.0566 7.34462 12.0638 7.25685 12.1312C7.16308 12.2032 7.0466 12.3346 6.93342 12.5468L4.64441 16.8392ZM7.43233 10.5245L7.43235 10.5219L7.42495 10.5245C7.01372 10.5245 6.63827 10.6757 6.32706 10.9137L6.30137 10.9228L6.30741 10.9289C6.00795 11.1635 5.76739 11.4778 5.58169 11.826L4.59588 13.6745C4.56474 13.6712 4.53304 13.6697 4.5009 13.6702L4.48267 13.6701C4.46421 13.6698 4.43363 13.669 4.39269 13.6667C4.31053 13.6623 4.18825 13.6523 4.03957 13.6303C3.73839 13.5855 3.34947 13.4939 2.97042 13.3121C2.59445 13.1318 2.24363 12.8705 1.98503 12.4896C1.7298 12.1137 1.53191 11.5738 1.53191 10.7785C1.53186 10.3474 1.62805 9.92169 1.81343 9.53244C1.9988 9.1432 2.26871 8.80024 2.60348 8.52855C2.93823 8.25685 3.3294 8.06331 3.74846 7.96199C4.16753 7.86069 4.60391 7.85416 5.02581 7.94292C5.24398 7.98882 5.47134 7.93737 5.6485 7.80203C5.82567 7.66667 5.93506 7.46084 5.94814 7.23827C6.0271 5.89368 6.55165 4.61368 7.43898 3.60037C8.32629 2.58704 9.52586 1.89811 10.8483 1.64234C12.1707 1.38658 13.5406 1.57852 14.7417 2.18792C15.9429 2.7973 16.9069 3.78939 17.4816 5.00757C17.6125 5.28519 17.8965 5.45781 18.2032 5.44618C18.7559 5.42524 19.3073 5.51608 19.824 5.71327C20.3409 5.91046 20.8125 6.20993 21.2108 6.59375C21.609 6.97757 21.9258 7.43785 22.1419 7.94698C22.3581 8.45613 22.4691 9.00435 22.4687 9.55748C22.4687 11.404 21.5837 12.3947 20.6993 12.9572C20.2436 13.247 19.7822 13.4244 19.4314 13.5288C19.4003 13.5381 19.3701 13.5467 19.341 13.5548L18.4191 11.8259C18.23 11.4714 17.9842 11.1521 17.677 10.9163C17.3653 10.6768 16.9895 10.5245 16.5768 10.5245H7.43233ZM4.5009 13.6702L4.50355 13.8477L4.50282 13.849C4.50017 13.6702 4.5007 13.6702 4.5009 13.6702ZM3.73904 18.6553C3.91086 18.4563 4.11768 18.3711 4.30488 18.3711H19.6958C19.883 18.3711 20.0898 18.4563 20.2615 18.6553C20.4365 18.8578 20.5498 19.1536 20.5498 19.4814V21.3579C20.5498 21.6857 20.4365 21.9815 20.2615 22.184C20.0898 22.3829 19.883 22.4682 19.6958 22.4682H4.30488C4.11768 22.4682 3.91086 22.3829 3.73904 22.184C3.56418 21.9815 3.45073 21.6857 3.45073 21.3579V19.4814C3.45073 19.1536 3.56418 18.8578 3.73904 18.6553ZM14.7388 20.4308C14.7388 20.0077 15.0817 19.6648 15.5048 19.6648H18.0453C18.4684 19.6648 18.8113 20.0077 18.8113 20.4308C18.8113 20.8537 18.4684 21.1967 18.0453 21.1967H15.5048C15.0817 21.1967 14.7388 20.8537 14.7388 20.4308ZM6.12742 19.4511C5.93605 19.4511 5.74896 19.5078 5.58978 19.614C5.4306 19.7203 5.30647 19.8713 5.23306 20.0479C5.15965 20.2247 5.14024 20.4193 5.1773 20.6071C5.21436 20.7948 5.30621 20.9674 5.44126 21.103C5.57632 21.2385 5.74852 21.3311 5.93613 21.3689C6.12373 21.4068 6.31834 21.3881 6.49537 21.3154C6.6724 21.2427 6.82392 21.1192 6.9308 20.9604C7.03768 20.8016 7.09514 20.6148 7.09589 20.4234V20.4204C7.09589 20.1635 6.99387 19.9171 6.81225 19.7356C6.64945 19.5727 6.43468 19.4739 6.20694 19.4551C6.18081 19.4525 6.15428 19.4511 6.12742 19.4511ZM8.42527 19.614C8.58445 19.5078 8.77154 19.4511 8.96293 19.4511C8.98978 19.4511 9.0163 19.4525 9.04245 19.4551C9.27018 19.4739 9.48495 19.5727 9.64773 19.7356C9.82936 19.9171 9.9314 20.1635 9.9314 20.4204V20.4234C9.93063 20.6148 9.87317 20.8016 9.76629 20.9604C9.65941 21.1192 9.5079 21.2427 9.33086 21.3154C9.15383 21.3881 8.95923 21.4068 8.77162 21.3689C8.58401 21.3311 8.41181 21.2385 8.27675 21.103C8.1417 20.9674 8.04985 20.7948 8.01279 20.6071C7.97573 20.4193 7.99514 20.2247 8.06855 20.0479C8.14196 19.8713 8.2661 19.7203 8.42527 19.614Z" fill="#666666"/>
</svg>
